<?xml version="1.0" encoding="UTF-8" standalone="no"?>
<svg
   xmlns:dc="http://purl.org/dc/elements/1.1/"
   xmlns:cc="http://creativecommons.org/ns#"
   xmlns:rdf="http://www.w3.org/1999/02/22-rdf-syntax-ns#"
   xmlns:svg="http://www.w3.org/2000/svg"
   xmlns="http://www.w3.org/2000/svg"
   xmlns:sodipodi="http://sodipodi.sourceforge.net/DTD/sodipodi-0.dtd"
   xmlns:inkscape="http://www.inkscape.org/namespaces/inkscape"
   width="11.3333in"
   height="8.5in"
   viewBox="0 0 816 612"
   id="svg3024"
   version="1.1"
   inkscape:version="0.48.3.1 r9886"
   sodipodi:docname="plug.svg">
  <metadata
     id="metadata3061">
    <rdf:RDF>
      <cc:Work
         rdf:about="">
        <dc:format>image/svg+xml</dc:format>
        <dc:type
           rdf:resource="http://purl.org/dc/dcmitype/StillImage" />
      </cc:Work>
    </rdf:RDF>
  </metadata>
  <defs
     id="defs3059" />
  <sodipodi:namedview
     pagecolor="#ffffff"
     bordercolor="#666666"
     borderopacity="1"
     objecttolerance="10"
     gridtolerance="10"
     guidetolerance="10"
     inkscape:pageopacity="0"
     inkscape:pageshadow="2"
     inkscape:window-width="1366"
     inkscape:window-height="706"
     id="namedview3057"
     showgrid="false"
     inkscape:zoom="0.97423601"
     inkscape:cx="317.23247"
     inkscape:cy="471.93111"
     inkscape:window-x="-8"
     inkscape:window-y="-8"
     inkscape:window-maximized="1"
     inkscape:current-layer="svg3024" />
  <path
     id="Unnamed #30"
     d="m 674.28311,395.32999 c 0,0 -72.24686,0.34 -72.24686,0.34 0,0 -41.72128,1 -41.72128,1 0,0 -62.93947,1.33 -62.93947,1.33 0,0 -21.97798,1.67 -21.97798,1.67 0,0 -14.52534,1 -14.52534,1"
     inkscape:connector-curvature="0"
     style="fill:none;stroke:#000000;stroke-width:1.05704057" />
  <path
     id="Unnamed #29"
     d="m 672.04844,389.66999 c 0,0 11.17335,-9.67 11.17335,-9.67 0,0 11.55324,-11.67 11.55324,-11.67"
     inkscape:connector-curvature="0"
     style="fill:none;stroke:#000000;stroke-width:1.05704057" />
  <path
     id="Unnamed #28"
     d="m 666.46176,347.66999 c 0,0 28.31327,19.33 28.31327,19.33"
     inkscape:connector-curvature="0"
     style="fill:none;stroke:#000000;stroke-width:1.05704057" />
  <path
     id="Unnamed #27"
     d="m 673.16578,392.32999 c 0,0 -26.43615,-21 -26.43615,-21"
     inkscape:connector-curvature="0"
     style="fill:none;stroke:#000000;stroke-width:1.05704057" />
  <path
     id="Unnamed #26"
     d="m 665.34444,346.99999 c 0,0 -18.99469,22.67 -18.99469,22.67"
     inkscape:connector-curvature="0"
     style="fill:none;stroke:#000000;stroke-width:1.05704057" />
  <path
     id="Unnamed #25"
     d="m 448.12951,379.32999 c 0,0 25.15222,-2.33 25.15222,-2.33 0,0 45.26106,-2.33 45.26106,-2.33 0,0 53.16018,-1 53.16018,-1 0,0 38.07316,-2.34 38.07316,-2.34 0,0 38.43956,-2.66 38.43956,-2.66"
     inkscape:connector-curvature="0"
     style="fill:none;stroke:#000000;stroke-width:1.03809631" />
  <path
     id="Unnamed #24"
     d="m 449.82511,379.50892 c 0,0 6.09788,9.27723 6.09788,9.27723 0,0 4.94919,11.21384 4.94919,11.21384"
     inkscape:connector-curvature="0"
     style="fill:none;stroke:#000000;stroke-width:0.81408858" />
  <path
     id="Unnamed #23"
     d="m 464.97279,354.32999 c 0,0 12.29069,-2 12.29069,-2 0,0 27.18474,-1.33 27.18474,-1.33 0,0 37.62068,-0.67 37.62068,-0.67 0,0 57.35278,-1.66 57.35278,-1.66 0,0 54.38069,-1.34 54.38069,-1.34 0,0 12.29067,-0.66 12.29067,-0.33"
     inkscape:connector-curvature="0"
     style="fill:none;stroke:#000000;stroke-width:1.05704057" />
  <path
     id="Unnamed #22"
     d="m 448.23173,379.66999 c 0,0 15.25502,-25.34 15.25502,-25.34"
     inkscape:connector-curvature="0"
     style="fill:none;stroke:#000000;stroke-width:0.85230803" />
  <path
     id="Unnamed #21"
     d="m 550.79575,234.49116 c 0,0 18.74455,19 18.74455,19"
     inkscape:connector-curvature="0"
     style="fill:none;stroke:#000000;stroke-width:0.99325508" />
  <path
     id="Unnamed #20"
     d="m 569.5403,253.82116 c 0,0 -14.47277,16 -14.47277,16"
     inkscape:connector-curvature="0"
     style="fill:none;stroke:#000000;stroke-width:0.99325508" />
  <path
     id="Unnamed #19"
     d="m 555.28067,232.82116 c 0,0 -13.04814,17.67 -13.04814,17.67"
     inkscape:connector-curvature="0"
     style="fill:none;stroke:#000000;stroke-width:1.00185001" />
  <path
     id="Unnamed #18"
     d="m 538.95709,252.15116 c 0,0 16.77144,17.67 16.77144,17.67"
     inkscape:connector-curvature="0"
     style="fill:none;stroke:#000000;stroke-width:0.99325508" />
  <path
     id="Unnamed #17"
     d="m 346.57876,286.15116 c 0,0 24.32846,-1.66 24.32846,-1.66 0,0 33.54289,-3.67 33.54289,-3.67 0,0 32.23075,-1.67 32.23075,-1.67 0,0 30.25767,-1.33 30.25767,-1.33 0,0 46.03268,-3 46.03268,-3 0,0 34.52945,-2.67 34.52945,-2.67 0,0 8.87899,-2 8.87899,-2"
     inkscape:connector-curvature="0"
     style="fill:none;stroke:#000000;stroke-width:0.99325508" />
  <path
     id="Unnamed #16"
     d="m 340.15696,244.82116 c 0,0 95.02058,-8 95.02058,-8 0,0 35.46083,-2.67 35.46083,-2.67 0,0 32.44973,-1 32.44973,-1 0,0 34.46717,-0.33 34.46717,-0.33 0,0 17.39418,-0.33 17.39418,-0.33"
     inkscape:connector-curvature="0"
     style="fill:none;stroke:#000000;stroke-width:1.00185001" />
  <path
     id="Unnamed #15"
     d="m 328.46533,266.34599 c 0,0 10.8721,-20.85483 10.8721,-20.85483"
     inkscape:connector-curvature="0"
     style="fill:none;stroke:#000000;stroke-width:0.79730064" />
  <path
     id="Unnamed #14"
     d="m 328.70217,268.35779 c 0,0 2.86607,6.62011 2.86607,6.62011 0,0 6.00624,6.22314 6.00624,6.22314 0,0 9.6554,6.62012 9.6554,6.62012"
     inkscape:connector-curvature="0"
     style="fill:none;stroke:#000000;stroke-width:0.9561913" />
  <path
     id="Unnamed #13"
     d="m 328.33899,268.24386 c 0,0 24.33775,-2.74655 24.33775,-2.74655 0,0 60.68869,-6.40862 60.68869,-6.40862 0,0 48.0233,-3.96419 48.0233,-3.96419 0,0 39.5927,-2.14231 39.5927,-2.14231 0,0 37.31467,-1.83103 37.31467,-1.83103"
     inkscape:connector-curvature="0"
     style="fill:none;stroke:#000000;stroke-width:0.94406873" />
  <path
     id="Unnamed #12"
     d="m 481.42822,141.07811 c 0,0 33.33,-5.33 33.33,-5.33 0,0 44.67,-5 44.67,-5 0,0 46.67,-3.67 46.67,-3.67 0,0 33.33,-1.66 33.33,-1.66 0,0 21.33,-2 21.33,-2 0,0 29.67,1.66 29.67,1.66"
     inkscape:connector-curvature="0"
     style="fill:none;stroke:#000000;stroke-width:1" />
  <path
     id="Unnamed #11"
     d="m 710.71285,167.79348 c 0,0 7.33,-23.33 7.33,-23.33"
     inkscape:connector-curvature="0"
     style="fill:none;stroke:#000000;stroke-width:1" />
  <path
     id="Unnamed #10"
     d="m 694.71285,124.79348 c 0,0 23,19.67 23,19.67"
     inkscape:connector-curvature="0"
     style="fill:none;stroke:#000000;stroke-width:1" />
  <path
     id="Unnamed #9"
     d="m 680.38285,146.46348 c 0,0 13.66,-22.33 13.66,-22.33"
     inkscape:connector-curvature="0"
     style="fill:none;stroke:#000000;stroke-width:1" />
  <path
     id="Unnamed #8"
     d="m 680.38285,147.79348 c 0,0 29.66,19.67 29.66,19.67"
     inkscape:connector-curvature="0"
     style="fill:none;stroke:#000000;stroke-width:1" />
  <path
     id="Unnamed #7"
     d="m 482.38285,188.13348 c 0,0 39.66,-5.67 39.66,-5.67 0,0 36.67,-2.67 36.67,-2.67 0,0 33,-3.33 33,-3.33 0,0 45.67,-3 45.67,-3 0,0 22.66,-1.67 22.66,-1.67 0,0 32.67,-1.66 32.67,-1.66 0,0 17.33,-1.67 17.33,-1.67"
     inkscape:connector-curvature="0"
     style="fill:none;stroke:#000000;stroke-width:1" />
  <path
     id="Unnamed #6"
     d="m 470.3098,162.90174 10.07058,-1.43826 6.33247,-0.67 18.67,-2.33 18.33,-1 23.33,-2.33 46.34,-3.34 c 0,0 41.66,-3.33 41.66,-3 0,0.34 24,-1.33 24,-1.33 l 20.67,-0.33"
     inkscape:connector-curvature="0"
     style="fill:none;stroke:#000000;stroke-width:1"
     sodipodi:nodetypes="cccccccscc" />
  <path
     id="Unnamed #5"
     d="m 482.38285,187.79348 c 0,0 -3.4309,-9.55727 -3.4309,-9.55727 0,0 -2.74472,-5.73665 -2.74472,-5.73665 0,0 -4.11709,-6.11527 -4.11709,-6.11527 0,0 -2.97802,-3.442 -2.97802,-3.442"
     inkscape:connector-curvature="0"
     style="fill:none;stroke:#000000;stroke-width:0.88728571" />
  <path
     id="Unnamed #4"
     d="m 483.71285,138.79348 -4.09826,7.16116 -5.43826,10.07058 -4.30479,8.17884"
     inkscape:connector-curvature="0"
     style="fill:none;stroke:#000000;stroke-width:1"
     sodipodi:nodetypes="cccc" />
  <path
     id="Unnamed #3"
     d="m 386.06189,81 c 0,0 -7.97444,0.67 -7.97444,0.67 0,0 -5.98682,1.33 -5.98682,1.33 0,0 -5.59166,8 -5.59166,8 0,0 -9.57891,14 -9.57891,14 0,0 -7.5793,15.33 -7.5793,15.33 0,0 -7.18416,14.67 -7.18416,14.67 0,0 -8.78864,22.67 -8.78864,22.67 0,0 -4.78945,17.66 -4.78945,17.66 0,0 -4.78944,19 -4.78944,19 0,0 -1.19736,21.67 -1.19736,21.67 0,0 -3.18499,21.33 -3.18499,21.33 0,0 0,30 0,30 0,0 0.79026,34.34 0.79026,34.34 0,0 2.39473,39.33 2.39473,39.33 0,0 1.60447,43.33 1.60447,43.33 0,0 0.79025,20.34 0.79025,20.34 0,0 4.39431,10.33 4.39431,10.33 0,0 4.78945,11 4.78945,11 0,0 5.98681,9 5.98681,9 0,0 6.38194,8.33 6.38194,8.33 0,0 8.38153,8.34 8.38153,8.34 0,0 9.18377,7.33 9.18377,7.33 0,0 7.57931,4 7.57931,4 0,0 6.3939,3.33 6.3939,3.33 0,0 10.36915,2 10.36915,2 0,0 9.98599,-0.33 9.98599,-0.33 0,0 9.57889,-1.67 9.57889,-1.67 0,0 7.97443,-5 7.97443,-5 0,0 9.57891,-6 9.57891,-6 0,0 13.17096,-11 13.17096,-11 0,0 13.5781,-15 13.5781,-15 0,0 13.56611,-18.33 13.56611,-18.33 0,0 13.17098,-22 13.17098,-22 0,0 10.77624,-19.67 10.77624,-19.67 0,0 7.9864,-19 7.9864,-19 0,0 9.17181,-20.66 9.17181,-20.66 0,0 6.3939,-16.34 6.3939,-16.34 0,0 3.18498,-12.33 3.18498,-12.33 0,0 1.99959,-16 1.99959,-16 0,0 1.19737,-17 1.19737,-17 0,0 1.9996,-23.67 1.9996,-23.67 0,0 -0.40712,-20.33 -0.40712,-20.33 0,0 -1.59248,-17.33 -1.59248,-17.33 0,0 -2.78986,-12.67 -2.78986,-12.67 0,0 -2.39471,-10 -2.39471,-10 0,0 -4.78946,-16.33 -4.78946,-16.33 0,0 -3.59208,-10.34 -3.59208,-10.34 0,0 -6.3939,-11.33 -6.3939,-11.33 0,0 -5.98681,-9.33 -5.98681,-9.33 0,0 -7.97444,-11.67 -7.97444,-11.67 0,0 -7.59127,-10 -7.59127,-10 0,0 -9.5789,-9.33 -9.5789,-9.33 0,0 -9.17178,-7.34 -9.17178,-7.34 0,0 -13.5781,-7.33 -13.5781,-7.33 0,0 -13.56609,-6 -13.56609,-6 0,0 -7.18417,-3 -7.18417,-3 0,0 -8.38152,-1 -8.38152,-1 0,0 -11.1714,-1 -11.1714,-1 0,0 -12.38071,0.33 -12.38071,0.33 0,0 -7.57931,1.34 -7.57931,1.34"
     inkscape:connector-curvature="0"
     style="fill:none;stroke:#000000;stroke-width:1.09424019" />
  <path
     id="Unnamed #2"
     fill="none"
     stroke="black"
     stroke-width="1"
     d="M 48.33,287.67            C 48.33,287.67 56.00,285.33 56.00,285.33              56.00,285.33 66.00,283.33 66.00,283.33              66.00,283.33 78.33,279.33 78.33,279.33              78.33,279.33 89.00,275.67 89.00,275.67              89.00,275.67 97.00,272.00 97.00,272.00              97.00,272.00 107.67,266.33 107.67,266.33              107.67,266.33 120.33,259.67 120.33,259.67              120.33,259.67 133.00,250.33 133.00,250.33              133.00,250.33 144.00,242.00 144.00,242.00              144.00,242.00 151.67,234.67 151.67,234.67              151.67,234.67 163.00,223.67 163.00,223.67              163.00,223.67 173.00,210.67 173.00,210.67              173.00,210.67 181.33,197.00 181.33,197.00              181.33,197.00 188.33,184.33 188.33,184.33              188.33,184.33 196.33,168.00 196.33,168.00              196.33,168.00 202.67,155.00 202.67,155.00              202.67,155.00 210.00,141.33 210.00,141.33              210.00,141.33 220.00,127.00 220.00,127.00              220.00,127.00 228.33,117.33 228.33,117.33              228.33,117.33 240.33,107.33 240.33,107.33              240.33,107.33 253.33,101.67 253.33,101.67              253.33,101.67 264.67,96.33 264.67,96.33              264.67,96.33 275.00,93.33 275.00,93.33              275.00,93.33 287.33,91.33 287.33,91.33              287.33,91.33 305.67,86.67 305.67,86.67              305.67,86.67 319.00,85.33 319.00,85.33              319.00,85.33 334.00,83.33 334.00,83.33              334.00,83.33 348.00,82.67 348.00,82.67              348.00,82.67 368.33,83.33 368.33,83.33" />
  <path
     id="Unnamed #1"
     fill="none"
     stroke="black"
     stroke-width="1"
     d="M 48.33,360.33            C 48.33,360.33 56.67,360.33 56.67,360.33              56.67,360.33 80.00,361.00 80.00,361.00              80.00,361.00 96.33,361.33 96.33,361.33              96.33,361.33 109.00,364.67 109.00,364.67              109.00,364.67 118.67,367.33 118.67,367.33              118.67,367.33 134.33,373.67 134.33,373.67              134.33,373.67 144.33,380.33 144.33,380.33              144.33,380.33 156.33,389.00 156.33,389.33              156.33,389.67 168.00,400.67 168.00,400.67              168.00,400.67 181.33,419.00 181.33,419.00              181.33,419.00 192.67,437.33 192.67,437.33              192.67,437.33 200.67,446.67 200.67,446.67              200.67,446.67 211.67,454.33 211.67,454.33              211.67,454.33 222.00,460.67 222.00,460.67              222.00,460.67 237.00,464.67 237.00,464.67              237.00,464.67 252.33,468.33 252.33,468.33              252.33,468.33 269.33,472.00 269.33,472.00              269.33,472.00 286.67,472.67 286.67,472.67              286.67,472.67 303.00,472.67 303.00,472.67              303.00,472.67 322.00,471.33 322.00,471.33              322.00,471.33 335.33,469.33 335.33,469.33              335.33,469.33 348.33,467.00 348.33,467.00              348.33,467.00 360.33,465.67 360.33,465.67              360.33,465.67 370.67,465.33 370.67,465.33" />
  <path
     id="Unnamed"
     fill="none"
     stroke="black"
     stroke-width="1"
     d="M 48.33,286.67            C 48.33,286.67 44.33,294.67 44.33,294.67              44.33,294.67 40.67,304.33 40.67,304.33              40.67,304.33 39.33,315.00 39.33,315.00              39.33,315.00 39.00,326.00 39.00,326.00              39.00,326.00 40.33,335.33 40.33,335.33              40.33,335.33 43.00,344.00 43.00,344.00              43.00,344.00 46.00,353.00 46.00,353.00              46.00,353.00 48.33,359.00 48.33,359.00" />
</svg>
