<?xml version="1.0" encoding="UTF-8" standalone="no"?>
<!DOCTYPE svg PUBLIC "-//W3C//DTD SVG 20010904//EN"
              "http://www.w3.org/TR/2001/REC-SVG-20010904/DTD/svg10.dtd">

<svg xmlns="http://www.w3.org/2000/svg"
     width="7.25in" height="2.77778in"
     viewBox="0 0 522 200">
  <path id="New Path#7"
        fill="none" stroke="black" stroke-width="1"
        d="" />
  <path id="New Path#8"
        fill="none" stroke="black" stroke-width="1"
        d="" />
  <path id="New Path#9"
        fill="none" stroke="black" stroke-width="1"
        d="M 186.00,105.00
           C 186.00,105.00 199.00,106.00 199.00,106.00
             199.00,106.00 211.00,106.00 211.00,106.00
             211.00,106.00 234.00,106.00 234.00,106.00
             234.00,106.00 258.00,108.00 258.00,108.00
             258.00,108.00 278.00,106.00 278.00,106.00
             278.00,106.00 296.00,108.00 296.00,108.00
             296.00,108.00 314.00,109.00 314.00,109.00
             314.00,109.00 326.00,110.00 326.00,110.00
             326.00,110.00 341.00,110.00 341.00,110.00" />
  <path id="New Path#6"
        fill="none" stroke="black" stroke-width="1"
        d="M 181.00,42.00
           C 181.00,42.00 183.00,54.00 183.00,54.00
             183.00,54.00 183.00,69.00 183.00,69.00
             183.00,69.00 183.00,85.00 183.00,85.00
             183.00,85.00 183.00,102.00 183.00,102.00
             183.00,102.00 186.00,108.00 186.00,108.00" />
  <path id="New Path#5"
        fill="none" stroke="black" stroke-width="1"
        d="M 186.00,105.00
           C 186.00,106.00 186.00,116.00 186.00,116.00
             186.00,116.00 185.00,124.00 185.00,124.00
             185.00,124.00 186.00,136.00 186.00,136.00
             186.00,136.00 186.00,144.00 186.00,144.00" />
  <path id="New Path#4"
        fill="none" stroke="black" stroke-width="1"
        d="M 145.00,139.00
           C 145.00,139.00 156.00,142.00 159.00,142.00
             162.00,142.00 177.00,142.00 177.00,142.00
             177.00,142.00 188.00,143.00 188.00,143.00" />
  <path id="New Path#3"
        fill="none" stroke="black" stroke-width="1"
        d="M 140.00,36.00
           C 140.00,36.00 140.00,49.00 140.00,49.00
             140.00,49.00 142.00,64.00 142.00,64.00
             142.00,64.00 142.00,78.00 142.00,78.00
             142.00,78.00 144.00,92.00 144.00,92.00
             144.00,92.00 142.00,107.00 142.00,107.00
             142.00,107.00 141.00,121.00 141.00,121.00
             141.00,121.00 143.00,137.00 143.00,137.00" />
  <path id="New Path#11"
        fill="none" stroke="black" stroke-width="1"
        d="M 216.00,88.00
           C 216.00,88.00 234.00,85.00 234.00,85.00
             234.00,85.00 254.00,87.00 254.00,87.00
             254.00,87.00 271.00,85.00 271.00,85.00
             271.00,85.00 286.00,85.00 288.00,85.00
             290.00,85.00 309.00,85.00 309.00,85.00
             309.00,85.00 328.00,85.00 328.00,85.00
             328.00,85.00 348.00,85.00 348.00,85.00
             348.00,85.00 361.00,85.00 361.00,85.00
             361.00,85.00 372.00,85.00 372.00,85.00" />
  <path id="New Path#15"
        fill="none" stroke="black" stroke-width="1"
        d="M 400.00,171.00
           C 400.00,171.00 392.00,175.00 392.00,175.00
             392.00,175.00 384.00,179.00 384.00,179.00
             384.00,179.00 375.00,183.00 375.00,183.00" />
  <path id="New Path#10"
        fill="none" stroke="black" stroke-width="1"
        d="M 186.00,106.00
           C 187.00,105.00 198.00,96.00 198.00,96.00
             198.00,96.00 211.00,90.00 211.00,90.00
             211.00,90.00 217.00,85.00 217.00,85.00" />
  <path id="New Path#14"
        fill="none" stroke="black" stroke-width="1"
        d="M 402.00,88.00
           C 402.00,88.00 401.00,103.00 401.00,103.00
             401.00,103.00 402.00,117.00 402.00,117.00
             402.00,117.00 401.00,138.00 401.00,138.00
             401.00,138.00 399.00,150.00 399.00,150.00
             399.00,150.00 400.00,163.00 400.00,163.00
             400.00,163.00 401.00,173.00 401.00,173.00" />
  <path id="New Path#19"
        fill="none" stroke="black" stroke-width="1"
        d="M 186.67,143.00
           C 186.67,143.00 190.67,143.00 190.67,143.00
             190.67,143.00 196.33,142.67 196.33,142.67
             196.33,142.67 201.00,142.67 201.33,142.67
             201.67,142.67 212.33,142.67 212.33,142.67
             212.33,142.67 221.33,142.00 221.33,142.00
             221.33,142.00 233.00,141.67 233.00,141.67
             233.00,141.67 239.67,141.00 240.67,141.00
             241.67,141.00 252.33,140.33 253.00,140.33
             253.67,140.33 266.00,139.33 266.33,139.33
             266.67,139.33 289.00,139.67 289.00,139.67
             289.00,139.67 294.33,140.33 296.67,140.33
             299.00,140.33 313.33,140.00 313.33,140.00
             313.33,140.00 325.67,141.00 325.67,141.00
             325.67,141.00 337.33,140.33 337.33,140.33
             337.33,140.33 342.33,140.67 342.33,140.67" />
  <path id="New Path#2"
        fill="none" stroke="black" stroke-width="1"
        d="M 183.00,42.00
           C 183.00,42.00 191.00,36.00 191.00,36.00
             191.00,36.00 201.00,32.00 201.00,32.00
             201.00,32.00 212.00,25.00 212.00,25.00" />
  <path id="New Path#16"
        fill="none" stroke="black" stroke-width="1"
        d="M 344.00,178.00
           C 344.00,178.00 356.00,180.00 356.00,180.00
             356.00,180.00 366.00,181.00 366.00,181.00
             366.00,181.00 376.33,183.00 376.33,183.00" />
  <path id="New Path#13"
        fill="none" stroke="black" stroke-width="1"
        d="M 374.00,85.00
           C 374.00,85.00 383.00,86.00 383.00,86.00
             383.00,86.00 394.00,86.00 394.00,86.00
             394.00,86.00 402.00,89.00 402.00,89.00" />
  <path id="New Path#20"
        fill="none" stroke="black" stroke-width="1"
        d="M 213.33,23.33
           C 213.33,23.33 211.67,29.00 211.67,29.00
             211.67,29.00 211.33,37.00 211.33,37.00
             211.33,37.00 212.33,43.67 212.33,43.67
             212.33,43.67 211.33,53.00 211.33,53.00
             211.33,53.00 211.33,65.00 211.33,65.00
             211.33,65.00 211.33,73.67 211.33,73.67
             211.33,73.67 212.00,81.33 212.00,81.33
             212.00,81.33 213.00,86.67 213.00,86.67" />
  <path id="New Path#23"
        fill="none" stroke="black" stroke-width="1"
        d="M 341.33,109.00
           C 341.33,109.00 341.67,114.00 341.67,114.00
             341.67,114.00 342.33,120.67 342.33,121.00
             342.33,121.33 341.67,127.33 341.67,127.33
             341.67,127.33 341.67,132.67 341.67,132.67
             341.67,132.67 342.67,138.33 342.67,138.33
             342.67,138.33 343.00,144.33 343.00,144.33
             343.00,144.33 343.33,149.67 343.33,149.67
             343.33,149.67 342.67,155.67 342.67,155.67
             342.67,155.67 342.00,163.67 342.33,163.67
             342.67,163.67 343.33,170.00 343.33,170.00
             343.33,170.00 344.00,178.33 344.00,178.33" />
  <path id="New Path#22"
        fill="none" stroke="black" stroke-width="1"
        d="M 374.00,109.67
           C 374.67,109.67 379.00,105.67 379.00,105.67
             379.00,105.67 383.00,100.67 383.33,100.67
             383.67,100.67 389.33,97.00 389.33,97.00
             389.33,97.00 396.33,92.67 396.33,92.67
             396.33,92.67 400.33,89.67 400.33,89.67" />
  <path id="New Path#21"
        fill="none" stroke="black" stroke-width="1"
        d="M 341.67,108.67
           C 341.67,108.67 350.67,109.33 351.00,109.67
             351.33,110.00 355.33,110.33 355.33,110.33
             355.33,110.33 360.33,110.33 360.33,110.33
             360.33,110.33 364.67,110.33 364.67,110.33
             364.67,110.33 370.00,111.00 370.00,111.00
             370.00,111.00 374.33,111.00 374.33,111.00" />
  <path id="New Path#12"
        fill="none" stroke="black" stroke-width="1"
        d="M 341.00,109.00
           C 341.00,109.00 348.00,103.00 348.00,103.00
             348.00,103.00 355.00,97.00 355.00,97.00
             355.00,97.00 364.00,93.00 364.00,93.00
             364.00,93.00 371.00,86.00 371.00,86.00" />
  <path id="New Path#1"
        fill="none" stroke="black" stroke-width="1"
        d="M 175.00,16.00
           C 175.00,16.00 186.00,17.00 186.00,17.00
             186.00,17.00 196.00,19.00 196.00,19.00
             196.00,19.00 206.00,21.00 206.00,21.00
             206.00,21.00 215.00,23.00 215.00,23.00" />
  <path id="New Path#17"
        fill="none" stroke="black" stroke-width="1"
        d="M 376.00,181.00
           C 376.00,181.00 376.00,164.00 376.00,164.00
             376.00,164.00 375.00,150.00 375.00,150.00
             375.00,150.00 376.00,135.00 376.00,135.00
             376.00,135.00 375.00,121.00 375.00,121.00
             375.00,121.00 375.00,108.00 375.00,108.00" />
  <path id="New Path#26"
        fill="none" stroke="black" stroke-width="1"
        d="" />
  <path id="New Path#27"
        fill="none" stroke="black" stroke-width="1"
        d="" />
  <path id="New Path#24"
        fill="none" stroke="black" stroke-width="1"
        d="" />
  <path id="New Path#25"
        fill="none" stroke="black" stroke-width="1"
        d="" />
  <path id="New Path"
        fill="none" stroke="black" stroke-width="1"
        d="M 141.00,34.00
           C 141.00,34.00 150.00,29.00 150.00,29.00
             150.00,29.00 160.00,22.00 160.00,22.00
             160.00,22.00 169.00,19.00 169.00,19.00
             169.00,19.00 177.00,14.00 177.00,14.00" />
  <path id="New Path#18"
        fill="none" stroke="black" stroke-width="1"
        d="" />
  <path id="Unnamed"
        fill="none" stroke="black" stroke-width="1"
        d="M 140.00,35.00
           C 140.00,35.00 148.00,37.00 148.00,37.00
             148.00,37.00 158.00,36.00 158.00,36.00
             158.00,36.00 168.00,40.00 168.00,40.00
             168.00,40.00 183.00,42.00 183.00,42.00" />
</svg>
