<?xml version="1.0" encoding="UTF-8" standalone="no"?>
<!DOCTYPE svg PUBLIC "-//W3C//DTD SVG 20010904//EN"
              "http://www.w3.org/TR/2001/REC-SVG-20010904/DTD/svg10.dtd">

<svg xmlns="http://www.w3.org/2000/svg"
     width="1.56667in" height="2.03334in"
     viewBox="0 0 470 610">
  <path id="Unnamed #22"
        fill="none" stroke="black" stroke-width="1"
        d="M 405.00,428.00
           C 405.00,428.00 381.00,405.00 381.00,405.00
             381.00,405.00 359.00,382.00 359.00,382.00
             359.00,382.00 337.00,359.00 337.00,359.00
             337.00,359.00 322.00,339.00 322.00,339.00
             322.00,339.00 307.00,322.00 307.00,322.00
             307.00,322.00 293.00,309.00 293.00,309.00
             293.00,309.00 281.00,299.00 281.00,299.00
             281.00,299.00 268.00,290.00 268.00,290.00" />
  <path id="Unnamed #21"
        fill="none" stroke="black" stroke-width="1"
        d="M 379.00,452.00
           C 379.00,452.00 366.00,439.00 366.00,439.00
             366.00,439.00 350.00,420.00 350.00,420.00
             350.00,420.00 328.00,398.00 328.00,398.00
             328.00,398.00 307.00,372.00 307.00,372.00
             307.00,372.00 287.00,349.00 287.00,349.00
             287.00,349.00 270.00,327.00 270.00,327.00
             270.00,327.00 257.00,309.00 257.00,309.00
             257.00,309.00 243.00,297.00 243.00,297.00
             243.00,297.00 237.00,290.00 237.00,290.00" />
  <path id="Unnamed #20"
        fill="none" stroke="black" stroke-width="1"
        d="M 348.00,548.00
           C 348.00,548.00 338.00,509.00 338.00,509.00
             338.00,509.00 322.00,475.00 322.00,475.00
             322.00,475.00 305.00,431.00 305.00,431.00
             305.00,431.00 286.00,394.00 286.00,394.00
             286.00,394.00 277.00,365.00 277.00,365.00
             277.00,365.00 265.00,334.00 265.00,334.00
             265.00,334.00 254.00,310.00 254.00,310.00
             254.00,310.00 246.00,292.00 246.00,292.00" />
  <path id="Unnamed #19"
        fill="none" stroke="black" stroke-width="1"
        d="M 317.00,559.00
           C 317.00,559.00 304.00,529.00 304.00,529.00
             304.00,529.00 290.00,490.00 290.00,490.00
             290.00,490.00 277.00,448.00 277.00,448.00
             277.00,448.00 260.00,411.00 260.00,411.00
             260.00,411.00 250.00,377.00 250.00,377.00
             250.00,377.00 240.00,341.00 240.00,341.00
             240.00,341.00 227.00,314.00 227.00,314.00
             227.00,314.00 221.00,296.00 221.00,296.00" />
  <path id="Unnamed #18"
        fill="none" stroke="black" stroke-width="1"
        d="M 84.00,536.00
           C 84.00,536.00 95.00,517.00 95.00,517.00
             95.00,517.00 112.00,474.00 112.00,474.00
             112.00,474.00 124.00,440.00 124.00,440.00
             124.00,440.00 139.00,402.00 139.00,402.00
             139.00,402.00 157.00,366.00 157.00,366.00
             157.00,366.00 171.00,334.00 171.00,334.00
             171.00,334.00 181.00,312.00 181.00,312.00
             181.00,312.00 190.00,286.00 190.00,286.00" />
  <path id="Unnamed #17"
        fill="none" stroke="black" stroke-width="1"
        d="M 111.00,553.00
           C 111.00,553.00 121.00,533.00 121.00,533.00
             121.00,533.00 134.00,503.00 134.00,503.00
             134.00,503.00 150.00,475.00 150.00,475.00
             150.00,475.00 167.00,438.00 167.00,438.00
             167.00,438.00 177.00,405.00 177.00,405.00
             177.00,405.00 189.00,373.00 189.00,373.00
             189.00,373.00 200.00,346.00 200.00,346.00
             200.00,346.00 209.00,322.00 209.00,322.00
             209.00,322.00 224.00,296.00 224.00,296.00" />
  <path id="Unnamed #16"
        fill="none" stroke="black" stroke-width="1"
        d="M 193.00,284.00
           C 193.00,284.00 204.00,287.00 204.00,287.00
             204.00,287.00 213.00,290.00 213.00,290.00
             213.00,290.00 221.00,296.00 221.00,296.00" />
  <path id="Unnamed #15"
        fill="none" stroke="black" stroke-width="1"
        d="M 112.00,546.00
           C 112.00,546.00 101.00,550.00 101.00,550.00
             101.00,550.00 89.00,547.00 89.00,547.00
             89.00,547.00 81.00,537.00 81.00,537.00" />
  <path id="Unnamed #14"
        fill="none" stroke="black" stroke-width="1"
        d="M 380.00,452.00
           C 380.00,452.00 390.00,449.00 390.00,449.00
             390.00,449.00 400.00,443.00 400.00,443.00
             400.00,443.00 402.00,429.00 402.00,429.00" />
  <path id="Unnamed #13"
        fill="none" stroke="black" stroke-width="1"
        d="M 313.00,558.00
           C 313.00,558.00 321.00,553.00 321.00,553.00
             321.00,553.00 333.00,548.00 333.00,548.00
             333.00,548.00 342.00,549.00 342.00,549.00
             342.00,549.00 343.00,558.00 343.00,558.00
             343.00,558.00 335.00,561.00 335.00,561.00
             335.00,561.00 324.00,565.00 324.00,565.00
             324.00,565.00 312.00,561.00 312.00,561.00" />
  <path id="Unnamed #12"
        fill="none" stroke="black" stroke-width="1"
        d="M 286.00,211.00
           C 286.00,211.00 293.00,201.00 293.00,201.00
             293.00,201.00 299.00,186.00 299.00,186.00
             299.00,186.00 299.00,166.00 299.00,166.00
             299.00,166.00 292.00,151.00 292.00,151.00
             292.00,151.00 283.00,138.00 283.00,138.00
             283.00,138.00 269.00,125.00 269.00,125.00
             269.00,125.00 252.00,116.00 252.00,116.00
             252.00,116.00 236.00,112.00 236.00,112.00" />
  <path id="Unnamed #11"
        fill="none" stroke="black" stroke-width="1"
        d="M 230.00,113.00
           C 230.00,113.00 206.00,119.00 206.00,119.00
             206.00,119.00 193.00,131.00 193.00,131.00
             193.00,131.00 171.00,137.00 171.00,137.00
             171.00,137.00 159.00,141.00 159.00,141.00" />
  <path id="Unnamed #10"
        fill="none" stroke="black" stroke-width="1"
        d="M 287.00,214.00
           C 287.00,214.00 268.00,223.00 268.00,223.00
             268.00,223.00 252.00,226.00 252.00,226.00
             252.00,226.00 239.00,234.00 239.00,234.00
             239.00,234.00 228.00,237.00 228.00,237.00
             228.00,237.00 215.00,242.00 215.00,242.00" />
  <path id="Unnamed #9"
        fill="none" stroke="black" stroke-width="1"
        d="M 211.00,243.00
           C 211.00,243.00 223.00,238.00 223.00,238.00
             223.00,238.00 232.00,220.00 232.00,220.00
             232.00,220.00 235.00,203.00 235.00,203.00
             235.00,203.00 228.00,180.00 228.00,180.00
             228.00,180.00 226.00,167.00 226.00,167.00
             226.00,167.00 215.00,157.00 215.00,157.00
             215.00,157.00 206.00,147.00 206.00,147.00
             206.00,147.00 195.00,144.00 195.00,144.00
             195.00,144.00 176.00,143.00 176.00,143.00
             176.00,143.00 157.00,146.00 157.00,146.00
             157.00,146.00 145.00,151.00 145.00,152.00
             145.00,153.00 135.00,161.00 135.00,161.00
             135.00,161.00 130.00,175.00 130.00,175.00
             130.00,175.00 123.00,188.00 123.00,190.00
             123.00,192.00 122.00,205.00 122.00,205.00
             122.00,205.00 123.00,213.00 123.00,214.00
             123.00,215.00 130.00,225.00 130.00,225.00
             130.00,225.00 137.00,236.00 137.00,236.00
             137.00,236.00 146.00,241.00 146.00,241.00
             146.00,241.00 161.00,250.00 161.00,250.00
             161.00,250.00 178.00,249.00 178.00,249.00
             178.00,249.00 190.00,250.00 190.00,250.00
             190.00,250.00 212.00,247.00 211.00,247.00" />
  <path id="Unnamed #8"
        fill="none" stroke="black" stroke-width="1"
        d="M 152.00,19.00
           C 152.00,19.00 178.00,27.00 178.00,27.00
             178.00,27.00 197.00,28.00 197.00,28.00
             197.00,28.00 231.00,39.00 231.00,39.00
             231.00,39.00 261.00,41.00 261.00,41.00
             261.00,41.00 289.00,51.00 289.00,51.00
             289.00,51.00 320.00,53.00 320.00,53.00
             320.00,53.00 347.00,59.00 347.00,59.00
             347.00,59.00 365.00,62.00 365.00,62.00
             365.00,62.00 379.00,65.00 379.00,65.00
             379.00,65.00 413.00,73.00 413.00,73.00" />
  <path id="Unnamed #7"
        fill="none" stroke="black" stroke-width="1"
        d="M 103.00,45.00
           C 103.00,45.00 116.00,41.00 116.00,41.00
             116.00,41.00 128.00,31.00 128.00,31.00
             128.00,31.00 137.00,27.00 137.00,27.00
             137.00,27.00 147.00,18.00 147.00,18.00" />
  <path id="Unnamed #6"
        fill="none" stroke="black" stroke-width="1"
        d="M 93.00,253.00
           C 93.00,253.00 109.00,257.00 112.00,259.00
             115.00,261.00 124.00,262.00 124.00,262.00
             124.00,262.00 129.00,264.00 133.00,265.00
             137.00,266.00 137.00,265.00 143.00,267.00
             149.00,269.00 157.00,269.00 157.00,269.00
             157.00,269.00 174.00,273.00 174.00,273.00
             174.00,273.00 184.00,277.00 186.00,277.00
             188.00,277.00 198.00,277.00 199.00,277.00
             200.00,277.00 218.00,282.00 218.00,282.00
             218.00,282.00 229.00,284.00 229.00,284.00
             229.00,284.00 246.00,284.00 247.00,284.00
             248.00,284.00 278.00,293.00 278.00,293.00
             278.00,293.00 288.00,292.00 288.00,292.00
             288.00,292.00 306.00,296.00 306.00,296.00
             306.00,296.00 316.00,296.00 316.00,296.00
             316.00,296.00 336.00,297.00 336.00,297.00
             336.00,297.00 351.00,300.00 351.00,300.00
             351.00,300.00 365.00,300.00 365.00,300.00" />
  <path id="Unnamed #5"
        fill="none" stroke="black" stroke-width="1"
        d="M 103.00,259.00
           C 103.00,259.00 100.00,236.00 100.00,236.00
             100.00,236.00 100.00,213.00 100.00,213.00
             100.00,213.00 98.00,185.00 98.00,185.00
             98.00,185.00 98.00,155.00 98.00,155.00
             98.00,155.00 97.00,130.00 97.00,130.00
             97.00,130.00 98.00,109.00 98.00,109.00
             98.00,109.00 98.00,89.00 98.00,89.00
             98.00,89.00 95.00,71.00 95.00,71.00
             95.00,71.00 97.00,49.00 97.00,49.00" />
  <path id="Unnamed #4"
        fill="none" stroke="black" stroke-width="1"
        d="M 98.00,46.00
           C 98.00,46.00 114.00,49.00 114.00,49.00
             114.00,49.00 135.00,57.00 135.00,57.00
             135.00,57.00 160.00,63.00 160.00,63.00
             160.00,63.00 183.00,65.00 183.00,65.00
             183.00,65.00 202.00,67.00 202.00,67.00
             202.00,67.00 225.00,71.00 225.00,71.00
             225.00,71.00 257.00,74.00 257.00,74.00
             257.00,74.00 307.00,84.00 307.00,84.00
             307.00,84.00 344.00,86.00 344.00,86.00
             344.00,86.00 374.00,93.00 374.00,93.00" />
  <path id="Unnamed #3"
        fill="none" stroke="black" stroke-width="1"
        d="M 375.00,93.00
           C 375.00,93.00 385.00,87.00 385.00,87.00
             385.00,87.00 394.00,84.00 394.00,84.00
             394.00,84.00 404.00,77.00 404.00,77.00
             404.00,77.00 417.00,74.00 417.00,74.00" />
  <path id="Unnamed #2"
        fill="none" stroke="black" stroke-width="1"
        d="M 420.00,72.00
           C 420.00,72.00 419.00,88.00 419.00,89.00
             419.00,90.00 417.00,102.00 417.00,104.00
             417.00,106.00 416.00,123.00 416.00,123.00
             416.00,123.00 418.00,132.00 418.00,135.00
             418.00,138.00 418.00,147.00 418.00,148.00
             418.00,149.00 418.00,160.00 418.00,161.00
             418.00,162.00 417.00,178.00 417.00,178.00
             417.00,178.00 419.00,188.00 419.00,191.00
             419.00,194.00 419.00,213.00 419.00,213.00
             419.00,213.00 414.00,240.00 414.00,240.00
             414.00,240.00 412.00,254.00 412.00,254.00
             412.00,254.00 411.00,275.00 411.00,275.00" />
  <path id="Unnamed #1"
        fill="none" stroke="black" stroke-width="1"
        d="M 370.00,300.00
           C 370.00,300.00 380.00,295.00 381.00,294.00
             382.00,293.00 397.00,284.00 397.00,284.00
             397.00,284.00 410.00,277.00 410.00,277.00" />
  <path id="Unnamed"
        fill="none" stroke="black" stroke-width="1"
        d="M 369.00,298.00
           C 369.00,298.00 368.00,280.00 368.00,280.00
             368.00,280.00 368.00,256.00 368.00,256.00
             368.00,256.00 371.00,233.00 371.00,233.00
             371.00,233.00 370.00,217.00 370.00,217.00
             370.00,217.00 370.00,194.00 370.00,194.00
             370.00,194.00 370.00,175.00 370.00,174.00
             370.00,173.00 369.00,150.00 369.00,150.00
             369.00,150.00 366.00,135.00 367.00,134.00
             368.00,133.00 370.00,119.00 370.00,118.00
             370.00,117.00 371.00,103.00 371.00,103.00
             371.00,103.00 371.00,90.00 371.00,90.00" />
</svg>
