<?xml version="1.0" encoding="UTF-8" standalone="no"?>
<!DOCTYPE svg PUBLIC "-//W3C//DTD SVG 20010904//EN"
              "http://www.w3.org/TR/2001/REC-SVG-20010904/DTD/svg10.dtd">

<svg xmlns="http://www.w3.org/2000/svg"
     width="7.11111in" height="7.11111in"
     viewBox="0 0 512 512">
  <path id="New Path"
        fill="none" stroke="black" stroke-width="1"
        d="M 311.00,157.00
           C 311.00,157.00 308.00,170.00 308.00,170.00
             308.00,170.00 307.00,191.00 307.00,191.00
             307.00,191.00 307.00,207.00 307.00,207.00
             307.00,207.00 308.00,218.00 308.00,218.00
             308.00,218.00 312.00,234.00 312.00,234.00
             312.00,234.00 310.00,254.00 310.00,254.00
             310.00,254.00 310.00,268.00 310.00,268.00
             310.00,268.00 311.00,282.00 311.00,282.00
             311.00,282.00 309.00,296.00 309.00,296.00
             309.00,296.00 306.00,307.00 306.00,307.00
             306.00,307.00 305.00,319.00 305.00,319.00
             305.00,319.00 305.00,333.00 305.00,333.00
             305.00,333.00 305.00,345.00 305.00,345.00" />
  <path id="New Path#7"
        fill="none" stroke="black" stroke-width="1"
        d="M 305.00,343.00
           C 305.00,343.00 318.00,333.00 318.00,333.00
             318.00,333.00 329.00,318.00 329.00,318.00
             329.00,318.00 338.00,310.00 338.00,310.00
             338.00,310.00 348.00,301.00 348.00,301.00
             348.00,301.00 359.00,294.00 359.00,294.00
             359.00,294.00 369.00,282.00 369.00,282.00
             369.00,282.00 377.00,271.00 377.00,271.00
             377.00,271.00 384.00,263.00 384.00,263.00" />
  <path id="New Path#6"
        fill="none" stroke="black" stroke-width="1"
        d="M 385.00,68.00
           C 385.00,68.00 385.00,84.00 385.00,84.00
             385.00,84.00 386.00,103.00 386.00,103.00
             386.00,103.00 384.00,119.00 384.00,119.00
             384.00,119.00 384.00,142.00 384.00,142.00
             384.00,142.00 382.00,164.00 382.00,164.00
             382.00,164.00 380.00,180.00 380.00,180.00
             380.00,180.00 381.00,201.00 381.00,201.00
             381.00,201.00 378.00,217.00 378.00,217.00
             378.00,217.00 379.00,232.00 379.00,232.00
             379.00,232.00 381.00,247.00 381.00,247.00
             381.00,247.00 384.00,263.00 384.00,263.00" />
  <path id="New Path#5"
        fill="none" stroke="black" stroke-width="1"
        d="M 310.00,157.00
           C 310.00,157.00 317.00,147.00 317.00,147.00
             317.00,147.00 323.00,137.00 323.00,137.00
             323.00,137.00 330.00,130.00 330.00,130.00
             330.00,130.00 336.00,121.00 336.00,121.00
             336.00,121.00 344.00,114.00 344.00,114.00
             344.00,114.00 352.00,106.00 352.00,106.00
             352.00,106.00 362.00,100.00 362.00,100.00
             362.00,100.00 369.00,91.00 369.00,91.00
             369.00,91.00 376.00,83.00 376.00,83.00
             376.00,83.00 380.00,74.00 380.00,74.00
             380.00,74.00 385.00,66.00 385.00,66.00" />
  <path id="New Path#4"
        fill="none" stroke="black" stroke-width="1"
        d="M 204.00,69.00
           C 204.00,69.00 221.00,69.00 221.00,69.00
             221.00,69.00 240.00,70.00 240.00,70.00
             240.00,70.00 253.00,69.00 253.00,69.00
             253.00,69.00 270.00,69.00 270.00,69.00
             270.00,69.00 285.00,67.00 285.00,67.00
             285.00,67.00 309.00,66.00 309.00,66.00
             309.00,66.00 326.00,66.00 326.00,66.00
             326.00,66.00 341.00,67.00 341.00,67.00
             341.00,67.00 359.00,67.00 359.00,67.00
             359.00,67.00 374.00,67.00 374.00,67.00
             374.00,67.00 387.00,66.00 387.00,66.00" />
  <path id="New Path#3"
        fill="none" stroke="black" stroke-width="1"
        d="M 89.00,158.00
           C 89.00,158.00 107.00,146.00 107.00,146.00
             107.00,146.00 121.00,134.00 121.00,134.00
             121.00,134.00 132.00,129.00 132.00,129.00
             132.00,129.00 142.00,119.00 142.00,119.00
             142.00,119.00 154.00,112.00 154.00,112.00
             154.00,112.00 163.00,104.00 163.00,104.00
             163.00,104.00 173.00,95.00 173.00,95.00
             173.00,95.00 182.00,89.00 182.00,89.00
             182.00,89.00 194.00,79.00 194.00,79.00
             194.00,79.00 204.00,69.00 204.00,69.00" />
  <path id="New Path#2"
        fill="none" stroke="black" stroke-width="1"
        d="M 79.00,355.00
           C 79.00,355.00 86.00,339.00 86.00,339.00
             86.00,339.00 88.00,318.00 88.00,318.00
             88.00,318.00 84.00,289.00 84.00,289.00
             84.00,289.00 88.00,262.00 88.00,262.00
             88.00,262.00 86.00,229.00 86.00,229.00
             86.00,229.00 87.00,202.00 87.00,202.00
             87.00,202.00 88.00,183.00 88.00,183.00
             88.00,183.00 89.00,159.00 89.00,159.00" />
  <path id="New Path#1"
        fill="none" stroke="black" stroke-width="1"
        d="M 304.00,344.00
           C 304.00,344.00 284.00,347.00 284.00,347.00
             284.00,347.00 263.00,346.00 263.00,346.00
             263.00,346.00 232.00,347.00 232.00,347.00
             232.00,347.00 206.00,349.00 206.00,349.00
             206.00,349.00 182.00,350.00 182.00,350.00
             182.00,350.00 154.00,350.00 154.00,350.00
             154.00,350.00 133.00,350.00 133.00,350.00
             133.00,350.00 104.00,351.00 104.00,351.00
             104.00,351.00 80.00,354.00 80.00,354.00" />
  <path id="Unnamed"
        fill="none" stroke="black" stroke-width="1"
        d="M 89.00,158.00
           C 89.00,158.00 105.00,157.00 105.00,157.00
             105.00,157.00 118.00,158.00 118.00,158.00
             118.00,158.00 133.00,158.00 133.00,158.00
             133.00,158.00 151.00,158.00 151.00,158.00
             151.00,158.00 168.00,157.00 168.00,157.00
             168.00,157.00 193.00,155.00 193.00,155.00
             193.00,155.00 222.00,156.00 222.00,156.00
             222.00,156.00 246.00,156.00 246.00,156.00
             246.00,156.00 262.00,157.00 262.00,157.00
             262.00,157.00 278.00,157.00 278.00,157.00
             278.00,157.00 293.00,157.00 293.00,157.00
             293.00,157.00 312.00,157.00 312.00,157.00" />
</svg>
