<?xml version="1.0" encoding="UTF-8" standalone="no"?>
<!DOCTYPE svg PUBLIC "-//W3C//DTD SVG 20010904//EN"
              "http://www.w3.org/TR/2001/REC-SVG-20010904/DTD/svg10.dtd">

<svg xmlns="http://www.w3.org/2000/svg"
     width="7.59481in" height="6.30296in"
     viewBox="0 0 729 605">
  <path id="New Path#8"
        fill="none" stroke="black" stroke-width="1"
        d="M 270.00,408.00
           C 270.00,408.00 284.00,413.00 284.00,413.00
             284.00,413.00 296.00,415.00 296.00,415.00
             296.00,415.00 313.00,421.00 313.00,421.00
             313.00,421.00 327.00,426.00 327.00,426.00
             327.00,426.00 341.00,430.00 341.00,430.00
             341.00,430.00 355.00,434.00 355.00,434.00
             355.00,434.00 374.00,442.00 374.00,442.00
             374.00,442.00 394.00,448.00 394.00,448.00
             394.00,448.00 409.00,453.00 409.00,453.00
             409.00,453.00 427.00,460.00 427.00,460.00" />
  <path id="New Path#7"
        fill="none" stroke="black" stroke-width="1"
        d="M 429.00,459.00
           C 429.00,459.00 442.00,448.00 442.00,448.00
             442.00,448.00 453.00,435.00 453.00,435.00
             453.00,435.00 471.00,422.00 471.00,422.00
             471.00,422.00 483.00,405.00 483.00,405.00
             483.00,405.00 499.00,389.00 499.00,389.00
             499.00,389.00 515.00,376.00 515.00,376.00
             515.00,376.00 522.00,368.00 522.00,368.00" />
  <path id="New Path#6"
        fill="none" stroke="black" stroke-width="1"
        d="M 521.00,167.00
           C 521.00,167.00 521.00,190.00 521.00,190.00
             521.00,190.00 522.00,211.00 522.00,211.00
             522.00,211.00 521.00,231.00 521.00,231.00
             521.00,231.00 521.00,256.00 521.00,256.00
             521.00,256.00 522.00,272.00 522.00,272.00
             522.00,272.00 521.00,292.00 521.00,292.00
             521.00,292.00 522.00,311.00 522.00,311.00
             522.00,311.00 522.00,330.00 522.00,330.00
             522.00,330.00 523.00,350.00 523.00,350.00
             523.00,350.00 521.00,368.00 521.00,368.00" />
  <path id="New Path#5"
        fill="none" stroke="black" stroke-width="1"
        d="M 270.00,212.00
           C 270.00,212.00 269.00,225.00 269.00,225.00
             269.00,225.00 270.00,243.00 270.00,243.00
             270.00,243.00 272.00,260.00 272.00,260.00
             272.00,260.00 273.00,277.00 273.00,277.00
             273.00,277.00 269.00,297.00 269.00,297.00
             269.00,297.00 269.00,310.00 269.00,310.00
             269.00,310.00 271.00,329.00 271.00,329.00
             271.00,329.00 270.00,342.00 270.00,345.00
             270.00,348.00 271.00,364.00 271.00,364.00
             271.00,364.00 269.00,387.00 269.00,387.00
             269.00,387.00 269.00,410.00 269.00,410.00" />
  <path id="New Path#4"
        fill="none" stroke="black" stroke-width="1"
        d="M 426.00,256.00
           C 426.00,256.00 427.00,275.00 427.00,275.00
             427.00,275.00 427.00,293.00 427.00,293.00
             427.00,293.00 428.00,319.00 428.00,319.00
             428.00,319.00 428.00,339.00 428.00,339.00
             428.00,339.00 427.00,360.00 427.00,360.00
             427.00,360.00 426.00,377.00 426.00,377.00
             426.00,377.00 427.00,397.00 427.00,397.00
             427.00,397.00 426.00,422.00 426.00,422.00
             426.00,422.00 427.00,440.00 427.00,440.00
             427.00,440.00 428.00,454.00 428.00,454.00
             428.00,454.00 426.00,461.00 426.00,461.00" />
  <path id="New Path#3"
        fill="none" stroke="black" stroke-width="1"
        d="M 375.00,128.00
           C 375.00,128.00 367.00,137.00 367.00,137.00
             367.00,137.00 356.00,145.00 356.00,145.00
             356.00,145.00 343.00,157.00 343.00,157.00
             343.00,157.00 323.00,171.00 323.00,171.00
             323.00,171.00 305.00,184.00 305.00,184.00
             305.00,184.00 290.00,198.00 290.00,198.00
             290.00,198.00 273.00,211.00 273.00,211.00" />
  <path id="New Path#2"
        fill="none" stroke="black" stroke-width="1"
        d="M 521.00,166.00
           C 521.00,166.00 502.00,160.00 502.00,160.00
             502.00,160.00 481.00,152.00 481.00,152.00
             481.00,152.00 456.00,148.00 456.00,148.00
             456.00,148.00 430.00,143.00 430.00,143.00
             430.00,143.00 404.00,137.00 404.00,137.00
             404.00,137.00 376.00,130.00 376.00,130.00" />
  <path id="New Path#1"
        fill="none" stroke="black" stroke-width="1"
        d="M 427.00,255.00
           C 427.00,255.00 439.00,242.00 439.00,242.00
             439.00,242.00 451.00,231.00 451.00,231.00
             451.00,231.00 465.00,220.00 465.00,220.00
             465.00,220.00 477.00,210.00 477.00,210.00
             477.00,210.00 486.00,199.00 486.00,199.00
             486.00,199.00 494.00,190.00 494.00,190.00
             494.00,190.00 506.00,181.00 506.00,181.00
             506.00,181.00 513.00,172.00 513.00,172.00
             513.00,172.00 519.00,165.00 519.00,165.00" />
  <path id="New Path#9"
        fill="none" stroke="black" stroke-width="1"
        d="M 703.00,1.00
           C 703.00,1.00 728.00,1.00 728.00,1.00" />
  <path id="New Path#10"
        fill="none" stroke="black" stroke-width="1"
        d="M 709.00,603.00
           C 709.00,603.00 730.00,602.00 730.00,602.00" />
  <path id="New Path#11"
        fill="none" stroke="black" stroke-width="1"
        d="M 1.00,602.00
           C 1.00,602.00 20.00,602.00 20.00,602.00" />
  <path id="New Path"
        fill="none" stroke="black" stroke-width="1"
        d="M 270.00,211.00
           C 270.00,211.00 284.00,216.00 284.00,216.00
             284.00,216.00 302.00,219.00 302.00,219.00
             302.00,219.00 320.00,226.00 320.00,226.00
             320.00,226.00 335.00,229.00 335.00,229.00
             335.00,229.00 350.00,236.00 350.00,236.00
             350.00,236.00 370.00,242.00 370.00,242.00
             370.00,242.00 389.00,245.00 389.00,245.00
             389.00,245.00 403.00,250.00 403.00,250.00
             403.00,250.00 427.00,256.00 427.00,256.00" />
  <path id="Unnamed"
        fill="none" stroke="black" stroke-width="1"
        d="M 5.00,4.00
           C 5.00,4.00 19.00,1.00 19.00,1.00" />
</svg>
