<?xml version="1.0" encoding="UTF-8" standalone="no"?>
<!DOCTYPE svg PUBLIC "-//W3C//DTD SVG 20010904//EN"
              "http://www.w3.org/TR/2001/REC-SVG-20010904/DTD/svg10.dtd">

<svg xmlns="http://www.w3.org/2000/svg"
     width="3.93701in" height="3.95784in"
     viewBox="0 0 378 380">
  <path id="New Path#3"
        fill="none" stroke="black" stroke-width="1"
        d="M 254.00,275.50
           C 254.00,275.50 254.00,262.00 254.00,262.00
             254.00,262.00 254.50,252.00 254.50,252.00
             254.50,252.00 254.50,239.00 254.50,239.00" />
  <path id="New Path#2"
        fill="none" stroke="black" stroke-width="1"
        d="M 143.00,220.50
           C 143.00,220.50 152.00,224.00 152.00,224.00
             152.00,224.00 159.50,228.50 159.50,228.50
             159.50,228.50 166.50,233.00 166.50,233.00
             166.50,233.00 174.50,236.50 174.50,236.50
             174.50,236.50 181.50,239.00 181.50,239.00
             181.50,239.00 190.50,244.00 190.50,244.00
             190.50,244.00 199.50,249.50 199.50,249.50
             199.50,249.50 208.50,253.50 208.50,253.50
             208.50,253.50 219.00,259.50 219.00,259.50
             219.00,259.50 231.00,264.50 231.00,264.50
             231.00,264.50 243.00,271.00 243.00,271.00
             243.00,271.00 255.50,275.50 255.50,275.50" />
  <path id="New Path#1"
        fill="none" stroke="black" stroke-width="1"
        d="M 141.50,331.50
           C 141.50,331.50 142.50,318.50 142.50,318.50
             142.50,318.50 142.50,299.50 142.50,299.50
             142.50,299.50 142.00,278.00 142.00,278.00
             142.00,278.00 142.00,257.00 142.00,257.00
             142.00,257.00 143.00,240.00 143.00,240.00
             143.00,240.00 142.50,220.00 142.50,220.00" />
  <path id="New Path#7"
        fill="none" stroke="black" stroke-width="1"
        d="M 253.50,70.00
           C 253.50,70.00 248.50,76.00 248.50,76.00
             248.50,76.00 243.50,80.50 243.50,80.50
             243.50,80.50 238.50,86.00 238.50,86.00
             238.50,86.00 231.00,92.50 231.00,92.50
             231.00,92.50 225.50,99.50 225.50,99.50
             225.50,99.50 219.50,106.50 219.50,106.50
             219.50,106.50 211.50,114.50 211.50,114.50
             211.50,114.50 203.00,122.50 203.00,122.50
             203.00,122.50 196.00,131.00 196.00,131.00
             196.00,131.00 187.00,139.00 187.00,139.00
             187.00,139.00 180.00,146.00 180.00,146.00" />
  <path id="New Path#6"
        fill="none" stroke="black" stroke-width="1"
        d="M 216.50,52.50
           C 216.50,53.00 223.50,56.50 223.50,56.50
             223.50,56.50 231.00,57.50 231.00,57.50
             231.00,57.50 238.00,63.00 238.00,63.00
             238.00,63.00 244.50,66.00 245.00,66.00
             245.50,66.00 254.50,70.50 254.50,70.50" />
  <path id="New Path#5"
        fill="none" stroke="black" stroke-width="1"
        d="M 104.50,165.00
           C 104.50,165.00 114.00,155.00 114.00,155.00
             114.00,155.00 124.00,146.00 124.00,146.00
             124.00,146.00 132.50,137.50 132.50,137.50
             132.50,137.50 142.50,128.00 142.50,128.00
             142.50,128.00 151.00,117.00 151.00,117.00
             151.00,117.00 159.50,109.50 159.50,109.50
             159.50,109.50 166.50,103.50 166.50,103.50
             166.50,103.50 172.50,95.50 172.50,95.50
             172.50,95.50 181.00,89.00 181.00,89.00
             181.00,89.00 189.00,82.00 189.00,82.00
             189.00,82.00 196.50,73.00 196.50,73.00
             196.50,73.00 206.50,64.50 206.50,64.50
             206.50,64.50 214.00,56.50 214.00,56.50
             214.00,56.50 217.50,52.00 217.50,52.00" />
  <path id="New Path#4"
        fill="none" stroke="black" stroke-width="1"
        d="M 255.00,239.50
           C 255.00,239.50 244.00,234.00 244.00,234.00
             244.00,234.00 230.00,227.50 230.00,227.50
             230.00,227.50 217.50,221.00 217.50,221.00
             217.50,221.00 203.50,213.50 203.50,213.50
             203.50,213.50 187.50,206.00 187.50,206.00
             187.50,206.00 175.00,200.50 175.00,200.50
             175.00,200.50 164.00,194.00 164.00,194.00
             164.00,194.00 150.50,188.00 150.50,188.00
             150.50,188.00 137.00,180.50 137.00,180.50
             137.00,180.50 123.00,175.00 123.00,175.00
             123.00,175.00 104.50,165.00 104.50,165.00" />
  <path id="New Path#8"
        fill="none" stroke="black" stroke-width="1"
        d="M 180.50,146.50
           C 180.50,146.50 191.50,151.50 191.50,151.50
             191.50,151.50 203.00,156.50 203.00,156.50
             203.00,156.50 216.00,163.00 216.00,163.00
             216.00,163.00 226.50,168.50 226.50,168.50
             226.50,168.50 236.50,173.00 236.50,173.00
             236.50,173.00 246.50,179.00 246.50,179.00
             246.50,179.00 258.00,183.50 258.00,183.50
             258.00,183.50 267.50,188.50 267.50,188.50
             267.50,188.50 275.00,192.50 275.00,192.50
             275.00,192.50 282.50,196.50 282.50,196.50
             282.50,196.50 290.50,201.00 290.50,201.00" />
  <path id="New Path#10"
        fill="none" stroke="black" stroke-width="1"
        d="M 291.50,202.50
           C 291.50,202.50 292.00,214.00 292.00,214.00
             292.00,214.00 292.00,224.00 292.00,224.00
             292.00,224.00 291.50,234.00 291.50,234.00
             291.50,234.00 291.50,240.50 291.50,240.50" />
  <path id="New Path#9"
        fill="none" stroke="black" stroke-width="1"
        d="M 291.00,201.00
           C 291.00,201.00 284.50,207.50 284.50,207.50
             284.50,207.50 277.50,214.50 277.50,214.50
             277.50,214.50 272.50,221.00 272.50,221.00
             272.50,221.00 265.00,229.00 265.00,229.00
             265.00,229.00 255.00,238.50 255.00,238.50" />
  <path id="New Path#11"
        fill="none" stroke="black" stroke-width="1"
        d="M 291.50,240.00
           C 291.50,240.00 285.00,246.50 285.00,246.50
             285.00,246.50 278.50,252.50 278.50,252.50
             278.50,252.50 271.00,260.00 271.00,260.00
             271.00,260.00 263.50,268.00 263.50,268.00
             263.50,268.00 254.50,275.00 254.50,275.00" />
  <path id="New Path#12"
        fill="none" stroke="black" stroke-width="1"
        d="M 254.50,72.00
           C 254.50,72.00 255.00,85.00 255.00,85.00
             255.00,85.00 254.50,94.50 254.50,94.50
             254.50,94.50 255.50,107.50 255.50,107.50
             255.50,107.50 255.50,120.50 255.50,120.50
             255.50,120.50 254.50,126.50 254.50,126.50" />
  <path id="New Path#13"
        fill="none" stroke="black" stroke-width="1"
        d="M 254.50,128.00
           C 254.50,128.00 249.00,132.50 249.00,132.50
             249.00,132.50 244.00,138.50 244.00,138.50
             244.00,138.50 237.00,146.50 237.00,146.50
             237.00,146.50 231.00,152.50 231.00,152.50
             231.00,152.50 223.00,158.50 223.00,158.50
             223.00,158.50 217.50,164.50 217.50,164.50" />
  <path id="New Path#16"
        fill="none" stroke="black" stroke-width="1"
        d="M 0.00,10.50
           C 0.00,10.50 3.00,11.00 3.00,11.00" />
  <path id="New Path#17"
        fill="none" stroke="black" stroke-width="1"
        d="M 371.00,0.00
           C 371.00,0.00 376.00,0.50 376.00,0.50" />
  <path id="New Path#14"
        fill="none" stroke="black" stroke-width="1"
        d="M 179.50,239.50
           C 179.50,239.50 179.00,250.50 179.00,250.50
             179.00,250.50 180.50,264.00 180.50,264.00
             180.50,264.00 179.50,275.50 179.50,275.50
             179.50,275.50 179.50,287.50 179.50,287.50
             179.50,287.50 179.50,296.00 179.50,296.00" />
  <path id="New Path#15"
        fill="none" stroke="black" stroke-width="1"
        d="M 179.00,295.00
           C 179.00,295.00 173.50,301.00 173.50,301.00
             173.50,301.00 168.00,305.50 168.00,305.50
             168.00,305.50 162.50,313.00 162.50,313.00
             162.50,313.00 155.50,319.00 155.50,319.00
             155.50,319.00 141.50,332.50 141.50,332.50" />
  <path id="New Path#18"
        fill="none" stroke="black" stroke-width="1"
        d="M 376.00,379.00
           C 376.00,379.00 369.00,378.50 369.00,378.50" />
  <path id="New Path#19"
        fill="none" stroke="black" stroke-width="1"
        d="M 1.00,378.50
           C 1.00,378.50 7.00,379.00 7.00,379.00" />
  <path id="New Path"
        fill="none" stroke="black" stroke-width="1"
        d="M 104.50,313.50
           C 104.50,313.50 112.50,318.50 112.50,318.50
             112.50,318.50 120.50,321.50 120.50,321.50
             120.50,321.50 129.00,326.00 129.00,326.00
             129.00,326.00 141.50,332.00 141.50,332.00" />
  <path id="Unnamed"
        fill="none" stroke="black" stroke-width="1"
        d="M 105.00,313.50
           C 105.00,313.50 103.50,300.50 104.00,300.50
             104.50,300.50 105.00,281.50 105.00,281.50
             105.00,281.50 105.00,261.50 105.00,261.50
             105.00,261.50 105.00,238.00 105.00,238.00
             105.00,238.00 104.50,217.50 104.50,217.50
             104.50,217.50 105.00,198.00 105.00,198.00
             105.00,198.00 105.50,181.50 105.50,181.50
             105.50,181.50 105.00,164.50 105.00,164.50" />
</svg>
