<?xml version="1.0" encoding="UTF-8" standalone="no"?>
<!DOCTYPE svg PUBLIC "-//W3C//DTD SVG 20010904//EN"
              "http://www.w3.org/TR/2001/REC-SVG-20010904/DTD/svg10.dtd">

<svg xmlns="http://www.w3.org/2000/svg"
     width="10.1111in" height="14.7639in"
     viewBox="0 0 728 1063">
  <path id="New Path#5"
        fill="none" stroke="black" stroke-width="1"
        d="M 106.50,988.50
           C 106.50,988.50 112.00,993.50 112.00,993.50
             112.00,993.50 117.00,997.50 117.00,997.50
             117.00,997.50 123.50,1000.50 123.50,1000.50
             123.50,1000.50 132.91,1003.45 132.91,1003.45
             132.91,1003.45 139.45,1006.73 139.45,1006.73
             139.45,1006.73 144.55,1009.27 144.73,1009.27
             144.91,1009.27 150.91,1011.82 150.91,1011.82
             150.91,1011.82 159.09,1014.73 159.09,1014.73
             159.09,1014.73 167.27,1016.00 167.27,1016.00
             167.27,1016.00 182.18,1019.82 182.18,1019.82
             182.18,1019.82 194.36,1022.00 194.36,1022.00
             194.36,1022.00 203.27,1023.45 203.27,1023.45
             203.27,1023.45 215.64,1025.27 215.64,1025.27
             215.64,1025.27 227.82,1026.91 227.82,1026.91
             227.82,1026.91 241.45,1027.64 241.45,1027.64
             241.45,1027.64 254.91,1028.73 254.91,1028.73
             254.91,1028.73 266.91,1029.64 266.91,1029.64
             266.91,1029.64 287.09,1030.91 287.09,1030.91
             287.09,1030.91 300.91,1031.09 300.91,1031.09
             300.91,1031.09 311.45,1030.91 312.36,1030.91
             313.27,1030.91 324.36,1030.91 324.36,1030.91
             324.36,1030.91 340.73,1030.91 340.73,1030.91
             340.73,1030.91 354.73,1030.73 354.73,1030.73
             354.73,1030.73 372.36,1028.55 372.36,1028.55
             372.36,1028.55 388.00,1028.18 388.00,1028.18
             388.00,1028.18 402.55,1026.55 402.55,1026.55
             402.55,1026.55 417.82,1026.18 417.82,1026.18
             417.82,1026.18 430.73,1024.73 430.73,1024.73
             430.73,1024.73 442.55,1022.55 442.55,1022.55
             442.55,1022.55 456.18,1021.09 456.18,1021.09
             456.18,1021.09 467.09,1019.27 467.09,1019.27
             467.09,1019.27 479.45,1016.73 479.64,1016.73
             479.82,1016.73 488.91,1013.09 488.91,1013.09
             488.91,1013.09 496.73,1010.36 496.73,1010.36
             496.73,1010.36 504.91,1008.18 504.91,1008.18
             504.91,1008.18 511.27,1002.36 511.27,1002.36" />
  <path id="New Path#4"
        fill="none" stroke="black" stroke-width="1"
        d="M 510.36,998.36
           C 510.36,998.36 509.09,987.45 509.09,987.45
             509.09,987.45 506.55,975.45 506.55,975.45
             506.55,975.45 502.55,964.36 502.55,964.36
             502.55,964.36 499.09,955.82 499.09,955.82
             499.09,955.82 497.27,948.36 497.27,948.36
             497.27,948.36 494.55,943.09 494.55,943.09
             494.55,943.09 492.18,936.36 492.18,936.36
             492.18,936.36 489.27,929.45 489.27,929.45
             489.27,929.45 484.91,920.91 484.91,920.91
             484.91,920.91 478.73,913.27 478.73,913.27
             478.73,913.27 473.82,904.00 473.82,904.00
             473.82,904.00 468.00,894.91 468.00,894.91
             468.00,894.91 462.18,885.64 462.18,885.64
             462.18,885.64 453.82,874.73 453.82,874.73
             453.82,874.73 447.27,866.73 447.27,866.73
             447.27,866.73 441.64,859.64 441.64,859.64
             441.64,859.64 437.27,852.73 437.27,852.55
             437.27,852.36 431.45,844.55 431.45,844.55
             431.45,844.55 426.18,838.36 426.18,838.36
             426.18,838.36 421.45,829.45 421.45,829.45
             421.45,829.45 413.64,821.45 413.64,821.45
             413.64,821.45 408.00,811.27 408.00,811.27
             408.00,811.27 403.82,803.09 403.82,803.09
             403.82,803.09 397.82,795.64 397.82,795.64
             397.82,795.64 394.00,783.09 394.00,783.09
             394.00,783.09 389.09,773.82 389.09,773.82
             389.09,773.82 386.36,762.36 386.36,762.36
             386.36,762.36 382.73,754.00 382.73,754.00
             382.73,754.00 379.64,742.73 379.64,742.73
             379.64,742.73 377.45,734.91 377.45,734.91
             377.45,734.91 374.73,723.82 374.73,723.82
             374.73,723.82 373.45,711.64 373.45,711.64
             373.45,711.64 371.45,700.18 371.45,700.18
             371.45,700.18 368.36,688.91 368.36,688.91
             368.36,688.91 367.82,680.36 367.82,680.36
             367.82,680.36 365.82,670.73 365.82,670.73
             365.82,670.73 365.64,658.55 365.64,658.55
             365.64,658.55 365.09,643.45 365.09,643.45
             365.09,643.45 368.36,632.73 368.36,632.73
             368.36,632.73 368.91,619.45 368.91,619.45
             368.91,619.45 369.27,607.09 369.27,607.09
             369.27,607.09 369.27,594.55 369.27,594.55
             369.27,594.55 371.82,579.09 371.82,579.09
             371.82,579.09 371.09,567.27 371.09,567.09
             371.09,566.91 370.55,554.00 370.55,554.00
             370.55,554.00 370.36,541.45 370.36,541.45
             370.36,541.45 369.82,530.18 369.82,530.18
             369.82,530.18 368.55,516.18 368.55,516.18
             368.55,516.18 368.18,505.09 368.18,504.91
             368.18,504.73 366.18,490.91 366.18,490.73
             366.18,490.55 366.00,478.00 366.00,478.00
             366.00,478.00 365.82,464.36 365.82,464.00
             365.82,463.64 365.82,453.27 365.82,453.27
             365.82,453.27 366.73,437.82 366.73,437.82
             366.73,437.82 367.09,426.55 367.09,426.55
             367.09,426.55 366.91,415.64 366.91,415.64" />
  <path id="New Path#3"
        fill="none" stroke="black" stroke-width="1"
        d="M 316.50,414.00
           C 316.50,414.00 313.50,425.00 313.50,425.00
             313.50,425.00 314.00,437.50 314.00,438.00
             314.00,438.50 309.00,451.00 309.00,451.00
             309.00,451.00 308.00,461.50 308.00,462.00
             308.00,462.50 306.00,474.00 306.00,474.00
             306.00,474.00 303.00,484.50 303.00,484.50
             303.00,484.50 302.00,496.00 302.00,496.00
             302.00,496.00 299.50,510.00 299.50,511.00
             299.50,512.00 297.00,526.50 297.00,527.50
             297.00,528.50 296.50,545.00 296.50,545.00
             296.50,545.00 292.50,559.00 292.50,559.50
             292.50,560.00 292.50,573.50 292.50,573.50
             292.50,573.50 291.00,586.50 291.00,588.00
             291.00,589.50 291.00,603.00 291.00,604.00
             291.00,605.00 289.00,614.00 289.00,614.00
             289.00,614.00 288.00,624.00 288.00,624.00
             288.00,624.00 288.00,634.75 288.00,634.75
             288.00,634.75 287.50,643.00 286.75,644.25
             286.00,645.50 283.75,653.50 283.50,654.50
             283.25,655.50 279.00,669.50 279.00,669.50
             279.00,669.50 277.75,680.25 277.75,680.25
             277.75,680.25 274.00,691.75 274.00,691.75
             274.00,691.75 270.00,703.50 270.00,703.50
             270.00,703.50 265.12,714.88 265.12,715.12
             265.12,715.38 262.12,725.62 262.12,725.62
             262.12,725.62 259.25,731.75 259.25,731.88
             259.25,732.00 253.75,746.50 253.75,746.50
             253.75,746.50 250.00,760.75 250.00,760.75
             250.00,760.75 245.25,773.50 245.25,773.50
             245.25,773.50 239.25,790.00 239.25,790.00
             239.25,790.00 235.00,804.75 235.00,804.75
             235.00,804.75 228.00,817.75 228.00,817.75
             228.00,817.75 222.00,828.75 222.00,828.75
             222.00,828.75 212.50,841.00 212.50,841.00
             212.50,841.00 205.12,851.50 205.12,851.50
             205.12,851.50 195.38,858.25 195.38,858.25
             195.38,858.25 186.88,864.88 186.88,864.88
             186.88,864.88 179.00,870.25 179.00,870.25
             179.00,870.25 172.25,875.25 172.25,875.25
             172.25,875.25 166.25,879.00 166.25,879.00
             166.25,879.00 162.25,882.50 162.25,882.50
             162.25,882.50 156.50,886.25 156.50,886.25
             156.50,886.25 149.25,891.50 149.25,891.50
             149.25,891.50 147.00,896.00 147.00,896.00
             147.00,896.00 142.25,900.00 142.25,900.00
             142.25,900.00 136.50,905.75 136.50,905.75
             136.50,905.75 133.00,911.00 133.00,911.00
             133.00,911.00 129.50,915.25 129.50,915.25
             129.50,915.25 126.00,921.25 126.00,921.25
             126.00,921.25 122.50,925.75 122.50,925.75
             122.50,925.75 120.55,933.09 120.55,933.09
             120.55,933.09 117.64,940.55 117.64,940.55
             117.64,940.55 114.00,948.91 114.00,948.91
             114.00,948.91 111.82,955.27 111.82,955.27
             111.82,955.27 110.55,961.45 110.55,961.45
             110.55,961.45 108.91,967.27 108.91,967.27
             108.91,967.27 107.82,973.64 107.82,973.64
             107.82,973.64 107.64,981.09 107.64,981.09
             107.64,981.09 107.09,986.55 107.09,986.73
             107.09,986.91 106.55,989.82 106.55,989.82" />
  <path id="New Path#2"
        fill="none" stroke="black" stroke-width="1"
        d="M 20.33,347.67
           C 20.33,347.67 27.33,343.67 27.33,343.67
             27.33,343.67 34.00,338.33 34.33,338.33
             34.67,338.33 44.00,331.33 44.67,331.33
             45.33,331.33 51.33,325.67 53.00,324.33
             54.67,323.00 62.00,318.00 62.00,318.00
             62.00,318.00 72.33,310.67 72.33,310.67
             72.33,310.67 82.00,301.33 82.00,301.33
             82.00,301.33 92.33,293.67 92.33,293.67
             92.33,293.67 102.67,287.00 102.67,287.00
             102.67,287.00 116.00,273.00 116.00,273.00
             116.00,273.00 125.67,267.00 126.00,266.67
             126.33,266.33 132.00,260.67 132.00,260.67
             132.00,260.67 145.67,250.00 145.67,250.00
             145.67,250.00 157.00,238.67 157.00,238.67
             157.00,238.67 172.67,227.00 172.67,227.00
             172.67,227.00 186.33,214.00 186.33,214.00
             186.33,214.00 196.67,202.33 196.67,202.33
             196.67,202.33 208.33,193.33 208.33,193.33
             208.33,193.33 219.33,183.67 219.33,183.67
             219.33,183.67 228.33,171.33 228.33,171.33
             228.33,171.33 233.82,163.82 233.82,163.82
             233.82,163.82 238.73,158.36 238.73,158.36
             238.73,158.36 244.91,152.73 244.91,152.36
             244.91,152.00 248.18,146.00 248.36,146.00
             248.55,146.00 253.09,138.55 253.09,138.55
             253.09,138.55 256.73,133.27 256.73,133.27
             256.73,133.27 260.73,127.64 260.73,127.64
             260.73,127.64 265.25,117.00 265.25,117.00
             265.25,117.00 270.50,109.50 270.50,109.50
             270.50,109.50 274.25,101.50 274.50,101.25
             274.75,101.00 279.00,91.50 279.00,91.50
             279.00,91.50 281.00,82.50 281.00,82.50
             281.00,82.50 283.75,74.75 283.75,74.25
             283.75,73.75 286.25,63.25 286.25,63.25
             286.25,63.25 286.50,54.25 286.50,54.25
             286.50,54.25 284.50,42.00 284.50,42.00" />
  <path id="New Path#1"
        fill="none" stroke="black" stroke-width="1"
        d="M 445.00,30.00
           C 445.00,30.00 447.00,37.00 447.00,37.00
             447.00,37.00 446.00,49.00 447.00,49.00
             448.00,49.00 448.00,53.00 449.00,55.00
             450.00,57.00 455.00,67.00 455.00,67.00
             455.00,67.00 458.00,73.00 459.00,74.00
             460.00,75.00 467.00,77.00 467.00,79.00
             467.00,81.00 470.00,89.00 470.00,91.00
             470.00,93.00 478.00,99.00 478.00,100.00
             478.00,101.00 488.00,109.00 488.00,110.00
             488.00,111.00 497.00,118.00 497.00,118.00
             497.00,118.00 502.00,132.00 502.00,132.00
             502.00,132.00 511.00,140.00 511.00,140.00
             511.00,140.00 518.00,148.00 518.00,148.00
             518.00,148.00 524.00,155.00 524.00,156.00
             524.00,157.00 533.00,163.00 533.00,164.00
             533.00,165.00 541.00,173.00 541.00,173.00
             541.00,173.00 549.00,182.00 549.00,182.00
             549.00,182.00 557.00,187.00 557.00,187.00
             557.00,187.00 567.00,197.00 567.00,197.00
             567.00,197.00 580.00,209.50 580.00,209.50
             580.00,209.50 592.00,216.50 592.00,217.00
             592.00,217.50 599.50,224.00 599.50,224.50
             599.50,225.00 610.50,229.50 610.50,230.50
             610.50,231.50 618.00,237.50 618.50,237.50
             619.00,237.50 627.00,240.50 627.50,241.00
             628.00,241.50 636.50,247.50 639.00,249.00
             641.50,250.50 651.00,257.00 651.00,257.00
             651.00,257.00 661.00,262.00 661.00,262.00
             661.00,262.00 668.00,269.00 668.00,269.00
             668.00,269.00 680.00,275.00 680.00,275.00
             680.00,275.00 689.50,280.00 689.50,280.00
             689.50,280.00 701.00,285.00 701.00,285.00
             701.00,285.00 707.00,291.50 707.00,291.50
             707.00,291.50 711.00,300.50 711.00,300.50" />
  <path id="New Path"
        fill="none" stroke="black" stroke-width="1"
        d="M 20.00,350.00
           C 20.00,350.00 29.33,356.00 29.33,356.00
             29.33,356.00 36.67,360.67 37.33,361.33
             38.00,362.00 47.33,366.00 47.33,366.00
             47.33,366.00 58.67,370.67 58.67,370.67
             58.67,370.67 70.00,374.00 70.00,374.00
             70.00,374.00 83.33,379.33 83.33,379.33
             83.33,379.33 91.33,382.00 93.33,383.33
             95.33,384.67 102.00,386.67 102.67,387.33
             103.33,388.00 107.33,390.00 109.33,390.00
             111.33,390.00 120.00,390.67 121.33,390.67
             122.67,390.67 131.33,394.00 132.67,394.67
             134.00,395.33 144.67,398.00 144.67,398.00
             144.67,398.00 160.00,399.33 160.00,399.33
             160.00,399.33 177.33,401.33 177.33,401.33
             177.33,401.33 186.67,403.33 188.67,404.00
             190.67,404.67 213.33,404.67 213.33,404.67
             213.33,404.67 225.33,407.33 226.00,408.00
             226.67,408.67 241.33,408.67 242.67,408.67
             244.00,408.67 247.33,408.67 252.00,408.67
             256.67,408.67 270.00,408.67 270.00,408.67
             270.00,408.67 283.33,410.67 283.33,410.67
             283.33,410.67 304.67,411.33 304.67,411.33
             304.67,411.33 326.67,412.67 326.67,412.67
             326.67,412.67 348.67,412.00 348.67,412.00
             348.67,412.00 376.00,413.00 376.00,413.00
             376.00,413.00 395.00,406.00 395.00,406.00
             395.00,406.00 418.00,407.00 421.00,407.00
             424.00,407.00 444.00,406.00 444.00,406.00
             444.00,406.00 464.00,400.00 464.00,400.00
             464.00,400.00 489.00,399.00 489.00,399.00
             489.00,399.00 510.00,397.00 510.00,397.00
             510.00,397.00 535.00,391.00 536.00,391.00
             537.00,391.00 564.00,383.00 564.00,383.00
             564.00,383.00 585.00,375.00 585.00,375.00
             585.00,375.00 604.00,367.00 604.00,367.00
             604.00,367.00 620.00,358.00 620.00,358.00
             620.00,358.00 639.00,350.00 639.00,350.00
             639.00,350.00 666.00,343.00 666.00,343.00
             666.00,343.00 678.00,334.00 678.00,334.00
             678.00,334.00 693.00,326.00 693.00,326.00
             693.00,326.00 706.00,315.00 706.00,315.00
             706.00,315.00 717.00,303.00 717.00,303.00" />
  <path id="Unnamed"
        fill="none" stroke="black" stroke-width="1"
        d="M 291.00,36.00
           C 291.00,36.00 300.00,39.00 300.00,39.00
             300.00,39.00 315.00,42.50 315.00,42.50
             315.00,42.50 324.50,44.50 324.50,44.50
             324.50,44.50 337.50,44.50 337.50,44.50
             337.50,44.50 346.00,45.50 346.00,45.50
             346.00,45.50 360.00,45.50 360.00,45.50
             360.00,45.50 373.00,46.00 373.00,46.00
             373.00,46.00 386.50,46.00 387.00,46.00
             387.50,46.00 399.50,44.50 399.50,44.50
             399.50,44.50 406.50,42.00 407.00,42.00
             407.50,42.00 416.00,40.00 416.50,39.50
             417.00,39.00 430.00,36.00 430.50,36.00
             431.00,36.00 442.00,31.50 442.00,31.50
             442.00,31.50 449.50,29.00 449.50,29.00
             449.50,29.00 455.50,23.00 455.50,23.00
             455.50,23.00 465.50,18.50 465.50,18.50
             465.50,18.50 450.00,21.50 450.00,21.50
             450.00,21.50 443.00,26.50 442.00,26.50
             441.00,26.50 434.50,27.00 433.50,27.00
             432.50,27.00 426.50,26.00 426.50,26.00
             426.50,26.00 418.00,23.50 417.50,23.50
             417.00,23.50 404.50,22.00 404.50,22.00
             404.50,22.00 394.50,20.00 394.50,20.00
             394.50,20.00 385.00,18.00 385.00,18.00
             385.00,18.00 372.00,18.00 372.00,18.00
             372.00,18.00 364.50,18.00 364.50,18.00
             364.50,18.00 355.50,18.00 355.00,18.00
             354.50,18.00 346.00,19.00 346.00,19.00
             346.00,19.00 339.00,20.50 338.50,20.50
             338.00,20.50 329.50,22.00 329.50,22.00
             329.50,22.00 326.00,25.50 326.00,25.50
             326.00,25.50 320.50,28.00 320.50,28.00
             320.50,28.00 315.00,31.50 315.00,31.50" />
</svg>
