<?xml version="1.0" encoding="UTF-8" standalone="no"?>
<!DOCTYPE svg PUBLIC "-//W3C//DTD SVG 20010904//EN"
              "http://www.w3.org/TR/2001/REC-SVG-20010904/DTD/svg10.dtd">

<svg xmlns="http://www.w3.org/2000/svg"
     width="27in" height="36in"
     viewBox="0 0 1944 2592">
 <g>
  <path id="New Path#5"
        fill="none" stroke="black" stroke-width="1"
        d="M 945.75,1823.25
           C 945.75,1823.25 935.50,1830.75 935.50,1830.75
             935.50,1830.75 924.00,1839.50 924.00,1839.50
             924.00,1839.50 910.75,1846.25 910.75,1846.25
             910.75,1846.25 896.00,1851.50 896.00,1851.50
             896.00,1851.50 882.50,1856.75 882.50,1856.75
             882.50,1856.75 871.50,1862.25 871.50,1862.25
             871.50,1862.25 856.50,1866.75 856.50,1866.75
             856.50,1866.75 842.25,1871.75 842.25,1871.75
             842.25,1871.75 828.75,1876.00 828.75,1876.00
             828.75,1876.00 814.50,1879.50 814.50,1879.50
             814.50,1879.50 802.25,1883.75 802.25,1883.75
             802.25,1883.75 790.50,1884.75 790.50,1884.75
             790.50,1884.75 780.00,1889.25 780.00,1889.25
             780.00,1889.25 766.50,1893.75 766.50,1893.75
             766.50,1893.75 750.00,1894.75 750.00,1894.75
             750.00,1894.75 735.00,1896.25 735.00,1896.25
             735.00,1896.25 722.00,1897.00 722.00,1897.00
             722.00,1897.00 706.75,1897.00 706.75,1897.00
             706.75,1897.00 687.00,1896.75 687.00,1896.75
             687.00,1896.75 667.50,1895.75 667.50,1895.75
             667.50,1895.75 651.50,1892.75 651.50,1892.75
             651.50,1892.75 633.25,1889.25 633.25,1889.25
             633.25,1889.25 616.75,1885.00 616.75,1885.00
             616.75,1885.00 601.25,1881.00 601.25,1881.00
             601.25,1881.00 585.00,1878.00 585.00,1878.00
             585.00,1878.00 569.00,1873.25 569.00,1873.25
             569.00,1873.25 553.75,1867.50 553.75,1867.50
             553.75,1867.50 538.75,1862.50 538.75,1862.50
             538.75,1862.50 522.50,1857.25 522.50,1857.25
             522.50,1857.25 506.00,1850.25 506.00,1850.25
             506.00,1850.25 492.50,1843.75 492.50,1843.75
             492.50,1843.75 477.00,1832.75 477.00,1832.75
             477.00,1832.75 465.50,1825.00 465.50,1825.00
             465.50,1825.00 454.25,1815.50 454.25,1815.50
             454.25,1815.50 448.50,1811.25 448.50,1811.25" />
  <path id="New Path#4"
        fill="none" stroke="black" stroke-width="1"
        d="M 853.25,1189.75
           C 853.25,1189.75 851.50,1204.25 851.50,1204.25
             851.50,1204.25 849.00,1221.50 849.00,1221.50
             849.00,1221.50 844.75,1239.75 844.75,1239.75
             844.75,1239.75 840.75,1258.50 840.75,1258.50
             840.75,1258.50 839.50,1274.75 839.50,1274.75
             839.50,1274.75 838.25,1294.25 838.25,1294.25
             838.25,1294.25 838.25,1316.50 838.25,1316.50
             838.25,1316.50 839.50,1337.25 839.50,1337.25
             839.50,1337.25 840.00,1356.00 840.00,1356.00
             840.00,1356.00 840.50,1371.75 840.50,1371.75
             840.50,1371.75 839.75,1391.75 839.75,1391.75
             839.75,1391.75 840.25,1410.25 840.25,1410.25
             840.25,1410.25 841.50,1434.50 841.50,1434.50
             841.50,1434.50 843.25,1453.50 843.25,1453.50
             843.25,1453.50 844.50,1471.50 844.50,1471.50
             844.50,1471.50 847.25,1495.75 847.25,1495.75
             847.25,1495.75 850.50,1524.50 850.50,1524.50
             850.50,1524.50 853.25,1551.50 853.25,1551.50
             853.25,1551.50 857.75,1573.50 857.75,1573.50
             857.75,1573.50 863.50,1594.00 863.50,1594.00
             863.50,1594.00 871.00,1618.75 871.00,1618.75
             871.00,1618.75 875.75,1633.75 875.75,1633.75
             875.75,1633.75 881.25,1647.25 881.25,1647.25
             881.25,1647.25 887.00,1659.25 887.00,1659.25
             887.00,1659.25 894.25,1673.75 894.25,1673.75
             894.25,1673.75 900.00,1682.25 900.00,1682.25
             900.00,1682.25 908.25,1693.50 908.25,1693.50
             908.25,1693.50 918.25,1706.25 918.25,1706.25
             918.25,1706.25 926.75,1717.25 926.75,1717.25
             926.75,1717.25 931.75,1723.25 931.75,1723.25
             931.75,1723.25 938.25,1728.25 938.25,1728.25
             938.25,1728.25 942.25,1734.25 942.25,1734.25
             942.25,1734.25 946.00,1744.25 946.00,1744.25
             946.00,1744.25 947.50,1756.25 947.50,1756.25
             947.50,1756.25 947.50,1771.00 947.50,1771.00
             947.50,1771.00 947.50,1785.00 947.50,1785.00
             947.50,1785.00 947.75,1799.50 947.75,1799.50
             947.75,1799.50 946.50,1811.50 946.50,1811.50
             946.50,1811.50 945.75,1822.50 945.75,1822.50" />
  <path id="New Path#3"
        fill="none" stroke="black" stroke-width="1"
        d="M 737.25,1177.50
           C 737.25,1177.50 737.50,1189.00 737.50,1189.00
             737.50,1189.00 736.25,1202.00 736.25,1202.00
             736.25,1202.00 734.50,1218.00 734.50,1218.00
             734.50,1218.00 732.50,1234.25 732.50,1234.25
             732.50,1234.25 729.00,1252.50 729.00,1252.50
             729.00,1252.50 727.50,1267.75 727.50,1267.75
             727.50,1267.75 724.75,1286.00 724.75,1286.00
             724.75,1286.00 720.50,1304.25 720.50,1304.25
             720.50,1304.25 718.00,1319.50 718.00,1319.50
             718.00,1319.50 714.25,1333.75 714.25,1333.75
             714.25,1333.75 708.25,1353.50 708.25,1353.50
             708.25,1353.50 704.75,1368.25 704.75,1368.25
             704.75,1368.25 699.00,1388.50 699.00,1388.50
             699.00,1388.50 695.25,1403.25 695.25,1403.25
             695.25,1403.25 689.25,1419.50 689.25,1419.50
             689.25,1419.50 682.00,1438.25 682.00,1438.25
             682.00,1438.25 674.50,1457.50 674.50,1457.50
             674.50,1457.50 663.75,1477.50 663.75,1477.50
             663.75,1477.50 655.50,1493.75 655.50,1493.75
             655.50,1493.75 645.50,1513.00 645.50,1513.00
             645.50,1513.00 636.00,1531.00 636.00,1531.00
             636.00,1531.00 624.25,1549.50 624.25,1549.50
             624.25,1549.50 615.50,1566.50 615.50,1566.50
             615.50,1566.50 606.25,1582.75 606.25,1582.75
             606.25,1582.75 597.25,1598.00 597.25,1598.00
             597.25,1598.00 586.75,1614.25 586.75,1614.25
             586.75,1614.25 575.50,1631.25 575.50,1631.25
             575.50,1631.25 563.75,1645.75 563.75,1645.75
             563.75,1645.75 551.00,1662.25 551.00,1662.25
             551.00,1662.25 539.00,1676.00 539.00,1676.00
             539.00,1676.00 522.75,1690.50 522.75,1690.50
             522.75,1690.50 511.50,1700.00 511.50,1700.00
             511.50,1700.00 500.50,1706.75 500.50,1706.75
             500.50,1706.75 490.50,1714.50 490.50,1714.50
             490.50,1714.50 482.00,1723.75 482.00,1723.75
             482.00,1723.75 472.00,1734.25 472.00,1734.25
             472.00,1734.25 463.75,1745.25 463.75,1745.25
             463.75,1745.25 457.25,1757.75 457.25,1757.75
             457.25,1757.75 453.75,1768.75 453.75,1768.75
             453.75,1768.75 450.75,1781.75 450.75,1781.75
             450.75,1781.75 448.75,1793.00 448.75,1793.00
             448.75,1793.00 447.50,1803.00 447.50,1803.00
             447.50,1803.00 448.00,1813.00 448.00,1813.00" />
  <path id="New Path#2"
        fill="none" stroke="black" stroke-width="1"
        d="M 366.50,966.00
           C 366.50,966.00 372.25,976.75 372.25,976.75
             372.25,976.75 379.50,988.50 379.50,988.50
             379.50,988.50 386.75,998.00 386.75,998.00
             386.75,998.00 396.25,1007.75 396.25,1007.75
             396.25,1007.75 406.25,1018.00 406.25,1018.00
             406.25,1018.00 415.25,1027.00 415.25,1027.00
             415.25,1027.00 424.75,1035.25 424.75,1035.25
             424.75,1035.25 440.50,1047.25 440.50,1047.25
             440.50,1047.25 453.50,1057.25 453.50,1057.25
             453.50,1057.25 464.00,1064.25 464.00,1064.25
             464.00,1064.25 477.50,1073.50 477.50,1073.50
             477.50,1073.50 492.25,1082.75 492.25,1082.75
             492.25,1082.75 507.50,1091.50 507.50,1091.50
             507.50,1091.50 522.75,1099.75 522.75,1099.75
             522.75,1099.75 538.00,1107.50 538.00,1107.50
             538.00,1107.50 552.25,1114.00 552.25,1114.00
             552.25,1114.00 569.25,1121.00 569.25,1121.00
             569.25,1121.00 588.50,1128.75 588.50,1128.75
             588.50,1128.75 604.25,1135.50 604.25,1135.50
             604.25,1135.50 619.50,1141.00 619.50,1141.00
             619.50,1141.00 635.75,1147.25 635.75,1147.25
             635.75,1147.25 650.25,1152.75 650.25,1152.75
             650.25,1152.75 669.75,1160.25 669.75,1160.25
             669.75,1160.25 684.00,1162.50 684.00,1162.50
             684.00,1162.50 697.75,1167.25 697.75,1167.25
             697.75,1167.25 713.00,1170.50 713.00,1170.50
             713.00,1170.50 726.75,1173.75 726.75,1173.75
             726.75,1173.75 739.25,1177.25 739.25,1177.25
             739.25,1177.25 755.25,1180.00 755.25,1180.00
             755.25,1180.00 775.75,1182.25 775.75,1182.25
             775.75,1182.25 793.75,1183.50 793.75,1183.50
             793.75,1183.50 815.00,1185.00 815.00,1185.00
             815.00,1185.00 834.50,1187.00 834.50,1187.00
             834.50,1187.00 856.00,1188.25 856.00,1188.25
             856.00,1188.25 879.50,1189.75 879.50,1189.75
             879.50,1189.75 900.50,1190.25 900.50,1190.25
             900.50,1190.25 919.75,1190.00 919.75,1190.00
             919.75,1190.00 939.00,1188.75 939.00,1188.75
             939.00,1188.75 962.75,1186.75 962.75,1186.75
             962.75,1186.75 986.00,1185.00 986.00,1185.00
             986.00,1185.00 1009.25,1182.25 1009.25,1182.25
             1009.25,1182.25 1032.25,1178.00 1032.25,1178.00
             1032.25,1178.00 1055.75,1172.50 1055.75,1172.50
             1055.75,1172.50 1075.25,1166.75 1075.25,1166.75
             1075.25,1166.75 1092.50,1160.25 1092.50,1160.25
             1092.50,1160.25 1112.50,1153.50 1112.50,1153.50
             1112.50,1153.50 1131.00,1146.00 1131.00,1146.00
             1131.00,1146.00 1150.00,1138.00 1150.00,1138.00
             1150.00,1138.00 1167.00,1131.00 1167.00,1131.00
             1167.00,1131.00 1182.00,1123.75 1182.00,1123.75
             1182.00,1123.75 1194.25,1116.00 1194.25,1116.00
             1194.25,1116.00 1207.00,1108.75 1207.00,1108.75
             1207.00,1108.75 1223.25,1099.75 1223.25,1099.75
             1223.25,1099.75 1240.00,1090.75 1240.00,1090.75
             1240.00,1090.75 1253.00,1083.75 1253.00,1083.75
             1253.00,1083.75 1267.25,1073.50 1267.25,1073.50" />
  <path id="New Path#1"
        fill="none" stroke="black" stroke-width="1"
        d="M 653.50,635.00
           C 653.50,635.00 650.00,646.75 650.00,646.75
             650.00,646.75 644.50,662.50 644.50,662.50
             644.50,662.50 637.75,678.00 637.75,678.00
             637.75,678.00 631.00,691.75 631.00,691.75
             631.00,691.75 624.50,705.00 624.50,705.00
             624.50,705.00 619.50,717.50 619.50,717.50
             619.50,717.50 613.75,730.00 613.75,730.00
             613.75,730.00 606.75,741.25 606.75,741.25
             606.75,741.25 600.50,753.75 600.50,753.75
             600.50,753.75 593.00,765.50 593.00,765.50
             593.00,765.50 584.25,778.50 584.25,778.50
             584.25,778.50 575.25,792.25 575.25,792.25
             575.25,792.25 564.25,806.50 564.25,806.50
             564.25,806.50 554.50,820.00 554.50,820.00
             554.50,820.00 544.00,834.50 544.00,834.50
             544.00,834.50 531.00,848.25 531.00,848.25
             531.00,848.25 518.00,862.25 518.00,862.25
             518.00,862.25 505.00,873.00 505.00,873.00
             505.00,873.00 492.25,883.25 492.25,883.25
             492.25,883.25 479.75,893.75 479.75,893.75
             479.75,893.75 468.25,902.00 468.25,902.00
             468.25,902.00 456.50,910.25 456.50,910.25
             456.50,910.25 442.00,919.25 442.00,919.25
             442.00,919.25 428.50,927.50 428.50,927.50
             428.50,927.50 415.50,935.25 415.50,935.25
             415.50,935.25 400.50,941.25 400.50,941.25
             400.50,941.25 388.50,946.50 388.50,946.50
             388.50,946.50 377.00,952.25 377.00,952.25
             377.00,952.25 366.75,958.00 366.75,958.00" />
  <path id="New Path"
        fill="none" stroke="black" stroke-width="1"
        d="M 1027.50,635.00
           C 1027.50,635.00 1029.00,645.50 1029.00,645.50
             1029.00,645.50 1031.25,657.75 1031.25,657.75
             1031.25,657.75 1033.00,669.75 1033.00,669.75
             1033.00,669.75 1034.50,680.75 1034.50,680.75
             1034.50,680.75 1035.50,693.25 1035.50,693.25
             1035.50,693.25 1035.50,706.00 1035.50,706.00
             1035.50,706.00 1035.00,720.25 1035.00,720.25
             1035.00,720.25 1035.50,732.00 1035.50,732.00
             1035.50,732.00 1035.75,743.50 1035.75,743.50
             1035.75,743.50 1035.75,757.75 1035.75,757.75
             1035.75,757.75 1036.50,768.75 1036.50,768.75
             1036.50,768.75 1037.50,781.25 1037.50,781.25
             1037.50,781.25 1040.00,793.75 1040.00,793.75
             1040.00,793.75 1043.00,808.25 1043.00,808.25
             1043.00,808.25 1046.75,820.50 1046.75,820.50
             1046.75,820.50 1051.25,835.75 1051.25,835.75
             1051.25,835.75 1055.75,850.50 1055.75,850.50
             1055.75,850.50 1061.75,864.00 1061.75,864.00
             1061.75,864.00 1067.25,874.25 1067.25,874.25
             1067.25,874.25 1074.00,886.75 1074.00,886.75
             1074.00,886.75 1080.75,897.75 1080.75,897.75
             1080.75,897.75 1090.25,911.75 1090.25,911.75
             1090.25,911.75 1100.75,923.25 1100.75,923.25
             1100.75,923.25 1109.25,934.75 1109.25,934.75
             1109.25,934.75 1119.75,945.25 1119.75,945.25
             1119.75,945.25 1129.50,955.00 1129.50,955.00
             1129.50,955.00 1141.25,968.00 1141.25,968.00
             1141.25,968.00 1154.50,980.50 1154.50,980.50
             1154.50,980.50 1166.75,990.75 1166.75,990.75
             1166.75,990.75 1179.50,1002.00 1179.50,1002.00
             1179.50,1002.00 1191.50,1011.00 1191.50,1011.00
             1191.50,1011.00 1202.25,1020.75 1202.25,1020.75
             1202.25,1020.75 1213.25,1030.25 1213.25,1030.25
             1213.25,1030.25 1225.00,1038.75 1225.00,1038.75
             1225.00,1038.75 1236.75,1047.75 1236.75,1047.75
             1236.75,1047.75 1248.75,1056.50 1248.75,1056.50
             1248.75,1056.50 1260.50,1064.75 1260.50,1064.75
             1260.50,1064.75 1267.75,1070.75 1267.75,1070.75" />
  <path id="Unnamed"
        fill="none" stroke="black" stroke-width="1"
        d="M 1022.00,631.50
           C 1022.00,631.50 1017.00,614.50 1017.00,614.50
             1017.00,614.50 1007.00,603.00 1007.00,603.00
             1007.00,603.00 998.50,593.00 998.50,593.00
             998.50,593.00 990.50,588.00 990.50,588.00
             990.50,588.00 977.00,583.00 977.00,583.00
             977.00,583.00 962.00,578.50 962.00,578.50
             962.00,578.50 951.50,575.50 951.50,575.50
             951.50,575.50 931.50,572.00 931.50,572.00
             931.50,572.00 910.00,569.00 910.00,569.00
             910.00,569.00 892.50,566.50 892.50,566.50
             892.50,566.50 874.00,565.00 874.00,565.00
             874.00,565.00 851.50,563.50 851.50,563.50
             851.50,563.50 834.50,563.50 834.50,563.50
             834.50,563.50 813.50,562.50 813.50,562.50
             813.50,562.50 793.50,563.00 793.50,563.00
             793.50,563.00 778.00,564.00 778.00,564.00
             778.00,564.00 762.00,566.50 762.00,566.50
             762.00,566.50 746.00,568.50 746.00,568.50
             746.00,568.50 731.50,570.50 731.50,570.50
             731.50,570.50 719.00,574.50 719.00,574.50
             719.00,574.50 706.50,578.00 706.50,578.00
             706.50,578.00 695.50,583.00 695.50,583.00
             695.50,583.00 685.00,588.00 685.00,588.00
             685.00,588.00 679.00,592.00 679.00,592.00
             679.00,592.00 674.00,597.00 674.00,597.00
             674.00,597.00 668.75,602.50 668.75,602.50
             668.75,602.50 666.75,609.00 666.75,609.00
             666.75,609.00 662.75,615.75 662.75,615.75
             662.75,615.75 658.50,622.50 658.50,622.50
             658.50,622.50 656.50,632.25 656.50,632.25
             656.50,632.25 656.75,637.75 656.75,637.75
             656.75,637.75 659.25,641.25 659.25,641.25
             659.25,641.25 662.25,643.75 662.50,644.00
             662.75,644.25 668.00,648.25 668.00,648.25
             668.00,648.25 675.75,654.00 675.75,654.00
             675.75,654.00 684.50,659.00 684.50,659.00
             684.50,659.00 693.50,660.75 693.50,660.75
             693.50,660.75 702.00,663.75 702.00,663.75
             702.00,663.75 712.75,667.75 712.75,667.75
             712.75,667.75 725.00,669.75 725.00,669.75
             725.00,669.75 736.75,671.75 736.75,671.75
             736.75,671.75 750.50,676.25 750.50,676.25
             750.50,676.25 762.50,678.25 762.50,678.25
             762.50,678.25 777.75,680.75 777.75,680.75
             777.75,680.75 791.50,682.25 791.50,682.25
             791.50,682.25 807.00,684.00 807.00,684.00
             807.00,684.00 816.75,684.75 816.75,684.75
             816.75,684.75 829.50,686.50 829.50,686.50
             829.50,686.50 841.50,687.50 841.50,687.50
             841.50,687.50 856.00,688.50 856.00,688.50
             856.00,688.50 869.25,688.75 869.25,688.75
             869.25,688.75 885.00,690.50 885.00,690.50
             885.00,690.50 897.50,690.00 897.50,690.00
             897.50,690.00 916.50,689.25 916.50,689.25
             916.50,689.25 930.75,689.25 930.75,689.25
             930.75,689.25 946.00,686.00 946.00,686.00
             946.00,686.00 959.50,683.00 959.50,683.00
             959.50,683.00 969.75,680.50 969.75,680.50
             969.75,680.50 980.25,675.00 980.25,675.00
             980.25,675.00 989.00,670.50 989.00,670.50
             989.00,670.50 997.00,665.75 997.00,665.75
             997.00,665.75 1004.75,659.25 1004.75,659.25
             1004.75,659.25 1012.50,652.00 1012.50,652.00
             1012.50,652.00 1017.75,644.50 1017.75,644.50
             1017.75,644.50 1021.00,638.25 1021.00,638.25
             1021.00,638.25 1022.25,631.50 1022.25,631.50" />
	</g>
</svg>
