<?xml version="1.0" encoding="UTF-8" standalone="no"?>
<!DOCTYPE svg PUBLIC "-//W3C//DTD SVG 20010904//EN"
              "http://www.w3.org/TR/2001/REC-SVG-20010904/DTD/svg10.dtd">

<svg xmlns="http://www.w3.org/2000/svg"
     width="34in" height="45.3333in"
     viewBox="0 0 2448 3264">
  <path id="Unnamed#4"
        fill="none" stroke="black" stroke-width="1"
        d="M 1077.00,2469.00
           C 1077.00,2469.00 1014.00,2466.00 1014.00,2466.00
             1014.00,2466.00 948.00,2481.00 948.00,2481.00
             948.00,2481.00 885.00,2502.00 885.00,2502.00
             885.00,2502.00 843.00,2547.00 843.00,2547.00
             843.00,2547.00 813.00,2598.00 813.00,2598.00
             813.00,2598.00 795.00,2661.00 795.00,2661.00
             795.00,2661.00 789.00,2706.00 789.00,2706.00
             789.00,2706.00 783.00,2775.00 783.00,2775.00
             783.00,2775.00 801.00,2832.00 801.00,2832.00
             801.00,2832.00 828.00,2868.00 828.00,2868.00
             828.00,2868.00 864.00,2901.00 864.00,2901.00
             864.00,2901.00 921.00,2928.00 921.00,2928.00
             921.00,2928.00 972.00,2958.00 972.00,2958.00
             972.00,2958.00 1035.00,2967.00 1035.00,2967.00
             1035.00,2967.00 1104.00,2979.00 1104.00,2979.00
             1104.00,2979.00 1170.00,2976.00 1170.00,2976.00
             1170.00,2976.00 1233.00,2982.00 1233.00,2982.00
             1233.00,2982.00 1278.00,2976.00 1278.00,2976.00
             1278.00,2976.00 1344.00,2964.00 1344.00,2964.00
             1344.00,2964.00 1401.00,2949.00 1401.00,2949.00
             1401.00,2949.00 1458.00,2925.00 1458.00,2925.00
             1458.00,2925.00 1509.00,2895.00 1509.00,2895.00
             1509.00,2895.00 1542.00,2850.00 1542.00,2850.00
             1542.00,2850.00 1557.00,2766.00 1557.00,2766.00
             1557.00,2766.00 1557.00,2715.00 1557.00,2715.00
             1557.00,2715.00 1536.00,2667.00 1536.00,2667.00
             1536.00,2667.00 1500.00,2625.00 1500.00,2625.00
             1500.00,2625.00 1476.00,2592.00 1476.00,2592.00
             1476.00,2592.00 1431.00,2556.00 1431.00,2556.00
             1431.00,2556.00 1401.00,2535.00 1401.00,2535.00
             1401.00,2535.00 1353.00,2508.00 1353.00,2508.00
             1353.00,2508.00 1320.00,2487.00 1320.00,2487.00
             1320.00,2487.00 1272.00,2478.00 1272.00,2478.00
             1272.00,2478.00 1206.00,2484.00 1206.00,2484.00" />
  <path id="Unnamed#3"
        fill="none" stroke="black" stroke-width="1"
        d="M 1173.00,2712.00
           C 1173.00,2712.00 1143.00,2730.00 1143.00,2730.00
             1143.00,2730.00 1113.00,2733.00 1113.00,2733.00
             1113.00,2733.00 1083.00,2724.00 1083.00,2724.00" />
  <path id="Unnamed#2"
        fill="none" stroke="black" stroke-width="1"
        d="M 525.00,801.00
           C 525.00,801.00 504.00,858.00 504.00,858.00
             504.00,858.00 483.00,963.00 483.00,963.00
             483.00,963.00 468.00,1011.00 468.00,1014.00
             468.00,1017.00 471.00,1077.00 471.00,1077.00
             471.00,1077.00 462.00,1155.00 462.00,1155.00
             462.00,1155.00 468.00,1239.00 468.00,1239.00
             468.00,1239.00 480.00,1293.00 480.00,1296.00
             480.00,1299.00 477.00,1368.00 477.00,1368.00
             477.00,1368.00 489.00,1437.00 489.00,1437.00
             489.00,1437.00 495.00,1500.00 495.00,1500.00
             495.00,1500.00 522.00,1560.00 522.00,1560.00
             522.00,1560.00 543.00,1623.00 543.00,1623.00
             543.00,1623.00 570.00,1668.00 570.00,1668.00
             570.00,1668.00 594.00,1734.00 594.00,1734.00
             594.00,1734.00 633.00,1791.00 633.00,1791.00
             633.00,1791.00 687.00,1848.00 687.00,1848.00
             687.00,1848.00 750.00,1890.00 750.00,1890.00
             750.00,1890.00 810.00,1917.00 810.00,1917.00
             810.00,1917.00 858.00,1959.00 858.00,1959.00
             858.00,1959.00 915.00,1977.00 918.00,1980.00
             921.00,1983.00 996.00,2010.00 996.00,2010.00
             996.00,2010.00 1032.00,2028.00 1032.00,2028.00
             1032.00,2028.00 1074.00,2052.00 1074.00,2052.00
             1074.00,2052.00 1104.00,2088.00 1104.00,2091.00
             1104.00,2094.00 1122.00,2154.00 1122.00,2154.00
             1122.00,2154.00 1128.00,2226.00 1128.00,2229.00
             1128.00,2232.00 1122.00,2289.00 1122.00,2289.00
             1122.00,2289.00 1116.00,2361.00 1116.00,2361.00
             1116.00,2361.00 1110.00,2406.00 1110.00,2409.00
             1110.00,2412.00 1107.00,2472.00 1107.00,2472.00
             1107.00,2472.00 1101.00,2529.00 1101.00,2532.00
             1101.00,2535.00 1098.00,2583.00 1098.00,2583.00
             1098.00,2583.00 1092.00,2634.00 1092.00,2634.00
             1092.00,2634.00 1086.00,2679.00 1086.00,2679.00
             1086.00,2679.00 1077.00,2718.00 1077.00,2718.00" />
  <path id="Unnamed#1"
        fill="none" stroke="black" stroke-width="1"
        d="M 2100.00,921.00
           C 2100.00,921.00 2109.00,969.00 2109.00,969.00
             2109.00,969.00 2109.00,1041.00 2109.00,1041.00
             2109.00,1041.00 2112.00,1110.00 2112.00,1110.00
             2112.00,1110.00 2112.00,1179.00 2112.00,1179.00
             2112.00,1179.00 2106.00,1227.00 2106.00,1230.00
             2106.00,1233.00 2112.00,1302.00 2112.00,1302.00
             2112.00,1302.00 2106.00,1386.00 2106.00,1386.00
             2106.00,1386.00 2106.00,1458.00 2106.00,1458.00
             2106.00,1458.00 2088.00,1536.00 2088.00,1536.00
             2088.00,1536.00 2076.00,1587.00 2076.00,1587.00
             2076.00,1587.00 2043.00,1668.00 2043.00,1668.00
             2043.00,1668.00 2019.00,1713.00 2019.00,1713.00
             2019.00,1713.00 1977.00,1770.00 1977.00,1770.00
             1977.00,1770.00 1935.00,1812.00 1935.00,1812.00
             1935.00,1812.00 1878.00,1854.00 1878.00,1854.00
             1878.00,1854.00 1794.00,1890.00 1794.00,1890.00
             1794.00,1890.00 1734.00,1908.00 1734.00,1908.00
             1734.00,1908.00 1665.00,1929.00 1665.00,1929.00
             1665.00,1929.00 1587.00,1947.00 1587.00,1947.00
             1587.00,1947.00 1521.00,1950.00 1521.00,1950.00
             1521.00,1950.00 1464.00,1962.00 1464.00,1962.00
             1464.00,1962.00 1413.00,1977.00 1413.00,1977.00
             1413.00,1977.00 1365.00,1998.00 1365.00,1998.00
             1365.00,1998.00 1326.00,2025.00 1326.00,2025.00
             1326.00,2025.00 1281.00,2067.00 1281.00,2067.00
             1281.00,2067.00 1245.00,2115.00 1245.00,2115.00
             1245.00,2115.00 1233.00,2163.00 1233.00,2163.00
             1233.00,2163.00 1209.00,2232.00 1209.00,2232.00
             1209.00,2232.00 1206.00,2286.00 1206.00,2286.00
             1206.00,2286.00 1197.00,2352.00 1197.00,2352.00
             1197.00,2352.00 1194.00,2409.00 1194.00,2409.00
             1194.00,2409.00 1182.00,2472.00 1182.00,2472.00
             1182.00,2472.00 1176.00,2520.00 1176.00,2520.00
             1176.00,2520.00 1176.00,2571.00 1176.00,2571.00
             1176.00,2571.00 1167.00,2625.00 1167.00,2625.00
             1167.00,2625.00 1164.00,2673.00 1164.00,2673.00
             1164.00,2673.00 1164.00,2712.00 1164.00,2712.00" />
  <path id="Unnamed#7"
        fill="none" stroke="black" stroke-width="1"
        d="M 666.00,2892.00
           C 666.00,2892.00 684.00,2967.00 684.00,2967.00
             684.00,2967.00 702.00,3000.00 705.00,3003.00
             708.00,3006.00 756.00,3039.00 756.00,3039.00
             756.00,3039.00 801.00,3078.00 801.00,3078.00
             801.00,3078.00 849.00,3099.00 849.00,3099.00
             849.00,3099.00 900.00,3129.00 900.00,3129.00
             900.00,3129.00 954.00,3156.00 954.00,3156.00
             954.00,3156.00 1023.00,3171.00 1023.00,3171.00
             1023.00,3171.00 1089.00,3177.00 1089.00,3177.00
             1089.00,3177.00 1155.00,3183.00 1155.00,3183.00
             1155.00,3183.00 1233.00,3186.00 1233.00,3186.00
             1233.00,3186.00 1305.00,3186.00 1305.00,3186.00
             1305.00,3186.00 1350.00,3174.00 1350.00,3174.00
             1350.00,3174.00 1389.00,3162.00 1389.00,3162.00
             1389.00,3162.00 1446.00,3135.00 1446.00,3135.00
             1446.00,3135.00 1488.00,3111.00 1488.00,3111.00
             1488.00,3111.00 1548.00,3078.00 1548.00,3081.00
             1548.00,3084.00 1587.00,3045.00 1587.00,3045.00
             1587.00,3045.00 1611.00,3006.00 1611.00,3006.00" />
  <path id="Unnamed#6"
        fill="none" stroke="black" stroke-width="1"
        d="M 1560.00,2784.00
           C 1560.00,2784.00 1578.00,2874.00 1578.00,2874.00
             1578.00,2874.00 1593.00,2946.00 1593.00,2946.00
             1593.00,2946.00 1605.00,3006.00 1605.00,3006.00" />
  <path id="Unnamed#5"
        fill="none" stroke="black" stroke-width="1"
        d="M 783.00,2706.00
           C 783.00,2706.00 750.00,2766.00 747.00,2772.00
             744.00,2778.00 708.00,2829.00 708.00,2832.00
             708.00,2835.00 672.00,2877.00 672.00,2877.00" />
  <path id="Unnamed"
        fill="none" stroke="black" stroke-width="1"
        d="M 596.00,700.00
           C 600.00,700.00 648.00,684.00 648.00,684.00
             648.00,684.00 760.00,668.00 760.00,668.00
             760.00,668.00 828.00,652.00 828.00,652.00
             828.00,652.00 984.00,632.00 984.00,632.00
             984.00,632.00 1112.00,624.00 1112.00,624.00
             1112.00,624.00 1268.00,612.00 1268.00,612.00
             1268.00,612.00 1392.00,620.00 1392.00,620.00
             1392.00,620.00 1520.00,624.00 1520.00,624.00
             1520.00,624.00 1684.00,640.00 1688.00,648.00
             1692.00,656.00 1816.00,676.00 1816.00,676.00
             1816.00,676.00 1896.00,716.00 1896.00,716.00
             1896.00,716.00 1976.00,756.00 1976.00,756.00
             1976.00,756.00 2028.00,800.00 2028.00,800.00
             2028.00,800.00 2072.00,856.00 2072.00,856.00
             2072.00,856.00 2088.00,900.00 2088.00,900.00
             2088.00,900.00 2080.00,956.00 2080.00,956.00
             2080.00,956.00 2016.00,1028.00 2016.00,1028.00
             2016.00,1028.00 1900.00,1068.00 1900.00,1068.00
             1900.00,1068.00 1784.00,1096.00 1784.00,1096.00
             1784.00,1096.00 1676.00,1108.00 1676.00,1108.00
             1676.00,1108.00 1560.00,1116.00 1560.00,1116.00
             1560.00,1116.00 1440.00,1112.00 1440.00,1112.00
             1440.00,1112.00 1340.00,1116.00 1340.00,1116.00
             1340.00,1116.00 1252.00,1112.00 1252.00,1112.00
             1252.00,1112.00 1156.00,1116.00 1156.00,1116.00
             1156.00,1116.00 1012.00,1084.00 1012.00,1084.00
             1012.00,1084.00 904.00,1072.00 904.00,1072.00
             904.00,1072.00 808.00,1052.00 808.00,1052.00
             808.00,1052.00 732.00,1024.00 732.00,1024.00
             732.00,1024.00 680.00,1004.00 680.00,1004.00
             680.00,1004.00 624.00,972.00 624.00,972.00
             624.00,972.00 568.00,916.00 568.00,916.00
             568.00,916.00 540.00,860.00 540.00,860.00
             540.00,860.00 528.00,800.00 528.00,800.00
             528.00,800.00 548.00,760.00 548.00,760.00
             548.00,760.00 572.00,712.00 572.00,712.00
             572.00,712.00 624.00,668.00 624.00,668.00
             624.00,668.00 654.00,654.00 654.00,654.00
             654.00,654.00 670.00,646.00 670.00,646.00" />
</svg>
