<?xml version="1.0" encoding="UTF-8" standalone="no"?>
<!DOCTYPE svg PUBLIC "-//W3C//DTD SVG 20010904//EN"
              "http://www.w3.org/TR/2001/REC-SVG-20010904/DTD/svg10.dtd">

<svg xmlns="http://www.w3.org/2000/svg"
     width="21.3333in" height="28.4444in"
     viewBox="0 0 1536 2048">
  <path id="Unnamed#9"
        fill="none" stroke="black" stroke-width="1"
        d="M 430.00,1778.00
           C 430.00,1778.00 420.00,1796.00 420.00,1796.00
             420.00,1796.00 436.00,1826.00 436.00,1828.00
             436.00,1830.00 446.00,1856.00 446.00,1856.00
             446.00,1856.00 478.00,1880.00 478.00,1880.00
             478.00,1880.00 498.00,1900.00 498.00,1900.00
             498.00,1900.00 516.00,1918.00 516.00,1918.00
             516.00,1918.00 552.00,1938.00 552.00,1938.00
             552.00,1938.00 582.00,1954.00 582.00,1954.00
             582.00,1954.00 610.00,1968.00 610.00,1968.00
             610.00,1968.00 648.00,1972.00 648.00,1972.00
             648.00,1972.00 670.00,1988.00 670.00,1988.00
             670.00,1988.00 710.00,1998.00 710.00,1998.00
             710.00,1998.00 750.00,2006.00 750.00,2006.00
             750.00,2006.00 800.00,2020.00 800.00,2020.00
             800.00,2020.00 848.00,2026.00 848.00,2026.00
             848.00,2026.00 898.00,2034.00 898.00,2034.00
             898.00,2034.00 934.00,2032.00 934.00,2032.00
             934.00,2032.00 972.00,2032.00 972.00,2032.00
             972.00,2032.00 1022.00,2022.00 1022.00,2022.00
             1022.00,2022.00 1054.00,2006.00 1054.00,2006.00
             1054.00,2006.00 1092.00,1998.00 1092.00,1998.00
             1092.00,1998.00 1116.00,1988.00 1116.00,1988.00
             1116.00,1988.00 1132.00,1958.00 1132.00,1958.00" />
  <path id="Unnamed#8"
        fill="none" stroke="black" stroke-width="1"
        d="M 1126.00,1974.00
           C 1126.00,1974.00 1102.00,1946.00 1102.00,1946.00
             1102.00,1946.00 1074.00,1916.00 1074.00,1916.00
             1074.00,1916.00 1042.00,1892.00 1042.00,1892.00
             1042.00,1892.00 1020.00,1868.00 1020.00,1868.00
             1020.00,1868.00 992.00,1842.00 992.00,1842.00
             992.00,1842.00 966.00,1816.00 966.00,1816.00
             966.00,1816.00 940.00,1788.00 940.00,1788.00
             940.00,1788.00 920.00,1750.00 920.00,1750.00
             920.00,1750.00 908.00,1714.00 908.00,1714.00
             908.00,1714.00 902.00,1686.00 902.00,1686.00
             902.00,1686.00 896.00,1668.00 896.00,1668.00" />
  <path id="Unnamed#7"
        fill="none" stroke="black" stroke-width="1"
        d="M 430.00,1780.00
           C 430.00,1780.00 470.00,1764.00 470.00,1764.00
             470.00,1764.00 494.00,1756.00 494.00,1756.00
             494.00,1756.00 516.00,1744.00 516.00,1744.00
             516.00,1744.00 542.00,1722.00 542.00,1722.00
             542.00,1722.00 566.00,1702.00 566.00,1702.00
             566.00,1702.00 586.00,1686.00 586.00,1686.00
             586.00,1686.00 610.00,1662.00 610.00,1662.00
             610.00,1662.00 630.00,1644.00 630.00,1644.00
             630.00,1644.00 648.00,1614.00 648.00,1614.00
             648.00,1614.00 660.00,1596.00 660.00,1596.00" />
  <path id="Unnamed#6"
        fill="none" stroke="black" stroke-width="1"
        d="M 664.00,1606.00
           C 664.00,1606.00 694.00,1630.00 694.00,1630.00
             694.00,1630.00 718.00,1650.00 718.00,1650.00
             718.00,1650.00 740.00,1664.00 740.00,1664.00
             740.00,1664.00 772.00,1678.00 772.00,1676.00
             772.00,1674.00 812.00,1682.00 812.00,1682.00
             812.00,1682.00 842.00,1680.00 844.00,1680.00
             846.00,1680.00 874.00,1680.00 874.00,1680.00
             874.00,1680.00 896.00,1662.00 896.00,1662.00" />
  <path id="Unnamed#5"
        fill="none" stroke="black" stroke-width="1"
        d="M 900.00,1658.00
           C 900.00,1658.00 890.00,1612.00 890.00,1612.00
             890.00,1612.00 880.00,1570.00 880.00,1570.00
             880.00,1570.00 882.00,1514.00 882.00,1514.00
             882.00,1514.00 882.00,1462.00 882.00,1462.00
             882.00,1462.00 888.00,1420.00 888.00,1420.00
             888.00,1420.00 894.00,1380.00 894.00,1380.00
             894.00,1380.00 898.00,1342.00 898.00,1342.00
             898.00,1342.00 904.00,1300.00 904.00,1300.00
             904.00,1300.00 920.00,1268.00 920.00,1268.00" />
  <path id="Unnamed#4"
        fill="none" stroke="black" stroke-width="1"
        d="M 662.00,1600.00
           C 662.00,1600.00 684.00,1568.00 684.00,1568.00
             684.00,1568.00 690.00,1534.00 690.00,1534.00
             690.00,1534.00 704.00,1502.00 704.00,1502.00
             704.00,1502.00 708.00,1464.00 708.00,1464.00
             708.00,1464.00 716.00,1426.00 716.00,1426.00
             716.00,1426.00 720.00,1378.00 720.00,1378.00
             720.00,1378.00 732.00,1326.00 732.00,1326.00
             732.00,1326.00 732.00,1284.00 732.00,1284.00
             732.00,1284.00 722.00,1230.00 722.00,1230.00" />
  <path id="Unnamed#3"
        fill="none" stroke="black" stroke-width="1"
        d="M 728.00,1228.00
           C 728.00,1228.00 748.00,1238.00 748.00,1238.00
             748.00,1238.00 768.00,1252.00 768.00,1252.00
             768.00,1252.00 788.00,1260.00 788.00,1260.00
             788.00,1260.00 826.00,1262.00 826.00,1262.00
             826.00,1262.00 866.00,1262.00 866.00,1262.00
             866.00,1262.00 898.00,1260.00 898.00,1260.00
             898.00,1260.00 918.00,1252.00 918.00,1252.00" />
  <path id="Unnamed#2"
        fill="none" stroke="black" stroke-width="1"
        d="M 480.00,390.00
           C 480.00,390.00 480.00,420.00 480.00,420.00
             480.00,420.00 474.00,456.00 474.00,456.00
             474.00,456.00 470.00,488.00 470.00,490.00
             470.00,492.00 462.00,530.00 464.00,530.00
             466.00,530.00 462.00,570.00 462.00,570.00
             462.00,570.00 458.00,614.00 458.00,614.00
             458.00,614.00 456.00,668.00 456.00,668.00
             456.00,668.00 460.00,708.00 460.00,708.00
             460.00,708.00 462.00,750.00 462.00,750.00
             462.00,750.00 468.00,774.00 468.00,774.00
             468.00,774.00 476.00,812.00 476.00,812.00
             476.00,812.00 486.00,852.00 486.00,852.00
             486.00,852.00 496.00,892.00 496.00,892.00
             496.00,892.00 512.00,932.00 512.00,932.00
             512.00,932.00 526.00,964.00 526.00,964.00
             526.00,964.00 546.00,1008.00 546.00,1008.00
             546.00,1008.00 566.00,1038.00 566.00,1038.00
             566.00,1038.00 592.00,1068.00 592.00,1068.00
             592.00,1068.00 620.00,1102.00 620.00,1102.00
             620.00,1102.00 648.00,1128.00 648.00,1128.00
             648.00,1128.00 670.00,1152.00 670.00,1152.00
             670.00,1152.00 686.00,1176.00 686.00,1176.00
             686.00,1176.00 702.00,1196.00 702.00,1196.00
             702.00,1196.00 712.00,1216.00 712.00,1216.00
             712.00,1216.00 726.00,1246.00 726.00,1246.00" />
  <path id="Unnamed#1"
        fill="none" stroke="black" stroke-width="1"
        d="M 1260.00,498.00
           C 1260.00,498.00 1246.00,528.00 1246.00,528.00
             1246.00,528.00 1244.00,554.00 1244.00,556.00
             1244.00,558.00 1246.00,602.00 1246.00,602.00
             1246.00,602.00 1236.00,654.00 1236.00,654.00
             1236.00,654.00 1234.00,730.00 1234.00,730.00
             1234.00,730.00 1226.00,764.00 1226.00,764.00
             1226.00,764.00 1220.00,802.00 1220.00,802.00
             1220.00,802.00 1214.00,832.00 1214.00,832.00
             1214.00,832.00 1208.00,858.00 1208.00,858.00
             1208.00,858.00 1186.00,900.00 1186.00,900.00
             1186.00,900.00 1178.00,930.00 1178.00,930.00
             1178.00,930.00 1160.00,970.00 1160.00,970.00
             1160.00,970.00 1138.00,1012.00 1138.00,1012.00
             1138.00,1012.00 1120.00,1038.00 1120.00,1038.00
             1120.00,1038.00 1086.00,1082.00 1086.00,1082.00
             1086.00,1082.00 1054.00,1124.00 1054.00,1124.00
             1054.00,1124.00 1038.00,1150.00 1038.00,1150.00
             1038.00,1150.00 1016.00,1176.00 1016.00,1176.00
             1016.00,1176.00 1000.00,1200.00 1000.00,1200.00
             1000.00,1200.00 980.00,1214.00 980.00,1214.00
             980.00,1214.00 962.00,1236.00 962.00,1236.00
             962.00,1236.00 936.00,1254.00 936.00,1254.00
             936.00,1254.00 912.00,1264.00 912.00,1264.00" />
  <path id="Unnamed"
        fill="none" stroke="black" stroke-width="1"
        d="M 486.00,378.00
           C 486.00,378.00 506.00,408.00 506.00,408.00
             506.00,408.00 534.00,418.00 534.00,418.00
             534.00,418.00 566.00,432.00 566.00,432.00
             566.00,432.00 596.00,446.00 596.00,446.00
             596.00,446.00 634.00,460.00 634.00,460.00
             634.00,460.00 670.00,468.00 670.00,468.00
             670.00,468.00 712.00,482.00 712.00,482.00
             712.00,482.00 758.00,496.00 758.00,496.00
             758.00,496.00 796.00,502.00 796.00,502.00
             796.00,502.00 836.00,510.00 836.00,510.00
             836.00,510.00 878.00,518.00 878.00,518.00
             878.00,518.00 908.00,524.00 908.00,524.00
             908.00,524.00 950.00,530.00 950.00,530.00
             950.00,530.00 1014.00,530.00 1014.00,530.00
             1014.00,530.00 1072.00,530.00 1074.00,530.00
             1076.00,530.00 1112.00,526.00 1114.00,526.00
             1116.00,526.00 1164.00,524.00 1164.00,524.00
             1164.00,524.00 1210.00,516.00 1210.00,516.00
             1210.00,516.00 1240.00,504.00 1240.00,504.00
             1240.00,504.00 1258.00,500.00 1258.00,500.00
             1258.00,500.00 1252.00,480.00 1252.00,480.00
             1252.00,480.00 1238.00,456.00 1238.00,456.00
             1238.00,456.00 1214.00,442.00 1214.00,442.00
             1214.00,442.00 1170.00,424.00 1170.00,424.00
             1170.00,424.00 1126.00,416.00 1126.00,416.00
             1126.00,416.00 1082.00,398.00 1082.00,398.00
             1082.00,398.00 1050.00,390.00 1048.00,390.00
             1046.00,390.00 994.00,382.00 994.00,382.00
             994.00,382.00 952.00,372.00 952.00,372.00
             952.00,372.00 912.00,368.00 912.00,368.00
             912.00,368.00 874.00,362.00 874.00,362.00
             874.00,362.00 840.00,358.00 840.00,358.00
             840.00,358.00 786.00,352.00 786.00,352.00
             786.00,352.00 750.00,348.00 750.00,348.00
             750.00,348.00 704.00,338.00 704.00,338.00
             704.00,338.00 658.00,338.00 658.00,338.00
             658.00,338.00 610.00,336.00 610.00,336.00
             610.00,336.00 570.00,330.00 570.00,330.00
             570.00,330.00 528.00,332.00 528.00,332.00
             528.00,332.00 508.00,344.00 508.00,344.00
             508.00,344.00 492.00,356.00 492.00,356.00
             492.00,356.00 478.00,378.00 478.00,378.00
             478.00,378.00 472.00,396.00 472.00,396.00" />
</svg>
