<?xml version="1.0" encoding="UTF-8" standalone="no"?>
<!DOCTYPE svg PUBLIC "-//W3C//DTD SVG 20010904//EN"
              "http://www.w3.org/TR/2001/REC-SVG-20010904/DTD/svg10.dtd">

<svg xmlns="http://www.w3.org/2000/svg"
     width="13.5972in" height="10.1944in"
     viewBox="0 0 979 734">
  <path id="Unnamed #16"
        fill="none" stroke="black" stroke-width="1"
        d="M 706.00,33.00
           C 706.00,33.00 704.00,24.00 704.00,24.00
             704.00,24.00 707.00,21.00 707.00,21.00
             707.00,21.00 712.50,17.00 712.50,17.00
             712.50,17.00 719.50,17.50 719.50,17.50
             719.50,17.50 729.50,17.50 729.50,18.00
             729.50,18.50 740.00,23.50 740.00,23.50
             740.00,23.50 749.00,28.50 749.00,28.50
             749.00,28.50 761.50,36.50 761.50,36.50
             761.50,36.50 770.50,43.50 770.50,43.50
             770.50,43.50 779.50,52.50 779.50,52.50
             779.50,52.50 788.00,63.00 788.00,63.50
             788.00,64.00 797.50,81.50 797.50,81.50
             797.50,81.50 806.00,96.00 806.00,96.00
             806.00,96.00 810.50,108.50 810.50,108.50
             810.50,108.50 817.00,127.50 817.00,127.50
             817.00,127.50 820.50,142.00 820.50,142.00
             820.50,142.00 822.50,157.00 822.50,157.00
             822.50,157.00 824.00,177.00 824.00,177.00
             824.00,177.00 822.00,191.00 822.00,191.00
             822.00,191.00 820.00,199.50 820.00,199.50
             820.00,199.50 813.50,205.50 813.50,205.50
             813.50,205.50 805.50,208.00 805.50,208.00
             805.50,208.00 798.00,208.00 798.00,208.00
             798.00,208.00 790.50,203.50 790.50,203.50
             790.50,203.50 779.50,199.00 779.50,199.00
             779.50,199.00 773.00,188.50 773.00,188.50
             773.00,188.50 764.50,174.00 764.50,174.00
             764.50,174.00 757.50,156.00 757.50,156.00
             757.50,156.00 749.00,141.50 749.00,141.50
             749.00,141.50 744.50,129.00 744.50,129.00
             744.50,129.00 738.50,118.00 738.50,118.00
             738.50,118.00 733.00,105.50 733.00,105.50
             733.00,105.50 727.00,91.00 727.00,91.00
             727.00,91.00 722.50,79.50 722.50,79.50
             722.50,79.50 719.50,67.00 719.50,67.00
             719.50,67.00 714.50,54.50 714.50,54.50
             714.50,54.50 711.00,44.50 711.00,44.50
             711.00,44.50 706.50,33.00 706.50,33.00" />
  <path id="Unnamed #15"
        fill="none" stroke="black" stroke-width="1"
        d="M 558.50,310.50
           C 558.50,310.50 561.50,304.00 561.50,304.00
             561.50,304.00 564.00,291.50 564.00,291.50
             564.00,291.50 570.00,279.50 570.00,279.50
             570.00,279.50 580.50,266.50 580.50,266.50
             580.50,266.50 590.50,252.00 590.50,252.00
             590.50,252.00 602.00,241.50 602.00,241.50
             602.00,241.50 617.00,228.00 617.00,228.00
             617.00,228.00 629.00,221.50 629.00,221.50
             629.00,221.50 641.00,214.50 641.00,214.50
             641.00,214.50 656.50,209.50 656.50,209.50
             656.50,209.50 674.00,204.50 674.00,204.50
             674.00,204.50 685.00,201.00 685.00,201.00
             685.00,201.00 699.00,199.50 699.00,199.50
             699.00,199.50 716.50,199.00 716.50,199.00
             716.50,199.00 733.50,198.50 733.50,198.50
             733.50,198.50 748.00,201.00 748.00,201.00
             748.00,201.00 760.50,203.00 760.50,203.00
             760.50,203.00 770.50,204.50 770.50,204.50
             770.50,204.50 781.50,207.50 781.50,207.50
             781.50,207.50 793.50,210.50 793.50,210.50" />
  <path id="Unnamed #14"
        fill="none" stroke="black" stroke-width="1"
        d="M 503.00,307.00
           C 503.00,307.00 504.00,300.00 504.00,300.00
             504.00,300.00 504.00,286.50 504.00,286.50
             504.00,286.50 505.00,264.00 505.00,264.00
             505.00,264.00 509.00,244.00 509.00,244.00
             509.00,244.00 516.00,217.00 516.00,217.00
             516.00,217.00 521.50,197.50 521.50,197.50
             521.50,197.50 529.00,178.50 529.00,178.50
             529.00,178.50 539.00,162.00 539.00,162.00
             539.00,162.00 549.50,146.50 549.50,146.50
             549.50,146.50 559.50,133.00 559.50,133.00
             559.50,133.00 571.50,118.50 571.50,118.50
             571.50,118.50 587.00,105.50 587.00,105.50
             587.00,105.50 601.50,92.50 601.50,92.50
             601.50,92.50 619.00,79.00 619.00,79.00
             619.00,79.00 636.50,69.00 636.50,69.00
             636.50,69.00 656.00,57.00 656.00,57.50
             656.00,58.00 671.50,49.50 671.50,49.50
             671.50,49.50 687.50,40.50 687.50,40.50
             687.50,40.50 702.50,32.50 702.50,33.00" />
  <path id="Unnamed #13"
        fill="none" stroke="black" stroke-width="1"
        d="M 505.50,309.50
           C 505.50,309.50 510.50,313.50 510.50,313.50
             510.50,313.50 520.50,318.00 520.50,318.00
             520.50,318.00 530.50,318.00 530.50,318.00
             530.50,318.00 542.50,316.50 542.50,316.50
             542.50,316.50 553.50,313.50 553.50,313.50
             553.50,313.50 559.50,309.50 559.50,309.50" />
  <path id="Unnamed #12"
        fill="none" stroke="black" stroke-width="1"
        d="M 365.67,430.33
           C 365.67,430.33 366.00,436.33 366.00,436.33
             366.00,436.33 366.67,444.67 366.67,444.67
             366.67,444.67 366.67,449.67 366.67,449.67" />
  <path id="Unnamed #11"
        fill="none" stroke="black" stroke-width="1"
        d="M 603.33,420.00
           C 603.33,420.00 603.33,429.67 603.33,429.67
             603.33,429.67 602.67,438.33 602.67,438.33
             602.67,438.33 602.33,448.00 602.33,448.00
             602.33,448.00 602.33,456.67 602.33,456.67" />
  <path id="Unnamed #10"
        fill="none" stroke="black" stroke-width="1"
        d="M 368.00,448.00
           C 368.00,448.00 374.33,455.00 374.33,455.00
             374.33,455.00 383.67,463.33 383.67,463.33
             383.67,463.33 394.33,468.67 394.33,468.67
             394.33,468.67 411.67,477.00 411.67,477.00
             411.67,477.00 423.67,483.67 423.67,483.67
             423.67,483.67 445.33,491.33 445.33,491.33
             445.33,491.33 463.00,497.33 463.00,497.33
             463.00,497.33 481.33,500.33 481.33,500.33
             481.33,500.33 495.33,501.67 495.33,501.67
             495.33,501.67 509.33,501.67 509.33,501.67
             509.33,501.67 522.00,499.67 522.00,499.67
             522.00,499.67 536.00,495.67 536.00,495.67
             536.00,495.67 554.00,489.33 554.00,489.33
             554.00,489.33 562.00,486.00 562.00,486.00
             562.00,486.00 571.67,480.33 571.67,480.33
             571.67,480.33 582.33,474.67 582.33,474.67
             582.33,474.67 592.33,468.00 592.33,468.00
             592.33,468.00 599.00,462.00 599.00,462.00
             599.00,462.00 602.67,458.33 602.67,458.33" />
  <path id="Unnamed #9"
        fill="none" stroke="black" stroke-width="1"
        d="M 366.00,428.67
           C 366.00,428.67 367.33,418.00 367.33,418.00
             367.33,418.00 382.00,401.33 382.00,401.33
             382.00,401.33 399.33,386.00 399.33,386.00
             399.33,386.00 416.00,373.33 416.00,373.33
             416.00,373.33 433.33,364.00 433.33,364.00
             433.33,364.00 452.67,355.33 452.67,355.33
             452.67,355.33 474.00,348.67 474.00,348.67
             474.00,348.67 504.67,346.67 504.67,346.67
             504.67,346.67 532.00,345.33 532.00,345.33
             532.00,345.33 553.33,350.67 553.33,350.67
             553.33,350.67 572.00,358.00 572.00,358.00
             572.00,358.00 584.00,370.00 584.00,370.00
             584.00,370.00 593.33,385.33 593.33,385.33
             593.33,385.33 599.33,398.67 599.33,398.67
             599.33,398.67 601.33,412.67 601.33,412.67
             601.33,412.67 600.00,428.00 600.00,428.00
             600.00,428.00 594.67,444.67 594.67,444.67
             594.67,444.67 582.00,460.00 582.00,460.00
             582.00,460.00 564.67,472.00 564.67,472.00
             564.67,472.00 541.33,482.00 541.33,482.00
             541.33,482.00 520.67,487.33 520.67,487.33
             520.67,487.33 501.33,487.33 501.33,487.33
             501.33,487.33 478.67,485.33 478.67,485.33
             478.67,485.33 456.00,479.33 456.00,479.33
             456.00,479.33 436.67,474.00 436.67,474.00
             436.67,474.00 420.67,468.00 420.67,468.00
             420.67,468.00 403.33,459.33 403.33,459.33
             403.33,459.33 388.00,451.33 388.00,451.33
             388.00,451.33 378.00,440.67 378.00,440.67
             378.00,440.67 366.00,429.33 366.00,429.33" />
  <path id="Unnamed #8"
        fill="none" stroke="black" stroke-width="1"
        d="M 714.00,449.33
           C 714.00,449.33 696.00,416.00 696.00,416.00
             696.00,416.00 677.33,386.67 677.33,386.67
             677.33,386.67 656.00,357.33 656.00,357.33
             656.00,357.33 632.67,333.33 632.67,333.33
             632.67,333.33 612.67,313.33 612.67,313.33
             612.67,313.33 592.67,292.67 592.67,292.67
             592.67,292.67 582.67,282.00 582.67,282.00
             582.67,282.00 570.00,273.33 570.00,273.33
             570.00,273.33 557.33,266.00 557.33,266.00
             557.33,266.00 544.00,262.67 544.00,262.67" />
  <path id="Unnamed #7"
        fill="none" stroke="black" stroke-width="1"
        d="M 256.00,404.00
           C 256.00,404.00 303.33,378.67 303.33,378.67
             303.33,378.67 366.67,339.33 366.67,339.33
             366.67,339.33 423.33,307.33 423.33,307.33
             423.33,307.33 465.33,285.33 465.33,285.33
             465.33,285.33 498.00,272.00 498.00,272.00
             498.00,272.00 530.67,263.33 530.67,263.33
             530.67,263.33 542.00,262.67 542.00,262.67" />
  <path id="Unnamed #6"
        fill="none" stroke="black" stroke-width="1"
        d="M 479.33,609.33
           C 479.33,609.33 469.33,603.33 469.33,603.33
             469.33,603.33 458.67,592.67 458.67,592.67
             458.67,592.67 440.67,570.00 440.67,570.00
             440.67,570.00 419.33,550.00 419.33,550.00
             419.33,550.00 397.33,528.00 397.33,528.00
             397.33,528.00 375.33,508.00 375.33,508.00
             375.33,508.00 357.33,493.33 357.33,493.33
             357.33,493.33 342.67,480.67 342.67,480.67
             342.67,480.67 320.00,462.00 320.00,462.00
             320.00,462.00 306.67,449.33 306.67,449.33
             306.67,449.33 290.67,434.67 290.67,434.67
             290.67,434.67 273.33,416.67 273.33,417.33
             273.33,418.00 266.00,407.33 260.00,406.67" />
  <path id="Unnamed #5"
        fill="none" stroke="black" stroke-width="1"
        d="M 476.00,606.00
           C 476.00,606.00 512.00,582.00 512.00,582.00
             512.00,582.00 537.33,556.67 537.33,556.67
             537.33,556.67 568.67,529.33 568.67,529.33
             568.67,529.33 599.33,500.67 599.33,500.67
             599.33,500.67 630.00,476.67 630.00,476.67
             630.00,476.67 660.67,456.67 660.67,456.67
             660.67,456.67 686.67,438.00 686.67,438.00
             686.67,438.00 711.33,424.67 711.33,424.67" />
  <path id="Unnamed #4"
        fill="none" stroke="black" stroke-width="1"
        d="M 705.33,429.33
           C 705.33,429.33 707.33,464.67 707.33,464.67
             707.33,464.67 706.67,496.67 706.67,496.67
             706.67,496.67 708.00,526.00 708.00,526.00
             708.00,526.00 704.67,547.33 704.67,547.33" />
  <path id="Unnamed #3"
        fill="none" stroke="black" stroke-width="1"
        d="M 255.33,404.67
           C 255.33,404.67 258.00,432.67 258.00,432.67
             258.00,432.67 262.67,471.33 262.67,471.33
             262.67,471.33 262.67,507.33 262.67,507.33
             262.67,507.33 262.00,523.33 262.00,523.33
             262.00,523.33 262.67,533.33 262.67,533.33" />
  <path id="Unnamed #2"
        fill="none" stroke="black" stroke-width="1"
        d="M 458.00,705.33
           C 458.00,705.33 436.00,690.00 436.00,690.00
             436.00,690.00 402.67,658.00 402.67,658.00
             402.67,658.00 359.33,617.33 359.33,617.33
             359.33,617.33 332.00,591.33 332.00,591.33
             332.00,591.33 310.67,572.67 310.67,572.67
             310.67,572.67 288.67,550.67 288.67,550.67
             288.67,550.67 267.33,534.67 267.33,534.67" />
  <path id="Unnamed #1"
        fill="none" stroke="black" stroke-width="1"
        d="M 462.67,704.00
           C 462.67,704.00 466.67,681.33 466.67,681.33
             466.67,681.33 465.33,644.00 465.33,644.00
             465.33,644.00 462.67,614.00 462.67,614.00
             462.67,614.00 464.00,600.67 464.00,600.67" />
  <path id="Unnamed"
        fill="none" stroke="black" stroke-width="1"
        d="M 462.67,698.67
           C 462.67,698.67 496.67,679.33 496.67,679.33
             496.67,679.33 552.67,640.67 552.67,640.67
             552.67,640.67 591.33,612.67 591.33,612.67
             591.33,612.67 630.67,590.00 630.67,590.00
             630.67,590.00 666.00,568.00 666.00,568.00
             666.00,568.00 718.00,542.67 718.00,542.67" />
</svg>
