<?xml version="1.0" encoding="UTF-8" standalone="no"?>
<!DOCTYPE svg PUBLIC "-//W3C//DTD SVG 20010904//EN"
              "http://www.w3.org/TR/2001/REC-SVG-20010904/DTD/svg10.dtd">

<svg xmlns="http://www.w3.org/2000/svg"
     width="28.4444in" height="21.3333in"
     viewBox="0 0 2048 1536">
  <path id="Unnamed#57"
        fill="none" stroke="black" stroke-width="1"
        d="M 1271.33,954.67
           C 1271.33,954.67 1252.00,963.33 1252.67,963.33
             1253.33,963.33 1241.33,978.00 1241.33,978.00
             1241.33,978.00 1230.67,996.67 1230.67,996.67
             1230.67,996.67 1227.33,1013.33 1227.33,1013.33
             1227.33,1013.33 1224.00,1035.33 1224.00,1035.33
             1224.00,1035.33 1224.00,1058.00 1224.00,1058.00
             1224.00,1058.00 1223.33,1075.33 1223.33,1075.33
             1223.33,1075.33 1228.67,1097.33 1228.67,1097.33
             1228.67,1097.33 1228.00,1121.33 1228.00,1121.33
             1228.00,1121.33 1232.00,1139.33 1232.00,1139.33
             1232.00,1139.33 1234.67,1158.67 1234.67,1158.67
             1234.67,1158.67 1238.67,1175.33 1238.67,1175.33
             1238.67,1175.33 1241.33,1195.33 1241.33,1195.33
             1241.33,1195.33 1248.67,1214.67 1248.67,1214.67
             1248.67,1214.67 1258.00,1232.67 1258.00,1233.33
             1258.00,1234.00 1264.00,1248.67 1264.00,1248.67
             1264.00,1248.67 1273.33,1262.00 1273.33,1262.00
             1273.33,1262.00 1284.00,1272.00 1284.00,1272.00
             1284.00,1272.00 1292.67,1276.67 1294.00,1278.00
             1295.33,1279.33 1308.00,1284.67 1308.00,1284.67
             1308.00,1284.67 1323.33,1284.67 1323.33,1284.67
             1323.33,1284.67 1337.33,1273.33 1337.33,1273.33" />
  <path id="Unnamed#56"
        fill="none" stroke="black" stroke-width="1"
        d="M 1638.00,840.00
           C 1638.00,840.00 1640.00,853.33 1640.00,853.33
             1640.00,853.33 1642.67,868.00 1642.67,868.00
             1642.67,868.00 1643.33,882.67 1643.33,882.67
             1643.33,882.67 1645.33,900.00 1645.33,900.00
             1645.33,900.00 1644.67,912.00 1644.67,912.00
             1644.67,912.00 1644.00,924.67 1644.00,924.67
             1644.00,924.67 1643.33,938.67 1643.33,938.67
             1643.33,938.67 1642.00,950.67 1642.00,950.67
             1642.00,950.67 1638.00,962.00 1638.00,962.00
             1638.00,962.00 1631.33,977.33 1631.33,977.33
             1631.33,977.33 1624.00,992.00 1624.00,992.00
             1624.00,992.00 1615.33,1006.67 1616.00,1006.67
             1616.67,1006.67 1599.33,1020.67 1599.33,1020.67
             1599.33,1020.67 1582.67,1037.33 1582.67,1037.33
             1582.67,1037.33 1569.33,1049.33 1569.33,1049.33
             1569.33,1049.33 1556.67,1056.00 1556.67,1056.00
             1556.67,1056.00 1537.33,1067.33 1537.33,1067.33
             1537.33,1067.33 1522.67,1070.00 1522.67,1070.00
             1522.67,1070.00 1507.33,1074.67 1506.67,1074.67
             1506.00,1074.67 1490.00,1074.00 1490.00,1074.00
             1490.00,1074.00 1474.67,1073.33 1474.67,1073.33
             1474.67,1073.33 1460.67,1071.33 1460.67,1071.33
             1460.67,1071.33 1447.33,1064.67 1447.33,1064.67
             1447.33,1064.67 1432.00,1057.33 1432.00,1057.33
             1432.00,1057.33 1420.67,1048.00 1420.67,1048.00
             1420.67,1048.00 1410.00,1039.33 1410.00,1039.33
             1410.00,1039.33 1395.33,1028.67 1395.33,1028.67
             1395.33,1028.67 1382.00,1020.67 1382.00,1020.67
             1382.00,1020.67 1368.67,1010.00 1368.67,1010.00
             1368.67,1010.00 1357.33,996.67 1356.67,996.67
             1356.00,996.67 1343.33,986.67 1343.33,986.67
             1343.33,986.67 1335.33,981.33 1335.33,981.33
             1335.33,981.33 1322.67,972.67 1322.67,972.67
             1322.67,972.67 1311.33,967.33 1311.33,967.33
             1311.33,967.33 1298.67,961.33 1298.67,961.33
             1298.67,961.33 1287.33,956.67 1287.33,956.67
             1287.33,956.67 1278.00,955.33 1278.00,955.33" />
  <path id="Unnamed#55"
        fill="none" stroke="black" stroke-width="1"
        d="M 1735.33,826.67
           C 1735.33,826.67 1732.00,841.33 1732.00,841.33
             1732.00,841.33 1732.67,858.00 1732.67,858.00
             1732.67,858.00 1734.67,872.00 1734.67,872.00
             1734.67,872.00 1734.00,884.00 1734.00,884.00
             1734.00,884.00 1736.00,900.67 1736.00,900.67
             1736.00,900.67 1737.33,909.33 1737.33,910.67
             1737.33,912.00 1736.67,926.00 1736.67,926.00
             1736.67,926.00 1735.33,943.33 1735.33,943.33
             1735.33,943.33 1732.67,956.67 1732.67,956.67
             1732.67,956.67 1730.00,976.67 1730.00,976.67
             1730.00,976.67 1727.33,990.67 1727.33,990.67
             1727.33,990.67 1723.33,1004.67 1723.33,1004.67
             1723.33,1004.67 1718.00,1017.33 1718.00,1017.33
             1718.00,1017.33 1708.00,1034.67 1708.00,1034.67
             1708.00,1034.67 1702.00,1046.00 1702.00,1046.00
             1702.00,1046.00 1696.00,1056.67 1696.00,1056.67
             1696.00,1056.67 1684.00,1070.00 1684.00,1070.00
             1684.00,1070.00 1674.00,1081.33 1674.00,1081.33
             1674.00,1081.33 1656.00,1094.67 1656.00,1094.67
             1656.00,1094.67 1640.67,1104.00 1640.67,1104.00
             1640.67,1104.00 1622.00,1114.00 1622.00,1114.00
             1622.00,1114.00 1605.33,1117.33 1605.33,1117.33
             1605.33,1117.33 1589.33,1125.33 1589.33,1125.33
             1589.33,1125.33 1572.67,1127.33 1572.67,1127.33
             1572.67,1127.33 1556.00,1133.33 1556.00,1133.33
             1556.00,1133.33 1542.67,1138.67 1542.67,1138.67
             1542.67,1138.67 1530.00,1140.00 1530.00,1140.00
             1530.00,1140.00 1515.33,1144.67 1515.33,1144.67
             1515.33,1144.67 1500.67,1153.33 1500.67,1153.33
             1500.67,1153.33 1484.00,1156.00 1484.00,1156.00
             1484.00,1156.00 1468.00,1164.00 1468.00,1164.00
             1468.00,1164.00 1455.33,1173.33 1455.33,1173.33
             1455.33,1173.33 1444.00,1178.00 1444.00,1178.00
             1444.00,1178.00 1433.33,1186.00 1433.33,1186.00
             1433.33,1186.00 1421.33,1196.67 1421.33,1196.67
             1421.33,1196.67 1411.33,1210.67 1411.33,1210.67
             1411.33,1210.67 1400.00,1221.33 1399.33,1221.33
             1398.67,1221.33 1386.67,1232.67 1386.67,1232.67
             1386.67,1232.67 1371.33,1240.00 1371.33,1240.00
             1371.33,1240.00 1362.00,1246.67 1362.00,1246.67
             1362.00,1246.67 1355.33,1260.00 1355.33,1260.00
             1355.33,1260.00 1342.67,1271.33 1342.67,1271.33" />
  <path id="Unnamed#54"
        fill="none" stroke="black" stroke-width="1"
        d="M 1498.00,784.00
           C 1498.00,784.00 1506.67,790.67 1506.67,790.67
             1506.67,790.67 1512.67,798.00 1512.67,798.00
             1512.67,798.00 1526.00,803.33 1526.00,803.33
             1526.00,803.33 1538.67,808.00 1538.67,808.00
             1538.67,808.00 1546.67,810.67 1546.67,810.67
             1546.67,810.67 1554.00,814.67 1554.00,814.67
             1554.00,814.67 1567.33,818.00 1567.33,818.00
             1567.33,818.00 1578.00,822.67 1578.67,823.33
             1579.33,824.00 1592.00,827.33 1592.00,828.00
             1592.00,828.67 1606.67,834.67 1606.67,834.67
             1606.67,834.67 1626.67,838.67 1626.67,838.67
             1626.67,838.67 1646.67,841.33 1646.67,841.33
             1646.67,841.33 1665.33,840.00 1665.33,840.00
             1665.33,840.00 1685.33,837.33 1685.33,837.33
             1685.33,837.33 1699.33,835.33 1699.33,835.33
             1699.33,835.33 1713.33,832.00 1713.33,832.00
             1713.33,832.00 1730.00,828.67 1730.00,828.67
             1730.00,828.67 1747.33,823.33 1747.33,823.33
             1747.33,823.33 1765.33,814.00 1765.33,814.00
             1765.33,814.00 1779.33,804.00 1779.33,804.00
             1779.33,804.00 1794.67,796.00 1794.67,796.00
             1794.67,796.00 1812.67,783.33 1812.67,783.33" />
  <path id="Unnamed#53"
        fill="none" stroke="black" stroke-width="1"
        d="M 1499.33,779.33
           C 1499.33,779.33 1499.33,763.33 1499.33,763.33
             1499.33,763.33 1498.00,746.00 1498.00,746.00
             1498.00,746.00 1496.67,731.33 1496.67,731.33
             1496.67,731.33 1498.67,714.00 1498.67,714.00
             1498.67,714.00 1496.67,703.33 1496.67,703.33" />
  <path id="Unnamed#52"
        fill="none" stroke="black" stroke-width="1"
        d="M 1810.00,783.33
           C 1810.00,783.33 1808.00,771.33 1808.00,771.33
             1808.00,771.33 1808.00,750.00 1808.00,750.00
             1808.00,750.00 1808.00,737.33 1808.00,737.33
             1808.00,737.33 1808.67,720.67 1808.67,720.67
             1808.67,720.67 1809.33,707.33 1809.33,707.33
             1809.33,707.33 1810.00,692.67 1810.00,692.67" />
  <path id="Unnamed#51"
        fill="none" stroke="black" stroke-width="1"
        d="M 1558.00,661.33
           C 1558.00,661.33 1548.00,660.00 1548.00,660.00
             1548.00,660.00 1534.00,660.00 1534.00,660.00
             1534.00,660.00 1528.67,664.67 1528.67,664.67
             1528.67,664.67 1516.00,669.33 1516.00,669.33
             1516.00,669.33 1506.00,675.33 1506.00,675.33
             1506.00,675.33 1503.33,680.00 1503.33,680.00
             1503.33,680.00 1500.00,690.67 1500.00,690.67
             1500.00,690.67 1498.00,699.33 1498.67,699.33
             1499.33,699.33 1506.00,712.00 1506.00,712.00
             1506.00,712.00 1509.33,723.33 1509.33,723.33
             1509.33,723.33 1515.33,733.33 1515.33,733.33
             1515.33,733.33 1526.00,740.00 1526.00,740.00
             1526.00,740.00 1534.67,749.33 1534.67,749.33
             1534.67,749.33 1542.67,752.00 1542.67,752.00
             1542.67,752.00 1554.00,757.33 1554.00,757.33
             1554.00,757.33 1564.67,761.33 1564.67,761.33
             1564.67,761.33 1574.67,765.33 1574.67,765.33
             1574.67,765.33 1587.33,767.33 1587.33,767.33
             1587.33,767.33 1604.00,770.67 1604.00,770.67
             1604.00,770.67 1623.33,770.67 1623.33,770.67
             1623.33,770.67 1640.00,775.33 1640.00,775.33
             1640.00,775.33 1657.33,776.00 1657.33,776.00
             1657.33,776.00 1670.67,776.67 1670.67,776.67
             1670.67,776.67 1690.00,776.00 1690.00,776.00
             1690.00,776.00 1704.67,772.67 1704.67,772.67
             1704.67,772.67 1719.33,768.00 1719.33,768.00
             1719.33,768.00 1736.00,762.67 1736.00,762.67
             1736.00,762.67 1750.67,754.00 1750.67,754.00
             1750.67,754.00 1764.00,746.67 1764.00,746.67
             1764.00,746.67 1778.67,738.67 1778.67,738.67
             1778.67,738.67 1788.67,728.00 1788.67,728.00
             1788.67,728.00 1797.33,716.67 1797.33,716.67
             1797.33,716.67 1804.67,704.67 1804.67,704.67
             1804.67,704.67 1805.33,684.00 1805.33,684.00
             1805.33,684.00 1802.00,668.67 1802.00,668.67
             1802.00,668.67 1794.67,663.33 1794.67,663.33
             1794.67,663.33 1784.67,658.00 1784.67,658.00
             1784.67,658.00 1773.33,654.00 1773.33,654.00
             1773.33,654.00 1762.00,649.33 1762.00,649.33" />
  <path id="Unnamed#50"
        fill="none" stroke="black" stroke-width="1"
        d="M 1557.33,694.00
           C 1557.33,694.00 1562.33,699.00 1562.33,699.00
             1562.33,699.00 1569.00,704.67 1569.00,704.67
             1569.00,704.67 1575.00,709.33 1575.00,709.33
             1575.00,709.33 1582.33,712.67 1582.33,712.67
             1582.33,712.67 1588.00,715.67 1588.00,715.67
             1588.00,715.67 1596.33,719.33 1596.33,719.33
             1596.33,719.33 1606.00,721.67 1607.33,722.67
             1608.67,723.67 1615.67,725.33 1615.67,725.33
             1615.67,725.33 1624.00,725.33 1624.33,725.67
             1624.67,726.00 1635.67,726.00 1635.67,726.00
             1635.67,726.00 1646.33,726.67 1646.33,726.67
             1646.33,726.67 1656.33,727.33 1656.33,727.33
             1656.33,727.33 1667.00,727.33 1667.00,727.33
             1667.00,727.33 1673.67,728.00 1674.00,728.00
             1674.33,728.00 1684.67,725.67 1685.00,725.67
             1685.33,725.67 1696.33,724.00 1696.33,724.00
             1696.33,724.00 1704.00,720.33 1704.00,720.33
             1704.00,720.33 1712.67,717.33 1712.67,717.33
             1712.67,717.33 1723.67,714.67 1723.67,714.67
             1723.67,714.67 1730.00,709.33 1730.00,709.33
             1730.00,709.33 1737.00,705.33 1737.00,705.33
             1737.00,705.33 1743.33,702.33 1743.33,702.33
             1743.33,702.33 1748.00,698.67 1748.00,698.67
             1748.00,698.67 1756.00,695.33 1756.00,695.33
             1756.00,695.33 1760.67,692.67 1760.67,692.67
             1760.67,692.67 1769.67,684.67 1769.67,684.67" />
  <path id="Unnamed#49"
        fill="none" stroke="black" stroke-width="1"
        d="M 1548.33,575.00
           C 1548.33,575.00 1550.00,584.00 1550.00,584.00
             1550.00,584.00 1553.00,596.00 1553.00,596.00
             1553.00,596.00 1555.67,605.00 1555.67,605.00
             1555.67,605.00 1557.00,616.67 1557.00,617.00
             1557.00,617.33 1558.33,626.33 1558.33,626.33
             1558.33,626.33 1560.33,636.00 1560.33,636.00
             1560.33,636.00 1561.67,646.33 1561.67,646.33
             1561.67,646.33 1562.33,658.33 1562.33,658.33
             1562.33,658.33 1562.00,669.33 1562.00,669.33
             1562.00,669.33 1561.00,677.33 1561.00,677.33
             1561.00,677.33 1558.33,685.67 1558.33,685.67
             1558.33,685.67 1556.67,692.67 1556.67,692.00" />
  <path id="Unnamed#48"
        fill="none" stroke="black" stroke-width="1"
        d="M 1760.67,566.33
           C 1760.67,566.33 1757.00,576.00 1757.00,576.00
             1757.00,576.00 1752.33,590.33 1752.33,590.33
             1752.33,590.33 1750.67,601.33 1750.67,601.33
             1750.67,601.33 1751.00,609.33 1751.00,609.67
             1751.00,610.00 1752.67,618.00 1752.67,618.00
             1752.67,618.00 1752.00,629.33 1752.00,629.33
             1752.00,629.33 1752.67,637.33 1752.67,637.33
             1752.67,637.33 1753.67,646.33 1753.67,646.33
             1753.67,646.33 1755.00,656.00 1755.00,656.00
             1755.00,656.00 1759.67,663.67 1759.67,663.67
             1759.67,663.67 1763.33,672.33 1763.33,672.33
             1763.33,672.33 1765.33,677.33 1765.33,677.33
             1765.33,677.33 1769.00,683.00 1769.00,683.00
             1769.00,683.00 1771.00,686.00 1771.00,686.00" />
  <path id="Unnamed#47"
        fill="none" stroke="black" stroke-width="1"
        d="M 1684.67,518.67
           C 1684.67,518.67 1692.00,518.67 1692.00,518.67
             1692.00,518.67 1702.00,519.00 1702.00,519.00
             1702.00,519.00 1707.33,521.33 1707.67,521.67
             1708.00,522.00 1715.33,524.33 1715.33,524.33
             1715.33,524.33 1722.00,526.33 1722.00,526.33
             1722.00,526.33 1727.33,530.00 1727.33,530.00
             1727.33,530.00 1736.00,534.00 1736.00,534.00
             1736.00,534.00 1742.33,538.67 1742.33,538.67
             1742.33,538.67 1745.00,543.00 1745.00,543.00
             1745.00,543.00 1749.33,547.67 1749.33,547.67
             1749.33,547.67 1752.67,552.00 1752.67,552.67
             1752.67,553.33 1754.67,563.33 1754.67,563.33
             1754.67,563.33 1755.67,572.33 1755.67,572.33
             1755.67,572.33 1754.33,580.33 1754.33,580.67
             1754.33,581.00 1750.00,587.67 1750.00,587.67
             1750.00,587.67 1743.33,599.33 1743.33,599.33
             1743.33,599.33 1736.33,609.67 1736.33,609.67
             1736.33,609.67 1725.33,616.00 1725.33,616.00
             1725.33,616.00 1716.00,622.00 1716.00,622.00
             1716.00,622.00 1704.33,626.33 1704.33,626.33
             1704.33,626.33 1695.00,630.33 1695.00,630.33
             1695.00,630.33 1688.00,634.33 1688.00,634.33
             1688.00,634.33 1674.00,635.00 1674.00,635.00
             1674.00,635.00 1661.33,637.67 1661.33,637.67
             1661.33,637.67 1649.67,637.67 1649.67,637.67
             1649.67,637.67 1637.00,637.67 1637.00,637.67
             1637.00,637.67 1623.00,637.00 1623.00,637.00
             1623.00,637.00 1613.33,632.00 1613.33,632.00
             1613.33,632.00 1601.67,629.33 1601.67,629.33
             1601.67,629.33 1594.00,626.33 1594.00,626.33
             1594.00,626.33 1585.00,620.67 1585.00,620.67
             1585.00,620.67 1578.00,616.33 1578.00,616.33
             1578.00,616.33 1572.67,610.00 1572.67,610.00
             1572.67,610.00 1565.67,603.67 1565.67,603.67
             1565.67,603.67 1561.67,597.33 1561.67,597.33
             1561.67,597.33 1557.33,590.33 1557.33,590.33
             1557.33,590.33 1553.00,579.00 1553.00,579.00
             1553.00,579.00 1551.50,566.50 1551.50,566.50
             1551.50,566.50 1552.00,553.50 1552.00,553.50
             1552.00,553.50 1558.50,546.50 1558.50,546.50
             1558.50,546.50 1569.00,537.50 1569.00,537.50
             1569.00,537.50 1577.00,533.50 1577.00,533.50
             1577.00,533.50 1587.00,529.50 1587.00,529.50
             1587.00,529.50 1592.50,524.50 1592.50,524.50
             1592.50,524.50 1607.00,525.00 1607.00,525.00
             1607.00,525.00 1617.50,523.50 1617.50,523.50
             1617.50,523.50 1626.50,523.50 1626.50,523.50
             1626.50,523.50 1639.50,522.00 1639.50,522.00" />
  <path id="Unnamed#46"
        fill="none" stroke="black" stroke-width="1"
        d="M 1625.33,552.67
           C 1625.33,552.67 1628.00,558.67 1628.00,558.67
             1628.00,558.67 1632.00,562.67 1632.00,562.67
             1632.00,562.67 1634.33,566.00 1634.33,566.00
             1634.33,566.00 1641.00,571.00 1641.00,571.00
             1641.00,571.00 1648.67,573.67 1648.67,573.67
             1648.67,573.67 1654.33,574.33 1654.33,574.67
             1654.33,575.00 1661.67,576.67 1661.67,576.67
             1661.67,576.67 1668.67,575.67 1668.67,575.67
             1668.67,575.67 1676.67,572.67 1676.67,572.67
             1676.67,572.67 1680.00,570.33 1681.67,570.00
             1683.33,569.67 1687.67,564.67 1687.67,564.67
             1687.67,564.67 1691.67,557.00 1691.67,557.00
             1691.67,557.00 1696.33,553.33 1696.33,553.33" />
  <path id="Unnamed#45"
        fill="none" stroke="black" stroke-width="1"
        d="M 1680.33,440.67
           C 1680.33,440.67 1680.00,448.33 1680.00,448.67
             1680.00,449.00 1677.67,461.00 1677.67,461.00
             1677.67,461.00 1678.33,473.67 1678.33,473.67
             1678.33,473.67 1677.33,487.67 1677.33,487.67
             1677.33,487.67 1677.33,498.33 1677.33,498.33
             1677.33,498.33 1680.67,509.00 1680.67,509.00
             1680.67,509.00 1682.67,518.33 1682.67,518.33
             1682.67,518.33 1685.67,528.67 1685.67,528.67
             1685.67,528.67 1688.67,536.67 1688.67,536.67
             1688.67,536.67 1690.67,543.67 1690.67,543.67
             1690.67,543.67 1694.67,551.67 1694.67,551.67
             1694.67,551.67 1697.67,556.00 1697.67,556.00" />
  <path id="Unnamed#44"
        fill="none" stroke="black" stroke-width="1"
        d="M 1657.33,444.67
           C 1657.33,444.67 1655.67,455.33 1655.67,455.33
             1655.67,455.33 1655.00,467.33 1655.00,467.33
             1655.00,467.33 1652.00,478.33 1652.00,478.33
             1652.00,478.33 1651.00,487.67 1651.00,487.67
             1651.00,487.67 1648.33,495.00 1648.33,495.00
             1648.33,495.00 1647.00,507.00 1647.00,507.33
             1647.00,507.67 1645.00,517.67 1645.00,517.67
             1645.00,517.67 1641.33,523.33 1641.33,523.33
             1641.33,523.33 1638.67,532.33 1638.67,532.33
             1638.67,532.33 1633.33,540.67 1633.33,540.67
             1633.33,540.67 1631.00,548.00 1631.00,548.00
             1631.00,548.00 1627.00,552.33 1627.00,552.33" />
  <path id="Unnamed#43"
        fill="none" stroke="black" stroke-width="1"
        d="M 1642.25,390.00
           C 1642.25,390.00 1648.25,388.00 1648.25,388.00
             1648.25,388.00 1654.25,388.00 1654.50,388.00
             1654.75,388.00 1661.50,388.25 1662.00,388.25
             1662.50,388.25 1669.75,388.50 1669.75,388.50
             1669.75,388.50 1676.50,389.75 1676.50,389.75
             1676.50,389.75 1683.50,392.75 1683.50,392.75
             1683.50,392.75 1687.25,397.75 1687.50,397.75
             1687.75,397.75 1693.75,405.25 1693.75,405.25
             1693.75,405.25 1694.00,414.50 1694.00,414.50
             1694.00,414.50 1692.75,423.50 1692.75,423.50
             1692.75,423.50 1688.50,429.75 1688.50,429.75
             1688.50,429.75 1685.50,434.00 1685.50,434.25
             1685.50,434.50 1678.50,437.50 1678.50,437.50
             1678.50,437.50 1671.25,440.00 1671.25,440.25
             1671.25,440.50 1664.75,442.75 1664.75,442.75
             1664.75,442.75 1657.00,442.50 1657.00,442.50
             1657.00,442.50 1650.25,441.75 1650.25,441.75
             1650.25,441.75 1643.50,439.00 1643.50,439.00
             1643.50,439.00 1638.75,434.25 1638.75,434.25
             1638.75,434.25 1635.75,428.50 1635.75,428.50
             1635.75,428.50 1635.00,422.25 1635.00,422.25
             1635.00,422.25 1635.75,415.50 1635.75,415.50
             1635.75,415.50 1637.75,411.00 1637.75,411.00
             1637.75,411.00 1640.50,406.00 1640.50,406.00
             1640.50,406.00 1644.25,401.75 1644.25,401.75
             1644.25,401.75 1647.50,398.50 1647.50,398.50
             1647.50,398.50 1652.75,396.00 1652.75,396.00
             1652.75,396.00 1656.00,396.00 1656.00,396.00" />
  <path id="Unnamed#42"
        fill="none" stroke="black" stroke-width="1"
        d="M 1598.91,413.73
           C 1598.91,413.73 1597.64,415.73 1597.73,415.73
             1597.82,415.73 1596.64,418.27 1596.64,418.27
             1596.64,418.27 1597.18,420.64 1597.18,420.73
             1597.18,420.82 1598.91,423.55 1598.91,423.55
             1598.91,423.55 1600.00,425.73 1600.00,425.82
             1600.00,425.91 1601.18,427.82 1601.18,427.82
             1601.18,427.82 1602.36,429.00 1602.36,429.00" />
  <path id="Unnamed#41"
        fill="none" stroke="black" stroke-width="1"
        d="M 1648.00,426.00
           C 1648.00,426.00 1638.50,426.50 1638.50,426.50
             1638.50,426.50 1629.00,427.00 1629.00,427.00
             1629.00,427.00 1619.00,427.50 1619.00,427.50
             1619.00,427.50 1611.50,428.50 1611.50,428.50
             1611.50,428.50 1604.00,428.50 1604.00,428.50" />
  <path id="Unnamed#40"
        fill="none" stroke="black" stroke-width="1"
        d="M 1636.50,409.50
           C 1636.50,409.50 1627.00,409.50 1627.00,409.50
             1627.00,409.50 1618.00,413.00 1618.00,413.00
             1618.00,413.00 1609.50,413.00 1609.50,413.00
             1609.50,413.00 1604.00,413.50 1604.00,413.50
             1604.00,413.50 1598.50,413.50 1598.50,413.50" />
  <path id="Unnamed#39"
        fill="none" stroke="black" stroke-width="1"
        d="M 1611.00,408.50
           C 1611.00,408.50 1606.50,403.00 1606.50,403.00
             1606.50,403.00 1600.00,398.50 1600.00,398.50
             1600.00,398.50 1591.50,398.00 1591.50,398.00
             1591.50,398.00 1589.50,403.00 1589.50,403.00
             1589.50,403.00 1582.50,411.50 1582.50,411.50
             1582.50,411.50 1580.50,419.00 1580.50,419.00
             1580.50,419.00 1582.00,426.00 1582.00,426.50
             1582.00,427.00 1585.50,433.50 1585.50,434.50
             1585.50,435.50 1590.00,439.50 1590.00,439.50
             1590.00,439.50 1596.00,440.00 1596.00,440.00
             1596.00,440.00 1603.00,439.50 1603.00,439.50
             1603.00,439.50 1607.00,434.50 1607.00,434.50" />
  <path id="Unnamed#38"
        fill="none" stroke="black" stroke-width="1"
        d="M 1585.00,439.00
           C 1585.00,439.00 1575.50,443.00 1575.50,443.00
             1575.50,443.00 1564.50,444.00 1564.50,444.00
             1564.50,444.00 1556.50,445.00 1556.50,445.00
             1556.50,445.00 1545.00,444.50 1545.00,444.50
             1545.00,444.50 1536.00,444.50 1536.00,444.50" />
  <path id="Unnamed#37"
        fill="none" stroke="black" stroke-width="1"
        d="M 1586.00,405.00
           C 1586.00,405.00 1576.50,406.50 1576.50,406.50
             1576.50,406.50 1567.50,407.50 1567.50,407.50
             1567.50,407.50 1555.50,408.50 1555.50,408.50
             1555.50,408.50 1544.50,409.50 1544.50,409.50
             1544.50,409.50 1534.00,410.00 1534.00,410.00" />
  <path id="Unnamed#36"
        fill="none" stroke="black" stroke-width="1"
        d="M 1536.00,409.50
           C 1536.00,409.50 1530.50,416.50 1530.50,416.50
             1530.50,416.50 1527.00,422.00 1527.00,422.00
             1527.00,422.00 1525.00,431.00 1525.00,431.00
             1525.00,431.00 1528.50,435.00 1528.50,435.00
             1528.50,435.00 1532.00,440.00 1532.00,440.00
             1532.00,440.00 1536.00,444.00 1536.00,444.00" />
  <path id="Unnamed#35"
        fill="none" stroke="black" stroke-width="1"
        d="M 1569.00,401.50
           C 1569.00,401.50 1565.00,391.00 1565.00,391.00
             1565.00,391.00 1558.00,383.50 1558.00,383.50
             1558.00,383.50 1549.00,377.00 1549.00,377.00
             1549.00,377.00 1542.00,372.50 1542.00,372.50
             1542.00,372.50 1532.00,369.50 1532.00,369.50
             1532.00,369.50 1521.50,370.00 1521.50,370.00
             1521.50,370.00 1514.00,371.00 1514.00,371.00
             1514.00,371.00 1511.00,380.50 1511.00,380.50
             1511.00,380.50 1505.00,394.00 1505.00,394.00
             1505.00,394.00 1501.00,405.50 1501.50,405.50
             1502.00,405.50 1501.00,416.50 1501.00,416.50
             1501.00,416.50 1500.50,428.50 1500.50,428.50
             1500.50,428.50 1502.00,436.50 1502.00,436.50
             1502.00,436.50 1503.50,444.00 1503.50,444.00
             1503.50,444.00 1505.50,451.00 1505.50,451.00
             1505.50,451.00 1505.50,457.50 1505.50,458.00
             1505.50,458.50 1506.50,468.00 1506.50,468.00
             1506.50,468.00 1511.00,475.00 1511.00,475.00
             1511.00,475.00 1516.50,479.00 1516.50,479.00
             1516.50,479.00 1526.50,484.00 1526.50,484.00
             1526.50,484.00 1536.50,481.00 1536.50,481.00
             1536.50,481.00 1549.00,477.00 1549.00,477.00
             1549.00,477.00 1556.50,470.00 1556.50,470.00
             1556.50,470.00 1563.00,464.00 1563.00,464.00
             1563.00,464.00 1566.50,454.50 1566.50,454.50
             1566.50,454.50 1567.00,448.50 1567.00,448.50" />
  <path id="Unnamed#34"
        fill="none" stroke="black" stroke-width="1"
        d="M 1477.00,483.50
           C 1477.00,483.50 1486.50,484.00 1486.50,484.00
             1486.50,484.00 1499.50,488.00 1499.50,488.00
             1499.50,488.00 1505.50,488.00 1505.50,488.00
             1505.50,488.00 1515.00,488.00 1515.00,488.00" />
  <path id="Unnamed#33"
        fill="none" stroke="black" stroke-width="1"
        d="M 1515.50,365.50
           C 1515.50,365.50 1505.00,368.00 1505.00,368.00
             1505.00,368.00 1494.00,369.00 1494.00,369.00
             1494.00,369.00 1483.50,370.50 1483.50,370.50
             1483.50,370.50 1475.00,371.00 1476.50,370.50" />
  <path id="Unnamed#32"
        fill="none" stroke="black" stroke-width="1"
        d="M 1478.50,372.00
           C 1478.50,372.00 1473.50,382.00 1473.50,382.00
             1473.50,382.00 1468.50,391.50 1468.50,391.50
             1468.50,391.50 1465.00,405.00 1465.00,405.00
             1465.00,405.00 1462.00,418.00 1462.00,418.00
             1462.00,418.00 1459.50,426.50 1459.50,426.50
             1459.50,426.50 1458.50,433.50 1458.50,434.00
             1458.50,434.50 1458.00,443.50 1458.00,444.00
             1458.00,444.50 1458.50,453.50 1458.50,453.50
             1458.50,453.50 1460.50,461.50 1460.50,461.50
             1460.50,461.50 1464.50,470.00 1464.50,470.00
             1464.50,470.00 1469.00,476.00 1469.00,476.00
             1469.00,476.00 1473.00,482.50 1473.00,482.50" />
  <path id="Unnamed#9"
        fill="none" stroke="black" stroke-width="1"
        d="M 472.00,500.00
           C 472.00,500.00 472.00,511.00 472.00,511.00
             472.00,511.00 472.00,529.00 472.00,529.00
             472.00,529.00 472.00,544.00 472.00,544.00
             472.00,544.00 471.00,557.00 471.00,557.00
             471.00,557.00 473.00,571.00 473.00,571.00
             473.00,571.00 475.00,582.00 475.00,582.00
             475.00,582.00 479.00,591.00 479.00,591.00
             479.00,591.00 480.00,604.00 480.00,604.00
             480.00,604.00 486.00,609.00 486.00,610.00
             486.00,611.00 492.00,619.00 492.00,619.00
             492.00,619.00 492.00,625.00 492.00,625.00" />
  <path id="Unnamed#8"
        fill="none" stroke="black" stroke-width="1"
        d="M 435.00,496.00
           C 435.00,496.00 437.00,504.00 437.00,505.00
             437.00,506.00 438.00,519.00 438.00,520.00
             438.00,521.00 437.00,537.00 437.00,537.00
             437.00,537.00 436.00,555.00 436.00,555.00
             436.00,555.00 432.00,574.00 432.00,574.00
             432.00,574.00 433.00,587.00 432.00,587.00
             431.00,587.00 428.00,600.00 427.00,600.00
             426.00,600.00 419.00,610.00 419.00,610.00
             419.00,610.00 412.00,621.00 412.00,621.00
             412.00,621.00 406.00,625.00 406.00,625.00" />
  <path id="Unnamed#31"
        fill="none" stroke="black" stroke-width="1"
        d="M 1338.50,461.00
           C 1338.50,461.00 1344.00,460.50 1344.00,460.50
             1344.00,460.50 1354.50,462.00 1354.50,462.00
             1354.50,462.00 1367.50,461.50 1367.50,461.50
             1367.50,461.50 1380.50,461.00 1380.50,461.00
             1380.50,461.00 1393.50,459.50 1393.50,459.50
             1393.50,459.50 1408.00,459.00 1408.00,459.00
             1408.00,459.00 1421.50,457.00 1421.50,457.00
             1421.50,457.00 1439.50,457.50 1439.50,457.50
             1439.50,457.50 1451.00,457.50 1451.00,457.50
             1451.00,457.50 1460.50,457.00 1460.50,457.00
             1460.50,457.00 1466.00,457.50 1466.00,457.50
             1466.00,457.50 1470.50,458.50 1470.50,458.50" />
  <path id="Unnamed#30"
        fill="none" stroke="black" stroke-width="1"
        d="M 1337.50,420.00
           C 1337.50,420.00 1348.00,422.00 1348.00,422.00
             1348.00,422.00 1356.50,420.00 1356.50,420.00
             1356.50,420.00 1365.00,421.50 1365.00,421.50
             1365.00,421.50 1379.00,420.00 1379.00,420.00
             1379.00,420.00 1389.50,419.00 1391.00,419.00
             1392.50,419.00 1406.00,417.50 1406.00,417.50
             1406.00,417.50 1416.50,414.50 1416.50,414.50
             1416.50,414.50 1426.50,413.50 1426.50,413.50
             1426.50,413.50 1435.50,414.00 1435.50,414.00
             1435.50,414.00 1445.50,412.50 1445.50,412.50
             1445.50,412.50 1457.50,413.50 1457.50,413.50
             1457.50,413.50 1467.00,411.00 1467.00,411.00
             1467.00,411.00 1473.00,410.50 1473.00,410.50
             1473.00,410.50 1479.50,410.50 1479.50,410.50" />
  <path id="Unnamed#29"
        fill="none" stroke="black" stroke-width="1"
        d="M 1336.50,418.50
           C 1336.50,418.50 1330.00,424.50 1330.00,424.50
             1330.00,424.50 1327.00,432.00 1327.00,432.00
             1327.00,432.00 1324.50,438.50 1324.50,438.50
             1324.50,438.50 1328.00,445.50 1327.50,446.00
             1327.00,446.50 1329.00,453.50 1329.50,453.50
             1330.00,453.50 1333.50,457.50 1333.50,457.50
             1333.50,457.50 1336.50,460.50 1336.50,460.50" />
  <path id="Unnamed#28"
        fill="none" stroke="black" stroke-width="1"
        d="M 1375.00,416.00
           C 1375.00,416.00 1368.00,400.00 1368.00,400.00
             1368.00,400.00 1363.33,392.00 1363.33,392.00
             1363.33,392.00 1358.67,385.67 1358.67,385.67
             1358.67,385.67 1353.67,381.00 1353.67,381.00
             1353.67,381.00 1347.67,375.67 1347.67,375.67
             1347.67,375.67 1340.33,372.33 1340.33,372.33
             1340.33,372.33 1330.67,369.33 1330.67,369.33
             1330.67,369.33 1322.33,369.67 1322.33,369.67
             1322.33,369.67 1317.67,375.00 1317.67,375.00
             1317.67,375.00 1311.33,380.00 1311.33,380.00
             1311.33,380.00 1307.33,386.67 1307.33,386.67
             1307.33,386.67 1303.67,390.67 1303.67,390.67
             1303.67,390.67 1298.67,397.33 1298.67,397.33
             1298.67,397.33 1296.00,406.00 1296.00,406.00
             1296.00,406.00 1293.00,413.67 1293.00,413.67
             1293.00,413.67 1292.00,421.00 1292.00,421.00
             1292.00,421.00 1291.33,426.67 1291.33,426.67
             1291.33,426.67 1291.33,432.67 1291.33,432.67
             1291.33,432.67 1290.33,442.00 1290.33,442.00
             1290.33,442.00 1289.33,447.33 1289.33,447.33
             1289.33,447.33 1290.33,452.67 1290.33,452.67
             1290.33,452.67 1291.00,461.33 1291.00,461.33
             1291.00,461.33 1290.33,470.33 1290.33,470.33
             1290.33,470.33 1292.33,478.33 1292.33,478.33
             1292.33,478.33 1294.33,485.67 1294.33,485.67
             1294.33,485.67 1295.67,492.33 1295.67,492.33
             1295.67,492.33 1300.33,498.00 1300.33,498.00
             1300.33,498.00 1305.67,503.33 1305.67,503.33
             1305.67,503.33 1310.67,506.00 1310.67,506.00
             1310.67,506.00 1316.00,507.33 1316.00,507.33
             1316.00,507.33 1324.33,506.00 1324.33,506.00
             1324.33,506.00 1331.33,503.33 1331.33,503.33
             1331.33,503.33 1337.33,501.33 1337.33,501.33
             1337.33,501.33 1344.67,498.00 1344.67,498.00
             1344.67,498.00 1352.00,495.33 1352.00,495.33
             1352.00,495.33 1359.00,490.00 1359.00,490.00
             1359.00,490.00 1365.00,484.00 1365.00,484.00
             1365.00,484.00 1370.33,478.00 1370.33,478.00
             1370.33,478.00 1374.00,471.00 1374.00,471.00
             1374.00,471.00 1376.33,463.67 1376.33,463.67" />
  <path id="Unnamed#27"
        fill="none" stroke="black" stroke-width="1"
        d="M 1284.00,498.00
           C 1284.00,498.00 1261.00,496.00 1261.00,496.00
             1261.00,496.00 1231.00,493.00 1231.00,493.00
             1231.00,493.00 1203.00,493.00 1203.00,493.00
             1203.00,493.00 1177.00,493.00 1177.00,493.00
             1177.00,493.00 1151.00,494.00 1151.00,494.00
             1151.00,494.00 1120.00,497.00 1120.00,497.00
             1120.00,497.00 1094.00,497.00 1094.00,497.00
             1094.00,497.00 1068.00,500.00 1068.00,500.00
             1068.00,500.00 1042.00,500.00 1042.00,500.00
             1042.00,500.00 1013.00,502.00 1013.00,502.00
             1013.00,502.00 992.00,502.00 992.00,502.00
             992.00,502.00 956.00,505.00 956.00,505.00
             956.00,505.00 930.00,504.00 930.00,504.00
             930.00,504.00 908.00,507.00 908.00,507.00
             908.00,507.00 889.00,507.00 889.00,507.00
             889.00,507.00 870.00,508.00 870.00,508.00
             870.00,508.00 840.00,510.00 840.00,510.00" />
  <path id="Unnamed#26"
        fill="none" stroke="black" stroke-width="1"
        d="M 830.50,367.00
           C 830.50,367.00 840.50,367.50 840.50,367.50
             840.50,367.50 859.00,367.00 859.00,367.00
             859.00,367.00 878.00,367.00 878.00,367.00
             878.00,367.00 928.00,365.00 928.00,365.00
             928.00,365.00 987.00,365.00 987.00,365.00
             987.00,365.00 1030.00,365.00 1030.00,365.00
             1030.00,365.00 1088.00,365.00 1088.00,365.00
             1088.00,365.00 1127.00,363.00 1127.00,363.00
             1127.00,363.00 1180.00,362.00 1180.00,362.00
             1180.00,362.00 1219.00,362.00 1219.00,362.00
             1219.00,362.00 1257.00,366.00 1257.00,366.00
             1257.00,366.00 1286.00,371.00 1286.00,371.00
             1286.00,371.00 1315.00,373.00 1315.00,373.00" />
  <path id="Unnamed#25"
        fill="none" stroke="black" stroke-width="1"
        d="M 831.50,359.00
           C 831.00,359.50 827.00,366.00 827.00,366.00
             827.00,366.00 822.00,372.00 822.00,372.00
             822.00,372.00 818.50,381.50 818.50,381.50
             818.50,381.50 819.00,390.50 818.50,391.50
             818.00,392.50 815.00,404.50 815.00,404.50
             815.00,404.50 814.50,419.50 814.50,419.50
             814.50,419.50 812.50,428.50 812.50,429.00
             812.50,429.50 813.50,439.50 813.50,439.50
             813.50,439.50 811.00,453.50 811.00,453.50
             811.00,453.50 811.00,463.50 811.00,463.50
             811.00,463.50 811.50,477.00 811.50,477.00
             811.50,477.00 812.50,488.50 812.50,488.50
             812.50,488.50 815.00,497.50 815.00,497.50
             815.00,497.50 818.50,507.50 818.50,507.50
             818.50,507.50 821.50,515.00 821.50,515.00
             821.50,515.00 825.00,520.00 825.00,520.00
             825.00,520.00 829.00,524.00 829.00,524.00
             829.00,524.00 836.00,526.50 836.00,526.50" />
  <path id="Unnamed#24"
        fill="none" stroke="black" stroke-width="1"
        d="M 715.00,481.00
           C 715.00,481.00 712.00,474.00 712.00,474.00
             712.00,474.00 710.00,467.00 710.00,467.00
             710.00,467.00 708.50,454.50 708.50,454.50
             708.50,454.50 708.50,443.00 708.50,443.00
             708.50,443.00 712.00,435.00 712.00,435.00
             712.00,435.00 715.50,425.50 715.50,425.50
             715.50,425.50 721.50,420.50 721.50,420.50" />
  <path id="Unnamed#23"
        fill="none" stroke="black" stroke-width="1"
        d="M 807.00,477.50
           C 807.00,477.50 793.50,477.00 793.50,477.00
             793.50,477.00 781.00,477.50 781.00,477.50
             781.00,477.50 768.50,477.50 768.50,477.50
             768.50,477.50 756.00,477.00 756.00,477.00
             756.00,477.00 740.00,477.00 740.00,477.00
             740.00,477.00 729.50,476.50 729.50,476.50
             729.50,476.50 721.00,476.50 721.00,476.50
             721.00,476.50 714.50,478.00 714.50,478.00" />
  <path id="Unnamed#22"
        fill="none" stroke="black" stroke-width="1"
        d="M 811.50,421.50
           C 811.50,421.50 803.50,423.50 803.00,423.50
             802.50,423.50 793.00,424.00 793.00,424.00
             793.00,424.00 783.00,425.00 783.00,425.00
             783.00,425.00 770.00,425.00 770.00,425.00
             770.00,425.00 756.50,425.00 756.50,425.00
             756.50,425.00 746.00,424.50 746.00,424.50
             746.00,424.50 732.50,423.50 732.50,423.50
             732.50,423.50 720.50,422.50 720.50,422.50" />
  <path id="Unnamed#21"
        fill="none" stroke="black" stroke-width="1"
        d="M 751.50,422.00
           C 751.50,422.00 750.50,410.50 750.50,410.50
             750.50,410.50 746.00,401.00 746.00,401.00
             746.00,401.00 742.00,392.50 742.00,392.50
             742.00,392.50 736.00,384.00 736.00,384.00
             736.00,384.00 729.00,378.00 729.00,378.00
             729.00,378.00 722.50,372.50 722.50,372.50
             722.50,372.50 715.00,368.50 715.00,368.50
             715.00,368.50 708.50,367.00 708.50,367.00
             708.50,367.00 702.00,367.00 702.00,367.00
             702.00,367.00 694.50,370.00 694.50,370.00
             694.50,370.00 688.50,375.50 688.50,375.50
             688.50,375.50 681.00,382.00 681.00,382.50
             681.00,383.00 672.00,391.00 672.00,391.00
             672.00,391.00 668.50,398.50 668.50,398.50
             668.50,398.50 663.50,407.00 663.50,407.00
             663.50,407.00 658.00,420.00 658.00,420.00
             658.00,420.00 656.50,430.50 656.50,430.50
             656.50,430.50 654.50,439.50 654.50,439.50
             654.50,439.50 655.50,449.00 655.50,449.00
             655.50,449.00 654.00,459.50 654.00,459.50
             654.00,459.50 656.00,468.50 656.00,468.50
             656.00,468.50 656.00,478.50 656.00,478.50
             656.00,478.50 660.00,490.00 660.00,490.00
             660.00,490.00 664.50,498.50 664.50,498.50
             664.50,498.50 668.50,507.00 668.50,507.00
             668.50,507.00 673.50,516.00 673.50,516.00
             673.50,516.00 680.50,521.50 680.50,521.50
             680.50,521.50 689.00,525.00 689.00,525.00
             689.00,525.00 702.00,528.00 702.00,528.00
             702.00,528.00 709.50,524.50 709.50,524.50
             709.50,524.50 718.00,520.50 718.00,520.50
             718.00,520.50 725.00,515.00 725.00,515.00
             725.00,515.00 733.50,506.00 733.50,506.00
             733.50,506.00 738.00,496.00 738.00,496.00
             738.00,496.00 742.00,487.50 742.00,487.50
             742.00,487.50 745.50,480.00 745.50,480.00
             745.50,480.00 749.00,472.00 749.00,472.00
             749.00,472.00 749.00,465.50 749.00,465.50" />
  <path id="Unnamed#20"
        fill="none" stroke="black" stroke-width="1"
        d="M 620.50,373.00
           C 620.50,373.00 613.50,379.50 613.50,379.50
             613.50,379.50 607.50,390.00 607.50,390.00
             607.50,390.00 602.50,398.00 602.50,398.00
             602.50,398.00 599.00,406.00 599.00,406.00
             599.00,406.00 594.50,414.50 594.50,414.50
             594.50,414.50 591.50,422.00 591.50,422.00
             591.50,422.00 589.00,429.00 589.00,429.00
             589.00,429.00 588.00,435.50 588.00,435.50
             588.00,435.50 588.00,441.00 588.00,441.00
             588.00,441.00 587.00,448.50 587.00,448.50
             587.00,448.50 584.50,457.00 584.50,457.00
             584.50,457.00 585.00,465.00 585.00,465.00
             585.00,465.00 585.50,473.00 585.50,473.00
             585.50,473.00 585.00,481.50 585.00,481.50
             585.00,481.50 584.50,490.00 584.50,490.00
             584.50,490.00 585.50,497.00 585.50,497.00
             585.50,497.00 587.00,504.00 587.00,504.00
             587.00,504.00 590.50,510.50 590.50,510.50
             590.50,510.50 595.00,518.50 595.00,518.50
             595.00,518.50 598.50,524.50 598.50,524.50
             598.50,524.50 604.00,529.50 604.00,529.50
             604.00,529.50 606.50,535.00 606.50,535.00
             606.50,535.00 611.00,537.50 611.00,537.50
             611.00,537.50 616.50,540.50 616.50,541.00" />
  <path id="Unnamed#19"
        fill="none" stroke="black" stroke-width="1"
        d="M 610.50,536.00
           C 610.50,536.00 617.00,536.50 617.50,537.00
             618.00,537.50 628.50,538.50 628.50,538.50
             628.50,538.50 637.50,537.00 637.50,537.00
             637.50,537.00 650.00,534.50 650.50,534.50
             651.00,534.50 661.00,533.00 661.00,533.00
             661.00,533.00 675.00,532.50 675.00,532.50
             675.00,532.50 689.00,532.00 689.00,532.00
             689.00,532.00 698.50,528.50 698.50,528.50" />
  <path id="Unnamed#18"
        fill="none" stroke="black" stroke-width="1"
        d="M 622.50,372.50
           C 622.50,372.50 633.00,372.00 633.00,372.00
             633.00,372.00 643.50,370.00 643.50,370.00
             643.50,370.00 656.00,368.00 656.00,368.00
             656.00,368.00 664.50,366.00 664.50,366.00
             664.50,366.00 675.00,365.50 675.00,365.50
             675.00,365.50 684.50,365.00 684.50,365.00
             684.50,365.00 693.50,365.00 693.50,365.00
             693.50,365.00 699.50,365.50 699.50,365.50" />
  <path id="Unnamed#17"
        fill="none" stroke="black" stroke-width="1"
        d="M 586.00,430.67
           C 586.00,430.67 580.00,429.00 580.00,429.00
             580.00,429.00 575.67,427.33 575.67,427.33
             575.67,427.33 569.00,424.67 569.00,424.67
             569.00,424.67 565.33,423.67 565.33,423.67" />
  <path id="Unnamed#16"
        fill="none" stroke="black" stroke-width="1"
        d="M 580.67,485.33
           C 580.67,485.33 573.67,485.00 573.67,485.33
             573.67,485.67 568.33,485.67 568.33,485.67
             568.33,485.67 560.00,486.00 560.00,486.00" />
  <path id="Unnamed#15"
        fill="none" stroke="black" stroke-width="1"
        d="M 565.67,423.33
           C 565.67,423.33 557.33,428.67 557.33,428.67
             557.33,428.67 550.33,437.67 550.33,437.67
             550.33,437.67 547.33,447.00 547.33,447.00
             547.33,447.00 546.00,454.67 546.00,454.67
             546.00,454.67 546.67,462.00 546.67,462.00
             546.67,462.00 547.00,468.33 547.00,468.33
             547.00,468.33 549.00,472.67 549.00,472.67
             549.00,472.67 550.67,478.67 550.67,478.67
             550.67,478.67 554.67,483.00 554.67,483.00
             554.67,483.00 557.00,488.00 557.00,488.00
             557.00,488.00 560.33,490.00 560.33,490.00
             560.33,490.00 565.00,492.33 565.00,492.33
             565.00,492.33 570.00,492.00 570.00,492.00" />
  <path id="Unnamed#14"
        fill="none" stroke="black" stroke-width="1"
        d="M 544.67,469.33
           C 544.67,469.33 538.00,469.33 538.00,469.33
             538.00,469.33 529.67,468.00 529.67,468.00
             529.67,468.00 522.67,466.67 522.67,466.67
             522.67,466.67 512.67,466.00 512.67,466.00
             512.67,466.00 505.67,465.33 505.67,465.33
             505.67,465.33 495.67,463.67 495.67,463.67
             495.67,463.67 489.33,464.00 489.33,464.00
             489.33,464.00 485.00,466.00 485.00,466.00" />
  <path id="Unnamed#13"
        fill="none" stroke="black" stroke-width="1"
        d="M 544.67,445.33
           C 544.67,445.33 540.00,446.00 540.00,446.00
             540.00,446.00 532.67,446.33 532.67,446.33
             532.67,446.33 525.67,446.33 525.67,446.33
             525.67,446.33 517.67,444.33 517.67,444.33
             517.67,444.33 509.67,442.67 509.67,442.67
             509.67,442.67 504.00,442.33 504.00,442.33
             504.00,442.33 495.00,440.00 495.00,440.00
             495.00,440.00 486.67,439.00 486.67,439.00" />
  <path id="Unnamed#12"
        fill="none" stroke="black" stroke-width="1"
        d="M 486.00,439.00
           C 486.00,439.00 482.67,443.33 482.67,443.33
             482.67,443.33 479.00,447.33 479.00,447.33
             479.00,447.33 478.00,452.33 478.00,452.67
             478.00,453.00 478.33,458.67 478.33,458.67
             478.33,458.67 480.33,461.67 480.33,461.67
             480.33,461.67 482.67,464.33 482.67,464.33
             482.67,464.33 485.00,465.67 485.00,465.67" />
  <path id="Unnamed#11"
        fill="none" stroke="black" stroke-width="1"
        d="M 490.00,468.00
           C 490.00,471.00 491.00,480.00 489.00,481.00
             487.00,482.00 485.00,488.00 484.00,488.00
             483.00,488.00 474.00,493.00 474.00,493.00
             474.00,493.00 467.00,499.00 467.00,499.00
             467.00,499.00 453.00,499.00 453.00,499.00
             453.00,499.00 433.00,493.00 433.00,493.00
             433.00,493.00 424.00,484.00 424.00,484.00
             424.00,484.00 413.00,469.00 413.00,469.00
             413.00,469.00 409.00,455.00 409.00,455.00
             409.00,455.00 409.00,441.00 409.00,441.00
             409.00,441.00 415.00,426.00 415.00,426.00
             415.00,426.00 423.00,415.00 423.00,415.00
             423.00,415.00 433.00,406.00 433.00,406.00
             433.00,406.00 445.00,404.00 445.00,404.00
             445.00,404.00 455.00,403.00 455.00,403.00
             455.00,403.00 465.00,404.00 465.00,404.00
             465.00,404.00 477.00,408.00 477.00,409.00
             477.00,410.00 483.00,419.00 483.00,419.00
             483.00,419.00 487.00,429.00 487.00,429.00
             487.00,429.00 487.00,436.00 487.00,436.00" />
  <path id="Unnamed#10"
        fill="none" stroke="black" stroke-width="1"
        d="M 492.00,616.00
           C 492.00,616.00 485.00,623.00 485.00,623.00
             485.00,623.00 480.00,629.00 480.00,629.00
             480.00,629.00 470.00,635.00 470.00,635.00
             470.00,635.00 462.00,640.00 462.00,640.00
             462.00,640.00 448.00,641.00 448.00,641.00
             448.00,641.00 434.00,640.00 434.00,640.00
             434.00,640.00 422.00,636.00 422.00,636.00
             422.00,636.00 410.00,624.00 410.00,624.00" />
  <path id="Unnamed#7"
        fill="none" stroke="black" stroke-width="1"
        d="M 465.00,582.00
           C 465.00,582.00 473.00,581.00 473.00,581.00
             473.00,581.00 485.00,579.00 485.00,579.00
             485.00,579.00 495.00,579.00 495.00,579.00
             495.00,579.00 506.00,583.00 506.00,583.00
             506.00,583.00 518.00,591.00 518.00,591.00
             518.00,591.00 527.00,595.00 527.00,595.00
             527.00,595.00 534.00,600.00 534.00,602.00
             534.00,604.00 540.00,615.00 540.00,615.00
             540.00,615.00 544.00,628.00 544.00,628.00
             544.00,628.00 543.00,643.00 543.00,643.00
             543.00,643.00 534.00,661.00 534.00,661.00
             534.00,661.00 522.00,674.00 522.00,674.00
             522.00,674.00 509.00,684.00 509.00,684.00
             509.00,684.00 494.00,696.00 494.00,696.00
             494.00,696.00 470.00,704.00 470.00,704.00
             470.00,704.00 449.00,707.00 449.00,707.00
             449.00,707.00 427.00,711.00 427.00,711.00
             427.00,711.00 406.00,712.00 406.00,712.00
             406.00,712.00 389.00,707.00 389.00,707.00
             389.00,707.00 368.00,702.00 368.00,702.00
             368.00,702.00 351.00,691.00 351.00,691.00
             351.00,691.00 336.00,676.00 336.00,676.00
             336.00,676.00 328.00,662.00 328.00,662.00
             328.00,662.00 321.00,650.00 321.00,650.00
             321.00,650.00 320.00,634.00 320.00,634.00
             320.00,634.00 327.00,621.00 327.00,621.00
             327.00,621.00 338.00,611.00 338.00,611.00
             338.00,611.00 350.00,604.00 350.00,604.00
             350.00,604.00 361.00,598.00 361.00,598.00
             361.00,598.00 376.00,592.00 376.00,592.00
             376.00,592.00 394.00,592.00 394.00,592.00
             394.00,592.00 407.00,588.00 407.00,588.00
             407.00,588.00 418.00,589.00 418.00,589.00
             418.00,589.00 427.00,592.00 427.00,592.00" />
  <path id="Unnamed#6"
        fill="none" stroke="black" stroke-width="1"
        d="M 320.00,760.00
           C 320.00,761.00 325.00,768.00 325.00,768.00
             325.00,768.00 337.00,776.00 337.00,776.00
             337.00,776.00 344.00,780.00 344.00,780.00
             344.00,780.00 363.00,786.00 363.00,786.00
             363.00,786.00 387.00,787.00 387.00,787.00
             387.00,787.00 416.00,787.00 416.00,787.00
             416.00,787.00 434.00,784.00 433.00,784.00
             432.00,784.00 447.00,782.00 447.00,782.00
             447.00,782.00 473.00,779.00 473.00,779.00
             473.00,779.00 494.00,771.00 494.00,771.00
             494.00,771.00 505.00,764.00 505.00,764.00
             505.00,764.00 521.00,755.00 521.00,755.00
             521.00,755.00 534.00,752.00 534.00,752.00
             534.00,752.00 544.00,744.00 544.00,744.00" />
  <path id="Unnamed#5"
        fill="none" stroke="black" stroke-width="1"
        d="M 545.00,638.00
           C 545.00,638.00 544.00,655.00 544.00,655.00
             544.00,655.00 539.00,668.00 539.00,669.00
             539.00,670.00 535.00,689.00 535.00,689.00
             535.00,689.00 536.00,705.00 536.00,705.00
             536.00,705.00 536.00,718.00 536.00,718.00
             536.00,718.00 541.00,729.00 540.00,731.00
             539.00,733.00 545.00,741.00 545.00,741.00" />
  <path id="Unnamed#4"
        fill="none" stroke="black" stroke-width="1"
        d="M 317.00,646.00
           C 317.00,646.00 320.00,661.00 320.00,662.00
             320.00,663.00 323.00,679.00 323.00,679.00
             323.00,679.00 326.00,695.00 326.00,695.00
             326.00,695.00 328.00,708.00 328.00,708.00
             328.00,708.00 326.00,723.00 326.00,723.00
             326.00,723.00 326.00,739.00 326.00,739.00
             326.00,739.00 320.00,751.00 320.00,751.00
             320.00,751.00 316.00,760.00 316.00,760.00" />
  <path id="Unnamed#3"
        fill="none" stroke="black" stroke-width="1"
        d="M 551.00,717.00
           C 551.00,717.00 562.00,723.00 562.00,723.00
             562.00,723.00 571.00,732.00 571.00,732.00
             571.00,732.00 575.00,746.00 575.00,746.00
             575.00,746.00 574.00,762.00 574.00,762.00
             574.00,762.00 571.00,774.00 571.00,774.00
             571.00,774.00 560.00,785.00 560.00,785.00
             560.00,785.00 547.00,796.00 547.00,796.00
             547.00,796.00 534.00,805.00 534.00,805.00
             534.00,805.00 519.00,812.00 519.00,812.00
             519.00,812.00 507.00,819.00 507.00,819.00
             507.00,819.00 489.00,825.00 489.00,825.00
             489.00,825.00 471.00,829.00 471.00,829.00
             471.00,829.00 452.00,832.00 452.00,832.00
             452.00,832.00 432.00,836.00 432.00,836.00
             432.00,836.00 411.00,835.00 411.00,835.00
             411.00,835.00 398.00,831.00 398.00,831.00
             398.00,831.00 382.00,827.00 382.00,827.00
             382.00,827.00 362.00,823.00 362.00,823.00
             362.00,823.00 346.00,817.00 346.00,817.00
             346.00,817.00 330.00,810.00 330.00,810.00
             330.00,810.00 315.00,801.00 315.00,801.00
             315.00,801.00 301.00,795.00 301.00,795.00
             301.00,795.00 287.00,783.00 287.00,783.00
             287.00,783.00 283.00,772.00 283.00,772.00
             283.00,772.00 282.00,759.00 282.00,759.00
             282.00,759.00 288.00,751.00 288.00,751.00
             288.00,751.00 300.00,746.00 300.00,746.00
             300.00,746.00 317.00,741.00 317.00,741.00" />
  <path id="Unnamed#2"
        fill="none" stroke="black" stroke-width="1"
        d="M 581.00,815.00
           C 581.00,815.00 566.00,823.00 566.00,823.00
             566.00,823.00 557.00,837.00 557.00,837.00
             557.00,837.00 540.00,846.00 540.00,846.00
             540.00,846.00 521.00,862.00 521.00,862.00
             521.00,862.00 502.00,873.00 502.00,873.00
             502.00,873.00 487.00,885.00 487.00,885.00
             487.00,885.00 463.00,889.00 463.00,889.00
             463.00,889.00 433.00,890.00 433.00,890.00
             433.00,890.00 402.00,890.00 402.00,890.00
             402.00,890.00 374.00,880.00 374.00,880.00
             374.00,880.00 352.00,869.00 352.00,869.00
             352.00,869.00 326.00,865.00 326.00,865.00
             326.00,865.00 311.00,856.00 311.00,856.00
             311.00,856.00 295.00,844.00 295.00,844.00
             295.00,844.00 281.00,835.00 281.00,835.00
             281.00,835.00 272.00,821.00 272.00,821.00" />
  <path id="Unnamed#1"
        fill="none" stroke="black" stroke-width="1"
        d="M 575.00,770.00
           C 575.00,770.00 573.00,787.00 573.00,788.00
             573.00,789.00 575.00,798.00 575.00,799.00
             575.00,800.00 575.00,815.00 575.00,815.00" />
  <path id="Unnamed"
        fill="none" stroke="black" stroke-width="1"
        d="M 278.00,771.00
           C 277.00,771.00 277.00,782.00 277.00,784.00
             277.00,786.00 278.00,802.00 278.00,803.00
             278.00,804.00 276.00,816.00 276.00,816.00" />
</svg>
