<?xml version="1.0" encoding="UTF-8" standalone="no"?>
<!DOCTYPE svg PUBLIC "-//W3C//DTD SVG 20010904//EN"
              "http://www.w3.org/TR/2001/REC-SVG-20010904/DTD/svg10.dtd">

<svg xmlns="http://www.w3.org/2000/svg"
     width="13.5972in" height="10.1944in"
     viewBox="0 0 979 734">
  <path id="Unnamed #23"
        fill="none" stroke="black" stroke-width="1"
        d="M 816.00,430.33
           C 816.00,430.33 822.33,434.33 822.33,434.33
             822.33,434.33 829.00,438.67 829.00,438.67
             829.00,438.67 838.00,440.67 838.00,440.67
             838.00,440.67 847.33,443.00 847.33,443.00
             847.33,443.00 857.00,444.33 857.00,444.33
             857.00,444.33 872.00,444.00 872.00,444.00
             872.00,444.00 885.00,442.67 885.00,442.67
             885.00,442.67 898.00,442.00 898.00,442.00
             898.00,442.00 910.33,439.33 910.33,439.33
             910.33,439.33 923.67,435.00 923.67,435.00
             923.67,435.00 935.00,430.33 935.00,430.33
             935.00,430.33 943.67,425.00 943.67,425.00
             943.67,425.00 949.00,421.00 949.00,421.00
             949.00,421.00 955.33,415.00 955.33,415.00
             955.33,415.00 957.67,411.33 957.67,411.33" />
  <path id="Unnamed #22"
        fill="none" stroke="black" stroke-width="1"
        d="M 889.67,342.33
           C 889.67,342.33 891.00,347.67 891.00,347.67
             891.00,347.67 893.00,353.00 893.00,353.00
             893.00,353.00 898.67,357.33 898.67,357.33
             898.67,357.33 905.33,361.33 905.33,361.33
             905.33,361.33 912.00,364.67 912.00,364.67
             912.00,364.67 919.33,366.33 919.33,366.33
             919.33,366.33 925.00,368.67 925.00,368.67
             925.00,368.67 932.00,370.33 932.00,370.33
             932.00,370.33 937.33,372.67 937.33,372.67
             937.33,372.67 942.00,375.33 942.00,375.33
             942.00,375.33 946.00,380.33 946.00,380.33
             946.00,380.33 947.67,385.67 947.67,385.67
             947.67,385.67 949.67,392.00 949.67,392.00
             949.67,392.00 950.00,398.33 950.33,398.33
             950.67,398.33 953.33,405.33 953.33,405.33
             953.33,405.33 954.67,412.33 954.67,412.33
             954.67,412.33 954.67,415.67 954.67,415.67" />
  <path id="Unnamed #21"
        fill="none" stroke="black" stroke-width="1"
        d="M 859.67,346.33
           C 859.67,346.33 860.67,357.00 860.67,357.00
             860.67,357.00 859.00,365.33 859.00,365.33
             859.00,365.33 854.33,371.67 854.33,371.67
             854.33,371.67 849.67,375.00 849.67,375.00
             849.67,375.00 842.67,379.67 842.67,379.67
             842.67,379.67 835.00,385.33 835.00,385.33
             835.00,385.33 828.00,390.33 828.00,390.33
             828.00,390.33 822.33,397.33 822.33,397.33
             822.33,397.33 818.00,403.67 818.00,403.67
             818.00,403.67 815.33,411.00 815.33,411.00
             815.33,411.00 813.67,418.00 813.67,418.00
             813.67,418.00 814.67,424.33 814.67,424.33
             814.67,424.33 814.00,430.00 814.00,430.00" />
  <path id="Unnamed #20"
        fill="none" stroke="black" stroke-width="1"
        d="M 859.33,345.67
           C 859.33,345.67 863.67,348.33 863.67,348.33
             863.67,348.33 869.00,350.33 869.00,350.33
             869.00,350.33 875.00,350.00 875.00,350.00
             875.00,350.00 880.67,349.67 880.67,349.67
             880.67,349.67 885.00,345.67 885.00,345.67
             885.00,345.67 890.00,341.00 890.00,341.00" />
  <path id="Unnamed #19"
        fill="none" stroke="black" stroke-width="1"
        d="M 889.33,342.33
           C 889.33,342.33 887.67,330.67 887.67,330.67
             887.67,330.67 887.67,315.33 887.67,315.33
             887.67,315.33 887.67,304.00 887.67,304.00
             887.67,304.00 886.67,298.33 886.67,298.33" />
  <path id="Unnamed #18"
        fill="none" stroke="black" stroke-width="1"
        d="M 859.33,345.67
           C 859.33,345.67 860.33,338.67 860.33,338.67
             860.33,338.67 857.67,328.00 857.67,328.00
             857.67,328.00 856.33,313.67 856.33,313.67
             856.33,313.67 856.00,299.67 856.00,299.67" />
  <path id="Unnamed #17"
        fill="none" stroke="black" stroke-width="1"
        d="M 805.67,265.33
           C 805.67,265.33 802.67,258.33 802.67,258.33
             802.67,258.33 800.67,249.33 800.67,249.33
             800.67,249.33 800.00,243.67 800.00,243.67
             800.00,243.67 801.67,234.00 801.67,234.00
             801.67,234.00 804.00,226.67 804.00,226.67
             804.00,226.67 809.00,219.67 809.00,219.67
             809.00,219.67 814.33,212.00 814.33,212.00
             814.33,212.00 821.33,200.33 821.33,200.33
             821.33,200.33 828.00,191.33 828.00,191.33
             828.00,191.33 835.33,184.67 835.33,184.67
             835.33,184.67 846.33,178.33 846.33,178.33
             846.33,178.33 856.67,173.67 856.67,173.67
             856.67,173.67 868.33,171.67 868.33,171.67
             868.33,171.67 878.67,175.33 878.67,175.33
             878.67,175.33 891.33,182.67 891.00,182.67
             890.67,182.67 901.00,192.67 901.00,192.67
             901.00,192.67 912.00,206.33 912.00,206.33
             912.00,206.33 920.33,221.00 920.33,221.00
             920.33,221.00 925.33,234.00 925.33,234.00
             925.33,234.00 927.00,248.00 927.00,248.00
             927.00,248.00 926.67,259.67 926.67,259.67
             926.67,259.67 922.33,270.33 922.33,270.33
             922.33,270.33 915.33,282.00 915.33,282.00
             915.33,282.00 908.00,290.67 908.00,290.67
             908.00,290.67 898.67,297.33 898.67,297.33
             898.67,297.33 886.33,302.33 886.33,302.33
             886.33,302.33 871.67,304.00 871.67,304.00
             871.67,304.00 860.67,304.33 860.67,304.33
             860.67,304.33 849.33,301.67 849.33,301.67
             849.33,301.67 838.67,297.67 838.67,297.67
             838.67,297.67 831.33,294.00 831.33,294.00
             831.33,294.00 823.00,288.00 823.00,288.00
             823.00,288.00 815.67,281.00 815.67,281.00
             815.67,281.00 811.00,274.33 811.00,274.33
             811.00,274.33 805.67,265.67 805.67,265.67" />
  <path id="Unnamed #16"
        fill="none" stroke="black" stroke-width="1"
        d="M 721.33,256.00
           C 721.33,256.00 736.00,256.67 736.00,256.67
             736.00,256.67 753.00,254.67 753.00,254.67
             753.00,254.67 773.33,252.67 773.33,252.67
             773.33,252.67 792.00,252.00 792.00,252.00
             792.00,252.00 802.33,253.67 802.33,253.67" />
  <path id="Unnamed #15"
        fill="none" stroke="black" stroke-width="1"
        d="M 712.67,228.00
           C 712.67,228.00 725.00,227.00 725.00,227.00
             725.00,227.00 738.00,226.67 738.00,226.67
             738.00,226.67 760.67,227.00 760.67,227.00
             760.67,227.00 790.33,227.33 790.33,227.33
             790.33,227.33 809.67,227.67 809.67,227.67" />
  <path id="Unnamed #14"
        fill="none" stroke="black" stroke-width="1"
        d="M 707.00,231.00
           C 707.00,231.00 712.00,228.67 712.00,228.67
             712.00,228.67 719.00,228.33 719.00,228.33
             719.00,228.33 725.33,231.67 725.33,231.67
             725.33,231.67 729.00,236.00 729.00,236.00
             729.00,236.00 729.67,244.33 729.67,244.33
             729.67,244.33 728.33,251.00 728.33,251.00
             728.33,251.00 725.67,256.67 725.67,256.67
             725.67,256.67 719.67,260.33 719.67,260.67
             719.67,261.00 714.00,258.67 714.00,258.67
             714.00,258.67 710.33,253.00 710.33,253.00
             710.33,253.00 709.00,244.33 709.00,244.33
             709.00,244.33 709.33,235.67 709.33,235.67
             709.33,235.67 711.00,229.33 711.00,229.33" />
  <path id="Unnamed #13"
        fill="none" stroke="black" stroke-width="1"
        d="M 681.00,217.33
           C 681.00,217.33 686.00,211.33 686.00,211.33
             686.00,211.33 696.00,203.67 696.00,203.67
             696.00,203.67 705.00,200.00 705.00,200.00
             705.00,200.00 713.00,197.00 713.00,197.00
             713.00,197.00 720.00,197.67 720.00,197.67
             720.00,197.67 727.33,201.33 727.33,201.33
             727.33,201.33 733.00,204.67 733.00,204.67
             733.00,204.67 738.67,211.33 738.67,211.33
             738.67,211.33 742.00,219.00 742.00,219.00
             742.00,219.00 742.67,227.33 742.67,227.33
             742.67,227.33 743.67,238.00 743.67,238.00
             743.67,238.00 743.00,247.33 743.00,247.33
             743.00,247.33 740.33,262.67 740.33,262.67
             740.33,262.67 735.33,273.67 735.33,273.67
             735.33,273.67 728.67,283.33 728.67,283.33
             728.67,283.33 720.33,289.00 720.33,289.00
             720.33,289.00 712.00,291.67 712.00,291.67
             712.00,291.67 705.67,290.33 705.67,290.33
             705.67,290.33 699.67,287.00 699.67,287.00
             699.67,287.00 694.67,281.33 694.67,281.33
             694.67,281.33 692.00,274.67 692.00,274.67
             692.00,274.67 689.00,262.00 689.00,262.00
             689.00,262.00 688.67,250.33 688.67,250.33
             688.67,250.33 689.00,238.67 689.00,238.67
             689.00,238.67 689.33,229.00 689.33,229.00
             689.33,229.00 691.67,218.33 691.67,218.33
             691.67,218.33 693.33,209.67 693.33,209.67
             693.33,209.67 695.67,205.00 695.67,205.00" />
  <path id="Unnamed #12"
        fill="none" stroke="black" stroke-width="1"
        d="M 213.00,222.00
           C 213.00,222.00 224.00,221.00 224.00,221.00
             224.00,221.00 232.67,223.33 232.67,223.33
             232.67,223.33 248.33,224.67 248.33,224.67
             248.33,224.67 283.00,224.67 283.00,224.67
             283.00,224.67 312.33,223.67 312.33,223.67
             312.33,223.67 343.33,222.67 343.33,222.67
             343.33,222.67 396.33,220.67 396.33,220.67
             396.33,220.67 435.67,217.67 435.67,217.67
             435.67,217.67 469.33,215.67 469.33,215.67
             469.33,215.67 491.67,214.00 491.67,214.00
             491.67,214.00 523.33,212.33 523.33,212.33
             523.33,212.33 556.33,210.33 556.33,210.33
             556.33,210.33 585.00,208.33 585.00,208.33
             585.00,208.33 611.00,207.00 610.67,207.33
             610.33,207.67 631.33,206.67 631.33,206.67
             631.33,206.67 663.33,205.33 663.33,205.33
             663.33,205.33 694.33,204.67 694.33,204.67" />
  <path id="Unnamed #11"
        fill="none" stroke="black" stroke-width="1"
        d="M 218.00,306.67
           C 218.00,306.67 224.00,309.33 224.00,309.33
             224.00,309.33 242.67,309.67 242.67,309.67
             242.67,309.67 262.33,309.00 262.33,309.00
             262.33,309.00 290.00,307.33 290.00,307.33
             290.00,307.33 327.33,305.67 327.33,305.67
             327.33,305.67 365.67,304.33 365.67,304.33
             365.67,304.33 394.00,302.33 394.00,302.33
             394.00,302.33 433.00,300.00 433.00,300.00
             433.00,300.00 457.33,298.00 457.33,298.00
             457.33,298.00 483.00,296.67 483.00,296.67
             483.00,296.67 510.67,294.33 510.67,294.33
             510.67,294.33 527.33,293.00 527.33,293.00
             527.33,293.00 539.00,292.33 539.00,292.33
             539.00,292.33 556.00,290.67 556.00,290.67
             556.00,290.67 572.00,288.67 572.00,288.67
             572.00,288.67 587.33,287.33 587.33,287.33
             587.33,287.33 603.33,286.33 603.33,286.33
             603.33,286.33 619.00,285.00 619.00,285.00
             619.00,285.00 635.00,284.33 635.00,284.33
             635.00,284.33 649.33,284.33 649.33,284.33
             649.33,284.33 662.00,285.00 662.00,285.00
             662.00,285.00 674.00,285.33 674.00,285.33
             674.00,285.33 687.67,286.00 687.67,286.00
             687.67,286.00 696.67,285.67 696.67,285.67" />
  <path id="Unnamed #10"
        fill="none" stroke="black" stroke-width="1"
        d="M 219.33,223.33
           C 219.33,223.33 212.00,236.00 212.00,236.00
             212.00,236.00 208.00,245.33 208.00,245.33
             208.00,245.33 205.00,257.00 205.00,257.00
             205.00,257.00 203.00,268.67 203.00,268.67
             203.00,268.67 203.33,279.00 203.33,279.00
             203.33,279.00 205.33,289.67 205.33,289.67
             205.33,289.67 208.67,298.67 208.67,298.67
             208.67,298.67 215.00,308.67 215.00,308.67" />
  <path id="Unnamed #9"
        fill="none" stroke="black" stroke-width="1"
        d="M 149.67,420.33
           C 149.67,420.33 137.33,433.67 137.33,433.67
             137.33,433.67 123.67,442.67 123.67,442.67
             123.67,442.67 109.33,449.00 109.33,449.00
             109.33,449.00 96.33,452.00 96.33,452.00
             96.33,452.00 84.00,452.00 84.00,452.00
             84.00,452.00 76.00,450.00 76.00,450.00
             76.00,450.00 68.33,448.00 68.33,448.00
             68.33,448.00 61.33,444.00 61.33,444.00
             61.33,444.00 54.33,440.00 54.33,440.00
             54.33,440.00 47.33,434.33 47.33,434.33" />
  <path id="Unnamed #8"
        fill="none" stroke="black" stroke-width="1"
        d="M 145.00,431.33
           C 145.00,431.33 129.00,396.33 129.00,396.33
             129.00,396.33 118.00,376.33 118.00,376.33" />
  <path id="Unnamed #3"
        fill="none" stroke="black" stroke-width="1"
        d="M 143.00,288.67
           C 143.00,288.67 151.67,290.33 151.67,290.33
             151.67,290.33 165.67,287.67 165.67,287.67
             165.67,287.67 185.00,287.67 185.00,287.67
             185.00,287.67 203.67,285.67 203.67,285.67" />
  <path id="Unnamed #2"
        fill="none" stroke="black" stroke-width="1"
        d="M 141.00,261.00
           C 141.00,261.00 156.33,261.33 156.33,261.33
             156.33,261.33 174.00,258.00 174.00,258.00
             174.00,258.00 189.33,258.33 189.33,258.33
             189.33,258.33 203.67,258.33 203.67,258.33" />
  <path id="Unnamed #1"
        fill="none" stroke="black" stroke-width="1"
        d="M 140.00,260.33
           C 140.00,260.33 136.67,265.33 136.67,265.33
             136.67,265.33 136.33,274.33 136.33,274.33
             136.33,274.33 136.33,282.67 136.33,282.67
             136.33,282.67 138.00,288.67 138.00,288.67
             138.00,288.67 141.67,294.33 141.67,294.33
             141.67,294.33 144.67,296.00 144.67,296.00" />
  <path id="Unnamed #7"
        fill="none" stroke="black" stroke-width="1"
        d="M 41.33,441.33
           C 41.33,441.00 79.33,382.67 79.33,382.67" />
  <path id="Unnamed #6"
        fill="none" stroke="black" stroke-width="1"
        d="M 77.33,384.33
           C 77.33,384.33 84.00,388.33 84.00,388.33
             84.00,388.33 90.00,390.00 90.00,390.00
             90.00,390.00 96.33,390.33 96.33,390.33
             96.33,390.33 104.00,388.00 104.00,388.00
             104.00,388.00 113.33,381.33 113.33,381.33
             113.33,381.33 118.00,376.67 118.00,376.67" />
  <path id="Unnamed #5"
        fill="none" stroke="black" stroke-width="1"
        d="M 118.33,376.67
           C 118.33,376.67 119.00,340.67 119.00,340.67" />
  <path id="Unnamed #4"
        fill="none" stroke="black" stroke-width="1"
        d="M 77.00,344.33
           C 77.00,344.33 76.33,382.67 76.33,382.67" />
  <path id="Unnamed"
        fill="none" stroke="black" stroke-width="1"
        d="M 139.00,257.67
           C 139.00,257.67 132.00,242.00 132.00,242.00
             132.00,242.00 121.00,228.67 121.00,228.67
             121.00,228.67 107.67,221.00 107.67,221.00
             107.67,221.00 90.67,219.33 90.67,219.33
             90.67,219.33 76.00,224.67 76.00,224.67
             76.00,224.67 62.00,237.00 62.00,237.00
             62.00,237.00 53.00,248.33 53.00,248.33
             53.00,248.33 49.00,262.00 49.00,262.00
             49.00,262.00 48.33,281.67 48.33,281.67
             48.33,281.67 50.33,299.00 50.33,299.00
             50.33,299.00 57.00,317.33 57.00,317.33
             57.00,317.33 62.00,328.67 62.00,328.67
             62.00,328.67 72.00,339.67 72.00,339.67
             72.00,339.67 85.33,347.33 85.33,347.33
             85.33,347.33 101.67,348.00 101.67,348.00
             101.67,348.00 112.00,344.33 112.00,344.33
             112.00,344.33 121.33,338.67 121.33,338.67
             121.33,338.67 129.00,329.00 129.00,329.00
             129.00,329.00 136.00,318.00 136.00,318.00
             136.00,318.00 141.67,307.67 141.67,307.67
             141.67,307.67 143.67,295.67 143.67,295.67" />
</svg>
