<?xml version="1.0" encoding="UTF-8" standalone="no"?>
<!DOCTYPE svg PUBLIC "-//W3C//DTD SVG 20010904//EN"
              "http://www.w3.org/TR/2001/REC-SVG-20010904/DTD/svg10.dtd">

<svg xmlns="http://www.w3.org/2000/svg"
     width="27in" height="36in"
     viewBox="0 0 1944 2592">
  <g>
    <path id="New Path#2"
          fill="none" stroke="black" stroke-width="1"
          d="M 666.00,2182.00
             C 666.00,2182.00 662.67,2160.00 662.67,2160.00
               662.67,2160.00 661.33,2123.33 661.33,2123.33
               661.33,2123.33 659.33,2094.67 659.33,2094.67
               659.33,2094.67 653.33,2072.00 653.33,2072.00
               653.33,2072.00 647.33,2052.67 647.33,2052.67
               647.33,2052.67 639.33,2033.33 639.33,2033.33
               639.33,2033.33 628.67,2014.00 628.67,2014.00
               628.67,2014.00 621.33,1996.67 621.33,1996.67
               621.33,1996.67 609.33,1976.00 609.33,1976.00
               609.33,1976.00 592.67,1956.67 592.67,1956.67
               592.67,1956.67 574.67,1935.33 574.67,1935.33
               574.67,1935.33 561.33,1918.67 561.33,1918.67
               561.33,1918.67 545.33,1899.33 545.33,1899.33
               545.33,1899.33 526.00,1878.00 526.00,1878.00
               526.00,1878.00 510.67,1854.67 510.67,1854.67
               510.67,1854.67 496.67,1837.33 496.67,1837.33
               496.67,1837.33 485.33,1814.67 485.33,1814.67
               485.33,1814.67 471.33,1786.00 471.33,1786.00
               471.33,1786.00 462.00,1757.33 462.00,1757.33
               462.00,1757.33 454.67,1730.00 454.00,1730.00
               453.33,1730.00 447.33,1702.67 447.33,1702.67
               447.33,1702.67 442.67,1670.00 442.67,1670.00
               442.67,1670.00 441.33,1644.00 441.33,1644.00
               441.33,1644.00 438.00,1616.67 438.00,1616.67
               438.00,1616.67 436.67,1590.67 436.67,1590.67
               436.67,1590.67 436.67,1564.67 436.67,1564.67
               436.67,1564.67 440.00,1537.33 440.00,1537.33
               440.00,1537.33 443.33,1514.00 443.33,1514.00
               443.33,1514.00 448.00,1486.67 448.00,1486.67
               448.00,1486.67 454.00,1458.00 454.00,1458.00
               454.00,1458.00 460.67,1437.33 460.67,1437.33
               460.67,1437.33 468.00,1412.00 468.00,1412.00
               468.00,1412.00 477.33,1384.00 477.33,1384.00
               477.33,1384.00 488.67,1352.67 488.67,1352.67
               488.67,1352.67 500.67,1324.67 500.67,1324.67
               500.67,1324.67 516.67,1294.00 516.67,1294.00
               516.67,1294.00 528.67,1270.67 528.67,1270.67
               528.67,1270.67 540.00,1250.67 540.00,1250.67
               540.00,1250.67 551.33,1228.00 551.33,1228.00
               551.33,1228.00 566.67,1210.00 566.67,1210.00
               566.67,1210.00 584.67,1184.67 584.67,1184.67
               584.67,1184.67 604.00,1158.00 604.00,1158.00
               604.00,1158.00 620.00,1136.00 620.00,1136.00
               620.00,1136.00 638.67,1114.67 638.67,1114.67
               638.67,1114.67 656.67,1094.67 656.67,1094.67
               656.67,1094.67 670.67,1076.67 670.67,1076.67
               670.67,1076.67 688.67,1058.67 688.67,1058.67
               688.67,1058.67 712.00,1035.33 712.00,1035.33
               712.00,1035.33 734.00,1012.67 734.00,1012.67
               734.00,1012.67 756.67,989.33 756.67,989.33
               756.67,989.33 778.67,966.00 778.67,966.00
               778.67,966.00 800.00,936.67 800.00,936.67
               800.00,936.67 822.00,907.33 822.00,907.33
               822.00,907.33 838.67,881.33 838.67,881.33
               838.67,881.33 849.33,860.67 849.33,860.67
               849.33,860.67 859.33,832.67 859.33,832.67
               859.33,832.67 867.33,802.00 867.33,802.00
               867.33,802.00 876.67,771.33 876.67,771.33
               876.67,771.33 880.67,748.00 880.67,748.00
               880.67,748.00 886.00,721.33 886.00,721.33
               886.00,721.33 889.33,696.00 889.33,696.00
               889.33,696.00 891.33,669.33 891.33,669.33
               891.33,669.33 893.33,642.00 893.33,642.00
               893.33,642.00 895.33,612.67 895.33,612.67
               895.33,612.67 896.67,584.67 896.67,584.67
               896.67,584.67 897.33,555.33 897.33,555.33
               897.33,555.33 898.00,523.33 898.00,523.33
               898.00,523.33 893.33,494.67 893.33,494.67
               893.33,494.67 892.67,471.33 892.67,471.33
               892.67,471.33 891.33,444.67 891.33,444.67
               891.33,444.67 887.33,418.67 887.33,418.67
               887.33,418.67 882.00,390.67 882.00,390.67
               882.00,390.67 877.33,360.67 877.33,360.67
               877.33,360.67 872.67,330.67 872.67,330.67
               872.67,330.67 866.67,302.67 866.67,302.67
               866.67,302.67 863.33,276.67 863.33,276.67
               863.33,276.67 862.00,251.33 862.00,251.33
               862.00,251.33 861.33,230.00 861.33,230.00
               861.33,230.00 860.67,208.67 860.67,208.67
               860.67,208.67 859.33,197.33 859.33,197.33" />
    <path id="New Path#1"
          fill="none" stroke="black" stroke-width="1"
          d="M 1284.67,2172.67
             C 1284.67,2172.67 1276.67,2187.33 1276.67,2187.33
               1276.67,2187.33 1256.00,2202.00 1256.00,2202.00
               1256.00,2202.00 1234.67,2216.00 1234.67,2216.00
               1234.67,2216.00 1208.67,2228.67 1208.67,2228.67
               1208.67,2228.67 1176.67,2240.00 1176.67,2240.00
               1176.67,2240.00 1148.00,2244.67 1148.00,2244.67
               1148.00,2244.67 1119.33,2253.33 1119.33,2253.33
               1119.33,2253.33 1092.00,2259.33 1092.00,2259.33
               1092.00,2259.33 1060.00,2264.67 1060.00,2264.67
               1060.00,2264.67 1029.33,2267.33 1029.33,2267.33
               1029.33,2267.33 998.00,2270.00 998.00,2270.00
               998.00,2270.00 972.67,2269.33 972.67,2269.33
               972.67,2269.33 942.00,2272.00 942.00,2272.00
               942.00,2272.00 906.00,2270.00 906.00,2270.00
               906.00,2270.00 876.67,2266.67 876.67,2266.67
               876.67,2266.67 844.00,2263.33 844.00,2263.33
               844.00,2263.33 814.67,2258.00 814.67,2258.00
               814.67,2258.00 791.33,2250.67 791.33,2250.67
               791.33,2250.67 764.67,2242.67 764.67,2242.67
               764.67,2242.67 746.00,2234.00 746.00,2234.00
               746.00,2234.00 730.67,2224.00 730.67,2224.00
               730.67,2224.00 714.00,2214.00 714.00,2214.00
               714.00,2214.00 698.00,2203.33 698.00,2203.33
               698.00,2203.33 688.00,2192.67 688.00,2192.67
               688.00,2192.67 677.33,2184.00 677.33,2184.00
               677.33,2184.00 674.00,2174.00 674.00,2174.00" />
    <path id="New Path"
          fill="none" stroke="black" stroke-width="1"
          d="M 1088.67,172.67
             C 1088.67,172.67 1092.00,185.33 1092.00,186.00
               1092.00,186.67 1100.67,262.67 1100.67,262.67
               1100.67,262.67 1108.00,300.67 1108.00,300.67
               1108.00,300.67 1110.00,348.67 1110.00,348.67
               1110.00,348.67 1108.00,385.33 1108.00,385.33
               1108.00,385.33 1109.33,424.00 1109.33,424.00
               1109.33,424.00 1109.33,468.67 1109.33,468.67
               1109.33,468.67 1115.33,530.67 1115.33,530.67
               1115.33,530.67 1120.00,567.33 1120.00,567.33
               1120.00,567.33 1125.33,605.33 1125.33,605.33
               1125.33,605.33 1134.67,644.00 1134.67,644.00
               1134.67,644.00 1143.33,681.33 1143.33,681.33
               1143.33,681.33 1152.67,720.67 1152.67,720.67
               1152.67,720.67 1166.00,752.67 1166.00,752.67
               1166.00,752.67 1185.33,786.67 1185.33,786.67
               1185.33,786.67 1212.00,824.67 1212.00,824.67
               1212.00,824.67 1240.00,854.00 1240.00,854.00
               1240.00,854.00 1270.67,875.33 1270.67,875.33
               1270.67,875.33 1305.33,896.67 1305.33,896.67
               1305.33,896.67 1338.00,916.00 1338.00,916.00
               1338.00,916.00 1364.67,932.67 1364.67,932.67
               1364.67,932.67 1394.00,951.33 1394.00,951.33
               1394.00,951.33 1418.00,968.67 1418.00,968.67
               1418.00,968.67 1438.00,989.33 1438.00,989.33
               1438.00,989.33 1464.00,1020.67 1464.00,1020.67
               1464.00,1020.67 1489.33,1049.33 1489.33,1049.33
               1489.33,1049.33 1508.00,1075.33 1508.00,1075.33
               1508.00,1075.33 1525.33,1100.67 1525.33,1100.67
               1525.33,1100.67 1541.33,1128.67 1541.33,1128.67
               1541.33,1128.67 1556.67,1160.67 1556.67,1160.67
               1556.67,1160.67 1567.33,1197.33 1567.33,1197.33
               1567.33,1197.33 1577.33,1234.00 1577.33,1234.00
               1577.33,1234.00 1584.00,1269.33 1584.00,1269.33
               1584.00,1269.33 1592.00,1311.33 1592.00,1311.33
               1592.00,1311.33 1595.33,1360.00 1595.33,1360.00
               1595.33,1360.00 1599.33,1401.33 1599.33,1401.33
               1599.33,1401.33 1596.67,1440.00 1596.67,1440.00
               1596.67,1440.00 1592.00,1478.67 1592.00,1478.67
               1592.00,1478.67 1580.67,1522.67 1580.67,1522.67
               1580.67,1522.67 1568.67,1556.00 1568.67,1556.00
               1568.67,1556.00 1558.67,1585.33 1558.67,1585.33
               1558.67,1585.33 1542.00,1622.00 1542.00,1622.00
               1542.00,1622.00 1524.67,1656.67 1524.67,1656.67
               1524.67,1656.67 1507.33,1688.00 1507.33,1688.00
               1507.33,1688.00 1489.33,1720.67 1489.33,1720.67
               1489.33,1720.67 1470.67,1751.33 1470.67,1751.33
               1470.67,1751.33 1451.33,1784.00 1451.33,1784.00
               1451.33,1784.00 1430.00,1812.67 1430.00,1812.67
               1430.00,1812.67 1412.67,1840.00 1412.67,1840.00
               1412.67,1840.00 1394.00,1865.33 1394.00,1865.33
               1394.00,1865.33 1376.67,1885.33 1376.67,1885.33
               1376.67,1885.33 1358.00,1908.67 1358.00,1908.67
               1358.00,1908.67 1343.33,1925.33 1343.33,1925.33
               1343.33,1925.33 1332.00,1942.00 1332.00,1942.00
               1332.00,1942.00 1320.00,1961.33 1320.00,1961.33
               1320.00,1961.33 1310.00,1979.33 1310.00,1979.33
               1310.00,1979.33 1299.33,2001.33 1299.33,2001.33
               1299.33,2001.33 1293.33,2019.33 1293.33,2019.33
               1293.33,2019.33 1288.00,2038.67 1288.00,2038.67
               1288.00,2038.67 1284.00,2064.00 1284.00,2064.00
               1284.00,2064.00 1282.00,2080.00 1282.00,2080.00
               1282.00,2080.00 1280.00,2098.00 1280.00,2098.00
               1280.00,2098.00 1278.67,2118.00 1278.67,2118.00
               1278.67,2118.00 1276.67,2132.67 1276.67,2132.67
               1276.67,2132.67 1277.33,2149.33 1277.33,2149.33
               1277.33,2149.33 1279.33,2163.33 1279.33,2163.33
               1279.33,2163.33 1279.33,2176.00 1279.33,2176.00" />
    <path id="Unnamed"
          fill="none" stroke="black" stroke-width="1"
          d="M 864.00,200.00
             C 864.00,200.00 872.00,206.67 872.00,207.33
               872.00,208.00 882.00,210.67 882.00,210.67
               882.00,210.67 896.67,213.33 896.67,213.33
               896.67,213.33 912.00,213.33 912.00,213.33
               912.00,213.33 931.33,214.00 931.33,214.00
               931.33,214.00 950.67,214.00 950.67,214.00
               950.67,214.00 968.67,210.67 968.67,210.67
               968.67,210.67 986.00,209.33 986.00,209.33
               986.00,209.33 1006.67,204.67 1006.67,204.67
               1006.67,204.67 1023.33,199.33 1023.33,199.33
               1023.33,199.33 1041.33,194.67 1041.33,194.67
               1041.33,194.67 1056.67,188.00 1056.67,188.00
               1056.67,188.00 1070.67,180.67 1070.67,180.67
               1070.67,180.67 1082.00,173.33 1082.00,173.33
               1082.00,173.33 1088.00,164.00 1088.00,164.00
               1088.00,164.00 1088.00,154.67 1088.00,154.67
               1088.00,154.67 1079.33,147.33 1079.33,147.33
               1079.33,147.33 1063.33,144.67 1063.33,144.67
               1063.33,144.67 1046.00,143.33 1046.00,143.33
               1046.00,143.33 1032.67,142.00 1032.67,142.00
               1032.67,142.00 1012.67,142.00 1012.00,142.00
               1011.33,142.00 996.67,144.00 996.00,144.00
               995.33,144.00 978.67,146.00 978.67,146.67
               978.67,147.33 964.67,150.67 964.67,150.67
               964.67,150.67 948.67,152.00 948.67,152.67
               948.67,153.33 931.33,155.33 930.67,156.00
               930.00,156.67 918.67,160.00 918.67,160.00
               918.67,160.00 906.00,163.33 906.00,163.33
               906.00,163.33 894.00,168.67 894.00,168.67
               894.00,168.67 883.33,172.00 883.33,172.00
               883.33,172.00 871.33,177.33 871.33,177.33
               871.33,177.33 865.33,185.33 865.33,185.33
               865.33,185.33 862.00,192.67 862.00,193.33" />
  </g>
</svg>
