<?xml version="1.0" encoding="UTF-8" standalone="no"?>
<!-- Created with Inkscape (http://www.inkscape.org/) -->

<svg
   xmlns:dc="http://purl.org/dc/elements/1.1/"
   xmlns:cc="http://creativecommons.org/ns#"
   xmlns:rdf="http://www.w3.org/1999/02/22-rdf-syntax-ns#"
   xmlns:svg="http://www.w3.org/2000/svg"
   xmlns="http://www.w3.org/2000/svg"
   version="1.1"
   width="744.09448"
   height="1052.3622"
   id="svg2">
  <defs
     id="defs4" />
  <metadata
     id="metadata7">
    <rdf:RDF>
      <cc:Work
         rdf:about="">
        <dc:format>image/svg+xml</dc:format>
        <dc:type
           rdf:resource="http://purl.org/dc/dcmitype/StillImage" />
        <dc:title></dc:title>
      </cc:Work>
    </rdf:RDF>
  </metadata>
  <g
     id="layer1">
    <path
       d="m 384.2857,353.07648 a 52.857143,19.285715 0 1 1 -105.71429,0 52.857143,19.285715 0 1 1 105.71429,0 z"
       id="path2985"
       style="fill:none;stroke:#000000;stroke-width:1;stroke-linecap:round;stroke-linejoin:miter;stroke-miterlimit:4;stroke-opacity:1;stroke-dasharray:none;stroke-dashoffset:0" />
    <path
       d="m 384.2857,353.07648 a 52.857143,19.285715 0 1 1 -105.71429,0 52.857143,19.285715 0 1 1 105.71429,0 z"
       transform="matrix(2.2048193,0,0,2.2048193,-399.3115,-331.82192)"
       id="path2985-6"
       style="fill:none;stroke:#000000;stroke-width:1;stroke-linecap:round;stroke-linejoin:miter;stroke-miterlimit:4;stroke-opacity:1;stroke-dasharray:none;stroke-dashoffset:0" />
    <path
       d="m 384.2857,353.07648 a 52.857143,19.285715 0 1 1 -105.71429,0 52.857143,19.285715 0 1 1 105.71429,0 z"
       transform="matrix(0.13357405,0,0,0.13357405,286.87261,304.91462)"
       id="path2985-2"
       style="fill:none;stroke:#000000;stroke-width:1;stroke-linecap:round;stroke-linejoin:miter;stroke-miterlimit:4;stroke-opacity:1;stroke-dasharray:none;stroke-dashoffset:0" />
    <path
       d="m 384.2857,353.07648 a 52.857143,19.285715 0 1 1 -105.71429,0 52.857143,19.285715 0 1 1 105.71429,0 z"
       transform="matrix(0.65687059,0,0,0.65687059,113.43719,354.8652)"
       id="path2985-2-1-0"
       style="fill:none;stroke:#000000;stroke-width:1;stroke-linecap:round;stroke-linejoin:miter;stroke-miterlimit:4;stroke-opacity:1;stroke-dasharray:none;stroke-dashoffset:0" />
    <path
       d="m 384.2857,353.07648 a 52.857143,19.285715 0 1 1 -105.71429,0 52.857143,19.285715 0 1 1 105.71429,0 z"
       transform="matrix(0.93799509,0,0,0.93799509,20.550204,287.60675)"
       id="path2985-2-1-0-2"
       style="fill:none;stroke:#000000;stroke-width:1;stroke-linecap:round;stroke-linejoin:miter;stroke-miterlimit:4;stroke-opacity:1;stroke-dasharray:none;stroke-dashoffset:0" />
    <path
       d="m 384.2857,353.07648 a 52.857143,19.285715 0 1 1 -105.71429,0 52.857143,19.285715 0 1 1 105.71429,0 z"
       transform="matrix(0.13357405,0,0,0.13357405,286.72975,538.98604)"
       id="path2985-2-9"
       style="fill:none;stroke:#000000;stroke-width:1;stroke-linecap:round;stroke-linejoin:miter;stroke-miterlimit:4;stroke-opacity:1;stroke-dasharray:none;stroke-dashoffset:0" />
    <path
       d="m 324.28571,352.00504 0,233.57143"
       id="path3107"
       style="fill:none;stroke:#000000;stroke-width:1px;stroke-linecap:butt;stroke-linejoin:miter;stroke-opacity:1" />
    <path
       d="m 338.25893,352.04968 0,234.1271"
       id="path3109"
       style="fill:none;stroke:#000000;stroke-width:1px;stroke-linecap:butt;stroke-linejoin:miter;stroke-opacity:1" />
    <path
       d="m 384.64286,353.07647 63.75,93.57143"
       id="path3111"
       style="fill:none;stroke:#000000;stroke-width:1px;stroke-linecap:butt;stroke-linejoin:miter;stroke-opacity:1" />
    <path
       d="m 278.39286,352.54075 -63.57143,93.39286"
       id="path3113"
       style="fill:none;stroke:#000000;stroke-width:1px;stroke-linecap:butt;stroke-linejoin:miter;stroke-opacity:1" />
    <path
       d="m 296.07143,586.6479 -14.28572,31.96428"
       id="path3115"
       style="fill:none;stroke:#000000;stroke-width:1px;stroke-linecap:butt;stroke-linejoin:miter;stroke-opacity:1" />
    <path
       d="M 366.07143,586.46932 381.25,618.79075"
       id="path3117"
       style="fill:none;stroke:#000000;stroke-width:1px;stroke-linecap:butt;stroke-linejoin:miter;stroke-opacity:1" />
  </g>
</svg>
