<?xml version="1.0" encoding="UTF-8" standalone="no"?>
<!-- Created with Inkscape (http://www.inkscape.org/) -->

<svg
   xmlns:dc="http://purl.org/dc/elements/1.1/"
   xmlns:cc="http://creativecommons.org/ns#"
   xmlns:rdf="http://www.w3.org/1999/02/22-rdf-syntax-ns#"
   xmlns:svg="http://www.w3.org/2000/svg"
   xmlns="http://www.w3.org/2000/svg"
   version="1.1"
   width="744.09448"
   height="1052.3622"
   id="svg2">
  <defs
     id="defs4" />
  <metadata
     id="metadata7">
    <rdf:RDF>
      <cc:Work
         rdf:about="">
        <dc:format>image/svg+xml</dc:format>
        <dc:type
           rdf:resource="http://purl.org/dc/dcmitype/StillImage" />
        <dc:title></dc:title>
      </cc:Work>
    </rdf:RDF>
  </metadata>
  <g
     id="layer1">
    <path
       d="m 384.2857,353.07648 a 52.857143,19.285715 0 1 1 -105.71429,0 52.857143,19.285715 0 1 1 105.71429,0 z"
       id="path2985"
       style="fill:none;stroke:#000000;stroke-width:1;stroke-linecap:round;stroke-linejoin:miter;stroke-miterlimit:4;stroke-opacity:1;stroke-dasharray:none;stroke-dashoffset:0" />
    <path
       d="m 384.2857,353.07648 c 0,10.6512 -23.66495,19.28571 -52.85714,19.28571 -29.1922,0 -52.85715,-8.63451 -52.85715,-19.28571"
       transform="matrix(2.2048193,0,0,2.2048193,-399.3115,-331.82192)"
       id="path2985-6"
       style="fill:none;stroke:#000000;stroke-width:1;stroke-linecap:round;stroke-linejoin:miter;stroke-miterlimit:4;stroke-opacity:1;stroke-dashoffset:0" />
    <path
       d="m 324.34375,574.375 c -0.0616,0.004 -0.12604,-0.005 -0.1875,0 -15.82146,1.18126 -27.71875,6.28434 -27.71875,12.40625 0,6.99646 15.54326,12.6875 34.71875,12.6875 19.17549,0 34.71875,-5.69104 34.71875,-12.6875 0,-6.12587 -11.94447,-11.22931 -27.78125,-12.40625"
       id="path2985-2-1-0"
       style="fill:none;stroke:#000000;stroke-width:0.6568706;stroke-linecap:round;stroke-linejoin:miter;stroke-miterlimit:4;stroke-opacity:1;stroke-dasharray:none;stroke-dashoffset:0" />
    <path
       d="m 324.28571,490.35387 0,95.2226"
       id="path3107"
       style="fill:none;stroke:#000000;stroke-width:0.6384989px;stroke-linecap:butt;stroke-linejoin:miter;stroke-opacity:1" />
    <path
       d="m 338.25893,490.40206 0,95.77472"
       id="path3109"
       style="fill:none;stroke:#000000;stroke-width:0.63958699px;stroke-linecap:butt;stroke-linejoin:miter;stroke-opacity:1" />
    <path
       d="m 384.64286,353.07647 63.75,93.57143"
       id="path3111"
       style="fill:none;stroke:#000000;stroke-width:1px;stroke-linecap:butt;stroke-linejoin:miter;stroke-opacity:1" />
    <path
       d="m 278.39286,352.54075 -63.57143,93.39286"
       id="path3113"
       style="fill:none;stroke:#000000;stroke-width:1px;stroke-linecap:butt;stroke-linejoin:miter;stroke-opacity:1" />
    <path
       d="m 296.07143,586.6479 -14.28572,31.96428"
       id="path3115"
       style="fill:none;stroke:#000000;stroke-width:1px;stroke-linecap:butt;stroke-linejoin:miter;stroke-opacity:1" />
    <path
       d="M 366.07143,586.46932 381.25,618.79075"
       id="path3117"
       style="fill:none;stroke:#000000;stroke-width:1px;stroke-linecap:butt;stroke-linejoin:miter;stroke-opacity:1" />
    <path
       d="m 358.0357,576.64789 a 36.607143,15.892858 0 1 1 -73.21429,0"
       transform="matrix(1.3516264,0,0,1.0983739,-103.11832,-14.004832)"
       id="path4914"
       style="fill:none;stroke:#000000;stroke-width:1;stroke-linecap:round;stroke-linejoin:miter;stroke-miterlimit:4;stroke-opacity:1;stroke-dasharray:none;stroke-dashoffset:0" />
    <path
       d="m 310.26787,576.51398 a 4.8660712,2.5446429 0 1 1 -9.73215,0"
       transform="matrix(1.4308426,0,0,1,-105.71534,9.3750001)"
       id="path4916"
       style="fill:none;stroke:#000000;stroke-width:1;stroke-linecap:round;stroke-linejoin:miter;stroke-miterlimit:4;stroke-opacity:1;stroke-dasharray:none;stroke-dashoffset:0" />
  </g>
</svg>
