<?xml version="1.0" encoding="UTF-8" standalone="no"?>
<!DOCTYPE svg PUBLIC "-//W3C//DTD SVG 20010904//EN"
              "http://www.w3.org/TR/2001/REC-SVG-20010904/DTD/svg10.dtd">

<svg xmlns="http://www.w3.org/2000/svg"
     width="45.3333in" height="34in"
     viewBox="0 0 3264 2448">
  <path id="Unnamed #32"
        fill="none" stroke="black" stroke-width="1"
        d="M 2071.00,1399.00
           C 2071.00,1399.00 2073.00,1356.00 2073.00,1356.00
             2073.00,1356.00 2073.00,1308.00 2073.00,1308.00
             2073.00,1308.00 2066.00,1272.00 2066.00,1272.00" />
  <path id="Unnamed #31"
        fill="none" stroke="black" stroke-width="1"
        d="M 2438.00,1090.00
           C 2438.00,1090.00 2437.00,1112.00 2437.00,1113.00
             2437.00,1114.00 2424.00,1172.00 2424.00,1172.00
             2424.00,1172.00 2421.00,1213.00 2421.00,1213.00
             2421.00,1213.00 2423.00,1261.00 2423.00,1261.00" />
  <path id="Unnamed #30"
        fill="none" stroke="black" stroke-width="1"
        d="M 2066.00,1267.00
           C 2066.00,1267.00 2059.00,1243.00 2059.00,1243.00
             2059.00,1243.00 2070.00,1199.00 2070.00,1199.00
             2070.00,1199.00 2094.00,1159.00 2094.00,1159.00
             2094.00,1159.00 2138.00,1116.00 2138.00,1116.00
             2138.00,1116.00 2185.00,1082.00 2185.00,1083.00
             2185.00,1084.00 2250.00,1049.00 2250.00,1049.00
             2250.00,1049.00 2291.00,1032.00 2291.00,1032.00
             2291.00,1032.00 2328.00,1024.00 2328.00,1025.00
             2328.00,1026.00 2360.00,1022.00 2360.00,1022.00
             2360.00,1022.00 2389.00,1027.00 2389.00,1027.00
             2389.00,1027.00 2412.00,1040.00 2412.00,1041.00
             2412.00,1042.00 2425.00,1064.00 2425.00,1064.00
             2425.00,1064.00 2427.00,1093.00 2426.00,1094.00
             2425.00,1095.00 2410.00,1134.00 2410.00,1134.00
             2410.00,1134.00 2382.00,1173.00 2382.00,1173.00
             2382.00,1173.00 2346.00,1213.00 2346.00,1213.00
             2346.00,1213.00 2301.00,1250.00 2301.00,1250.00
             2301.00,1250.00 2252.00,1275.00 2252.00,1275.00
             2252.00,1275.00 2202.00,1297.00 2202.00,1297.00
             2202.00,1297.00 2160.00,1306.00 2160.00,1306.00
             2160.00,1306.00 2130.00,1308.00 2130.00,1308.00
             2130.00,1308.00 2107.00,1302.00 2107.00,1302.00
             2107.00,1302.00 2089.00,1292.00 2089.00,1292.00
             2089.00,1292.00 2070.00,1276.00 2070.00,1276.00" />
  <path id="Unnamed #29"
        fill="none" stroke="black" stroke-width="1"
        d="M 2416.00,1261.00
           C 2416.00,1261.00 2395.00,1287.00 2395.00,1287.00
             2395.00,1287.00 2355.00,1320.00 2355.00,1320.00
             2355.00,1320.00 2311.00,1345.00 2311.00,1345.00
             2311.00,1345.00 2266.00,1366.00 2266.00,1366.00
             2266.00,1366.00 2218.00,1391.00 2218.00,1391.00
             2218.00,1391.00 2170.00,1405.00 2170.00,1405.00
             2170.00,1405.00 2135.00,1411.00 2135.00,1411.00
             2135.00,1411.00 2108.00,1409.00 2108.00,1409.00
             2108.00,1409.00 2087.00,1403.00 2087.00,1403.00
             2087.00,1403.00 2071.00,1388.00 2071.00,1388.00" />
  <path id="Unnamed #28"
        fill="none" stroke="black" stroke-width="1"
        d="M 1708.00,883.33
           C 1708.00,883.33 1745.33,839.33 1745.33,839.33
             1745.33,839.33 1798.67,784.00 1798.67,784.00
             1798.67,784.00 1857.33,746.00 1857.33,746.00
             1857.33,746.00 1907.33,721.33 1907.33,721.33
             1907.33,721.33 1949.33,705.33 1949.33,705.33
             1949.33,705.33 1994.67,697.33 1994.67,697.33
             1994.67,697.33 2026.00,701.33 2026.00,701.33
             2026.00,701.33 2044.00,716.67 2044.00,716.67
             2044.00,716.67 2050.00,742.67 2050.00,742.67
             2050.00,742.67 2042.67,778.67 2042.67,778.67
             2042.67,778.67 2026.67,805.33 2026.67,805.33
             2026.67,805.33 2010.00,836.67 2010.00,836.67
             2010.00,836.67 1986.67,866.67 1986.67,866.67
             1986.67,866.67 1962.67,896.00 1962.67,896.00
             1962.67,896.00 1934.00,924.00 1934.00,924.00
             1934.00,924.00 1904.67,950.00 1904.67,950.00
             1904.67,950.00 1872.00,976.67 1872.00,976.67
             1872.00,976.67 1839.33,994.00 1839.33,994.00
             1839.33,994.00 1810.00,1006.00 1810.00,1006.00
             1810.00,1006.00 1787.33,1008.00 1787.33,1008.00
             1787.33,1008.00 1766.00,1002.00 1766.00,1002.00
             1766.00,1002.00 1738.67,994.00 1738.67,994.00
             1738.67,994.00 1718.67,980.00 1718.67,980.00
             1718.67,980.00 1706.67,963.33 1706.67,963.33
             1706.67,963.33 1703.33,935.33 1703.33,935.33
             1703.33,935.33 1708.67,910.00 1708.67,910.00
             1708.67,910.00 1718.67,882.00 1718.67,882.00
             1718.67,882.00 1736.50,853.50 1736.50,853.50" />
  <path id="Unnamed #27"
        fill="none" stroke="black" stroke-width="1"
        d="M 1706.67,979.33
           C 1706.67,979.33 1720.00,1012.00 1720.00,1012.00
             1720.00,1012.00 1724.00,1030.67 1724.00,1030.67
             1724.00,1030.67 1722.67,1064.67 1722.67,1064.67
             1722.67,1064.67 1724.00,1097.33 1724.00,1097.33" />
  <path id="Unnamed #26"
        fill="none" stroke="black" stroke-width="1"
        d="M 2058.67,740.00
           C 2058.67,740.00 2063.33,764.67 2063.33,764.67
             2063.33,764.67 2066.00,802.67 2066.00,802.67
             2066.00,802.67 2068.67,834.00 2068.67,834.00
             2068.67,834.00 2068.00,860.67 2068.00,860.67
             2068.00,860.67 2070.00,882.00 2070.00,882.00" />
  <path id="Unnamed #25"
        fill="none" stroke="black" stroke-width="1"
        d="M 2067.33,876.67
           C 2067.33,877.33 2056.67,908.67 2056.67,908.67
             2056.67,908.67 2028.67,954.00 2028.67,954.00
             2028.67,954.00 1989.33,1000.67 1989.33,1000.67
             1989.33,1000.67 1960.67,1038.00 1960.67,1038.00
             1960.67,1038.00 1932.00,1062.67 1932.00,1062.67
             1932.00,1062.67 1900.00,1081.33 1900.00,1081.33
             1900.00,1081.33 1863.33,1098.67 1863.33,1098.67
             1863.33,1098.67 1817.33,1116.00 1817.33,1116.00
             1817.33,1116.00 1797.33,1118.00 1797.33,1118.00
             1797.33,1118.00 1776.67,1120.00 1776.67,1120.00
             1776.67,1120.00 1756.67,1115.33 1756.67,1115.33
             1756.67,1115.33 1740.67,1108.00 1740.67,1108.00
             1740.67,1108.00 1728.67,1102.67 1728.67,1102.67" />
  <path id="Unnamed #24"
        fill="none" stroke="black" stroke-width="1"
        d="M 1252.00,642.67
           C 1252.00,642.67 1275.33,614.67 1275.33,614.67
             1275.33,614.67 1304.00,582.67 1304.00,582.67
             1304.00,582.67 1333.33,557.33 1333.33,557.33
             1333.33,557.33 1373.33,528.67 1373.33,528.67
             1373.33,528.67 1410.00,508.67 1410.00,508.67
             1410.00,508.67 1440.67,492.00 1440.67,492.00
             1440.67,492.00 1476.00,479.33 1476.00,479.33
             1476.00,479.33 1508.00,471.33 1508.00,471.33
             1508.00,471.33 1530.67,470.00 1530.67,470.00
             1530.67,470.00 1557.33,476.00 1557.33,476.00
             1557.33,476.00 1578.00,489.33 1578.00,489.33
             1578.00,489.33 1588.67,507.33 1588.67,508.00
             1588.67,508.67 1590.00,536.67 1590.00,536.67
             1590.00,536.67 1576.67,580.67 1576.67,580.67
             1576.67,580.67 1559.33,614.00 1559.33,614.00
             1559.33,614.00 1535.33,648.00 1535.33,648.00
             1535.33,648.00 1507.33,678.67 1507.33,678.67
             1507.33,678.67 1484.67,702.67 1484.67,702.67
             1484.67,702.67 1452.00,726.00 1452.00,726.00
             1452.00,726.00 1415.33,750.00 1415.33,750.00
             1415.33,750.00 1377.33,767.33 1377.33,767.33
             1377.33,767.33 1345.33,775.33 1345.33,775.33
             1345.33,775.33 1323.33,776.67 1323.33,776.67
             1323.33,776.67 1305.33,774.67 1305.33,774.67
             1305.33,774.67 1288.00,764.67 1288.00,764.67
             1288.00,764.67 1272.00,753.33 1272.00,753.33
             1272.00,753.33 1262.00,738.67 1262.00,738.67
             1262.00,738.67 1255.33,717.33 1255.33,717.33
             1255.33,717.33 1254.00,693.33 1254.00,693.33
             1254.00,693.33 1262.67,673.33 1262.67,673.33
             1262.67,673.33 1270.00,650.67 1270.00,650.67
             1270.00,650.67 1281.33,631.33 1281.33,631.33
             1281.33,631.33 1290.67,614.67 1290.67,614.67
             1290.67,614.67 1304.00,599.33 1304.00,599.33
             1304.00,599.33 1316.00,584.67 1316.00,584.67
             1316.00,584.67 1328.67,568.67 1328.67,568.67" />
  <path id="Unnamed #23"
        fill="none" stroke="black" stroke-width="1"
        d="M 1613.33,692.00
           C 1613.33,692.00 1596.67,736.67 1596.67,736.67
             1596.67,736.67 1572.00,782.67 1572.00,782.67
             1572.00,782.67 1544.67,814.67 1544.67,814.67
             1544.67,814.67 1509.33,847.33 1509.33,847.33
             1509.33,847.33 1465.33,872.67 1465.33,872.67
             1465.33,872.67 1412.67,894.00 1412.67,894.00
             1412.67,894.00 1360.67,904.67 1360.67,904.67
             1360.67,904.67 1328.67,906.67 1328.67,906.67
             1328.67,906.67 1311.33,905.33 1311.33,905.33
             1311.33,905.33 1295.33,900.00 1295.33,900.00
             1295.33,900.00 1279.33,888.00 1279.33,888.00
             1279.33,888.00 1268.67,878.67 1268.67,878.67" />
  <path id="Unnamed #22"
        fill="none" stroke="black" stroke-width="1"
        d="M 1601.33,514.67
           C 1601.33,514.67 1606.67,541.33 1606.67,541.33
             1606.67,541.33 1610.00,581.33 1610.00,581.33
             1610.00,581.33 1613.33,626.00 1613.33,626.00
             1613.33,626.00 1618.67,649.33 1618.67,649.33
             1618.67,649.33 1616.00,674.67 1616.00,674.67" />
  <path id="Unnamed #21"
        fill="none" stroke="black" stroke-width="1"
        d="M 1250.67,745.33
           C 1250.67,745.33 1260.67,804.00 1260.67,804.00
             1260.67,804.00 1265.33,847.33 1265.33,847.33
             1265.33,847.33 1269.33,879.33 1269.33,879.33" />
  <path id="Unnamed #20"
        fill="none" stroke="black" stroke-width="1"
        d="M 714.00,1224.67
           C 714.00,1224.67 724.67,1259.33 724.67,1259.33
             724.67,1259.33 730.67,1286.67 730.67,1286.67
             730.67,1286.67 732.00,1314.67 732.00,1314.67" />
  <path id="Unnamed #19"
        fill="none" stroke="black" stroke-width="1"
        d="M 1109.33,850.67
           C 1109.33,850.67 1112.00,888.00 1112.00,888.00
             1112.00,888.00 1113.33,931.33 1113.33,931.33
             1113.33,931.33 1122.67,968.67 1122.67,968.67
             1122.67,968.67 1124.00,989.33 1124.00,989.33" />
  <path id="Unnamed #18"
        fill="none" stroke="black" stroke-width="1"
        d="M 1134.00,993.33
           C 1134.00,993.33 1124.00,1028.00 1124.00,1028.00
             1124.00,1028.00 1124.67,1076.00 1124.67,1076.00
             1124.67,1076.00 1120.67,1090.67 1120.67,1090.67
             1120.67,1090.67 1105.33,1128.67 1105.33,1128.67
             1105.33,1128.67 1068.67,1182.67 1068.67,1182.67
             1068.67,1182.67 1022.67,1228.00 1022.67,1228.00
             1022.67,1228.00 979.33,1262.00 979.33,1262.00
             979.33,1262.00 928.00,1291.33 928.00,1291.33
             928.00,1291.33 873.33,1311.33 873.33,1311.33
             873.33,1311.33 821.33,1322.00 821.33,1322.00
             821.33,1322.00 780.67,1324.00 780.67,1324.00
             780.67,1324.00 762.00,1318.67 762.00,1318.67
             762.00,1318.67 741.33,1305.33 741.33,1305.33
             741.33,1305.33 734.67,1300.00 734.67,1300.00" />
  <path id="Unnamed #17"
        fill="none" stroke="black" stroke-width="1"
        d="M 738.67,1068.67
           C 738.67,1068.67 772.00,1019.33 772.00,1019.33
             772.00,1019.33 840.67,944.67 840.67,944.67
             840.67,944.67 885.33,900.67 885.33,900.67
             885.33,900.67 927.33,866.67 927.33,866.67
             927.33,866.67 955.33,848.00 955.33,848.00
             955.33,848.00 987.33,830.67 987.33,830.67
             987.33,830.67 1013.33,819.33 1013.33,819.33
             1013.33,819.33 1041.33,815.33 1041.33,815.33
             1041.33,815.33 1067.33,817.33 1067.33,817.33
             1067.33,817.33 1085.33,827.33 1085.33,827.33
             1085.33,827.33 1098.67,845.33 1098.67,845.33
             1098.67,845.33 1102.00,872.00 1102.00,872.00
             1102.00,872.00 1096.00,912.67 1096.00,912.67
             1096.00,912.67 1075.33,969.33 1075.33,969.33
             1075.33,969.33 1051.33,1011.33 1051.33,1011.33
             1051.33,1011.33 1018.00,1066.00 1018.00,1066.00
             1018.00,1066.00 984.67,1110.67 984.67,1110.67
             984.67,1110.67 953.33,1143.33 953.33,1143.33
             953.33,1143.33 927.33,1168.67 927.33,1168.67
             927.33,1168.67 898.67,1192.00 898.67,1192.00
             898.67,1192.00 866.67,1214.67 866.67,1214.67
             866.67,1214.67 826.67,1232.00 826.67,1232.00
             826.67,1232.00 795.33,1242.67 795.33,1242.67
             795.33,1242.67 771.33,1243.33 771.33,1243.33
             771.33,1243.33 744.67,1239.33 744.67,1239.33
             744.67,1239.33 724.00,1229.33 724.00,1229.33
             724.00,1229.33 711.33,1212.00 711.33,1212.00
             711.33,1212.00 704.67,1182.67 704.67,1182.67
             704.67,1182.67 710.00,1149.33 710.00,1149.33
             710.00,1149.33 720.00,1113.33 720.00,1113.33
             720.00,1113.33 730.67,1091.33 730.67,1091.33
             730.67,1091.33 742.00,1071.33 742.00,1071.33
             742.00,1071.33 758.55,1045.64 758.55,1045.64" />
  <path id="Unnamed #16"
        fill="none" stroke="black" stroke-width="1"
        d="M 1188.67,1424.67
           C 1188.67,1424.67 1191.33,1446.67 1191.33,1446.67
             1191.33,1446.67 1190.00,1476.00 1190.00,1476.00
             1190.00,1476.00 1192.67,1497.33 1192.67,1497.33
             1192.67,1497.33 1195.33,1518.00 1195.33,1518.00" />
  <path id="Unnamed #15"
        fill="none" stroke="black" stroke-width="1"
        d="M 1519.33,1168.67
           C 1519.33,1168.67 1521.33,1203.33 1521.33,1203.33
             1521.33,1203.33 1520.00,1236.00 1520.00,1236.00
             1520.00,1236.00 1522.67,1273.33 1522.67,1273.33
             1522.67,1273.33 1532.67,1315.33 1532.67,1315.33" />
  <path id="Unnamed #14"
        fill="none" stroke="black" stroke-width="1"
        d="M 1543.33,1288.67
           C 1542.67,1290.67 1538.00,1318.67 1538.00,1318.67
             1538.00,1318.67 1524.67,1356.67 1524.67,1356.67
             1524.67,1356.67 1490.67,1404.00 1490.67,1404.00
             1490.67,1404.00 1449.33,1441.33 1449.33,1441.33
             1449.33,1441.33 1402.00,1474.67 1402.00,1474.67
             1402.00,1474.67 1350.00,1502.67 1350.00,1502.67
             1350.00,1502.67 1306.00,1523.33 1306.00,1523.33
             1306.00,1523.33 1265.33,1536.00 1265.33,1536.00
             1265.33,1536.00 1230.00,1538.00 1230.00,1538.00
             1230.00,1538.00 1213.33,1537.33 1213.33,1537.33
             1213.33,1537.33 1196.00,1526.00 1196.00,1526.00
             1196.00,1526.00 1194.00,1518.67 1194.00,1518.67" />
  <path id="Unnamed #13"
        fill="none" stroke="black" stroke-width="1"
        d="M 1158.67,1319.33
           C 1158.67,1319.33 1197.33,1274.00 1197.33,1274.00
             1197.33,1274.00 1258.67,1214.67 1258.67,1214.67
             1258.67,1214.67 1318.67,1169.33 1318.67,1169.33
             1318.67,1169.33 1348.00,1150.00 1348.00,1150.00
             1348.00,1150.00 1386.67,1131.33 1386.67,1131.33
             1386.67,1131.33 1428.00,1120.67 1428.00,1120.67
             1428.00,1120.67 1460.67,1117.33 1460.67,1117.33
             1460.67,1117.33 1480.67,1120.00 1480.67,1120.00
             1480.67,1120.00 1501.33,1134.00 1501.33,1134.00
             1501.33,1134.00 1514.67,1157.33 1514.67,1157.33
             1514.67,1157.33 1514.00,1184.67 1514.00,1184.67
             1514.00,1184.67 1505.33,1216.67 1505.33,1217.33
             1505.33,1218.00 1482.67,1261.33 1482.67,1261.33
             1482.67,1261.33 1457.33,1295.33 1457.33,1295.33
             1457.33,1295.33 1424.67,1326.00 1424.67,1326.00
             1424.67,1326.00 1395.33,1351.33 1395.33,1351.33
             1395.33,1351.33 1364.67,1377.33 1364.67,1377.33
             1364.67,1377.33 1336.00,1394.67 1336.00,1394.67
             1336.00,1394.67 1299.33,1415.33 1299.33,1415.33
             1299.33,1415.33 1261.33,1429.33 1261.33,1429.33
             1261.33,1429.33 1234.00,1436.67 1234.00,1436.67
             1234.00,1436.67 1204.00,1432.00 1204.00,1432.00
             1204.00,1432.00 1187.33,1424.67 1187.33,1424.67
             1187.33,1424.67 1175.33,1408.67 1175.33,1408.67
             1175.33,1408.67 1170.67,1385.33 1170.67,1385.33
             1170.67,1385.33 1170.00,1356.67 1170.00,1356.67
             1170.00,1356.67 1178.67,1332.00 1178.67,1332.00
             1178.67,1332.00 1191.33,1298.00 1191.33,1298.00
             1191.33,1298.00 1203.33,1280.00 1203.33,1280.00" />
  <path id="Unnamed #12"
        fill="none" stroke="black" stroke-width="1"
        d="M 1563.33,1664.67
           C 1563.33,1664.67 1568.00,1691.33 1568.00,1691.33
             1568.00,1691.33 1574.67,1723.33 1574.67,1723.33
             1574.67,1723.33 1575.33,1744.67 1575.33,1744.67" />
  <path id="Unnamed #11"
        fill="none" stroke="black" stroke-width="1"
        d="M 1948.00,1390.67
           C 1948.00,1390.67 1955.33,1434.00 1955.33,1434.00
             1955.33,1434.00 1950.00,1480.67 1950.00,1480.67
             1950.00,1480.67 1946.00,1526.67 1946.00,1526.67
             1946.00,1526.67 1946.67,1560.67 1946.67,1560.67" />
  <path id="Unnamed #10"
        fill="none" stroke="black" stroke-width="1"
        d="M 1962.67,1548.00
           C 1962.67,1548.00 1930.67,1598.67 1930.67,1598.67
             1930.67,1598.67 1890.67,1637.33 1890.67,1637.33
             1890.67,1637.33 1845.33,1672.00 1845.33,1672.00
             1845.33,1672.00 1792.67,1708.67 1792.67,1708.67
             1792.67,1708.67 1744.00,1742.00 1744.00,1742.00
             1744.00,1742.00 1708.00,1758.00 1708.00,1758.00
             1708.00,1758.00 1669.33,1764.00 1669.33,1764.00
             1669.33,1764.00 1636.67,1762.67 1636.67,1762.67
             1636.67,1762.67 1602.67,1757.33 1602.67,1757.33
             1602.67,1757.33 1576.00,1744.67 1576.00,1744.67" />
  <path id="Unnamed #9"
        fill="none" stroke="black" stroke-width="1"
        d="M 1576.00,1569.33
           C 1576.00,1569.33 1562.67,1594.67 1562.67,1594.67
             1562.67,1594.67 1554.00,1620.67 1554.00,1620.67
             1554.00,1620.67 1552.67,1641.33 1552.67,1641.33
             1552.67,1641.33 1562.00,1660.67 1562.00,1660.67
             1562.00,1660.67 1580.67,1672.00 1580.67,1672.00
             1580.67,1672.00 1612.00,1672.67 1612.00,1672.67
             1612.00,1672.67 1644.00,1665.33 1644.00,1665.33
             1644.00,1665.33 1696.00,1644.00 1696.00,1644.00
             1696.00,1644.00 1766.67,1603.33 1766.67,1603.33
             1766.67,1603.33 1828.00,1560.00 1828.00,1560.00
             1828.00,1560.00 1867.33,1522.00 1867.33,1522.00
             1867.33,1522.00 1898.00,1487.33 1898.00,1487.33
             1898.00,1487.33 1926.00,1446.67 1926.00,1446.67
             1926.00,1446.67 1943.33,1407.33 1943.33,1407.33
             1943.33,1407.33 1943.33,1379.33 1943.33,1379.33
             1943.33,1379.33 1937.33,1366.67 1937.33,1366.67
             1937.33,1366.67 1927.33,1358.00 1927.33,1358.00
             1927.33,1358.00 1902.00,1350.00 1902.00,1350.00
             1902.00,1350.00 1872.67,1349.33 1872.67,1349.33
             1872.67,1349.33 1830.67,1358.67 1830.67,1358.67
             1830.67,1358.67 1792.67,1373.33 1792.67,1373.33
             1792.67,1373.33 1756.67,1391.33 1756.67,1391.33
             1756.67,1391.33 1716.00,1416.00 1716.00,1416.00
             1716.00,1416.00 1682.67,1440.67 1682.67,1440.67
             1682.67,1440.67 1654.67,1464.00 1654.67,1464.00
             1654.67,1464.00 1622.67,1495.33 1622.67,1495.33
             1622.67,1495.33 1596.00,1522.67 1596.00,1522.67
             1596.00,1522.67 1577.33,1548.67 1577.33,1548.67
             1577.33,1548.67 1566.67,1565.33 1566.67,1565.33
             1566.67,1565.33 1558.00,1584.67 1558.00,1584.67" />
  <path id="Unnamed #8"
        fill="none" stroke="black" stroke-width="1"
        d="M 2812.50,1150.50
           C 2812.50,1150.50 2752.50,1105.50 2752.50,1105.50
             2752.50,1105.50 2715.00,1087.50 2715.00,1087.50
             2715.00,1087.50 2628.00,1005.00 2628.00,1005.00
             2628.00,1005.00 2419.50,858.00 2419.50,858.00
             2419.50,858.00 2157.00,706.50 2157.00,706.50
             2157.00,706.50 1984.50,604.50 1984.50,604.50
             1984.50,604.50 1861.50,519.00 1861.50,519.00
             1861.50,519.00 1630.50,367.50 1630.50,367.50
             1630.50,367.50 1566.00,330.00 1566.00,330.00
             1566.00,330.00 1503.00,303.00 1503.00,303.00
             1503.00,303.00 1449.00,241.50 1449.00,241.50" />
  <path id="Unnamed #7"
        fill="none" stroke="black" stroke-width="1"
        d="M 1447.50,241.50
           C 1447.50,241.50 1353.00,343.50 1353.00,343.50
             1353.00,343.50 1195.50,487.50 1195.50,487.50
             1195.50,487.50 1072.50,616.50 1072.50,616.50
             1072.50,616.50 915.00,777.00 915.00,777.00
             915.00,777.00 775.50,924.00 775.50,924.00
             775.50,924.00 694.50,1020.00 694.50,1020.00
             694.50,1020.00 606.00,1128.00 606.00,1128.00
             606.00,1128.00 540.00,1218.00 540.00,1218.00
             540.00,1218.00 519.00,1251.00 519.00,1251.00
             519.00,1251.00 484.50,1278.00 484.50,1278.00" />
  <path id="Unnamed #6"
        fill="none" stroke="black" stroke-width="1"
        d="M 1815.67,1906.33
           C 1815.67,1906.33 1767.00,1880.00 1767.00,1880.00
             1767.00,1880.00 1661.00,1836.00 1661.00,1836.00
             1661.00,1836.00 1595.00,1801.00 1595.00,1801.00
             1595.00,1801.00 1513.00,1769.00 1513.00,1769.00
             1513.00,1769.00 1437.00,1734.00 1437.00,1734.00
             1437.00,1734.00 1268.00,1643.00 1268.00,1643.00
             1268.00,1643.00 1129.00,1573.00 1129.00,1573.00
             1129.00,1573.00 947.00,1489.00 947.00,1489.00
             947.00,1489.00 822.00,1421.00 822.00,1421.00
             822.00,1421.00 679.50,1356.00 679.50,1356.00
             679.50,1356.00 510.00,1282.50 510.00,1282.50
             510.00,1282.50 480.00,1267.50 480.00,1267.50" />
  <path id="Unnamed #5"
        fill="none" stroke="black" stroke-width="1"
        d="M 489.00,1275.00
           C 489.00,1275.00 483.00,1306.50 483.00,1306.50
             483.00,1306.50 481.50,1363.50 481.50,1363.50
             481.50,1363.50 493.50,1486.50 493.50,1486.50
             493.50,1486.50 505.50,1569.00 505.50,1569.00
             505.50,1569.00 511.50,1629.00 511.50,1629.00
             511.50,1629.00 520.50,1668.00 520.50,1668.00
             520.50,1668.00 522.00,1693.50 522.00,1693.50" />
  <path id="Unnamed #4"
        fill="none" stroke="black" stroke-width="1"
        d="M 511.50,1668.00
           C 511.50,1668.00 607.50,1708.50 607.50,1708.50
             607.50,1708.50 718.50,1761.00 718.50,1761.00
             718.50,1761.00 825.00,1813.50 825.00,1813.50
             825.00,1813.50 960.00,1872.00 960.00,1872.00
             960.00,1872.00 1099.50,1924.50 1099.50,1924.50
             1099.50,1924.50 1195.50,1963.50 1195.50,1963.50
             1195.50,1963.50 1302.00,2007.00 1302.00,2007.00
             1302.00,2007.00 1404.00,2044.50 1404.00,2044.50
             1404.00,2044.50 1447.50,2064.00 1447.50,2064.00
             1447.50,2064.00 1507.50,2107.50 1507.50,2107.50
             1507.50,2107.50 1588.50,2160.00 1588.50,2160.00
             1588.50,2160.00 1644.00,2194.50 1644.00,2194.50
             1644.00,2194.50 1714.50,2238.00 1714.50,2238.00
             1714.50,2238.00 1771.50,2263.50 1771.50,2263.50
             1771.50,2263.50 1830.00,2281.50 1830.00,2281.50" />
  <path id="Unnamed #3"
        fill="none" stroke="black" stroke-width="1"
        d="M 2788.50,1138.50
           C 2788.50,1138.50 2790.00,1186.50 2790.00,1186.50
             2790.00,1186.50 2782.50,1249.50 2782.50,1249.50
             2782.50,1249.50 2778.00,1360.50 2778.00,1360.50
             2778.00,1360.50 2770.50,1426.50 2770.50,1426.50
             2770.50,1426.50 2779.50,1474.50 2779.50,1474.50" />
  <path id="Unnamed #2"
        fill="none" stroke="black" stroke-width="1"
        d="M 1831.50,2298.00
           C 1831.50,2298.00 2016.00,2119.50 2016.00,2119.50
             2016.00,2119.50 2398.50,1776.00 2398.50,1776.00
             2398.50,1776.00 2568.00,1627.50 2568.00,1627.50
             2568.00,1627.50 2703.00,1516.50 2703.00,1516.50
             2703.00,1516.50 2779.50,1455.00 2779.50,1455.00" />
  <path id="Unnamed #1"
        fill="none" stroke="black" stroke-width="1"
        d="M 1808.00,1898.00
           C 1808.00,1898.00 1868.00,1854.00 1868.00,1854.00
             1868.00,1854.00 1944.00,1776.00 1944.00,1776.00
             1944.00,1776.00 2010.00,1720.00 2010.00,1720.00
             2010.00,1720.00 2082.00,1663.50 2082.00,1663.50
             2082.00,1663.50 2172.00,1596.00 2173.50,1596.00
             2175.00,1596.00 2317.50,1495.50 2317.50,1495.50
             2317.50,1495.50 2446.50,1407.00 2446.50,1407.00
             2446.50,1407.00 2541.00,1341.00 2541.00,1341.00
             2541.00,1341.00 2637.00,1272.00 2637.00,1272.00
             2637.00,1272.00 2736.00,1197.00 2736.00,1197.00
             2736.00,1197.00 2803.50,1143.00 2800.50,1143.00" />
  <path id="Unnamed"
        fill="none" stroke="black" stroke-width="1"
        d="M 1789.50,1893.00
           C 1789.50,1893.00 1800.00,1959.00 1800.00,1959.00
             1800.00,1959.00 1803.00,2020.50 1803.00,2020.50
             1803.00,2020.50 1812.00,2088.00 1812.00,2088.00
             1812.00,2088.00 1816.50,2136.00 1816.50,2136.00
             1816.50,2136.00 1828.50,2181.00 1828.50,2181.00
             1828.50,2181.00 1833.00,2221.50 1833.00,2221.50
             1833.00,2221.50 1830.00,2287.50 1830.00,2287.50" />
</svg>
