<?xml version="1.0" encoding="UTF-8" standalone="no"?>
<!DOCTYPE svg PUBLIC "-//W3C//DTD SVG 20010904//EN"
              "http://www.w3.org/TR/2001/REC-SVG-20010904/DTD/svg10.dtd">

<svg xmlns="http://www.w3.org/2000/svg"
     width="45.3333in" height="34in"
     viewBox="0 0 3264 2448">
  <path id="Unnamed #32"
        fill="none" stroke="black" stroke-width="1"
        d="M 2350.00,640.00
           C 2350.00,640.00 2388.00,630.00 2388.00,630.00
             2388.00,630.00 2418.00,620.00 2418.00,620.00
             2418.00,620.00 2458.00,616.00 2458.00,616.00
             2458.00,616.00 2488.00,612.00 2488.00,612.00
             2488.00,612.00 2512.00,612.00 2514.00,612.00
             2516.00,612.00 2550.00,612.00 2550.00,612.00
             2550.00,612.00 2576.00,620.00 2576.00,620.00
             2576.00,620.00 2604.00,622.00 2604.00,622.00
             2604.00,622.00 2624.00,632.00 2624.00,632.00
             2624.00,632.00 2652.00,644.00 2652.00,644.00
             2652.00,644.00 2674.00,662.00 2674.00,662.00
             2674.00,662.00 2688.00,680.00 2688.00,680.00
             2688.00,680.00 2696.00,704.00 2696.00,704.00
             2696.00,704.00 2692.00,732.00 2692.00,732.00
             2692.00,732.00 2680.00,758.00 2680.00,758.00
             2680.00,758.00 2662.00,768.00 2662.00,768.00
             2662.00,768.00 2640.00,780.00 2640.00,780.00
             2640.00,780.00 2606.00,790.00 2604.00,790.00
             2602.00,790.00 2564.00,794.00 2564.00,794.00
             2564.00,794.00 2532.00,798.00 2532.00,798.00
             2532.00,798.00 2496.00,796.00 2496.00,796.00
             2496.00,796.00 2456.00,796.00 2456.00,796.00
             2456.00,796.00 2412.00,796.00 2412.00,796.00
             2412.00,796.00 2382.00,790.00 2382.00,790.00
             2382.00,790.00 2352.00,776.00 2352.00,776.00
             2352.00,776.00 2322.00,762.00 2322.00,762.00
             2322.00,762.00 2302.00,744.00 2302.00,744.00
             2302.00,744.00 2298.00,716.00 2298.00,716.00
             2298.00,716.00 2304.33,702.33 2304.33,702.33
             2304.33,702.33 2310.33,688.00 2310.33,688.00
             2310.33,688.00 2320.00,678.67 2320.00,678.67
             2320.00,678.67 2331.33,667.33 2331.33,667.33
             2331.33,667.33 2345.67,660.33 2345.67,660.33
             2345.67,660.33 2364.00,652.67 2364.00,652.67
             2364.00,652.67 2378.00,647.33 2378.00,647.33
             2378.00,647.33 2392.00,643.33 2392.00,643.33
             2392.00,643.33 2403.67,640.33 2403.67,640.33
             2403.67,640.33 2413.33,639.33 2413.33,639.33
             2413.33,639.33 2424.67,636.67 2424.67,636.67
             2424.67,636.67 2434.33,635.33 2434.33,635.33" />
  <path id="Unnamed #30"
        fill="none" stroke="black" stroke-width="1"
        d="M 1724.00,954.00
           C 1724.00,954.00 1760.00,972.00 1760.00,972.00
             1760.00,972.00 1804.00,984.00 1806.00,984.00
             1808.00,984.00 1864.00,986.00 1864.00,986.00
             1864.00,986.00 1918.00,982.00 1918.00,982.00
             1918.00,982.00 1952.00,978.00 1952.00,978.00
             1952.00,978.00 1994.00,964.00 1994.00,964.00
             1994.00,964.00 2022.00,958.00 2022.00,958.00
             2022.00,958.00 2054.00,950.00 2054.00,950.00
             2054.00,950.00 2092.00,926.00 2092.00,926.00" />
  <path id="Unnamed #29"
        fill="none" stroke="black" stroke-width="1"
        d="M 1752.00,688.00
           C 1752.00,688.00 1792.00,674.00 1792.00,674.00
             1792.00,674.00 1838.00,666.00 1838.00,666.00
             1838.00,666.00 1880.00,666.00 1880.00,666.00
             1880.00,666.00 1932.00,662.00 1932.00,662.00
             1932.00,662.00 1968.00,668.00 1968.00,668.00
             1968.00,668.00 1998.00,674.00 1998.00,674.00
             1998.00,674.00 2026.00,690.00 2026.00,690.00
             2026.00,690.00 2050.00,704.00 2050.00,704.00
             2050.00,704.00 2076.00,732.00 2076.00,732.00
             2076.00,732.00 2082.00,754.00 2082.00,754.00
             2082.00,754.00 2080.00,780.00 2080.00,780.00
             2080.00,780.00 2072.00,798.00 2072.00,798.00
             2072.00,798.00 2046.00,824.00 2046.00,824.00
             2046.00,824.00 2020.00,834.00 2020.00,834.00
             2020.00,834.00 1994.00,848.00 1994.00,848.00
             1994.00,848.00 1958.00,854.00 1958.00,854.00
             1958.00,854.00 1920.00,862.00 1920.00,862.00
             1920.00,862.00 1880.00,866.00 1880.00,866.00
             1880.00,866.00 1840.00,866.00 1840.00,866.00
             1840.00,866.00 1802.00,860.00 1802.00,860.00
             1802.00,860.00 1766.00,854.00 1766.00,854.00
             1766.00,854.00 1740.00,840.00 1740.00,840.00
             1740.00,840.00 1710.00,826.00 1710.00,826.00
             1710.00,826.00 1694.00,800.00 1694.00,800.00
             1694.00,800.00 1694.00,774.00 1694.00,774.00
             1694.00,774.00 1708.00,748.00 1708.00,748.00
             1708.00,748.00 1730.00,724.00 1730.00,724.00
             1730.00,724.00 1750.00,718.00 1750.00,718.00
             1750.00,718.00 1776.00,706.00 1776.00,706.00
             1776.00,706.00 1792.00,700.00 1792.00,700.00" />
  <path id="Unnamed #28"
        fill="none" stroke="black" stroke-width="1"
        d="M 1208.00,722.00
           C 1208.00,722.00 1150.00,738.00 1150.00,738.00
             1150.00,738.00 1110.00,748.00 1110.00,748.00
             1110.00,748.00 1086.00,760.00 1086.00,760.00
             1086.00,760.00 1066.00,774.00 1066.00,774.00
             1066.00,774.00 1060.00,798.00 1060.00,798.00
             1060.00,798.00 1068.00,836.00 1068.00,836.00
             1068.00,836.00 1086.00,860.00 1086.00,860.00
             1086.00,860.00 1118.00,882.00 1118.00,882.00
             1118.00,882.00 1150.00,898.00 1150.00,898.00
             1150.00,898.00 1186.00,904.00 1186.00,904.00
             1186.00,904.00 1230.00,924.00 1230.00,924.00
             1230.00,924.00 1260.00,922.00 1260.00,922.00
             1260.00,922.00 1302.00,920.00 1302.00,920.00
             1302.00,920.00 1348.00,920.00 1348.00,920.00
             1348.00,920.00 1382.00,912.00 1382.00,912.00
             1382.00,912.00 1414.00,900.00 1414.00,900.00
             1414.00,900.00 1448.00,880.00 1448.00,880.00
             1448.00,880.00 1472.00,856.00 1472.00,856.00
             1472.00,856.00 1492.00,822.00 1492.00,822.00
             1492.00,822.00 1492.00,790.00 1492.00,790.00
             1492.00,790.00 1476.00,760.00 1476.00,760.00
             1476.00,760.00 1442.00,740.00 1442.00,740.00
             1442.00,740.00 1404.00,728.00 1404.00,728.00
             1404.00,728.00 1366.00,718.00 1366.00,718.00
             1366.00,718.00 1318.00,706.00 1318.00,706.00
             1318.00,706.00 1270.00,706.00 1270.00,706.00
             1270.00,706.00 1236.00,702.00 1234.00,706.00
             1232.00,710.00 1182.00,716.00 1182.00,716.00
             1182.00,716.00 1132.00,730.00 1132.00,730.00" />
  <path id="Unnamed #27"
        fill="none" stroke="black" stroke-width="1"
        d="M 1460.00,984.00
           C 1460.00,984.00 1426.00,1002.00 1426.00,1004.00
             1426.00,1006.00 1386.00,1020.00 1386.00,1020.00
             1386.00,1020.00 1346.00,1042.00 1346.00,1042.00
             1346.00,1042.00 1298.00,1060.00 1298.00,1060.00
             1298.00,1060.00 1248.00,1064.00 1248.00,1064.00
             1248.00,1064.00 1180.00,1062.00 1180.00,1062.00
             1180.00,1062.00 1134.00,1048.00 1134.00,1048.00
             1134.00,1048.00 1094.00,1030.00 1094.00,1030.00
             1094.00,1030.00 1070.00,1006.00 1070.00,1006.00
             1070.00,1006.00 1054.00,990.00 1054.00,990.00" />
  <path id="Unnamed #26"
        fill="none" stroke="black" stroke-width="1"
        d="M 1183.50,1582.50
           C 1183.50,1582.50 1170.00,1603.50 1170.00,1603.50
             1170.00,1603.50 1147.50,1623.00 1147.50,1623.00
             1147.50,1623.00 1129.50,1641.00 1129.50,1641.00
             1129.50,1641.00 1107.00,1657.50 1107.00,1657.50
             1107.00,1657.50 1068.00,1666.50 1068.00,1666.50
             1068.00,1666.50 1036.50,1669.50 1036.50,1669.50
             1036.50,1669.50 1008.00,1671.00 1008.00,1671.00
             1008.00,1671.00 979.50,1666.50 979.50,1666.50
             979.50,1666.50 949.50,1665.00 949.50,1665.00
             949.50,1665.00 918.00,1662.00 918.00,1662.00
             918.00,1662.00 885.00,1656.00 885.00,1656.00
             885.00,1656.00 861.00,1651.50 861.00,1651.50
             861.00,1651.50 843.00,1641.00 843.00,1641.00
             843.00,1641.00 832.50,1632.00 832.50,1632.00" />
  <path id="Unnamed #25"
        fill="none" stroke="black" stroke-width="1"
        d="M 882.00,1381.50
           C 882.00,1381.50 931.50,1377.00 931.50,1377.00
             931.50,1377.00 988.50,1374.00 988.50,1374.00
             988.50,1374.00 1050.00,1365.00 1051.50,1365.00
             1053.00,1365.00 1111.50,1366.50 1111.50,1366.50
             1111.50,1366.50 1150.50,1374.00 1150.50,1374.00
             1150.50,1374.00 1180.50,1377.00 1180.50,1377.00
             1180.50,1377.00 1204.50,1395.00 1204.50,1395.00
             1204.50,1395.00 1222.50,1419.00 1222.50,1419.00
             1222.50,1419.00 1224.00,1447.50 1224.00,1447.50
             1224.00,1447.50 1201.50,1471.50 1201.50,1471.50
             1201.50,1471.50 1177.50,1489.50 1177.50,1489.50
             1177.50,1489.50 1141.50,1495.50 1141.50,1495.50
             1141.50,1495.50 1105.50,1506.00 1105.50,1506.00
             1105.50,1506.00 1060.50,1510.50 1060.50,1510.50
             1060.50,1510.50 1012.50,1521.00 1012.50,1521.00
             1012.50,1521.00 976.50,1522.50 976.50,1522.50
             976.50,1522.50 945.00,1525.50 945.00,1525.50
             945.00,1525.50 912.00,1525.50 912.00,1525.50
             912.00,1525.50 885.00,1522.50 885.00,1522.50
             885.00,1522.50 859.50,1516.50 859.50,1516.50
             859.50,1516.50 834.00,1504.50 834.00,1504.50
             834.00,1504.50 820.50,1492.50 820.50,1492.50
             820.50,1492.50 811.50,1471.50 811.50,1471.50
             811.50,1471.50 808.50,1452.00 808.50,1452.00
             808.50,1452.00 819.00,1434.00 819.00,1434.00
             819.00,1434.00 843.00,1422.00 843.00,1422.00
             843.00,1422.00 867.00,1408.50 867.00,1408.50
             867.00,1408.50 889.50,1401.00 889.50,1401.00
             889.50,1401.00 910.50,1393.50 910.50,1393.50
             910.50,1393.50 936.00,1389.00 936.00,1389.00" />
  <path id="Unnamed #24"
        fill="none" stroke="black" stroke-width="1"
        d="M 1485.00,1582.50
           C 1485.00,1582.50 1506.00,1605.00 1506.00,1605.00
             1506.00,1605.00 1540.50,1623.00 1540.50,1623.00
             1540.50,1623.00 1585.50,1627.50 1585.50,1627.50
             1585.50,1627.50 1633.50,1632.00 1633.50,1632.00
             1633.50,1632.00 1687.50,1632.00 1687.50,1632.00
             1687.50,1632.00 1735.50,1626.00 1735.50,1626.00
             1735.50,1626.00 1774.50,1608.00 1774.50,1608.00
             1774.50,1608.00 1806.00,1582.50 1806.00,1582.50
             1806.00,1582.50 1846.50,1558.50 1846.50,1558.50
             1846.50,1558.50 1878.00,1528.50 1878.00,1528.50
             1878.00,1528.50 1900.50,1519.50 1900.50,1519.50" />
  <path id="Unnamed #23"
        fill="none" stroke="black" stroke-width="1"
        d="M 1522.50,1320.00
           C 1522.50,1320.00 1563.00,1306.50 1563.00,1306.50
             1563.00,1306.50 1617.00,1302.00 1617.00,1302.00
             1617.00,1302.00 1669.50,1296.00 1669.50,1296.00
             1669.50,1296.00 1711.50,1296.00 1711.50,1296.00
             1711.50,1296.00 1758.00,1294.50 1758.00,1294.50
             1758.00,1294.50 1795.50,1299.00 1795.50,1299.00
             1795.50,1299.00 1834.50,1306.50 1834.50,1306.50
             1834.50,1306.50 1864.50,1311.00 1864.50,1311.00
             1864.50,1311.00 1881.00,1318.50 1881.00,1318.50
             1881.00,1318.50 1890.00,1329.00 1890.00,1329.00
             1890.00,1329.00 1899.00,1341.00 1899.00,1341.00
             1899.00,1341.00 1894.50,1351.50 1893.00,1351.50
             1891.50,1351.50 1884.00,1372.50 1884.00,1372.50
             1884.00,1372.50 1858.50,1393.50 1858.50,1393.50
             1858.50,1393.50 1827.00,1414.50 1827.00,1414.50
             1827.00,1414.50 1789.50,1440.00 1788.00,1440.00
             1786.50,1440.00 1747.50,1452.00 1747.50,1452.00
             1747.50,1452.00 1714.50,1458.00 1714.50,1458.00
             1714.50,1458.00 1683.00,1459.50 1683.00,1459.50
             1683.00,1459.50 1638.00,1464.00 1638.00,1464.00
             1638.00,1464.00 1597.50,1455.00 1597.50,1455.00
             1597.50,1455.00 1563.00,1450.50 1563.00,1450.50
             1563.00,1450.50 1531.50,1443.00 1531.50,1443.00
             1531.50,1443.00 1504.50,1431.00 1504.50,1431.00
             1504.50,1431.00 1485.00,1420.50 1485.00,1420.50
             1485.00,1420.50 1471.50,1407.00 1471.50,1407.00
             1471.50,1407.00 1465.50,1392.00 1465.50,1392.00
             1465.50,1392.00 1467.00,1374.00 1467.00,1374.00
             1467.00,1374.00 1485.00,1354.50 1485.00,1354.50
             1485.00,1354.50 1510.50,1344.00 1510.50,1344.00
             1510.50,1344.00 1533.00,1332.00 1533.00,1332.00
             1533.00,1332.00 1554.00,1323.00 1554.00,1323.00
             1554.00,1323.00 1591.50,1317.00 1591.50,1317.00" />
  <path id="Unnamed #22"
        fill="none" stroke="black" stroke-width="1"
        d="M 2055.00,1464.00
           C 2055.00,1464.00 2079.00,1495.50 2079.00,1495.50
             2079.00,1495.50 2115.00,1527.00 2115.00,1527.00
             2115.00,1527.00 2184.00,1545.00 2184.00,1545.00
             2184.00,1545.00 2239.50,1555.50 2239.50,1555.50
             2239.50,1555.50 2299.50,1557.00 2299.50,1557.00
             2299.50,1557.00 2376.00,1548.00 2376.00,1548.00
             2376.00,1548.00 2433.00,1527.00 2433.00,1527.00
             2433.00,1527.00 2485.50,1501.50 2485.50,1501.50
             2485.50,1501.50 2523.00,1477.50 2523.00,1477.50
             2523.00,1477.50 2541.00,1453.50 2541.00,1453.50" />
  <path id="Unnamed #21"
        fill="none" stroke="black" stroke-width="1"
        d="M 2169.00,1234.50
           C 2169.00,1234.50 2262.00,1215.00 2262.00,1215.00
             2262.00,1215.00 2344.50,1207.50 2344.50,1207.50
             2344.50,1207.50 2413.50,1203.00 2413.50,1203.00
             2413.50,1203.00 2476.50,1213.50 2476.50,1213.50
             2476.50,1213.50 2517.00,1231.50 2517.00,1231.50
             2517.00,1231.50 2538.00,1248.00 2538.00,1248.00
             2538.00,1248.00 2551.50,1267.50 2551.50,1267.50
             2551.50,1267.50 2551.50,1285.50 2551.50,1285.50
             2551.50,1285.50 2541.00,1314.00 2541.00,1314.00
             2541.00,1314.00 2488.50,1354.50 2488.50,1354.50
             2488.50,1354.50 2427.00,1377.00 2427.00,1377.00
             2427.00,1377.00 2362.50,1389.00 2362.50,1389.00
             2362.50,1389.00 2287.50,1402.50 2287.50,1402.50
             2287.50,1402.50 2230.50,1408.50 2229.00,1408.50
             2227.50,1408.50 2173.50,1402.50 2173.50,1402.50
             2173.50,1402.50 2125.50,1383.00 2125.50,1383.00
             2125.50,1383.00 2097.00,1362.00 2097.00,1362.00
             2097.00,1362.00 2080.50,1335.00 2080.50,1335.00
             2080.50,1335.00 2074.50,1314.00 2074.50,1314.00
             2074.50,1314.00 2080.50,1290.00 2080.50,1290.00
             2080.50,1290.00 2098.50,1273.50 2098.50,1273.50
             2098.50,1273.50 2125.50,1258.50 2125.50,1258.50
             2125.50,1258.50 2151.00,1243.50 2151.00,1243.50M 2191.50,1234.50" />
  <path id="Unnamed #20"
        fill="none" stroke="black" stroke-width="1"
        d="M 2683.50,759.00
           C 2683.50,759.00 2686.50,832.50 2686.50,832.50
             2686.50,832.50 2683.50,859.50 2683.50,859.50" />
  <path id="Unnamed #31"
        fill="none" stroke="black" stroke-width="1"
        d="M 2670.00,864.00
           C 2670.00,864.00 2644.00,880.00 2644.00,880.00
             2644.00,880.00 2608.00,888.00 2608.00,888.00
             2608.00,888.00 2578.00,896.00 2578.00,896.00
             2578.00,896.00 2540.00,900.00 2540.00,900.00
             2540.00,900.00 2490.00,910.00 2488.00,910.00
             2486.00,910.00 2444.00,910.00 2444.00,910.00
             2444.00,910.00 2420.00,910.00 2420.00,910.00
             2420.00,910.00 2390.00,906.00 2390.00,906.00
             2390.00,906.00 2360.00,900.00 2360.00,900.00
             2360.00,900.00 2336.00,894.00 2336.00,894.00
             2336.00,894.00 2320.00,872.00 2320.00,872.00" />
  <path id="Unnamed #19"
        fill="none" stroke="black" stroke-width="1"
        d="M 2299.50,744.00
           C 2299.50,744.00 2316.00,861.00 2316.00,861.00" />
  <path id="Unnamed #18"
        fill="none" stroke="black" stroke-width="1"
        d="M 2065.50,804.00
           C 2065.50,804.00 2068.50,855.00 2068.50,855.00
             2068.50,855.00 2062.50,915.00 2062.50,915.00
             2062.50,915.00 2062.50,930.00 2062.50,930.00" />
  <path id="Unnamed #17"
        fill="none" stroke="black" stroke-width="1"
        d="M 1698.00,808.50
           C 1698.00,808.50 1696.50,853.50 1696.50,853.50
             1696.50,853.50 1705.50,912.00 1705.50,912.00
             1705.50,912.00 1711.50,949.50 1711.50,949.50" />
  <path id="Unnamed #16"
        fill="none" stroke="black" stroke-width="1"
        d="M 1474.50,850.50
           C 1474.50,850.50 1476.00,885.00 1476.00,885.00
             1476.00,885.00 1474.50,982.50 1474.50,982.50" />
  <path id="Unnamed #15"
        fill="none" stroke="black" stroke-width="1"
        d="M 1039.50,808.50
           C 1039.50,808.50 1050.00,870.00 1050.00,870.00
             1050.00,870.00 1063.50,928.50 1063.50,928.50
             1063.50,928.50 1066.50,969.00 1066.50,969.00
             1066.50,969.00 1062.00,988.50 1062.00,988.50" />
  <path id="Unnamed #14"
        fill="none" stroke="black" stroke-width="1"
        d="M 798.00,1458.00
           C 798.00,1458.00 799.50,1515.00 799.50,1515.00
             799.50,1515.00 819.00,1581.00 819.00,1581.00
             819.00,1581.00 837.00,1629.00 837.00,1629.00" />
  <path id="Unnamed #13"
        fill="none" stroke="black" stroke-width="1"
        d="M 1209.00,1434.00
           C 1207.50,1434.00 1215.00,1504.50 1215.00,1504.50
             1215.00,1504.50 1209.00,1557.00 1209.00,1557.00
             1209.00,1557.00 1198.50,1591.50 1200.00,1591.50" />
  <path id="Unnamed #12"
        fill="none" stroke="black" stroke-width="1"
        d="M 1471.50,1413.00
           C 1471.50,1413.00 1480.50,1485.00 1480.50,1485.00
             1480.50,1485.00 1483.50,1539.00 1483.50,1539.00
             1483.50,1539.00 1497.00,1585.50 1497.00,1585.50" />
  <path id="Unnamed #11"
        fill="none" stroke="black" stroke-width="1"
        d="M 1896.00,1360.50
           C 1896.00,1360.50 1900.50,1420.50 1900.50,1420.50
             1900.50,1420.50 1900.50,1512.00 1900.50,1512.00" />
  <path id="Unnamed #10"
        fill="none" stroke="black" stroke-width="1"
        d="M 2559.00,1291.50
           C 2559.00,1291.50 2563.50,1356.00 2563.50,1356.00
             2563.50,1356.00 2563.50,1402.50 2563.50,1402.50
             2563.50,1402.50 2554.50,1431.00 2554.50,1431.00" />
  <path id="Unnamed #9"
        fill="none" stroke="black" stroke-width="1"
        d="M 2065.50,1323.00
           C 2065.50,1323.00 2071.50,1357.50 2071.50,1357.50
             2071.50,1357.50 2074.50,1398.00 2074.50,1398.00
             2074.50,1398.00 2076.00,1474.50 2076.00,1474.50" />
  <path id="Unnamed #8"
        fill="none" stroke="black" stroke-width="1"
        d="M 2595.33,1664.67
           C 2595.33,1664.67 2643.00,1491.00 2643.00,1491.00
             2643.00,1491.00 2706.00,1323.00 2706.00,1323.00
             2706.00,1323.00 2775.00,1128.00 2775.00,1128.00
             2775.00,1128.00 2826.00,951.00 2826.00,951.00
             2826.00,951.00 2859.00,828.00 2859.00,828.00
             2859.00,828.00 2883.00,738.00 2883.00,738.00
             2883.00,738.00 2895.00,673.50 2895.00,673.50
             2895.00,673.50 2899.50,612.00 2899.50,612.00
             2899.50,612.00 2910.00,561.00 2910.00,561.00
             2910.00,561.00 2920.50,516.00 2920.50,516.00" />
  <path id="Unnamed #7"
        fill="none" stroke="black" stroke-width="1"
        d="M 2918.00,518.67
           C 2918.00,518.67 2930.00,596.00 2930.00,596.00
             2930.00,596.00 2936.00,678.00 2936.00,678.00
             2936.00,678.00 2946.00,736.00 2946.00,736.00
             2946.00,736.00 2946.00,798.00 2946.00,798.00
             2946.00,798.00 2956.00,892.00 2956.00,892.00" />
  <path id="Unnamed #6"
        fill="none" stroke="black" stroke-width="1"
        d="M 2949.00,897.00
           C 2949.00,897.00 2916.00,1029.00 2916.00,1029.00
             2916.00,1029.00 2868.00,1215.00 2868.00,1215.00
             2868.00,1215.00 2799.00,1425.00 2799.00,1425.00
             2799.00,1425.00 2721.00,1620.00 2721.00,1620.00
             2721.00,1620.00 2652.00,1797.00 2652.00,1797.00
             2652.00,1797.00 2592.00,1980.00 2592.00,1980.00" />
  <path id="Unnamed #5"
        fill="none" stroke="black" stroke-width="1"
        d="M 2574.00,1992.00
           C 2574.00,1992.00 2592.00,1884.00 2592.00,1884.00
             2592.00,1884.00 2604.00,1785.00 2604.00,1785.00
             2604.00,1785.00 2601.00,1701.00 2601.00,1701.00" />
  <path id="Unnamed #4"
        fill="none" stroke="black" stroke-width="1"
        d="M 2571.00,1974.00
           C 2571.00,1974.00 2316.00,1965.00 2316.00,1965.00
             2316.00,1965.00 1962.00,1986.00 1962.00,1986.00
             1962.00,1986.00 1611.00,2013.00 1611.00,2013.00
             1611.00,2013.00 1239.00,2034.00 1239.00,2034.00
             1239.00,2034.00 1014.00,2061.00 1014.00,2061.00
             1014.00,2061.00 792.00,2085.00 792.00,2085.00
             792.00,2085.00 621.00,2109.00 621.00,2109.00
             621.00,2109.00 528.00,2109.00 528.00,2109.00" />
  <path id="Unnamed #3"
        fill="none" stroke="black" stroke-width="1"
        d="M 522.00,2115.00
           C 522.00,2115.00 546.00,2019.00 546.00,2019.00
             546.00,2019.00 549.00,1932.00 549.00,1932.00
             549.00,1932.00 528.00,1866.00 528.00,1866.00" />
  <path id="Unnamed #2"
        fill="none" stroke="black" stroke-width="1"
        d="M 2625.00,1686.00
           C 2625.00,1686.00 2277.00,1734.00 2277.00,1734.00
             2277.00,1734.00 1926.00,1752.00 1926.00,1752.00
             1926.00,1752.00 1389.00,1806.00 1389.00,1806.00
             1389.00,1806.00 840.00,1848.00 840.00,1848.00
             840.00,1848.00 519.00,1854.00 519.00,1854.00" />
  <path id="Unnamed #1"
        fill="none" stroke="black" stroke-width="1"
        d="M 507.00,1869.00
           C 507.00,1869.00 561.00,1737.00 561.00,1737.00
             561.00,1737.00 621.00,1518.00 621.00,1518.00
             621.00,1518.00 714.00,1266.00 714.00,1266.00
             714.00,1266.00 813.00,1029.00 813.00,1029.00
             813.00,1029.00 900.00,846.00 900.00,846.00
             900.00,846.00 987.00,642.00 987.00,642.00" />
  <path id="Unnamed"
        fill="none" stroke="black" stroke-width="1"
        d="M 984.00,636.00
           C 984.00,636.00 1332.00,612.00 1332.00,612.00
             1332.00,612.00 1743.00,570.00 1743.00,570.00
             1743.00,570.00 1908.00,552.00 1908.00,552.00
             1908.00,552.00 2232.00,543.00 2232.00,543.00
             2232.00,543.00 2484.00,537.00 2484.00,537.00
             2484.00,537.00 2913.00,522.00 2913.00,522.00" />
</svg>
