<?xml version="1.0" encoding="UTF-8" standalone="no"?>
<!DOCTYPE svg PUBLIC "-//W3C//DTD SVG 20010904//EN"
              "http://www.w3.org/TR/2001/REC-SVG-20010904/DTD/svg10.dtd">

<svg xmlns="http://www.w3.org/2000/svg"
     width="4.75833in" height="4.28333in"
     viewBox="0 0 2855 2570">
  <path id="Unnamed #40"
        fill="none" stroke="black" stroke-width="1"
        d="M 2026.50,1046.50
           C 2026.50,1046.50 2036.00,1036.50 2036.00,1036.50
             2036.00,1036.50 2040.50,1031.50 2040.50,1031.50
             2040.50,1031.50 2046.50,1022.50 2046.50,1022.50
             2046.50,1022.50 2050.00,1016.50 2050.00,1016.50
             2050.00,1016.50 2052.50,1006.00 2052.50,1006.00
             2052.50,1006.00 2054.00,990.00 2054.00,990.00
             2054.00,990.00 2053.50,982.50 2053.50,982.50
             2053.50,982.50 2053.50,970.50 2053.50,970.50
             2053.50,970.50 2051.50,961.50 2051.50,961.50
             2051.50,961.50 2049.50,953.50 2049.50,953.50
             2049.50,953.50 2045.50,944.50 2045.50,944.50
             2045.50,944.50 2039.00,936.50 2039.00,936.50" />
  <path id="Unnamed #39"
        fill="none" stroke="black" stroke-width="1"
        d="M 1435.33,1366.00
           C 1435.33,1366.00 1446.67,1360.00 1447.33,1360.00
             1448.00,1360.00 1465.33,1354.67 1465.33,1354.67
             1465.33,1354.67 1478.67,1351.33 1478.67,1351.33
             1478.67,1351.33 1497.33,1349.33 1497.33,1349.33
             1497.33,1349.33 1518.00,1346.67 1518.00,1346.67
             1518.00,1346.67 1549.33,1345.33 1549.33,1345.33
             1549.33,1345.33 1582.67,1345.33 1582.67,1345.33
             1582.67,1345.33 1598.67,1345.33 1598.67,1345.33
             1598.67,1345.33 1609.33,1351.33 1609.33,1351.33
             1609.33,1351.33 1620.67,1356.67 1620.67,1356.67
             1620.67,1356.67 1634.00,1361.33 1634.00,1361.33
             1634.00,1361.33 1640.00,1367.33 1640.00,1367.33
             1640.00,1367.33 1646.67,1375.33 1646.67,1375.33
             1646.67,1375.33 1634.00,1385.33 1634.00,1385.33
             1634.00,1385.33 1618.00,1387.33 1618.00,1387.33
             1618.00,1387.33 1604.00,1386.67 1604.00,1387.33
             1604.00,1388.00 1587.33,1390.00 1587.33,1390.00
             1587.33,1390.00 1565.33,1391.33 1565.33,1391.33
             1565.33,1391.33 1543.33,1391.33 1543.33,1391.33
             1543.33,1391.33 1516.67,1390.00 1516.67,1390.00
             1516.67,1390.00 1494.00,1387.33 1494.00,1387.33
             1494.00,1387.33 1467.33,1381.33 1467.33,1381.33
             1467.33,1381.33 1448.00,1377.33 1448.00,1377.33
             1448.00,1377.33 1438.00,1372.67 1438.00,1372.67
             1438.00,1372.67 1431.33,1372.67 1431.33,1372.67" />
  <path id="Unnamed #38"
        fill="none" stroke="black" stroke-width="1"
        d="M 1402.67,1527.33
           C 1402.67,1527.33 1421.33,1541.33 1421.33,1541.33
             1421.33,1541.33 1435.33,1545.33 1435.33,1545.33
             1435.33,1545.33 1448.67,1552.00 1448.67,1552.00
             1448.67,1552.00 1474.67,1562.67 1474.67,1562.67
             1474.67,1562.67 1500.67,1568.00 1501.33,1568.00
             1502.00,1568.00 1525.33,1571.33 1525.33,1571.33
             1525.33,1571.33 1542.00,1572.67 1542.00,1572.67
             1542.00,1572.67 1560.67,1574.00 1560.67,1574.00
             1560.67,1574.00 1582.67,1574.67 1582.67,1574.67
             1582.67,1574.67 1594.67,1572.00 1594.67,1572.00
             1594.67,1572.00 1610.00,1566.00 1610.00,1566.00
             1610.00,1566.00 1617.33,1558.00 1618.67,1558.00
             1620.00,1558.00 1635.33,1551.33 1635.33,1551.33
             1635.33,1551.33 1646.00,1544.00 1646.00,1544.00
             1646.00,1544.00 1660.00,1532.00 1660.00,1532.00" />
  <path id="Unnamed #37"
        fill="none" stroke="black" stroke-width="1"
        d="M 1661.33,1544.00
           C 1661.33,1543.33 1645.33,1527.33 1645.33,1527.33
             1645.33,1527.33 1637.33,1508.67 1637.33,1508.67
             1637.33,1508.67 1631.33,1491.33 1631.33,1491.33
             1631.33,1491.33 1628.00,1465.33 1628.00,1465.33
             1628.00,1465.33 1624.67,1438.00 1624.67,1438.00
             1624.67,1438.00 1627.33,1422.67 1627.33,1422.67
             1627.33,1422.67 1633.33,1411.33 1633.33,1411.33
             1633.33,1411.33 1636.00,1394.67 1636.00,1394.67
             1636.00,1394.67 1640.67,1383.33 1640.67,1383.33
             1640.67,1383.33 1644.67,1376.00 1644.67,1376.00" />
  <path id="Unnamed #36"
        fill="none" stroke="black" stroke-width="1"
        d="M 1401.33,1536.67
           C 1401.33,1536.67 1414.00,1528.67 1414.00,1528.67
             1414.00,1528.67 1424.00,1517.33 1424.00,1517.33
             1424.00,1517.33 1432.67,1506.00 1432.67,1506.00
             1432.67,1506.00 1444.00,1494.00 1444.00,1494.00
             1444.00,1494.00 1450.67,1480.67 1450.67,1480.67
             1450.67,1480.67 1456.67,1463.33 1456.67,1463.33
             1456.67,1463.33 1454.67,1446.67 1454.67,1446.67
             1454.67,1446.67 1456.00,1425.33 1456.00,1425.33
             1456.00,1425.33 1450.00,1412.00 1450.00,1412.00
             1450.00,1412.00 1443.33,1394.67 1443.33,1394.67
             1443.33,1394.67 1436.00,1376.67 1436.00,1376.67" />
  <path id="Unnamed #35"
        fill="none" stroke="black" stroke-width="1"
        d="M 451.33,1600.67
           C 451.33,1600.67 495.33,1624.67 495.33,1624.67
             495.33,1624.67 517.33,1636.67 517.33,1636.67
             517.33,1636.67 558.67,1657.33 558.67,1657.33
             558.67,1657.33 608.67,1682.67 608.67,1682.67
             608.67,1682.67 666.00,1704.00 666.00,1704.00
             666.00,1704.00 700.00,1716.67 700.00,1716.67
             700.00,1716.67 758.67,1740.00 758.67,1740.00
             758.67,1740.00 790.00,1746.00 790.00,1746.00
             790.00,1746.00 838.00,1759.33 838.00,1759.33
             838.00,1759.33 874.00,1767.33 874.00,1767.33
             874.00,1767.33 926.67,1776.67 926.67,1776.67
             926.67,1776.67 975.33,1788.67 975.33,1788.67
             975.33,1788.67 1032.00,1795.33 1032.00,1795.33
             1032.00,1795.33 1088.00,1806.67 1088.00,1806.67
             1088.00,1806.67 1117.33,1808.67 1117.33,1808.67
             1117.33,1808.67 1148.67,1809.33 1148.67,1809.33
             1148.67,1809.33 1175.33,1814.67 1175.33,1814.67
             1175.33,1814.67 1238.67,1821.33 1239.33,1822.00
             1240.00,1822.67 1296.00,1830.00 1296.00,1830.00
             1296.00,1830.00 1345.33,1832.67 1345.33,1832.67
             1345.33,1832.67 1385.33,1836.67 1385.33,1836.67
             1385.33,1836.67 1420.00,1836.00 1420.00,1836.00
             1420.00,1836.00 1461.33,1842.00 1461.33,1842.00
             1461.33,1842.00 1517.33,1844.67 1517.33,1844.67
             1517.33,1844.67 1552.00,1846.00 1552.00,1846.00
             1552.00,1846.00 1597.33,1847.33 1597.33,1847.33
             1597.33,1847.33 1634.00,1847.33 1634.00,1847.33
             1634.00,1847.33 1679.33,1845.33 1679.33,1845.33
             1679.33,1845.33 1730.00,1844.00 1730.00,1844.00
             1730.00,1844.00 1792.67,1839.33 1792.67,1839.33
             1792.67,1839.33 1823.33,1836.00 1823.33,1836.00
             1823.33,1836.00 1888.67,1834.67 1888.67,1834.67
             1888.67,1834.67 1929.33,1828.00 1929.33,1828.00
             1929.33,1828.00 1976.00,1817.33 1976.00,1817.33
             1976.00,1817.33 2023.33,1809.33 2023.33,1809.33
             2023.33,1809.33 2064.67,1800.00 2064.67,1800.00
             2064.67,1800.00 2110.00,1790.67 2110.00,1790.67
             2110.00,1790.67 2159.33,1782.67 2159.33,1782.67
             2159.33,1782.67 2202.67,1772.00 2202.67,1772.00
             2202.67,1772.00 2245.33,1759.33 2245.33,1759.33
             2245.33,1759.33 2289.33,1744.67 2289.33,1744.67
             2289.33,1744.67 2338.00,1732.00 2338.00,1732.00
             2338.00,1732.00 2375.33,1721.33 2375.33,1721.33
             2375.33,1721.33 2401.33,1712.67 2401.33,1712.67
             2401.33,1712.67 2424.67,1702.67 2424.67,1702.67
             2424.67,1702.67 2446.67,1699.33 2446.67,1699.33
             2446.67,1699.33 2462.00,1688.00 2462.00,1688.00
             2462.00,1688.00 2480.00,1676.67 2480.00,1676.67
             2480.00,1676.67 2494.67,1670.00 2494.67,1671.33" />
  <path id="Unnamed #34"
        fill="none" stroke="black" stroke-width="1"
        d="M 459.33,1618.67
           C 459.33,1618.67 457.33,1596.00 457.33,1596.00
             457.33,1596.00 459.33,1575.33 459.33,1575.33
             459.33,1575.33 457.33,1553.33 457.33,1553.33
             457.33,1553.33 456.00,1527.33 456.00,1527.33
             456.00,1527.33 454.67,1512.00 454.67,1512.00
             454.67,1512.00 453.33,1495.33 453.33,1495.33
             453.33,1495.33 454.67,1478.67 454.67,1478.67
             454.67,1478.67 454.67,1464.00 454.67,1464.00
             454.67,1464.00 453.33,1454.67 453.33,1454.67
             453.33,1454.67 452.00,1442.00 452.00,1442.00
             452.00,1442.00 450.67,1429.33 450.67,1429.33
             450.67,1429.33 450.00,1421.33 450.00,1421.33" />
  <path id="Unnamed #33"
        fill="none" stroke="black" stroke-width="1"
        d="M 2484.67,1682.67
           C 2484.67,1682.67 2487.33,1658.00 2487.33,1658.00
             2487.33,1658.00 2492.00,1634.67 2492.00,1634.67
             2492.00,1634.67 2495.33,1614.00 2495.33,1614.00
             2495.33,1614.00 2497.33,1578.00 2497.33,1578.00
             2497.33,1578.00 2501.33,1552.67 2501.33,1552.67
             2501.33,1552.67 2506.00,1530.00 2506.00,1530.00
             2506.00,1530.00 2510.00,1512.67 2510.00,1512.67
             2510.00,1512.67 2514.67,1501.33 2515.33,1500.00" />
  <path id="Unnamed #32"
        fill="none" stroke="black" stroke-width="1"
        d="M 803.33,1337.33
           C 803.33,1337.33 824.00,1331.33 824.00,1331.33
             824.00,1331.33 852.00,1324.00 852.00,1324.00
             852.00,1324.00 879.33,1316.00 879.33,1316.00
             879.33,1316.00 923.33,1307.33 922.67,1307.33
             922.00,1307.33 972.67,1302.00 972.67,1302.00
             972.67,1302.00 1022.00,1298.00 1022.00,1298.00
             1022.00,1298.00 1054.00,1293.33 1054.00,1293.33
             1054.00,1293.33 1112.00,1290.67 1112.00,1290.67
             1112.00,1290.67 1145.33,1286.67 1145.33,1286.67
             1145.33,1286.67 1166.67,1284.67 1166.67,1284.67
             1166.67,1284.67 1234.67,1280.67 1234.67,1280.67
             1234.67,1280.67 1284.67,1278.00 1284.67,1278.00
             1284.67,1278.00 1325.33,1276.00 1325.33,1276.00
             1325.33,1276.00 1404.00,1279.33 1404.00,1279.33
             1404.00,1279.33 1468.67,1280.00 1468.67,1280.00
             1468.67,1280.00 1518.67,1279.33 1518.67,1279.33
             1518.67,1279.33 1552.67,1276.67 1552.67,1276.67
             1552.67,1276.67 1617.33,1280.67 1617.33,1280.67
             1617.33,1280.67 1674.67,1284.00 1674.67,1284.00
             1674.67,1284.00 1702.67,1284.00 1702.67,1284.00
             1702.67,1284.00 1736.00,1284.00 1737.33,1284.00
             1738.67,1284.00 1776.67,1284.67 1776.67,1284.67
             1776.67,1284.67 1806.67,1288.00 1806.67,1288.00
             1806.67,1288.00 1851.33,1291.33 1851.33,1291.33
             1851.33,1291.33 1890.00,1294.00 1890.00,1294.00
             1890.00,1294.00 1936.67,1296.00 1936.67,1296.00
             1936.67,1296.00 1973.33,1299.33 1973.33,1299.33
             1973.33,1299.33 2002.00,1300.00 2002.00,1300.00
             2002.00,1300.00 2034.00,1304.67 2034.00,1304.67
             2034.00,1304.67 2060.67,1308.67 2060.67,1308.67
             2060.67,1308.67 2081.33,1312.67 2081.33,1312.67
             2081.33,1312.67 2099.33,1318.67 2099.33,1318.67
             2099.33,1318.67 2125.33,1321.33 2125.33,1321.33
             2125.33,1321.33 2143.33,1328.00 2143.33,1328.00
             2143.33,1328.00 2164.67,1333.33 2164.67,1333.33" />
  <path id="Unnamed #31"
        fill="none" stroke="black" stroke-width="1"
        d="M 2322.67,1374.00
           C 2322.67,1374.00 2336.00,1379.33 2336.67,1379.33
             2337.33,1379.33 2351.33,1388.67 2351.33,1388.67
             2351.33,1388.67 2364.67,1390.67 2364.67,1391.33
             2364.67,1392.00 2377.33,1399.33 2377.33,1399.33
             2377.33,1399.33 2389.33,1404.00 2389.33,1404.00
             2389.33,1404.00 2398.67,1407.33 2398.67,1407.33
             2398.67,1407.33 2408.00,1412.00 2408.00,1412.00
             2408.00,1412.00 2425.33,1423.33 2425.33,1423.33
             2425.33,1423.33 2443.33,1434.00 2443.33,1434.00
             2443.33,1434.00 2451.33,1443.33 2452.00,1444.00
             2452.67,1444.67 2473.33,1456.67 2473.33,1456.67
             2473.33,1456.67 2482.67,1464.00 2482.67,1464.00
             2482.67,1464.00 2494.00,1475.33 2494.00,1475.33
             2494.00,1475.33 2504.00,1483.33 2504.00,1483.33
             2504.00,1483.33 2514.00,1492.00 2514.00,1492.00
             2514.00,1492.00 2517.33,1499.33 2517.33,1499.33
             2517.33,1499.33 2504.67,1505.33 2504.67,1505.33
             2504.67,1505.33 2482.67,1512.67 2482.67,1513.33
             2482.67,1514.00 2460.67,1522.00 2460.67,1522.00
             2460.67,1522.00 2430.00,1530.00 2430.00,1530.00
             2430.00,1530.00 2404.67,1544.67 2404.67,1544.67
             2404.67,1544.67 2382.00,1549.33 2382.00,1549.33
             2382.00,1549.33 2364.67,1559.33 2364.67,1559.33
             2364.67,1559.33 2336.00,1566.00 2336.00,1566.00
             2336.00,1566.00 2306.00,1578.67 2306.00,1578.67
             2306.00,1578.67 2276.67,1586.67 2276.67,1586.67
             2276.67,1586.67 2243.33,1592.67 2243.33,1592.67
             2243.33,1592.67 2222.00,1602.00 2221.33,1602.67
             2220.67,1603.33 2182.67,1614.67 2182.67,1614.67
             2182.67,1614.67 2130.00,1621.33 2130.00,1621.33
             2130.00,1621.33 2099.33,1623.33 2099.33,1623.33
             2099.33,1623.33 2068.67,1625.33 2068.67,1625.33
             2068.67,1625.33 2041.33,1628.00 2041.33,1628.00
             2041.33,1628.00 1998.00,1628.67 1998.00,1628.67
             1998.00,1628.67 1955.33,1632.00 1955.33,1632.00
             1955.33,1632.00 1907.33,1630.67 1907.33,1630.67
             1907.33,1630.67 1846.00,1637.33 1845.33,1637.33
             1844.67,1637.33 1784.00,1634.67 1784.00,1634.67
             1784.00,1634.67 1746.00,1634.67 1746.00,1634.67
             1746.00,1634.67 1701.33,1632.00 1701.33,1632.00
             1701.33,1632.00 1646.67,1633.33 1646.67,1633.33
             1646.67,1633.33 1590.67,1630.00 1590.67,1630.00
             1590.67,1630.00 1543.33,1631.33 1543.33,1631.33
             1543.33,1631.33 1496.67,1629.33 1496.67,1629.33
             1496.67,1629.33 1456.67,1626.00 1456.67,1626.00
             1456.67,1626.00 1404.00,1626.00 1404.00,1626.00
             1404.00,1626.00 1358.00,1625.33 1358.00,1625.33
             1358.00,1625.33 1315.33,1620.67 1314.67,1620.67
             1314.00,1620.67 1269.33,1621.33 1269.33,1620.67
             1269.33,1620.00 1228.67,1613.33 1228.67,1613.33
             1228.67,1613.33 1190.00,1611.33 1189.33,1611.33
             1188.67,1611.33 1151.33,1605.33 1151.33,1605.33
             1151.33,1605.33 1113.33,1602.67 1113.33,1602.67
             1113.33,1602.67 1063.33,1595.33 1063.33,1595.33
             1063.33,1595.33 1008.00,1587.33 1008.00,1587.33
             1008.00,1587.33 964.67,1582.00 964.67,1582.00
             964.67,1582.00 931.33,1574.00 931.33,1574.00
             931.33,1574.00 890.67,1560.67 890.67,1560.67
             890.67,1560.67 838.67,1546.67 838.67,1546.67
             838.67,1546.67 803.33,1532.00 803.33,1532.00
             803.33,1532.00 747.33,1516.67 747.33,1516.67
             747.33,1516.67 704.00,1508.67 704.00,1508.67
             704.00,1508.67 648.67,1495.33 648.67,1495.33
             648.67,1495.33 590.67,1482.00 590.67,1482.00
             590.67,1482.00 516.67,1463.33 516.67,1463.33
             516.67,1463.33 495.33,1452.00 495.33,1452.00
             495.33,1452.00 472.00,1444.67 472.00,1444.67
             472.00,1444.67 468.00,1434.67 468.00,1434.67
             468.00,1434.67 477.33,1421.33 477.33,1421.33
             477.33,1421.33 496.00,1411.33 496.00,1411.33
             496.00,1411.33 512.00,1404.00 512.00,1404.00
             512.00,1404.00 533.33,1396.00 533.33,1396.00
             533.33,1396.00 546.00,1390.00 546.00,1390.00
             546.00,1390.00 562.00,1384.67 562.00,1384.67
             562.00,1384.67 579.33,1374.00 579.33,1374.00
             579.33,1374.00 603.33,1369.33 603.33,1369.33
             603.33,1369.33 616.00,1359.33 616.00,1359.33
             616.00,1359.33 632.00,1359.33 632.00,1359.33
             632.00,1359.33 653.33,1352.00 653.33,1352.00" />
  <path id="Unnamed #30"
        fill="none" stroke="black" stroke-width="1"
        d="M 2176.00,1444.67
           C 2176.00,1444.67 2196.00,1455.33 2196.00,1455.33
             2196.00,1455.33 2214.00,1458.67 2214.00,1458.67
             2214.00,1458.67 2243.33,1464.67 2243.33,1464.67
             2243.33,1464.67 2256.67,1466.67 2256.67,1466.67
             2256.67,1466.67 2269.33,1466.67 2270.00,1466.67
             2270.67,1466.67 2284.67,1463.33 2284.67,1463.33
             2284.67,1463.33 2296.00,1459.33 2296.00,1459.33
             2296.00,1459.33 2310.00,1458.00 2310.00,1458.00
             2310.00,1458.00 2324.00,1446.67 2324.00,1446.67" />
  <path id="Unnamed #29"
        fill="none" stroke="black" stroke-width="1"
        d="M 2089.33,1047.33
           C 2089.33,1047.33 2104.00,1048.00 2104.67,1048.00
             2105.33,1048.00 2113.33,1052.67 2113.33,1052.67
             2113.33,1052.67 2122.00,1060.67 2122.67,1060.67
             2123.33,1060.67 2132.00,1069.33 2133.33,1071.33
             2134.67,1073.33 2141.33,1077.33 2141.33,1077.33
             2141.33,1077.33 2143.33,1091.33 2144.67,1091.33
             2146.00,1091.33 2156.00,1108.67 2156.00,1108.67
             2156.00,1108.67 2162.67,1124.00 2162.67,1124.00
             2162.67,1124.00 2165.33,1139.33 2165.33,1139.33
             2165.33,1139.33 2166.67,1154.00 2166.67,1154.00
             2166.67,1154.00 2176.67,1179.33 2176.67,1179.33
             2176.67,1179.33 2178.67,1196.00 2178.67,1196.00
             2178.67,1196.00 2181.33,1210.67 2181.33,1210.67
             2181.33,1210.67 2182.67,1224.67 2182.67,1224.67
             2182.67,1224.67 2186.67,1242.00 2186.67,1242.00
             2186.67,1242.00 2188.00,1255.33 2188.00,1256.00
             2188.00,1256.67 2187.33,1272.67 2187.33,1272.67
             2187.33,1272.67 2190.00,1290.00 2190.00,1290.00
             2190.00,1290.00 2188.00,1304.00 2188.00,1304.00
             2188.00,1304.00 2188.00,1317.33 2188.00,1317.33
             2188.00,1317.33 2188.00,1330.00 2188.00,1330.00
             2188.00,1330.00 2186.67,1343.33 2186.67,1343.33
             2186.67,1343.33 2186.00,1354.67 2186.00,1354.67
             2186.00,1354.67 2185.33,1366.00 2185.33,1366.00
             2185.33,1366.00 2185.33,1380.00 2185.33,1380.00
             2185.33,1380.00 2186.67,1388.67 2186.67,1388.67
             2186.67,1388.67 2184.00,1404.67 2184.00,1404.67
             2184.00,1404.67 2182.00,1422.67 2182.00,1422.67
             2182.00,1422.67 2176.67,1435.33 2176.67,1435.33
             2176.67,1435.33 2176.00,1448.00 2176.00,1448.00
             2176.00,1448.00 2172.00,1461.33 2172.00,1461.33
             2172.00,1461.33 2166.67,1468.67 2167.33,1469.33" />
  <path id="Unnamed #28"
        fill="none" stroke="black" stroke-width="1"
        d="M 2108.67,951.33
           C 2108.67,951.33 2124.67,952.00 2124.67,952.00
             2124.67,952.00 2141.33,962.67 2141.33,962.67
             2141.33,962.67 2162.00,974.00 2162.00,974.00
             2162.00,974.00 2172.67,981.33 2172.67,981.33
             2172.67,981.33 2186.67,990.00 2186.67,990.00
             2186.67,990.00 2201.33,1002.00 2201.33,1002.00
             2201.33,1002.00 2213.33,1010.67 2213.33,1010.67
             2213.33,1010.67 2226.00,1018.00 2226.00,1018.00
             2226.00,1018.00 2234.67,1028.67 2234.67,1028.67
             2234.67,1028.67 2241.33,1042.67 2241.33,1042.67
             2241.33,1042.67 2248.00,1052.00 2248.00,1052.00
             2248.00,1052.00 2252.00,1066.00 2252.00,1066.00
             2252.00,1066.00 2254.67,1083.33 2254.67,1083.33
             2254.67,1083.33 2258.67,1099.33 2258.67,1099.33
             2258.67,1099.33 2260.00,1122.00 2260.00,1122.00
             2260.00,1122.00 2261.33,1140.67 2261.33,1140.67
             2261.33,1140.67 2262.00,1160.67 2262.00,1160.67
             2262.00,1160.67 2262.67,1185.33 2262.67,1185.33
             2262.67,1185.33 2266.00,1209.33 2266.00,1209.33
             2266.00,1209.33 2266.67,1225.33 2266.67,1225.33
             2266.67,1225.33 2268.67,1242.00 2268.67,1242.67
             2268.67,1243.33 2270.00,1258.00 2270.00,1258.00
             2270.00,1258.00 2274.00,1272.67 2274.00,1272.67
             2274.00,1272.67 2278.67,1282.00 2278.67,1282.67
             2278.67,1283.33 2284.00,1295.33 2284.00,1295.33
             2284.00,1295.33 2290.00,1309.33 2290.00,1309.33
             2290.00,1309.33 2294.67,1324.00 2294.67,1324.00
             2294.67,1324.00 2300.00,1349.33 2300.00,1349.33
             2300.00,1349.33 2304.67,1365.33 2304.67,1365.33
             2304.67,1365.33 2306.67,1383.33 2306.67,1383.33
             2306.67,1383.33 2312.00,1398.00 2312.00,1398.00
             2312.00,1398.00 2314.00,1410.67 2314.00,1412.67
             2314.00,1414.67 2314.00,1426.67 2314.00,1426.67
             2314.00,1426.67 2316.67,1440.00 2316.67,1440.00
             2316.67,1440.00 2322.00,1450.00 2322.00,1450.00" />
  <path id="Unnamed #27"
        fill="none" stroke="black" stroke-width="1"
        d="M 2104.67,884.67
           C 2104.67,884.67 2112.67,902.00 2112.67,902.00
             2112.67,902.00 2114.00,912.67 2114.00,912.67
             2114.00,912.67 2114.00,924.67 2114.00,924.67
             2114.00,924.67 2118.00,934.00 2118.00,934.00
             2118.00,934.00 2118.67,945.33 2118.67,945.33
             2118.67,945.33 2118.67,963.33 2118.67,963.33
             2118.67,963.33 2118.67,978.00 2118.67,978.00
             2118.67,978.00 2116.00,992.00 2116.00,992.00
             2116.00,992.00 2110.67,1007.33 2110.67,1007.33
             2110.67,1007.33 2107.33,1022.00 2107.33,1022.00
             2107.33,1022.00 2101.33,1036.00 2101.33,1036.00
             2101.33,1036.00 2098.00,1049.33 2098.00,1049.33
             2098.00,1049.33 2094.67,1062.67 2094.67,1062.67
             2094.67,1062.67 2094.00,1074.00 2094.00,1074.00
             2094.00,1074.00 2088.67,1084.00 2088.67,1084.00" />
  <path id="Unnamed #26"
        fill="none" stroke="black" stroke-width="1"
        d="M 2038.67,1072.00
           C 2038.67,1072.00 2049.33,1075.33 2049.33,1075.33
             2049.33,1075.33 2059.33,1076.00 2059.33,1076.00
             2059.33,1076.00 2074.00,1080.00 2074.00,1080.00
             2074.00,1080.00 2088.00,1081.33 2088.00,1081.33
             2088.00,1081.33 2092.67,1083.33 2092.67,1083.33" />
  <path id="Unnamed #25"
        fill="none" stroke="black" stroke-width="1"
        d="M 2052.67,875.33
           C 2052.67,875.33 2066.67,876.00 2066.67,876.00
             2066.67,876.00 2075.33,878.67 2075.33,878.67
             2075.33,878.67 2094.00,880.00 2094.00,880.00
             2094.00,880.00 2103.33,884.00 2103.33,884.00" />
  <path id="Unnamed #24"
        fill="none" stroke="black" stroke-width="1"
        d="M 2010.00,954.67
           C 2010.00,954.67 2010.00,934.00 2010.00,934.00
             2010.00,934.00 2008.00,920.00 2008.00,920.00
             2008.00,920.00 2012.67,908.67 2012.67,908.67
             2012.67,908.67 2020.00,892.00 2020.00,892.00
             2020.00,892.00 2028.67,883.33 2028.67,883.33
             2028.67,883.33 2036.67,874.67 2036.67,874.67
             2036.67,874.67 2045.33,874.00 2045.33,874.00
             2045.33,874.00 2058.00,877.33 2058.00,877.33
             2058.00,877.33 2069.33,890.67 2069.33,890.67
             2069.33,890.67 2076.00,903.33 2076.00,903.33
             2076.00,903.33 2081.33,920.00 2081.33,920.00
             2081.33,920.00 2085.33,934.67 2085.33,934.67
             2085.33,934.67 2085.33,953.33 2085.33,953.33
             2085.33,953.33 2086.67,964.67 2086.67,964.67
             2086.67,964.67 2088.00,976.67 2088.00,976.67
             2088.00,976.67 2086.00,992.00 2086.00,992.00
             2086.00,992.00 2083.33,1006.00 2083.33,1006.00
             2083.33,1006.00 2082.00,1018.67 2082.00,1018.67
             2082.00,1018.67 2079.33,1028.67 2079.33,1028.67
             2079.33,1028.67 2076.00,1041.33 2076.00,1041.33
             2076.00,1041.33 2069.33,1050.00 2069.33,1050.00
             2069.33,1050.00 2059.33,1064.00 2059.33,1064.00
             2059.33,1064.00 2047.33,1068.67 2047.33,1068.67
             2047.33,1068.67 2040.00,1074.67 2040.00,1074.67
             2040.00,1074.67 2026.67,1071.33 2026.67,1071.33
             2026.67,1071.33 2017.33,1060.67 2017.33,1060.67
             2017.33,1060.67 2011.33,1054.67 2010.67,1054.67
             2010.00,1054.67 2005.33,1048.67 2005.33,1048.67
             2005.33,1048.67 2006.67,1030.00 2006.67,1030.00
             2006.67,1030.00 2005.33,1020.67 2005.33,1020.67
             2005.33,1020.67 2008.00,1013.33 2008.00,1013.33" />
  <path id="Unnamed #23"
        fill="none" stroke="black" stroke-width="1"
        d="M 1746.67,760.00
           C 1746.67,760.00 1746.67,774.67 1746.67,774.67
             1746.67,774.67 1750.00,789.33 1750.00,789.33
             1750.00,789.33 1749.33,797.33 1749.33,798.00
             1749.33,798.67 1755.33,816.00 1755.33,816.00
             1755.33,816.00 1762.67,834.67 1762.67,834.67
             1762.67,834.67 1768.67,849.33 1768.67,849.33
             1768.67,849.33 1778.67,864.67 1778.67,864.67
             1778.67,864.67 1796.67,885.33 1796.67,885.33
             1796.67,885.33 1810.00,892.67 1810.00,892.67
             1810.00,892.67 1828.00,905.33 1828.00,905.33
             1828.00,905.33 1844.00,912.00 1844.00,912.00
             1844.00,912.00 1862.67,922.00 1862.67,922.00
             1862.67,922.00 1882.67,926.67 1882.67,926.67
             1882.67,926.67 1896.67,930.67 1896.67,930.67
             1896.67,930.67 1913.33,932.00 1913.33,932.00
             1913.33,932.00 1928.67,933.33 1928.67,933.33
             1928.67,933.33 1943.33,936.00 1943.33,936.00
             1943.33,936.00 1954.67,937.33 1955.33,938.00
             1956.00,938.67 1974.00,942.67 1974.00,942.67
             1974.00,942.67 1989.33,942.67 1989.33,942.67
             1989.33,942.67 2002.67,942.00 2002.67,942.00
             2002.67,942.00 2018.67,945.33 2018.67,945.33
             2018.67,945.33 2030.00,946.00 2030.00,946.00
             2030.00,946.00 2040.00,944.67 2040.00,944.67" />
  <path id="Unnamed #22"
        fill="none" stroke="black" stroke-width="1"
        d="M 1656.67,771.33
           C 1656.67,771.33 1656.67,784.00 1656.67,784.67
             1656.67,785.33 1657.33,794.67 1657.33,794.67
             1657.33,794.67 1656.67,814.00 1656.67,814.00
             1656.67,814.00 1657.33,838.67 1657.33,838.67
             1657.33,838.67 1660.00,854.67 1660.00,854.67
             1660.00,854.67 1662.00,875.33 1662.00,875.33
             1662.00,875.33 1668.00,894.00 1668.00,894.00
             1668.00,894.00 1685.33,909.33 1685.33,909.33
             1685.33,909.33 1708.00,926.00 1708.00,926.00
             1708.00,926.00 1738.00,941.33 1738.00,941.33
             1738.00,941.33 1762.00,948.67 1762.00,948.67
             1762.00,948.67 1773.33,947.33 1773.33,947.33
             1773.33,947.33 1801.33,952.00 1801.33,952.00
             1801.33,952.00 1822.67,953.33 1822.67,953.33
             1822.67,953.33 1847.33,960.67 1847.33,960.67
             1847.33,960.67 1875.33,972.67 1875.33,972.67
             1875.33,972.67 1898.67,980.00 1898.67,980.00
             1898.67,980.00 1916.67,986.67 1916.67,986.67
             1916.67,986.67 1940.00,996.00 1940.00,996.00
             1940.00,996.00 1958.00,1006.67 1958.00,1006.67
             1958.00,1006.67 1970.67,1014.67 1970.67,1014.67
             1970.67,1014.67 1986.00,1026.00 1986.00,1026.00
             1986.00,1026.00 2000.00,1032.67 2000.00,1032.67
             2000.00,1032.67 2010.67,1040.00 2010.67,1040.00
             2010.67,1040.00 2024.00,1044.67 2024.00,1044.67" />
  <path id="Unnamed #20"
        fill="none" stroke="black" stroke-width="1"
        d="M 1658.00,770.00
           C 1658.00,770.00 1668.00,764.67 1668.00,764.67
             1668.00,764.67 1671.33,758.67 1672.00,758.67
             1672.67,758.67 1682.00,756.67 1682.00,756.67
             1682.00,756.67 1690.67,751.33 1690.67,751.33
             1690.67,751.33 1702.00,748.00 1702.00,748.00
             1702.00,748.00 1714.67,749.33 1714.67,749.33
             1714.67,749.33 1728.00,752.00 1728.00,752.00
             1728.00,752.00 1738.67,756.00 1738.67,756.00
             1738.67,756.00 1748.67,763.33 1748.67,764.00" />
  <path id="Unnamed #21"
        fill="none" stroke="black" stroke-width="1"
        d="M 1658.00,809.33
           C 1658.00,809.33 1643.33,802.00 1642.67,802.67
             1642.00,803.33 1631.33,800.67 1631.33,800.67
             1631.33,800.67 1624.00,790.67 1624.00,790.67
             1624.00,790.67 1614.00,782.00 1614.00,782.00
             1614.00,782.00 1606.00,774.67 1606.00,774.67
             1606.00,774.67 1604.67,770.67 1604.67,770.67
             1604.67,770.67 1611.33,759.33 1611.33,759.33
             1611.33,759.33 1620.67,754.67 1620.67,754.67
             1620.67,754.67 1636.00,749.33 1636.00,749.33
             1636.00,749.33 1646.00,742.00 1646.00,742.00
             1646.00,742.00 1658.00,734.00 1658.00,734.00
             1658.00,734.00 1668.67,729.33 1668.67,729.33
             1668.67,729.33 1678.00,725.33 1678.00,725.33
             1678.00,725.33 1694.67,726.67 1694.67,726.67
             1694.67,726.67 1710.67,730.67 1710.67,730.67
             1710.67,730.67 1726.00,731.33 1726.00,731.33
             1726.00,731.33 1738.00,731.33 1738.00,731.33
             1738.00,731.33 1752.00,737.33 1752.00,737.33
             1752.00,737.33 1766.00,741.33 1766.00,741.33
             1766.00,741.33 1782.00,746.00 1782.00,746.00
             1782.00,746.00 1794.00,751.33 1794.00,751.33
             1794.00,751.33 1806.00,759.33 1806.00,759.33
             1806.00,759.33 1814.00,768.00 1814.00,768.00
             1814.00,768.00 1821.33,776.00 1821.33,776.00
             1821.33,776.00 1813.33,769.33 1813.33,769.33
             1813.33,769.33 1806.67,778.00 1806.67,778.00
             1806.67,778.00 1798.67,788.67 1798.67,788.67
             1798.67,788.67 1784.67,798.00 1784.67,798.00
             1784.67,798.00 1772.67,803.33 1772.67,803.33
             1772.67,803.33 1762.00,808.67 1762.00,808.67
             1762.00,808.67 1753.33,814.00 1753.33,814.00
             1753.33,814.00 1738.67,814.00 1738.67,814.00" />
  <path id="Unnamed #19"
        fill="none" stroke="black" stroke-width="1"
        d="M 1605.33,768.00
           C 1605.33,768.00 1603.33,754.00 1603.33,754.00
             1603.33,754.00 1602.67,742.67 1602.67,742.67
             1602.67,742.67 1603.33,730.00 1603.33,730.00" />
  <path id="Unnamed #18"
        fill="none" stroke="black" stroke-width="1"
        d="M 1826.67,778.67
           C 1826.67,778.67 1828.00,767.33 1828.00,767.33
             1828.00,767.33 1830.67,756.67 1830.67,756.67
             1830.67,756.67 1832.67,742.67 1832.67,742.67
             1832.67,742.67 1836.00,733.33 1836.00,733.33" />
  <path id="Unnamed #17"
        fill="none" stroke="black" stroke-width="1"
        d="M 1603.33,730.67
           C 1603.33,730.67 1614.67,722.67 1614.67,722.67
             1614.67,722.67 1625.33,716.00 1625.33,716.00
             1625.33,716.00 1638.00,712.67 1640.00,712.67
             1642.00,712.67 1654.67,708.67 1654.67,708.67
             1654.67,708.67 1674.00,702.00 1674.00,702.00
             1674.00,702.00 1693.33,698.00 1693.33,698.00
             1693.33,698.00 1710.67,694.67 1710.67,694.67
             1710.67,694.67 1720.67,694.00 1720.67,694.00
             1720.67,694.00 1738.00,690.00 1737.33,690.67
             1736.67,691.33 1746.00,695.33 1746.00,695.33
             1746.00,695.33 1758.00,695.33 1758.00,695.33
             1758.00,695.33 1780.67,701.33 1780.67,701.33
             1780.67,701.33 1796.67,702.67 1796.67,702.67
             1796.67,702.67 1810.67,714.67 1810.67,714.67
             1810.67,714.67 1822.00,726.00 1822.00,726.00
             1822.00,726.00 1831.33,736.67 1831.33,736.67" />
  <path id="Unnamed #16"
        fill="none" stroke="black" stroke-width="1"
        d="M 1416.00,679.33
           C 1416.00,679.33 1408.67,664.67 1408.67,664.67
             1408.67,664.67 1407.33,650.67 1407.33,650.67
             1407.33,650.67 1408.67,632.00 1408.67,632.00
             1408.67,632.00 1412.00,615.33 1412.00,615.33
             1412.00,615.33 1420.00,599.33 1420.00,599.33
             1420.00,599.33 1430.67,585.33 1430.67,585.33
             1430.67,585.33 1446.67,572.00 1446.67,572.00
             1446.67,572.00 1462.00,563.33 1462.00,563.33
             1462.00,563.33 1483.33,558.67 1483.33,558.67
             1483.33,558.67 1513.33,552.67 1513.33,552.67
             1513.33,552.67 1531.33,554.00 1531.33,554.00
             1531.33,554.00 1548.00,556.67 1548.00,556.67
             1548.00,556.67 1564.67,560.67 1564.67,560.67
             1564.67,560.67 1582.00,569.33 1582.67,569.33
             1583.33,569.33 1600.00,584.00 1600.00,584.00
             1600.00,584.00 1608.67,588.67 1608.67,588.67
             1608.67,588.67 1616.67,598.67 1616.67,598.67
             1616.67,598.67 1630.67,611.33 1630.67,611.33
             1630.67,611.33 1638.67,625.33 1638.67,625.33
             1638.67,625.33 1642.67,636.67 1642.67,636.67
             1642.67,636.67 1648.67,650.00 1648.67,650.00
             1648.67,650.00 1652.00,666.00 1652.00,666.00
             1652.00,666.00 1656.00,676.00 1656.00,676.00
             1656.00,676.00 1660.67,690.00 1660.67,690.00
             1660.67,690.00 1660.00,697.33 1660.00,697.33" />
  <path id="Unnamed #15"
        fill="none" stroke="black" stroke-width="1"
        d="M 1328.00,666.00
           C 1328.00,666.00 1326.00,646.00 1326.00,646.00
             1326.00,646.00 1326.67,629.33 1326.67,629.33
             1326.67,629.33 1330.67,606.00 1330.67,606.00
             1330.67,606.00 1337.33,588.67 1337.33,588.67
             1337.33,588.67 1342.00,570.00 1342.00,570.00
             1342.00,570.00 1348.67,555.33 1348.67,555.33
             1348.67,555.33 1354.00,540.67 1354.00,540.67
             1354.00,540.67 1364.00,528.00 1364.00,528.00
             1364.00,528.00 1375.33,512.67 1375.33,512.67
             1375.33,512.67 1386.00,501.33 1386.00,501.33
             1386.00,501.33 1398.00,488.00 1398.00,488.00
             1398.00,488.00 1414.00,476.67 1414.00,476.67
             1414.00,476.67 1428.67,468.00 1428.67,468.00
             1428.67,468.00 1448.00,458.67 1448.00,458.67
             1448.00,458.67 1462.67,451.33 1462.67,451.33
             1462.67,451.33 1480.67,448.67 1480.67,448.67
             1480.67,448.67 1496.67,445.33 1496.67,445.33
             1496.67,445.33 1514.00,443.33 1514.00,443.33
             1514.00,443.33 1533.33,441.33 1533.33,441.33
             1533.33,441.33 1550.00,447.33 1550.00,447.33
             1550.00,447.33 1572.00,450.67 1572.00,450.67
             1572.00,450.67 1590.67,454.67 1590.67,454.67
             1590.67,454.67 1612.67,464.00 1612.67,464.00
             1612.67,464.00 1631.33,474.67 1632.00,474.67
             1632.67,474.67 1652.67,485.33 1652.67,485.33
             1652.67,485.33 1666.00,500.00 1666.00,500.00
             1666.00,500.00 1677.33,517.33 1677.33,517.33
             1677.33,517.33 1692.67,539.33 1692.67,539.33
             1692.67,539.33 1701.33,559.33 1701.33,559.33
             1701.33,559.33 1711.33,574.67 1711.33,574.67
             1711.33,574.67 1722.67,597.33 1722.67,597.33
             1722.67,597.33 1724.00,614.67 1724.00,614.67
             1724.00,614.67 1732.67,625.33 1732.67,625.33
             1732.67,625.33 1734.00,641.33 1734.00,641.33
             1734.00,641.33 1736.00,656.00 1736.00,656.00
             1736.00,656.00 1734.67,667.33 1734.67,667.33
             1734.67,667.33 1733.33,679.33 1733.33,679.33
             1733.33,679.33 1735.33,685.33 1735.33,685.33" />
  <path id="Unnamed #14"
        fill="none" stroke="black" stroke-width="1"
        d="M 1460.00,695.33
           C 1460.00,695.33 1448.00,690.67 1448.00,690.67
             1448.00,690.67 1432.67,685.33 1432.67,685.33
             1432.67,685.33 1421.33,680.67 1421.33,680.67
             1421.33,680.67 1406.00,676.00 1406.00,676.00
             1406.00,676.00 1394.67,674.00 1394.67,674.00
             1394.67,674.00 1379.33,670.67 1379.33,670.67
             1379.33,670.67 1368.00,668.67 1368.00,668.67
             1368.00,668.67 1354.00,668.67 1354.00,668.67
             1354.00,668.67 1338.00,668.67 1338.00,668.67
             1338.00,668.67 1320.00,668.67 1320.00,668.67
             1320.00,668.67 1304.67,670.00 1304.67,670.00
             1304.67,670.00 1288.00,672.67 1288.00,672.67" />
  <path id="Unnamed #13"
        fill="none" stroke="black" stroke-width="1"
        d="M 1273.33,742.00
           C 1273.33,742.00 1276.67,726.00 1276.67,726.00
             1276.67,726.00 1278.00,716.67 1278.00,716.67
             1278.00,716.67 1278.67,706.00 1278.67,706.00
             1278.67,706.00 1282.00,693.33 1282.00,693.33
             1282.00,693.33 1285.33,681.33 1285.33,681.33
             1285.33,681.33 1287.33,670.67 1287.33,670.67" />
  <path id="Unnamed #12"
        fill="none" stroke="black" stroke-width="1"
        d="M 1460.67,800.00
           C 1460.67,800.00 1469.33,788.67 1469.33,788.67
             1469.33,788.67 1475.33,770.67 1475.33,770.67
             1475.33,770.67 1480.67,754.00 1480.67,754.00
             1480.67,754.00 1480.67,738.67 1480.67,738.67
             1480.67,738.67 1480.00,724.67 1480.00,724.67
             1480.00,724.67 1475.33,712.00 1475.33,712.00
             1475.33,712.00 1468.67,703.33 1468.67,703.33
             1468.67,703.33 1462.67,694.00 1462.67,694.00" />
  <path id="Unnamed #11"
        fill="none" stroke="black" stroke-width="1"
        d="M 1324.00,785.33
           C 1324.00,785.33 1310.67,780.67 1310.67,780.67
             1310.67,780.67 1299.33,778.00 1299.33,778.00
             1299.33,778.00 1288.67,770.67 1288.67,770.67
             1288.67,770.67 1279.33,763.33 1279.33,763.33
             1279.33,763.33 1274.67,752.67 1274.67,752.67
             1274.67,752.67 1275.33,740.67 1275.33,740.67
             1275.33,740.67 1282.67,731.33 1282.67,731.33
             1282.67,731.33 1293.33,726.00 1293.33,726.00
             1293.33,726.00 1306.00,718.00 1306.00,718.00
             1306.00,718.00 1318.67,715.33 1318.67,715.33
             1318.67,715.33 1334.67,714.00 1334.67,714.00
             1334.67,714.00 1350.67,713.33 1350.67,713.33
             1350.67,713.33 1364.67,715.33 1364.67,715.33
             1364.67,715.33 1378.67,716.67 1378.67,716.67
             1378.67,716.67 1392.00,719.33 1392.00,719.33
             1392.00,719.33 1402.67,720.67 1402.67,720.67
             1402.67,720.67 1420.00,724.67 1420.00,724.67
             1420.00,724.67 1434.00,729.33 1434.00,729.33
             1434.00,729.33 1447.33,736.00 1447.33,736.00
             1447.33,736.00 1453.33,748.00 1453.33,748.00
             1453.33,748.00 1460.00,762.67 1460.00,762.67
             1460.00,762.67 1459.33,776.67 1459.33,776.67
             1459.33,776.67 1456.00,788.67 1456.00,788.67
             1456.00,788.67 1448.00,796.00 1448.00,796.00
             1448.00,796.00 1434.67,802.00 1434.67,802.00
             1434.67,802.00 1423.33,802.67 1423.33,802.67
             1423.33,802.67 1409.33,804.00 1409.33,804.00
             1409.33,804.00 1398.00,803.33 1398.00,803.33
             1398.00,803.33 1392.00,802.67 1392.00,802.67" />
  <path id="Unnamed #10"
        fill="none" stroke="black" stroke-width="1"
        d="M 1345.33,758.00
           C 1345.33,758.00 1358.00,755.33 1358.00,755.33
             1358.00,755.33 1370.00,756.00 1370.00,756.00
             1370.00,756.00 1381.33,761.33 1381.33,761.33
             1381.33,761.33 1390.00,771.33 1390.00,771.33
             1390.00,771.33 1396.00,780.00 1396.00,780.00
             1396.00,780.00 1399.33,784.67 1399.33,784.67" />
  <path id="Unnamed #9"
        fill="none" stroke="black" stroke-width="1"
        d="M 1148.00,1020.00
           C 1148.00,1020.00 1162.67,1020.67 1162.67,1020.67
             1162.67,1020.67 1176.00,1023.33 1176.00,1023.33
             1176.00,1023.33 1194.00,1024.67 1194.00,1024.67
             1194.00,1024.67 1209.33,1027.33 1209.33,1027.33
             1209.33,1027.33 1232.00,1027.33 1232.00,1027.33
             1232.00,1027.33 1246.67,1026.00 1246.67,1026.00
             1246.67,1026.00 1262.67,1020.67 1262.67,1020.67
             1262.67,1020.67 1282.00,1014.00 1282.00,1014.00
             1282.00,1014.00 1297.33,1007.33 1297.33,1007.33
             1297.33,1007.33 1310.67,1000.00 1310.67,1000.00
             1310.67,1000.00 1323.33,990.00 1323.33,990.00
             1323.33,990.00 1338.00,978.67 1338.00,978.67
             1338.00,978.67 1350.67,971.33 1350.67,971.33
             1350.67,971.33 1362.00,959.33 1362.00,959.33
             1362.00,959.33 1377.33,940.00 1377.33,940.00
             1377.33,940.00 1386.67,922.67 1386.67,922.67
             1386.67,922.67 1394.67,897.33 1394.67,897.33
             1394.67,897.33 1403.33,875.33 1403.33,875.33
             1403.33,875.33 1406.00,852.67 1406.00,852.67
             1406.00,852.67 1409.33,834.00 1409.33,834.00
             1409.33,834.00 1412.67,813.33 1412.67,813.33
             1412.67,813.33 1411.33,796.00 1411.33,796.00
             1411.33,796.00 1411.33,776.00 1411.33,776.00
             1411.33,776.00 1407.33,768.67 1407.33,768.67" />
  <path id="Unnamed #8"
        fill="none" stroke="black" stroke-width="1"
        d="M 1146.00,944.67
           C 1146.00,944.67 1156.00,945.33 1156.00,945.33
             1156.00,945.33 1172.67,945.33 1172.67,945.33
             1172.67,945.33 1186.00,945.33 1186.00,945.33
             1186.00,945.33 1200.00,942.00 1200.00,942.00
             1200.00,942.00 1213.33,938.67 1213.33,938.67
             1213.33,938.67 1228.67,930.00 1228.67,930.00
             1228.67,930.00 1239.33,920.67 1239.33,920.67
             1239.33,920.67 1250.00,908.00 1250.00,908.00
             1250.00,908.00 1258.67,896.00 1258.67,896.00
             1258.67,896.00 1268.67,881.33 1268.67,881.33
             1268.67,881.33 1277.33,868.67 1277.33,868.67
             1277.33,868.67 1285.33,856.00 1285.33,856.00
             1285.33,856.00 1297.33,838.67 1297.33,838.67
             1297.33,838.67 1304.67,822.00 1304.67,822.00
             1304.67,822.00 1316.67,805.33 1316.67,805.33
             1316.67,805.33 1322.00,791.33 1322.00,791.33
             1322.00,791.33 1333.33,778.67 1333.33,778.67
             1333.33,778.67 1338.67,768.67 1338.67,768.67
             1338.67,768.67 1344.67,760.00 1344.67,760.00" />
  <path id="Unnamed #7"
        fill="none" stroke="black" stroke-width="1"
        d="M 1061.00,1111.00
           C 1061.00,1111.00 1074.00,1111.00 1074.00,1111.00
             1074.00,1111.00 1093.00,1107.00 1093.00,1107.00
             1093.00,1107.00 1108.00,1104.00 1108.00,1104.00
             1108.00,1104.00 1129.00,1103.00 1129.00,1103.00" />
  <path id="Unnamed #6"
        fill="none" stroke="black" stroke-width="1"
        d="M 1129.00,1110.00
           C 1129.00,1110.00 1133.00,1096.00 1133.00,1095.00
             1133.00,1094.00 1139.00,1069.00 1139.00,1069.00
             1139.00,1069.00 1142.00,1043.00 1142.00,1043.00
             1142.00,1043.00 1144.00,1008.00 1144.00,1008.00
             1144.00,1008.00 1144.00,974.00 1144.00,974.00
             1144.00,974.00 1145.00,949.00 1145.00,949.00
             1145.00,949.00 1140.00,920.00 1140.00,920.00
             1140.00,920.00 1136.00,899.00 1136.00,899.00
             1136.00,899.00 1131.00,874.00 1131.00,874.00
             1131.00,874.00 1125.00,863.00 1125.00,863.00" />
  <path id="Unnamed #5"
        fill="none" stroke="black" stroke-width="1"
        d="M 1019.00,866.00
           C 1019.00,866.00 1029.00,862.00 1032.00,862.00
             1035.00,862.00 1051.00,861.00 1051.00,861.00
             1051.00,861.00 1062.00,861.00 1062.00,861.00
             1062.00,861.00 1081.00,857.00 1081.00,857.00
             1081.00,857.00 1097.00,859.00 1097.00,859.00
             1097.00,859.00 1113.00,860.00 1113.00,860.00
             1113.00,860.00 1123.00,860.00 1123.00,860.00" />
  <path id="Unnamed #4"
        fill="none" stroke="black" stroke-width="1"
        d="M 1020.00,1054.00
           C 1020.00,1054.00 1019.00,1064.00 1019.00,1064.00
             1019.00,1064.00 1020.00,1080.00 1020.00,1080.00
             1020.00,1080.00 1026.00,1090.00 1026.00,1090.00
             1026.00,1090.00 1033.00,1103.00 1033.00,1103.00
             1033.00,1103.00 1046.00,1111.00 1046.00,1111.00
             1046.00,1111.00 1060.00,1107.00 1060.00,1107.00
             1060.00,1107.00 1075.00,1093.00 1075.00,1093.00
             1075.00,1093.00 1087.00,1085.00 1087.00,1085.00
             1087.00,1085.00 1099.00,1066.00 1099.00,1066.00
             1099.00,1066.00 1104.00,1039.00 1104.00,1039.00
             1104.00,1039.00 1109.00,1015.00 1109.00,1015.00
             1109.00,1015.00 1109.00,985.00 1109.00,985.00
             1109.00,985.00 1105.00,952.00 1105.00,952.00
             1105.00,952.00 1097.00,927.00 1097.00,927.00
             1097.00,927.00 1088.00,909.00 1088.00,909.00
             1088.00,909.00 1076.00,893.00 1076.00,893.00
             1076.00,893.00 1057.00,879.00 1057.00,879.00
             1057.00,879.00 1036.00,876.00 1036.00,876.00
             1036.00,876.00 1016.00,870.00 1016.00,870.00
             1016.00,870.00 1015.00,886.00 1015.00,886.00
             1015.00,886.00 1015.00,907.00 1015.00,907.00
             1015.00,907.00 1017.00,921.00 1017.00,921.00
             1017.00,921.00 1020.00,940.00 1020.00,940.00" />
  <path id="Unnamed #3"
        fill="none" stroke="black" stroke-width="1"
        d="M 1046.00,939.50
           C 1046.00,939.50 1051.00,947.25 1051.00,947.25
             1051.00,947.25 1055.50,958.50 1055.50,958.50
             1055.50,958.50 1058.50,969.00 1058.50,969.00
             1058.50,969.00 1060.75,979.25 1060.75,979.25
             1060.75,979.25 1064.00,992.75 1064.00,992.75
             1064.00,992.75 1065.50,1005.00 1065.50,1005.00
             1065.50,1005.00 1067.00,1017.50 1067.00,1017.50
             1067.00,1017.50 1065.25,1030.50 1065.25,1030.50
             1065.25,1030.50 1064.25,1040.75 1064.25,1040.75
             1064.25,1040.75 1060.75,1048.75 1060.75,1048.75
             1060.75,1048.75 1057.50,1058.50 1057.50,1058.50
             1057.50,1058.50 1051.50,1064.50 1051.50,1064.50" />
  <path id="Unnamed #2"
        fill="none" stroke="black" stroke-width="1"
        d="M 667.50,1371.00
           C 667.50,1371.00 682.50,1378.50 682.50,1378.50
             682.50,1378.50 694.50,1380.00 696.00,1380.00
             697.50,1380.00 711.00,1389.00 711.00,1389.00
             711.00,1389.00 729.00,1390.50 729.00,1390.50
             729.00,1390.50 748.50,1386.00 748.50,1386.00
             748.50,1386.00 763.50,1381.50 763.50,1381.50
             763.50,1381.50 783.00,1380.00 783.00,1380.00
             783.00,1380.00 798.00,1374.00 798.00,1374.00" />
  <path id="Unnamed #1"
        fill="none" stroke="black" stroke-width="1"
        d="M 814.00,1384.00
           C 814.00,1384.00 802.00,1356.00 802.00,1356.00
             802.00,1356.00 794.00,1326.00 794.00,1326.00
             794.00,1326.00 792.00,1284.00 792.00,1284.00
             792.00,1284.00 786.00,1248.00 786.00,1248.00
             786.00,1248.00 792.00,1214.00 792.00,1214.00
             792.00,1214.00 804.00,1184.00 804.00,1184.00
             804.00,1184.00 820.00,1164.00 820.00,1164.00
             820.00,1164.00 824.00,1138.00 824.00,1138.00
             824.00,1138.00 846.00,1114.00 846.00,1114.00
             846.00,1114.00 862.00,1086.00 862.00,1086.00
             862.00,1086.00 888.00,1068.00 888.00,1068.00
             888.00,1068.00 912.00,1060.00 912.00,1060.00
             912.00,1060.00 936.00,1060.00 936.00,1060.00
             936.00,1060.00 962.00,1056.00 962.00,1056.00
             962.00,1056.00 988.00,1058.00 988.00,1058.00
             988.00,1058.00 1014.00,1056.00 1014.00,1056.00
             1014.00,1056.00 1036.00,1056.00 1036.00,1056.00
             1036.00,1056.00 1052.00,1064.00 1052.00,1064.00" />
  <path id="Unnamed"
        fill="none" stroke="black" stroke-width="1"
        d="M 664.00,1370.00
           C 664.00,1370.00 674.00,1344.00 674.00,1344.00
             674.00,1344.00 682.00,1316.00 682.00,1316.00
             682.00,1316.00 686.00,1274.00 686.00,1274.00
             686.00,1274.00 690.00,1240.00 690.00,1240.00
             690.00,1240.00 692.00,1196.00 692.00,1196.00
             692.00,1196.00 698.00,1144.00 698.00,1144.00
             698.00,1144.00 704.00,1110.00 704.00,1110.00
             704.00,1110.00 716.00,1084.00 716.00,1084.00
             716.00,1084.00 734.00,1056.00 734.00,1056.00
             734.00,1056.00 756.00,1020.00 756.00,1020.00
             756.00,1020.00 782.00,980.00 782.00,980.00
             782.00,980.00 814.00,962.00 814.00,962.00
             814.00,962.00 842.00,948.00 842.00,948.00
             842.00,948.00 874.00,946.00 874.00,946.00
             874.00,946.00 902.00,936.00 902.00,936.00
             902.00,936.00 930.00,934.00 930.00,934.00
             930.00,934.00 970.00,934.00 970.00,934.00
             970.00,934.00 990.00,934.00 990.00,934.00
             990.00,934.00 1016.00,938.00 1016.00,938.00
             1016.00,938.00 1042.00,940.00 1042.00,940.00" />
</svg>
