<?xml version="1.0" encoding="UTF-8" standalone="no"?>
<!-- Created with Inkscape (http://www.inkscape.org/) -->

<svg
   xmlns:dc="http://purl.org/dc/elements/1.1/"
   xmlns:cc="http://creativecommons.org/ns#"
   xmlns:rdf="http://www.w3.org/1999/02/22-rdf-syntax-ns#"
   xmlns:svg="http://www.w3.org/2000/svg"
   xmlns="http://www.w3.org/2000/svg"
   xmlns:sodipodi="http://sodipodi.sourceforge.net/DTD/sodipodi-0.dtd"
   xmlns:inkscape="http://www.inkscape.org/namespaces/inkscape"
   id="svg2985"
   version="1.1"
   inkscape:version="0.48.3.1 r9886"
   width="897"
   height="836"
   sodipodi:docname="menorah.svg">
  <metadata
     id="metadata2991">
    <rdf:RDF>
      <cc:Work
         rdf:about="">
        <dc:format>image/svg+xml</dc:format>
        <dc:type
           rdf:resource="http://purl.org/dc/dcmitype/StillImage" />
        <dc:title></dc:title>
      </cc:Work>
    </rdf:RDF>
  </metadata>
  <defs
     id="defs2989" />
  <sodipodi:namedview
     pagecolor="#ffffff"
     bordercolor="#666666"
     borderopacity="1"
     objecttolerance="10"
     gridtolerance="10"
     guidetolerance="10"
     inkscape:pageopacity="0"
     inkscape:pageshadow="2"
     inkscape:window-width="1366"
     inkscape:window-height="706"
     id="namedview2987"
     showgrid="false"
     inkscape:zoom="0.44574794"
     inkscape:cx="435.79953"
     inkscape:cy="460.66317"
     inkscape:window-x="-8"
     inkscape:window-y="-8"
     inkscape:window-maximized="1"
     inkscape:current-layer="svg2985" />
  <path
     style="fill:none;stroke:#000000;stroke-width:0.80805492px;stroke-linecap:butt;stroke-linejoin:miter;stroke-opacity:1"
     d="m 562.66062,168.54864 10.53635,1.10996 9.25577,1.05304 7.93248,1.95656 9.97784,2.84941 2.92753,2.69639 0.6865,2.59675 -0.57985,2.21967 -2.39759,3.42197 -5.88721,6.15384 -5.8836,2.46505 -5.05476,1.86034 -9.49412,0.70065 -8.51233,0.26312 -10.87072,-0.80406 -10.09171,-0.28826 -5.69146,-1.85691 -4.3753,-2.60036 -3.26189,-2.39046 -2.88481,-3.65682 -0.32367,-3.54294 2.04897,-2.79592 4.66707,-3.96265 5.78756,-3.91281 7.63729,-2.2267 6.27843,-0.52282 5.31087,-0.40545 z"
     id="path2995-1-9"
     inkscape:connector-curvature="0" />
  <path
     style="fill:none;stroke:#000000;stroke-width:1px;stroke-linecap:butt;stroke-linejoin:miter;stroke-opacity:1"
     d="m 605.18786,182.42884 0,5.35389 -1.38805,8.32827 -0.19829,6.54365 -1.58634,5.35389 -1.78463,5.75047 -2.97438,2.97439 -4.16414,3.17267 -3.96584,2.37951 -4.16414,2.18121 -2.18121,3.17268 -0.99147,3.37097 -0.19829,3.76755 0.39659,3.37097 0.39658,1.98292"
     id="path3093"
     inkscape:connector-curvature="0" />
  <path
     style="fill:none;stroke:#000000;stroke-width:1px;stroke-linecap:butt;stroke-linejoin:miter;stroke-opacity:1"
     d="m 529.44023,188.37761 0.79317,7.33681 0.39658,6.94023 0.19829,5.55218 1.38805,4.36243 2.97438,4.16414 4.36243,4.16413 5.55218,3.96585 6.34536,2.97438 5.35388,1.18975 2.18122,0.99146 2.37951,2.7761 0,2.3795 0.19829,3.17268 0,1.78463"
     id="path3095"
     inkscape:connector-curvature="0" />
  <path
     style="fill:none;stroke:#000000;stroke-width:0.2323281px;stroke-linecap:butt;stroke-linejoin:miter;stroke-opacity:1"
     d="m 581.69519,239.35667 -1.67002,1.79332 -1.66898,0.71835 -1.43388,0.54213 -2.69318,0.20418 -2.41468,0.0767 -3.08368,-0.23432 -2.8627,-0.084 -1.61449,-0.54113 -1.24114,-0.75778 -0.92529,-0.69662 -0.81833,-1.06565 -0.0918,-1.03246"
     id="path2995-1-5"
     inkscape:connector-curvature="0"
     sodipodi:nodetypes="ccccccccccccc" />
  <path
     style="fill:none;stroke:#000000;stroke-width:0.80805492px;stroke-linecap:butt;stroke-linejoin:miter;stroke-opacity:1"
     d="m 665.34565,160.81948 10.53635,1.10996 9.25577,1.05304 7.93248,1.95656 9.97784,2.84941 2.92753,2.69639 0.6865,2.59675 -0.57985,2.21967 -2.39759,3.42197 -5.88721,6.15384 -5.8836,2.46505 -5.05476,1.86034 -9.49412,0.70065 -8.51233,0.26312 -10.87072,-0.80406 -10.09171,-0.28826 -5.69146,-1.85691 -4.3753,-2.60036 -3.26189,-2.39046 -2.88481,-3.65682 -0.32367,-3.54294 2.04897,-2.79592 4.66707,-3.96265 5.78756,-3.91281 7.63729,-2.2267 6.27843,-0.52282 5.31087,-0.40545 z"
     id="path2995-1-9-1"
     inkscape:connector-curvature="0" />
  <path
     style="fill:none;stroke:#000000;stroke-width:1px;stroke-linecap:butt;stroke-linejoin:miter;stroke-opacity:1"
     d="m 707.87289,174.69968 0,5.35389 -1.38805,8.32827 -0.19829,6.54365 -1.58634,5.35389 -1.78463,5.75047 -2.97438,2.97439 -4.16414,3.17267 -3.96584,2.37951 -4.16414,2.18121 -2.18121,3.17268 -0.99147,3.37097 -0.19829,3.76755 0.39659,3.37097 0.39658,1.98292"
     id="path3093-1"
     inkscape:connector-curvature="0" />
  <path
     style="fill:none;stroke:#000000;stroke-width:1px;stroke-linecap:butt;stroke-linejoin:miter;stroke-opacity:1"
     d="m 632.12526,180.64845 0.79317,7.33681 0.39658,6.94023 0.19829,5.55218 1.38805,4.36243 2.97438,4.16414 4.36243,4.16413 5.55218,3.96585 6.34536,2.97438 5.35388,1.18975 2.18122,0.99146 2.37951,2.7761 0,2.3795 0.19829,3.17268 0,1.78463"
     id="path3095-5"
     inkscape:connector-curvature="0" />
  <path
     style="fill:none;stroke:#000000;stroke-width:0.2323281px;stroke-linecap:butt;stroke-linejoin:miter;stroke-opacity:1"
     d="m 684.38022,231.62751 -1.67002,1.79332 -1.66898,0.71835 -1.43388,0.54213 -2.69318,0.20418 -2.41468,0.0767 -3.08368,-0.23432 -2.8627,-0.084 -1.61449,-0.54113 -1.24114,-0.75778 -0.92529,-0.69662 -0.81833,-1.06565 -0.0918,-1.03246"
     id="path2995-1-5-2"
     inkscape:connector-curvature="0"
     sodipodi:nodetypes="ccccccccccccc" />
  <path
     style="fill:none;stroke:#000000;stroke-width:0.80805492px;stroke-linecap:butt;stroke-linejoin:miter;stroke-opacity:1"
     d="m 757.32589,154.08922 10.53636,1.10996 9.2558,1.05304 7.9324,1.95656 9.9779,2.84941 2.9275,2.69639 0.6865,2.59675 -0.5798,2.21967 -2.3976,3.42197 -5.8872,6.15384 -5.8836,2.46505 -5.0548,1.86034 -9.4941,0.70065 -8.51235,0.26312 -10.87072,-0.80406 -10.09171,-0.28826 -5.69146,-1.85691 -4.3753,-2.60036 -3.26189,-2.39046 -2.88481,-3.65682 -0.32367,-3.54294 2.04897,-2.79592 4.66707,-3.96265 5.78756,-3.91281 7.63729,-2.2267 6.27843,-0.52282 5.31087,-0.40545 z"
     id="path2995-1-9-7"
     inkscape:connector-curvature="0" />
  <path
     style="fill:none;stroke:#000000;stroke-width:1px;stroke-linecap:butt;stroke-linejoin:miter;stroke-opacity:1"
     d="m 799.85315,167.96942 0,5.35389 -1.3881,8.32827 -0.1983,6.54365 -1.5863,5.35389 -1.7846,5.75047 -2.9744,2.97439 -4.1642,3.17267 -3.9658,2.37951 -4.1641,2.18121 -2.1812,3.17268 -0.9915,3.37097 -0.1983,3.76755 0.3966,3.37097 0.3966,1.98292"
     id="path3093-6"
     inkscape:connector-curvature="0" />
  <path
     style="fill:none;stroke:#000000;stroke-width:1px;stroke-linecap:butt;stroke-linejoin:miter;stroke-opacity:1"
     d="m 724.1055,173.91819 0.79317,7.33681 0.39658,6.94023 0.19829,5.55218 1.38805,4.36243 2.97438,4.16414 4.36243,4.16413 5.55218,3.96585 6.34536,2.97438 5.35388,1.18975 2.18122,0.99146 2.37951,2.7761 0,2.3795 0.19829,3.17268 0,1.78463"
     id="path3095-1"
     inkscape:connector-curvature="0" />
  <path
     style="fill:none;stroke:#000000;stroke-width:0.2323281px;stroke-linecap:butt;stroke-linejoin:miter;stroke-opacity:1"
     d="m 776.36045,224.89725 -1.67,1.79332 -1.669,0.71835 -1.4339,0.54213 -2.6932,0.20418 -2.4146,0.0767 -3.0837,-0.23432 -2.86271,-0.084 -1.61449,-0.54113 -1.24114,-0.75778 -0.92529,-0.69662 -0.81833,-1.06565 -0.0918,-1.03246"
     id="path2995-1-5-4"
     inkscape:connector-curvature="0"
     sodipodi:nodetypes="ccccccccccccc" />
  <path
     style="fill:none;stroke:#000000;stroke-width:0.80805492px;stroke-linecap:butt;stroke-linejoin:miter;stroke-opacity:1"
     d="m 851.54957,148.48067 10.5363,1.10996 9.2558,1.05304 7.9325,1.95656 9.9778,2.84941 2.9275,2.69639 0.6865,2.59675 -0.5798,2.21967 -2.3976,3.42197 -5.8872,6.15384 -5.8836,2.46505 -5.0548,1.86034 -9.4941,0.70065 -8.5123,0.26312 -10.8707,-0.80406 -10.0918,-0.28826 -5.6914,-1.85691 -4.3753,-2.60036 -3.2619,-2.39046 -2.8848,-3.65682 -0.3237,-3.54294 2.049,-2.79592 4.6671,-3.96265 5.7875,-3.91281 7.6373,-2.2267 6.2784,-0.52282 5.3109,-0.40545 z"
     id="path2995-1-9-2"
     inkscape:connector-curvature="0" />
  <path
     style="fill:none;stroke:#000000;stroke-width:1px;stroke-linecap:butt;stroke-linejoin:miter;stroke-opacity:1"
     d="m 894.07677,162.36087 0,5.35389 -1.388,8.32827 -0.1983,6.54365 -1.5864,5.35389 -1.7846,5.75047 -2.9744,2.97439 -4.1641,3.17267 -3.9659,2.37951 -4.1641,2.18121 -2.1812,3.17268 -0.9915,3.37097 -0.1983,3.76755 0.3966,3.37097 0.3966,1.98292"
     id="path3093-3"
     inkscape:connector-curvature="0" />
  <path
     style="fill:none;stroke:#000000;stroke-width:1px;stroke-linecap:butt;stroke-linejoin:miter;stroke-opacity:1"
     d="m 818.32917,168.30964 0.7931,7.33681 0.3966,6.94023 0.1983,5.55218 1.3881,4.36243 2.9743,4.16414 4.3625,4.16413 5.5522,3.96585 6.3453,2.97438 5.3539,1.18975 2.1812,0.99146 2.3795,2.7761 0,2.3795 0.1983,3.17268 0,1.78463"
     id="path3095-2"
     inkscape:connector-curvature="0" />
  <path
     style="fill:none;stroke:#000000;stroke-width:0.2323281px;stroke-linecap:butt;stroke-linejoin:miter;stroke-opacity:1"
     d="m 870.58407,219.2887 -1.67,1.79332 -1.669,0.71835 -1.4338,0.54213 -2.6932,0.20418 -2.4147,0.0767 -3.0837,-0.23432 -2.8627,-0.084 -1.6145,-0.54113 -1.2411,-0.75778 -0.9253,-0.69662 -0.8183,-1.06565 -0.092,-1.03246"
     id="path2995-1-5-21"
     inkscape:connector-curvature="0"
     sodipodi:nodetypes="ccccccccccccc" />
  <path
     style="fill:none;stroke:#000000;stroke-width:0.80805492px;stroke-linecap:butt;stroke-linejoin:miter;stroke-opacity:1"
     d="m 54.269755,193.28767 10.53635,1.10996 9.25577,1.05304 7.93248,1.95656 9.97784,2.84941 2.92753,2.69639 0.6865,2.59675 -0.57985,2.21967 -2.39759,3.42197 -5.88721,6.15384 -5.8836,2.46505 -5.05476,1.86034 -9.49412,0.70065 -8.51233,0.26312 -10.87072,-0.80406 -10.09171,-0.28826 -5.69146,-1.85691 -4.3753,-2.60036 -3.26189,-2.39046 -2.88481,-3.65682 -0.32367,-3.54294 2.04897,-2.79592 4.66707,-3.96265 5.78756,-3.91281 7.63729,-2.2267 6.27843,-0.52282 5.31087,-0.40545 z"
     id="path2995-1-9-6"
     inkscape:connector-curvature="0" />
  <path
     style="fill:none;stroke:#000000;stroke-width:1px;stroke-linecap:butt;stroke-linejoin:miter;stroke-opacity:1"
     d="m 96.796995,207.16787 0,5.35389 -1.38805,8.32827 -0.19829,6.54365 -1.58634,5.35389 -1.78463,5.75047 -2.97438,2.97439 -4.16414,3.17267 -3.96584,2.37951 -4.16414,2.18121 -2.18121,3.17268 -0.99147,3.37097 -0.19829,3.76755 0.39659,3.37097 0.39658,1.98292"
     id="path3093-8"
     inkscape:connector-curvature="0" />
  <path
     style="fill:none;stroke:#000000;stroke-width:1px;stroke-linecap:butt;stroke-linejoin:miter;stroke-opacity:1"
     d="m 21.049365,213.11664 0.79317,7.33681 0.39658,6.94023 0.19829,5.55218 1.38805,4.36243 2.97438,4.16414 4.36243,4.16413 5.55218,3.96585 6.34536,2.97438 5.35388,1.18975 2.18122,0.99146 2.37951,2.7761 0,2.3795 0.19829,3.17268 0,1.78463"
     id="path3095-57"
     inkscape:connector-curvature="0" />
  <path
     style="fill:none;stroke:#000000;stroke-width:0.2323281px;stroke-linecap:butt;stroke-linejoin:miter;stroke-opacity:1"
     d="m 73.304325,264.0957 -1.67002,1.79332 -1.66898,0.71835 -1.43388,0.54213 -2.69318,0.20418 -2.41468,0.0767 -3.08368,-0.23432 -2.8627,-0.084 -1.61449,-0.54113 -1.24114,-0.75778 -0.92529,-0.69662 -0.81833,-1.06565 -0.0918,-1.03246"
     id="path2995-1-5-6"
     inkscape:connector-curvature="0"
     sodipodi:nodetypes="ccccccccccccc" />
  <path
     style="fill:none;stroke:#000000;stroke-width:0.80805492px;stroke-linecap:butt;stroke-linejoin:miter;stroke-opacity:1"
     d="m 156.95478,185.55851 10.53635,1.10996 9.25577,1.05304 7.93248,1.95656 9.97784,2.84941 2.92753,2.69639 0.6865,2.59675 -0.57985,2.21967 -2.39759,3.42197 -5.88721,6.15384 -5.8836,2.46505 -5.05476,1.86034 -9.49412,0.70065 -8.51233,0.26312 -10.87072,-0.80406 -10.09171,-0.28826 -5.69146,-1.85691 -4.3753,-2.60036 -3.26189,-2.39046 -2.88481,-3.65682 -0.32367,-3.54294 2.04897,-2.79592 4.66707,-3.96265 5.78756,-3.91281 7.63729,-2.2267 6.27843,-0.52282 5.31087,-0.40545 z"
     id="path2995-1-9-1-1"
     inkscape:connector-curvature="0" />
  <path
     style="fill:none;stroke:#000000;stroke-width:1px;stroke-linecap:butt;stroke-linejoin:miter;stroke-opacity:1"
     d="m 199.48202,199.43871 0,5.35389 -1.38805,8.32827 -0.19829,6.54365 -1.58634,5.35389 -1.78463,5.75047 -2.97438,2.97439 -4.16414,3.17267 -3.96584,2.37951 -4.16414,2.18121 -2.18121,3.17268 -0.99147,3.37097 -0.19829,3.76755 0.39659,3.37097 0.39658,1.98292"
     id="path3093-1-8"
     inkscape:connector-curvature="0" />
  <path
     style="fill:none;stroke:#000000;stroke-width:1px;stroke-linecap:butt;stroke-linejoin:miter;stroke-opacity:1"
     d="m 123.73439,205.38748 0.79317,7.33681 0.39658,6.94023 0.19829,5.55218 1.38805,4.36243 2.97438,4.16414 4.36243,4.16413 5.55218,3.96585 6.34536,2.97438 5.35388,1.18975 2.18122,0.99146 2.37951,2.7761 0,2.3795 0.19829,3.17268 0,1.78463"
     id="path3095-5-9"
     inkscape:connector-curvature="0" />
  <path
     style="fill:none;stroke:#000000;stroke-width:0.2323281px;stroke-linecap:butt;stroke-linejoin:miter;stroke-opacity:1"
     d="m 175.98935,256.36654 -1.67002,1.79332 -1.66898,0.71835 -1.43388,0.54213 -2.69318,0.20418 -2.41468,0.0767 -3.08368,-0.23432 -2.8627,-0.084 -1.61449,-0.54113 -1.24114,-0.75778 -0.92529,-0.69662 -0.81833,-1.06565 -0.0918,-1.03246"
     id="path2995-1-5-2-2"
     inkscape:connector-curvature="0"
     sodipodi:nodetypes="ccccccccccccc" />
  <path
     style="fill:none;stroke:#000000;stroke-width:0.80805492px;stroke-linecap:butt;stroke-linejoin:miter;stroke-opacity:1"
     d="m 248.93502,178.82825 10.53636,1.10996 9.2558,1.05304 7.9324,1.95656 9.9779,2.84941 2.9275,2.69639 0.6865,2.59675 -0.5798,2.21967 -2.3976,3.42197 -5.8872,6.15384 -5.8836,2.46505 -5.0548,1.86034 -9.4941,0.70065 -8.51235,0.26312 -10.87072,-0.80406 -10.09171,-0.28826 -5.69146,-1.85691 -4.3753,-2.60036 -3.26189,-2.39046 -2.88481,-3.65682 -0.32367,-3.54294 2.04897,-2.79592 4.66707,-3.96265 5.78756,-3.91281 7.63729,-2.2267 6.27843,-0.52282 5.31087,-0.40545 z"
     id="path2995-1-9-7-7"
     inkscape:connector-curvature="0" />
  <path
     style="fill:none;stroke:#000000;stroke-width:1px;stroke-linecap:butt;stroke-linejoin:miter;stroke-opacity:1"
     d="m 291.46228,192.70845 0,5.35389 -1.3881,8.32827 -0.1983,6.54365 -1.5863,5.35389 -1.7846,5.75047 -2.9744,2.97439 -4.1642,3.17267 -3.9658,2.37951 -4.1641,2.18121 -2.1812,3.17268 -0.9915,3.37097 -0.1983,3.76755 0.3966,3.37097 0.3966,1.98292"
     id="path3093-6-9"
     inkscape:connector-curvature="0" />
  <path
     style="fill:none;stroke:#000000;stroke-width:1px;stroke-linecap:butt;stroke-linejoin:miter;stroke-opacity:1"
     d="m 215.71463,198.65722 0.79317,7.33681 0.39658,6.94023 0.19829,5.55218 1.38805,4.36243 2.97438,4.16414 4.36243,4.16413 5.55218,3.96585 6.34536,2.97438 5.35388,1.18975 2.18122,0.99146 2.37951,2.7761 0,2.3795 0.19829,3.17268 0,1.78463"
     id="path3095-1-5"
     inkscape:connector-curvature="0" />
  <path
     style="fill:none;stroke:#000000;stroke-width:0.2323281px;stroke-linecap:butt;stroke-linejoin:miter;stroke-opacity:1"
     d="m 267.96958,249.63628 -1.67,1.79332 -1.669,0.71835 -1.4339,0.54213 -2.6932,0.20418 -2.4146,0.0767 -3.0837,-0.23432 -2.86271,-0.084 -1.61449,-0.54113 -1.24114,-0.75778 -0.92529,-0.69662 -0.81833,-1.06565 -0.0918,-1.03246"
     id="path2995-1-5-4-4"
     inkscape:connector-curvature="0"
     sodipodi:nodetypes="ccccccccccccc" />
  <path
     style="fill:none;stroke:#000000;stroke-width:0.80805492px;stroke-linecap:butt;stroke-linejoin:miter;stroke-opacity:1"
     d="m 343.15867,173.2197 10.5363,1.10996 9.2558,1.05304 7.9325,1.95656 9.9778,2.84941 2.9275,2.69639 0.6865,2.59675 -0.5798,2.21967 -2.3976,3.42197 -5.8872,6.15384 -5.8836,2.46505 -5.0548,1.86034 -9.4941,0.70065 -8.5123,0.26312 -10.8707,-0.80406 -10.0918,-0.28826 -5.6914,-1.85691 -4.3753,-2.60036 -3.26187,-2.39046 -2.8848,-3.65682 -0.3237,-3.54294 2.049,-2.79592 4.66707,-3.96265 5.7875,-3.91281 7.6373,-2.2267 6.2784,-0.52282 5.3109,-0.40545 z"
     id="path2995-1-9-2-3"
     inkscape:connector-curvature="0" />
  <path
     style="fill:none;stroke:#000000;stroke-width:1px;stroke-linecap:butt;stroke-linejoin:miter;stroke-opacity:1"
     d="m 385.68587,187.0999 0,5.35389 -1.388,8.32827 -0.1983,6.54365 -1.5864,5.35389 -1.7846,5.75047 -2.9744,2.97439 -4.1641,3.17267 -3.9659,2.37951 -4.1641,2.18121 -2.1812,3.17268 -0.9915,3.37097 -0.1983,3.76755 0.3966,3.37097 0.3966,1.98292"
     id="path3093-3-1"
     inkscape:connector-curvature="0" />
  <path
     style="fill:none;stroke:#000000;stroke-width:1px;stroke-linecap:butt;stroke-linejoin:miter;stroke-opacity:1"
     d="m 309.9383,193.04867 0.7931,7.33681 0.3966,6.94023 0.1983,5.55218 1.3881,4.36243 2.97427,4.16414 4.3625,4.16413 5.5522,3.96585 6.3453,2.97438 5.3539,1.18975 2.1812,0.99146 2.3795,2.7761 0,2.3795 0.1983,3.17268 0,1.78463"
     id="path3095-2-2"
     inkscape:connector-curvature="0" />
  <path
     style="fill:none;stroke:#000000;stroke-width:0.2323281px;stroke-linecap:butt;stroke-linejoin:miter;stroke-opacity:1"
     d="m 362.19317,244.02773 -1.67,1.79332 -1.669,0.71835 -1.4338,0.54213 -2.6932,0.20418 -2.4147,0.0767 -3.0837,-0.23432 -2.8627,-0.084 -1.6145,-0.54113 -1.2411,-0.75778 -0.9253,-0.69662 -0.8183,-1.06565 -0.092,-1.03246"
     id="path2995-1-5-21-3"
     inkscape:connector-curvature="0"
     sodipodi:nodetypes="ccccccccccccc" />
  <path
     style="fill:none;stroke:#000000;stroke-width:1px;stroke-linecap:butt;stroke-linejoin:miter;stroke-opacity:1"
     d="m 561.9768,239.81103 0,8.41283 0,10.09539 -2.80427,8.41283 -7.85197,10.65625 -12.33881,9.53453 -15.14309,6.73026 -22.43421,6.16941 -17.94736,0.56085 -12.89967,2.24343 -12.33881,0 -23.55591,0.56085 -16.82565,-0.56085 -15.14309,-1.68257 -13.46052,-1.68257 -6.16941,-7.29111 -7.29112,-6.16941 -5.04769,-7.29111 -3.36513,-7.29112 -3.92599,-14.58223 -1.12171,-12.33881"
     id="path3272"
     inkscape:connector-curvature="0" />
  <path
     style="fill:none;stroke:#000000;stroke-width:1px;stroke-linecap:butt;stroke-linejoin:miter;stroke-opacity:1"
     d="m 583.2893,240.37189 0,17.94736 -2.80428,16.82566 -4.48684,8.97368 -8.41282,11.2171 -12.89967,7.85197 -16.2648,8.41283 -18.50822,4.48684 -25.79933,6.73026 -22.99506,1.12171 -20.19078,2.24342 -21.87335,1.12171 -16.82566,-2.24342 -20.19078,-3.92599 -13.46052,-6.1694 -11.77796,-10.09539 -8.97368,-12.89967 -5.60855,-14.58223 -6.16941,-12.89967 -2.24342,-11.77796 -1.12171,-8.97368"
     id="path3274"
     inkscape:connector-curvature="0" />
  <path
     style="fill:none;stroke:#000000;stroke-width:1px;stroke-linecap:butt;stroke-linejoin:miter;stroke-opacity:1"
     d="m 665.735,231.95906 -1.12171,9.53454 -1.12171,15.14309 -1.68257,14.58223 -5.04769,14.58223 -5.0477,13.46052 -5.0477,12.33882 -6.73026,12.89966 -11.77795,12.89967 -10.0954,11.2171 -12.33881,7.85197 -14.02138,6.16941 -14.02137,3.36513 -19.06908,3.92599 -13.46052,3.92598 -16.82565,1.68257 -17.94736,2.80427 -15.14309,1.12171 -15.14309,0 -20.19078,0 -18.50822,0 -21.87335,-1.68256 -26.92104,-5.0477 -16.82566,-6.1694 -19.06907,-4.48684 -17.94736,-9.53454 -15.14309,-9.53454 -16.2648,-14.02138 -12.33881,-14.02137 -11.2171,-13.46053 -6.73026,-7.85197 -4.48684,-12.89966 -4.48684,-7.85197 0,-7.29112 0,-8.41283 -0.56086,-7.85197"
     id="path3294"
     inkscape:connector-curvature="0" />
  <path
     style="fill:none;stroke:#000000;stroke-width:1px;stroke-linecap:butt;stroke-linejoin:miter;stroke-opacity:1"
     d="m 685.36493,231.95906 0,24.11677 -3.36514,30.28618 -3.36513,15.70394 -6.73026,19.06907 -11.77795,19.62993 -17.38651,20.19079 -15.14309,10.65624 -22.99506,12.33881 -25.23848,8.97369 -24.11677,6.73026 -37.01643,4.48684 -29.16447,1.12171 -25.23848,0.56085 -31.96874,-0.56085 -30.84703,-2.80428 -30.28617,-5.04769 -24.67763,-6.16941 -22.99506,-14.02138 -19.62992,-15.14308 -17.38651,-19.06908 -14.58223,-20.75164 -10.65625,-16.26479 -6.73026,-16.82566 -4.48684,-19.62993 -0.56086,-11.77795 -1.12171,-7.85197"
     id="path3298"
     inkscape:connector-curvature="0" />
  <path
     style="fill:none;stroke:#000000;stroke-width:1.0157131px;stroke-linecap:butt;stroke-linejoin:miter;stroke-opacity:1"
     d="m 755.97181,221.30282 0,8.41282 -2.31447,19.62993 -1.73585,13.46052 -4.62897,20.19079 -5.78619,15.70394 -4.62895,16.82565 -3.47172,16.82566 -9.2579,20.19078 -12.151,20.75164 -12.72962,14.02137 -16.77996,16.2648 -19.67304,14.58223 -21.98753,11.21711 -19.09443,9.53453 -27.77372,9.53454 -30.08819,8.97368 -27.1951,4.48684 -26.03787,2.24342 -26.03786,2.24342 -21.98752,-1.12171 -30.66681,-1.68256 -27.77372,-3.36513 -24.88063,-6.16941 -30.66681,-8.41283 -22.56614,-9.53453 -23.14477,-7.85197 -14.46548,-7.85197 -24.88062,-10.65625 -21.98753,-11.2171 -20.83028,-18.50822 -15.0441,-21.3125 -11.57239,-21.87334 -7.52204,-21.87335 -5.78619,-21.3125 -0.57863,-15.14308 -2.31447,-13.46053 -1.15724,-8.97368"
     id="path3300"
     inkscape:connector-curvature="0"
     sodipodi:nodetypes="cccccccccccccccccccccccccccccccccccccc" />
  <path
     style="fill:none;stroke:#000000;stroke-width:1.00352514px;stroke-linecap:butt;stroke-linejoin:miter;stroke-opacity:1"
     d="m 777.28431,225.22881 0,8.41282 0,9.53454 -3.3889,27.48189 -2.25927,21.87335 -7.34261,24.67763 -7.3426,22.4342 -6.21299,18.50822 -9.03706,22.99506 -15.25004,22.99506 -19.76857,19.62993 -24.85191,16.26479 -33.32416,18.50822 -31.06489,15.14309 -27.11119,12.33881 -35.0186,8.97368 -28.24082,2.24342 -38.4075,3.92599 -27.11118,2.24342 -32.75935,-2.24342 -37.27787,-2.24342 -25.41673,-2.24342 -25.98154,-7.85197 -28.24083,-6.16941 -22.02783,-12.33881 -19.20376,-11.77796 -19.76856,-12.33881 -21.46301,-19.62993 -18.63895,-20.19078 -14.68522,-25.23848 -9.03706,-22.43421 -7.34261,-21.31249 -9.60188,-19.62993 -9.60187,-21.31249 -5.64816,-15.70394 -0.56482,-13.46053 0,-10.09539 1.69445,-3.92598"
     id="path3302"
     inkscape:connector-curvature="0"
     sodipodi:nodetypes="cccccccccccccccccccccccccccccccccccccc" />
  <path
     style="fill:none;stroke:#000000;stroke-width:1.0083195px;stroke-linecap:butt;stroke-linejoin:miter;stroke-opacity:1"
     d="m 850.73682,216.81598 0,10.65624 0,10.65625 -2.85114,14.58223 -2.28089,9.53454 -5.70227,30.84703 -7.41293,26.36019 -11.40452,39.25985 -8.55339,31.96875 -13.1152,32.52959 -14.82587,29.16447 -17.62078,22.99505 -17.68638,21.31249 -22.83714,21.3125 -25.10868,16.2648 -31.36243,12.89967 -34.21356,7.85197 -34.21356,3.92598 -39.34559,1.68257 -27.37084,2.24342 -38.77536,1.68256 -34.78379,0 -27.37084,1.12171 -38.77536,-0.56085 -31.93265,-3.92599 -31.36243,-7.29111 -26.23039,-10.09539 -27.37084,-8.97369 -33.07311,-14.58223 -30.7922,-14.02138 -23.37926,-15.14308 -26.80062,-18.50822 -22.80905,-16.82565 -22.23881,-20.19079 -17.67699,-19.06907 -11.974752,-26.36019 -9.693842,-23.55591 -7.983162,-33.65131 -1.140452,-26.36019 1.140452,-22.4342 1.710677,-19.62993"
     id="path3304"
     inkscape:connector-curvature="0"
     sodipodi:nodetypes="ccccccccccccccccccccccccccccccccccccccccc" />
  <path
     style="fill:none;stroke:#000000;stroke-width:0.99753517px;stroke-linecap:butt;stroke-linejoin:miter;stroke-opacity:1"
     d="m 872.62643,220.74196 -0.58018,20.75164 0.56639,18.50822 -2.23515,12.89967 -2.79048,28.6036 -8.37139,25.79934 -11.71997,28.60361 -10.60378,26.36019 -7.25522,25.23848 -6.13903,22.99506 -5.58094,19.62993 -12.27807,18.50821 -20.09136,28.60361 -17.85901,17.38651 -17.85899,15.70394 -17.859,19.06908 -21.76566,14.58223 -25.11422,12.33881 -32.36943,8.41283 -32.92753,4.48684 -33.48562,4.48684 -34.60182,2.24342 -31.25324,2.80428 -29.02088,0 -32.92753,0.56085 -27.34659,0.56086 -34.04371,-1.68257 -28.46279,0 -31.81133,-1.68257 -34.04372,-4.48684 -33.48563,-7.29111 -26.23041,-7.85197 L 220.7564,566.78955 196.20028,553.88989 175.55081,536.50338 154.90134,518.55602 137.04235,501.73036 116.39288,482.66129 101.32434,468.07906 90.720561,451.25341 76.746127,436.67117 64.440452,414.23697 59.406563,395.1679 53.81458,369.92942 48.802783,352.54291 46.02612,328.98699 l -1.105141,-15.70394 1.688087,-16.2648 3.928748,-12.89966 0.558093,-8.41283 1e-6,-10.09539"
     id="path3306"
     inkscape:connector-curvature="0"
     sodipodi:nodetypes="ccccccccccccccccccccccccccccccccccccccccccccccccccc" />
  <path
     style="fill:none;stroke:#000000;stroke-width:0.95373422px;stroke-linecap:butt;stroke-linejoin:miter;stroke-opacity:1"
     d="m 435.73879,31.895646 12.43594,1.310067 10.92436,1.242887 9.3626,2.309296 11.77664,3.363113 3.4554,3.182506 0.81026,3.064902 -0.68445,2.619841 -2.82985,4.038896 -6.94856,7.263279 -6.94432,2.909459 -5.96598,2.195729 -11.20585,0.826966 -10.04694,0.310556 -12.83051,-0.949019 -11.91107,-0.340229 -6.71759,-2.191681 -5.16407,-3.069163 -3.84995,-2.821421 -3.4049,-4.316086 -0.38202,-4.181675 2.41836,-3.29998 5.50847,-4.677052 6.83103,-4.618227 9.01406,-2.628138 7.41041,-0.617076 6.26825,-0.478546 z"
     id="path2995-1-9-4"
     inkscape:connector-curvature="0" />
  <path
     style="fill:none;stroke:#000000;stroke-width:1.1802839px;stroke-linecap:butt;stroke-linejoin:miter;stroke-opacity:1"
     d="m 485.93296,48.278223 0,6.31911 -1.63823,9.829723 -0.23405,7.723365 -1.87229,6.319111 -2.10645,6.787187 -3.51052,3.510625 -4.91494,3.744651 -4.68077,2.808498 -4.91494,2.574446 -2.57443,3.744671 -1.17014,3.9787 -0.23405,4.44678 0.4681,3.9787 0.46799,2.34041"
     id="path3093-11"
     inkscape:connector-curvature="0" />
  <path
     style="fill:none;stroke:#000000;stroke-width:1.1802839px;stroke-linecap:butt;stroke-linejoin:miter;stroke-opacity:1"
     d="m 396.5293,55.29946 0.93616,8.659519 0.46808,8.191442 0.23404,6.553149 1.63829,5.148906 3.51061,4.914868 5.1489,4.914856 6.55317,4.680829 7.48937,3.510611 6.31901,1.40425 2.57455,1.1702 2.80849,3.27659 0,2.80848 0.23405,3.74467 0,2.10637"
     id="path3095-3"
     inkscape:connector-curvature="0" />
  <path
     style="fill:none;stroke:#000000;stroke-width:0.27421314px;stroke-linecap:butt;stroke-linejoin:miter;stroke-opacity:1"
     d="m 458.20502,115.46923 -1.97107,2.11663 -1.9699,0.84785 -1.69241,0.63987 -3.17874,0.24099 -2.85003,0.0905 -3.63952,-0.27657 -3.3788,-0.0991 -1.90557,-0.63869 -1.46497,-0.89439 -1.09211,-0.82221 -0.96583,-1.25777 -0.10859,-1.2186"
     id="path2995-1-5-8"
     inkscape:connector-curvature="0"
     sodipodi:nodetypes="ccccccccccccc" />
  <path
     style="fill:none;stroke:#000000;stroke-width:1px;stroke-linecap:butt;stroke-linejoin:miter;stroke-opacity:1"
     d="m 435.22355,116.98377 0,22.99506 0,36.45558 0.56086,37.01644 0.56085,54.96379 c 0,0 3.36513,36.45559 3.36513,39.82072 0,3.36513 -1.12171,44.30755 -1.12171,44.30755 l -0.56085,50.47696 -0.56086,48.79439 0,34.77302 -1.68256,36.45558 3.36513,36.45558 -1.68257,21.31249 2.80428,27.4819 -1.12171,35.33387 -1.68257,27.4819"
     id="path3335"
     inkscape:connector-curvature="0" />
  <path
     style="fill:none;stroke:#000000;stroke-width:1px;stroke-linecap:butt;stroke-linejoin:miter;stroke-opacity:1"
     d="m 459.34032,116.98377 3.36513,38.699 2.80428,43.18584 3.92598,25.23848 1.12171,32.5296 3.92599,34.77301 0,33.65131 1.68257,22.99506 0.56085,28.60361 2.80428,32.52959 2.24342,23.55592 1.68256,23.55591 1.12171,26.36019 2.80428,34.77302 0,30.28617 -0.56086,22.43421 -3.92598,16.82565 -1.12171,28.04275 0.56085,25.23848 -3.92598,20.19079 0,11.2171"
     id="path3337"
     inkscape:connector-curvature="0" />
  <path
     style="fill:none;stroke:#000000;stroke-width:0.46259552px;stroke-linecap:butt;stroke-linejoin:miter;stroke-opacity:1"
     d="m 477.52431,672.22637 -3.32519,3.57073 -3.3232,1.43032 -2.85509,1.07946 -5.36251,0.40655 -4.80798,0.15267 -6.13984,-0.46657 -5.70001,-0.16718 -3.21468,-1.07747 -2.4714,-1.50883 -1.84238,-1.38706 -1.62934,-2.12185 -0.1832,-2.05577"
     id="path2995-1-5-8-7"
     inkscape:connector-curvature="0"
     sodipodi:nodetypes="ccccccccccccc" />
  <path
     style="fill:none;stroke:#000000;stroke-width:2.09016776px;stroke-linecap:butt;stroke-linejoin:miter;stroke-opacity:1"
     d="m 549.39502,791.63345 -15.02433,16.13385 -15.01539,6.46265 -12.90028,4.87737 -24.22968,1.83692 -21.72412,0.68982 -27.74196,-2.10812 -25.75462,-0.75538 -14.52506,-4.86836 -11.16662,-6.81743 -8.32452,-6.26722 -7.36196,-9.58726 -0.82772,-9.28866"
     id="path2995-1-5-8-4"
     inkscape:connector-curvature="0"
     sodipodi:nodetypes="ccccccccccccc" />
  <path
     style="fill:none;stroke:#000000;stroke-width:1px;stroke-linecap:butt;stroke-linejoin:miter;stroke-opacity:1"
     d="m 438.02783,673.35202 -2.24342,12.33881 -3.92599,9.53454 -12.89966,8.41283 -12.33882,3.92598 -10.65624,5.60855 -9.53454,10.65625 -7.29112,13.46052 -7.29111,12.89967 -5.0477,14.58223 -0.56085,11.77796 -2.80428,8.41283 0,7.29111"
     id="path3364"
     inkscape:connector-curvature="0" />
  <path
     style="fill:none;stroke:#000000;stroke-width:1px;stroke-linecap:butt;stroke-linejoin:miter;stroke-opacity:1"
     d="m 478.4094,673.91288 1.12171,10.65624 3.36513,11.21711 7.29111,6.73026 13.46052,8.41282 11.21711,3.92599 14.58223,7.29112 6.73026,8.97368 6.73026,10.09539 5.0477,16.82565 -0.56086,14.58223 -1.12171,11.21711 0.56086,9.53453"
     id="path3366"
     inkscape:connector-curvature="0" />
</svg>
