<?xml version="1.0" encoding="UTF-8" standalone="no"?>
<!DOCTYPE svg PUBLIC "-//W3C//DTD SVG 20010904//EN"
              "http://www.w3.org/TR/2001/REC-SVG-20010904/DTD/svg10.dtd">

<svg xmlns="http://www.w3.org/2000/svg"
     width="11.3333in" height="8.5in"
     viewBox="0 0 816 612">
  <path id="Unnamed #30"
        fill="none" stroke="black" stroke-width="1"
        d="M 619.33,395.33
           C 619.33,395.33 554.67,395.67 554.67,395.67
             554.67,395.67 517.33,396.67 517.33,396.67
             517.33,396.67 461.00,398.00 461.00,398.00
             461.00,398.00 441.33,399.67 441.33,399.67
             441.33,399.67 428.33,400.67 428.33,400.67" />
  <path id="Unnamed #29"
        fill="none" stroke="black" stroke-width="1"
        d="M 617.33,389.67
           C 617.33,389.67 627.33,380.00 627.33,380.00
             627.33,380.00 637.67,368.33 637.67,368.33" />
  <path id="Unnamed #28"
        fill="none" stroke="black" stroke-width="1"
        d="M 612.33,347.67
           C 612.33,347.67 637.67,367.00 637.67,367.00" />
  <path id="Unnamed #27"
        fill="none" stroke="black" stroke-width="1"
        d="M 618.33,392.33
           C 618.33,392.33 594.67,371.33 594.67,371.33" />
  <path id="Unnamed #26"
        fill="none" stroke="black" stroke-width="1"
        d="M 611.33,347.00
           C 611.33,347.00 594.33,369.67 594.33,369.67" />
  <path id="Unnamed #25"
        fill="none" stroke="black" stroke-width="1"
        d="M 410.33,379.33
           C 410.33,379.33 433.67,377.00 433.67,377.00
             433.67,377.00 475.67,374.67 475.67,374.67
             475.67,374.67 525.00,373.67 525.00,373.67
             525.00,373.67 560.33,371.33 560.33,371.33
             560.33,371.33 596.00,368.67 596.00,368.67" />
  <path id="Unnamed #24"
        fill="none" stroke="black" stroke-width="1"
        d="M 409.00,382.33
           C 409.00,382.33 419.67,390.33 419.67,390.33
             419.67,390.33 428.33,400.00 428.33,400.00" />
  <path id="Unnamed #23"
        fill="none" stroke="black" stroke-width="1"
        d="M 432.00,354.33
           C 432.00,354.33 443.00,352.33 443.00,352.33
             443.00,352.33 467.33,351.00 467.33,351.00
             467.33,351.00 501.00,350.33 501.00,350.33
             501.00,350.33 552.33,348.67 552.33,348.67
             552.33,348.67 601.00,347.33 601.00,347.33
             601.00,347.33 612.00,346.67 612.00,347.00" />
  <path id="Unnamed #22"
        fill="none" stroke="black" stroke-width="1"
        d="M 409.67,379.67
           C 409.67,379.67 430.67,354.33 430.67,354.33" />
  <path id="Unnamed #21"
        fill="none" stroke="black" stroke-width="1"
        d="M 572.67,233.67
           C 572.67,233.67 591.67,252.67 591.67,252.67" />
  <path id="Unnamed #20"
        fill="none" stroke="black" stroke-width="1"
        d="M 591.67,253.00
           C 591.67,253.00 577.00,269.00 577.00,269.00" />
  <path id="Unnamed #19"
        fill="none" stroke="black" stroke-width="1"
        d="M 573.33,232.00
           C 573.33,232.00 560.33,249.67 560.33,249.67" />
  <path id="Unnamed #18"
        fill="none" stroke="black" stroke-width="1"
        d="M 560.67,251.33
           C 560.67,251.33 577.67,269.00 577.67,269.00" />
  <path id="Unnamed #17"
        fill="none" stroke="black" stroke-width="1"
        d="M 365.67,285.33
           C 365.67,285.33 390.33,283.67 390.33,283.67
             390.33,283.67 424.33,280.00 424.33,280.00
             424.33,280.00 457.00,278.33 457.00,278.33
             457.00,278.33 487.67,277.00 487.67,277.00
             487.67,277.00 534.33,274.00 534.33,274.00
             534.33,274.00 569.33,271.33 569.33,271.33
             569.33,271.33 578.33,269.33 578.33,269.33" />
  <path id="Unnamed #16"
        fill="none" stroke="black" stroke-width="1"
        d="M 359.00,244.00
           C 359.00,244.00 453.67,236.00 453.67,236.00
             453.67,236.00 489.00,233.33 489.00,233.33
             489.00,233.33 521.33,232.33 521.33,232.33
             521.33,232.33 555.67,232.00 555.67,232.00
             555.67,232.00 573.00,231.67 573.00,231.67" />
  <path id="Unnamed #15"
        fill="none" stroke="black" stroke-width="1"
        d="M 343.67,269.00
           C 343.67,269.00 358.33,244.67 358.33,244.67" />
  <path id="Unnamed #14"
        fill="none" stroke="black" stroke-width="1"
        d="M 342.67,270.33
           C 342.67,270.33 346.33,276.00 346.33,276.00
             346.33,276.00 354.00,281.33 354.00,281.33
             354.00,281.33 366.33,287.00 366.33,287.00" />
  <path id="Unnamed #13"
        fill="none" stroke="black" stroke-width="1"
        d="M 344.33,269.00
           C 344.33,269.00 369.33,266.00 369.33,266.00
             369.33,266.00 431.67,259.00 431.67,259.00
             431.67,259.00 481.00,254.67 481.00,254.67
             481.00,254.67 521.67,252.33 521.67,252.33
             521.67,252.33 560.00,250.33 560.00,250.33" />
  <path id="Unnamed #12"
        fill="none" stroke="black" stroke-width="1"
        d="M 426.00,135.33
           C 426.00,135.33 459.33,130.00 459.33,130.00
             459.33,130.00 504.00,125.00 504.00,125.00
             504.00,125.00 550.67,121.33 550.67,121.33
             550.67,121.33 584.00,119.67 584.00,119.67
             584.00,119.67 605.33,117.67 605.33,117.67
             605.33,117.67 635.00,119.33 635.00,119.33" />
  <path id="Unnamed #11"
        fill="none" stroke="black" stroke-width="1"
        d="M 652.00,165.33
           C 652.00,165.33 659.33,142.00 659.33,142.00" />
  <path id="Unnamed #10"
        fill="none" stroke="black" stroke-width="1"
        d="M 636.00,122.33
           C 636.00,122.33 659.00,142.00 659.00,142.00" />
  <path id="Unnamed #9"
        fill="none" stroke="black" stroke-width="1"
        d="M 621.67,144.00
           C 621.67,144.00 635.33,121.67 635.33,121.67" />
  <path id="Unnamed #8"
        fill="none" stroke="black" stroke-width="1"
        d="M 621.67,145.33
           C 621.67,145.33 651.33,165.00 651.33,165.00" />
  <path id="Unnamed #7"
        fill="none" stroke="black" stroke-width="1"
        d="M 423.67,185.67
           C 423.67,185.67 463.33,180.00 463.33,180.00
             463.33,180.00 500.00,177.33 500.00,177.33
             500.00,177.33 533.00,174.00 533.00,174.00
             533.00,174.00 578.67,171.00 578.67,171.00
             578.67,171.00 601.33,169.33 601.33,169.33
             601.33,169.33 634.00,167.67 634.00,167.67
             634.00,167.67 651.33,166.00 651.33,166.00" />
  <path id="Unnamed #6"
        fill="none" stroke="black" stroke-width="1"
        d="M 406.67,161.67
           C 406.67,161.67 416.33,159.00 416.33,159.00
             416.33,159.00 428.00,158.33 428.00,158.33
             428.00,158.33 446.67,156.00 446.67,156.00
             446.67,156.00 465.00,155.00 465.00,155.00
             465.00,155.00 488.33,152.67 488.33,152.67
             488.33,152.67 534.67,149.33 534.67,149.33
             534.67,149.33 576.33,146.00 576.33,146.33
             576.33,146.67 600.33,145.00 600.33,145.00
             600.33,145.00 621.00,144.67 621.00,144.67" />
  <path id="Unnamed #5"
        fill="none" stroke="black" stroke-width="1"
        d="M 423.67,185.33
           C 423.67,185.33 418.67,177.00 418.67,177.00
             418.67,177.00 414.67,172.00 414.67,172.00
             414.67,172.00 408.67,166.67 408.67,166.67
             408.67,166.67 404.33,163.67 404.33,163.67" />
  <path id="Unnamed #4"
        fill="none" stroke="black" stroke-width="1"
        d="M 425.00,136.33
           C 425.00,136.33 419.67,142.67 419.67,142.67
             419.67,142.67 413.00,152.33 413.00,152.33
             413.00,152.33 405.00,161.33 405.00,161.33" />
  <path id="Unnamed #3"
        fill="none" stroke="black" stroke-width="1"
        d="M 382.33,81.00
           C 382.33,81.00 375.67,81.67 375.67,81.67
             375.67,81.67 370.67,83.00 370.67,83.00
             370.67,83.00 366.00,91.00 366.00,91.00
             366.00,91.00 358.00,105.00 358.00,105.00
             358.00,105.00 351.67,120.33 351.67,120.33
             351.67,120.33 345.67,135.00 345.67,135.00
             345.67,135.00 338.33,157.67 338.33,157.67
             338.33,157.67 334.33,175.33 334.33,175.33
             334.33,175.33 330.33,194.33 330.33,194.33
             330.33,194.33 329.33,216.00 329.33,216.00
             329.33,216.00 326.67,237.33 326.67,237.33
             326.67,237.33 326.67,267.33 326.67,267.33
             326.67,267.33 327.33,301.67 327.33,301.67
             327.33,301.67 329.33,341.00 329.33,341.00
             329.33,341.00 330.67,384.33 330.67,384.33
             330.67,384.33 331.33,404.67 331.33,404.67
             331.33,404.67 335.00,415.00 335.00,415.00
             335.00,415.00 339.00,426.00 339.00,426.00
             339.00,426.00 344.00,435.00 344.00,435.00
             344.00,435.00 349.33,443.33 349.33,443.33
             349.33,443.33 356.33,451.67 356.33,451.67
             356.33,451.67 364.00,459.00 364.00,459.00
             364.00,459.00 370.33,463.00 370.33,463.00
             370.33,463.00 375.67,466.33 375.67,466.33
             375.67,466.33 384.33,468.33 384.33,468.33
             384.33,468.33 392.67,468.00 392.67,468.00
             392.67,468.00 400.67,466.33 400.67,466.33
             400.67,466.33 407.33,461.33 407.33,461.33
             407.33,461.33 415.33,455.33 415.33,455.33
             415.33,455.33 426.33,444.33 426.33,444.33
             426.33,444.33 437.67,429.33 437.67,429.33
             437.67,429.33 449.00,411.00 449.00,411.00
             449.00,411.00 460.00,389.00 460.00,389.00
             460.00,389.00 469.00,369.33 469.00,369.33
             469.00,369.33 475.67,350.33 475.67,350.33
             475.67,350.33 483.33,329.67 483.33,329.67
             483.33,329.67 488.67,313.33 488.67,313.33
             488.67,313.33 491.33,301.00 491.33,301.00
             491.33,301.00 493.00,285.00 493.00,285.00
             493.00,285.00 494.00,268.00 494.00,268.00
             494.00,268.00 495.67,244.33 495.67,244.33
             495.67,244.33 495.33,224.00 495.33,224.00
             495.33,224.00 494.00,206.67 494.00,206.67
             494.00,206.67 491.67,194.00 491.67,194.00
             491.67,194.00 489.67,184.00 489.67,184.00
             489.67,184.00 485.67,167.67 485.67,167.67
             485.67,167.67 482.67,157.33 482.67,157.33
             482.67,157.33 477.33,146.00 477.33,146.00
             477.33,146.00 472.33,136.67 472.33,136.67
             472.33,136.67 465.67,125.00 465.67,125.00
             465.67,125.00 459.33,115.00 459.33,115.00
             459.33,115.00 451.33,105.67 451.33,105.67
             451.33,105.67 443.67,98.33 443.67,98.33
             443.67,98.33 432.33,91.00 432.33,91.00
             432.33,91.00 421.00,85.00 421.00,85.00
             421.00,85.00 415.00,82.00 415.00,82.00
             415.00,82.00 408.00,81.00 408.00,81.00
             408.00,81.00 398.67,80.00 398.67,80.00
             398.67,80.00 388.33,80.33 388.33,80.33
             388.33,80.33 382.00,81.67 382.00,81.67" />
  <path id="Unnamed #2"
        fill="none" stroke="black" stroke-width="1"
        d="M 48.33,287.67
           C 48.33,287.67 56.00,285.33 56.00,285.33
             56.00,285.33 66.00,283.33 66.00,283.33
             66.00,283.33 78.33,279.33 78.33,279.33
             78.33,279.33 89.00,275.67 89.00,275.67
             89.00,275.67 97.00,272.00 97.00,272.00
             97.00,272.00 107.67,266.33 107.67,266.33
             107.67,266.33 120.33,259.67 120.33,259.67
             120.33,259.67 133.00,250.33 133.00,250.33
             133.00,250.33 144.00,242.00 144.00,242.00
             144.00,242.00 151.67,234.67 151.67,234.67
             151.67,234.67 163.00,223.67 163.00,223.67
             163.00,223.67 173.00,210.67 173.00,210.67
             173.00,210.67 181.33,197.00 181.33,197.00
             181.33,197.00 188.33,184.33 188.33,184.33
             188.33,184.33 196.33,168.00 196.33,168.00
             196.33,168.00 202.67,155.00 202.67,155.00
             202.67,155.00 210.00,141.33 210.00,141.33
             210.00,141.33 220.00,127.00 220.00,127.00
             220.00,127.00 228.33,117.33 228.33,117.33
             228.33,117.33 240.33,107.33 240.33,107.33
             240.33,107.33 253.33,101.67 253.33,101.67
             253.33,101.67 264.67,96.33 264.67,96.33
             264.67,96.33 275.00,93.33 275.00,93.33
             275.00,93.33 287.33,91.33 287.33,91.33
             287.33,91.33 305.67,86.67 305.67,86.67
             305.67,86.67 319.00,85.33 319.00,85.33
             319.00,85.33 334.00,83.33 334.00,83.33
             334.00,83.33 348.00,82.67 348.00,82.67
             348.00,82.67 368.33,83.33 368.33,83.33" />
  <path id="Unnamed #1"
        fill="none" stroke="black" stroke-width="1"
        d="M 48.33,360.33
           C 48.33,360.33 56.67,360.33 56.67,360.33
             56.67,360.33 80.00,361.00 80.00,361.00
             80.00,361.00 96.33,361.33 96.33,361.33
             96.33,361.33 109.00,364.67 109.00,364.67
             109.00,364.67 118.67,367.33 118.67,367.33
             118.67,367.33 134.33,373.67 134.33,373.67
             134.33,373.67 144.33,380.33 144.33,380.33
             144.33,380.33 156.33,389.00 156.33,389.33
             156.33,389.67 168.00,400.67 168.00,400.67
             168.00,400.67 181.33,419.00 181.33,419.00
             181.33,419.00 192.67,437.33 192.67,437.33
             192.67,437.33 200.67,446.67 200.67,446.67
             200.67,446.67 211.67,454.33 211.67,454.33
             211.67,454.33 222.00,460.67 222.00,460.67
             222.00,460.67 237.00,464.67 237.00,464.67
             237.00,464.67 252.33,468.33 252.33,468.33
             252.33,468.33 269.33,472.00 269.33,472.00
             269.33,472.00 286.67,472.67 286.67,472.67
             286.67,472.67 303.00,472.67 303.00,472.67
             303.00,472.67 322.00,471.33 322.00,471.33
             322.00,471.33 335.33,469.33 335.33,469.33
             335.33,469.33 348.33,467.00 348.33,467.00
             348.33,467.00 360.33,465.67 360.33,465.67
             360.33,465.67 370.67,465.33 370.67,465.33" />
  <path id="Unnamed"
        fill="none" stroke="black" stroke-width="1"
        d="M 48.33,286.67
           C 48.33,286.67 44.33,294.67 44.33,294.67
             44.33,294.67 40.67,304.33 40.67,304.33
             40.67,304.33 39.33,315.00 39.33,315.00
             39.33,315.00 39.00,326.00 39.00,326.00
             39.00,326.00 40.33,335.33 40.33,335.33
             40.33,335.33 43.00,344.00 43.00,344.00
             43.00,344.00 46.00,353.00 46.00,353.00
             46.00,353.00 48.33,359.00 48.33,359.00" />
</svg>
