<?xml version="1.0" encoding="UTF-8" standalone="no"?>
<!DOCTYPE svg PUBLIC "-//W3C//DTD SVG 20010904//EN"
              "http://www.w3.org/TR/2001/REC-SVG-20010904/DTD/svg10.dtd">

<svg xmlns="http://www.w3.org/2000/svg"
     width="27in" height="36in"
     viewBox="0 0 1944 2592">
  <g>
    <path id="Unnamed#2"
          fill="none" stroke="black" stroke-width="1"
          d="M 308.00,836.00
             C 308.00,836.00 316.00,826.00 316.00,826.00
               316.00,826.00 329.00,813.00 329.00,813.00
               329.00,813.00 343.00,802.00 343.00,802.00
               343.00,802.00 358.00,793.00 358.00,793.00
               358.00,793.00 375.00,787.00 375.00,787.00
               375.00,787.00 393.00,784.00 393.00,784.00
               393.00,784.00 408.00,783.00 408.00,783.00
               408.00,783.00 427.00,782.00 427.00,782.00
               427.00,782.00 443.00,786.00 443.00,786.00
               443.00,786.00 452.00,796.00 452.00,796.00
               452.00,796.00 459.00,808.00 459.00,808.00
               459.00,808.00 457.00,819.00 457.00,820.00
               457.00,821.00 451.00,834.00 451.00,834.00
               451.00,834.00 436.00,849.00 436.00,849.00
               436.00,849.00 418.00,860.00 418.00,860.00
               418.00,860.00 395.00,867.00 395.00,867.00
               395.00,867.00 375.00,871.00 375.00,871.00
               375.00,871.00 354.00,868.00 354.00,868.00
               354.00,868.00 335.00,857.00 335.00,857.00
               335.00,857.00 320.00,849.00 320.00,849.00
               320.00,849.00 310.00,838.75 310.00,838.75" />
    <path id="Unnamed#1"
          fill="none" stroke="black" stroke-width="1"
          d="M 715.00,1161.00
             C 715.00,1161.00 700.00,1147.00 700.00,1147.00
               700.00,1147.00 679.00,1127.00 679.00,1127.00
               679.00,1127.00 656.00,1108.00 656.00,1108.00
               656.00,1108.00 634.00,1084.00 634.00,1084.00
               634.00,1084.00 605.00,1055.00 605.00,1055.00
               605.00,1055.00 581.00,1031.00 581.00,1031.00
               581.00,1031.00 562.00,1007.00 562.00,1007.00
               562.00,1007.00 543.00,982.00 543.00,982.00
               543.00,982.00 520.00,954.00 520.00,954.00
               520.00,954.00 498.00,925.00 498.00,925.00
               498.00,925.00 480.00,885.00 480.00,885.00
               480.00,885.00 472.00,856.00 472.00,856.00
               472.00,856.00 465.00,834.00 465.00,834.00
               465.00,834.00 461.00,812.00 461.00,812.00" />
    <path id="Unnamed#3"
          fill="none" stroke="black" stroke-width="1"
          d="M 716.55,1162.64
             C 716.55,1162.64 711.18,1166.09 711.18,1166.09
               711.18,1166.09 700.67,1172.00 700.67,1172.00
               700.67,1172.00 682.00,1182.67 682.00,1182.67
               682.00,1182.67 658.67,1196.00 658.67,1196.00
               658.67,1196.00 640.67,1210.00 640.67,1210.00
               640.67,1210.00 615.33,1223.33 615.33,1223.33
               615.33,1223.33 592.67,1235.33 592.67,1235.33
               592.67,1235.33 568.00,1244.67 568.00,1244.67
               568.00,1244.67 536.67,1256.67 536.67,1256.67
               536.67,1256.67 507.33,1268.00 507.33,1268.00
               507.33,1268.00 481.33,1274.00 481.33,1274.00
               481.33,1274.00 444.00,1282.00 444.00,1282.00
               444.00,1282.00 410.67,1283.33 410.67,1283.33
               410.67,1283.33 376.67,1285.33 376.67,1285.33
               376.67,1285.33 341.33,1282.00 341.33,1282.00
               341.33,1282.00 308.00,1277.33 308.00,1277.33
               308.00,1277.33 280.00,1272.00 280.00,1272.00
               280.00,1272.00 244.67,1262.67 244.67,1262.67
               244.67,1262.67 214.00,1256.00 214.00,1256.00
               214.00,1256.00 186.00,1247.33 186.00,1247.33
               186.00,1247.33 164.67,1238.67 164.67,1238.67
               164.67,1238.67 135.33,1230.00 135.33,1230.00
               135.33,1230.00 118.67,1220.00 118.67,1220.00
               118.67,1220.00 104.00,1208.67 104.00,1208.67
               104.00,1208.67 94.55,1202.55 94.55,1202.55" />
    <path id="Unnamed"
          fill="none" stroke="black" stroke-width="1"
          d="M 94.00,1202.00
             C 94.00,1202.00 117.00,1186.00 117.00,1186.00
               117.00,1186.00 152.00,1157.00 152.00,1157.00
               152.00,1157.00 189.00,1127.00 189.00,1127.00
               189.00,1127.00 217.00,1101.00 217.00,1101.00
               217.00,1101.00 244.00,1072.00 244.00,1072.00
               244.00,1072.00 263.00,1043.00 263.00,1043.00
               263.00,1043.00 285.00,1016.00 285.00,1016.00
               285.00,1016.00 299.00,985.00 299.00,985.00
               299.00,985.00 309.00,945.00 309.00,945.00
               309.00,945.00 311.00,910.00 311.00,910.00
               311.00,910.00 312.00,877.00 312.00,877.00
               312.00,877.00 312.00,845.00 312.00,845.00" />
  </g>
</svg>
