<?xml version="1.0" encoding="UTF-8" standalone="no"?>
<!DOCTYPE svg PUBLIC "-//W3C//DTD SVG 20010904//EN"
              "http://www.w3.org/TR/2001/REC-SVG-20010904/DTD/svg10.dtd">

<svg xmlns="http://www.w3.org/2000/svg"
     width="36in" height="27in"
     viewBox="0 0 2592 1944">
  <path id="New Path#1"
        fill="none" stroke="black" stroke-width="1"
        d="M 258.67,1357.33
           C 258.67,1357.33 280.00,1358.00 280.00,1358.00
             280.00,1358.00 304.67,1356.67 304.67,1356.67
             304.67,1356.67 324.67,1352.00 324.67,1352.00
             324.67,1352.00 346.00,1346.67 346.00,1346.67
             346.00,1346.67 378.00,1339.33 378.00,1339.33
             378.00,1339.33 406.00,1330.67 406.00,1330.67
             406.00,1330.67 438.00,1320.00 438.00,1320.00
             438.00,1320.00 467.33,1312.00 467.33,1312.00
             467.33,1312.00 491.33,1302.67 491.33,1302.67
             491.33,1302.67 517.33,1296.00 517.33,1296.00
             517.33,1296.00 543.33,1286.67 543.33,1286.67
             543.33,1286.67 576.00,1275.33 576.00,1275.33
             576.00,1275.33 607.33,1263.33 607.33,1263.33
             607.33,1263.33 632.00,1252.00 632.00,1252.00
             632.00,1252.00 660.67,1239.33 660.67,1239.33
             660.67,1239.33 686.00,1225.33 686.00,1225.33
             686.00,1225.33 710.67,1211.33 710.67,1211.33
             710.67,1211.33 735.33,1196.00 735.33,1196.00
             735.33,1196.00 758.67,1181.33 758.67,1181.33
             758.67,1181.33 782.67,1164.67 782.67,1164.67
             782.67,1164.67 806.67,1146.00 806.67,1146.00
             806.67,1146.00 830.67,1128.00 830.67,1128.00
             830.67,1128.00 852.00,1109.33 852.00,1109.33
             852.00,1109.33 876.67,1091.33 876.67,1091.33
             876.67,1091.33 896.67,1072.00 896.67,1072.00
             896.67,1072.00 916.67,1052.67 916.67,1052.67
             916.67,1052.67 934.00,1032.67 934.00,1032.67
             934.00,1032.67 955.33,1014.67 955.33,1014.67
             955.33,1014.67 973.33,990.67 973.33,990.67
             973.33,990.67 992.67,963.33 992.67,963.33
             992.67,963.33 1008.67,940.67 1008.67,940.67
             1008.67,940.67 1023.33,918.67 1023.33,918.67
             1023.33,918.67 1039.33,892.00 1039.33,892.00
             1039.33,892.00 1056.00,864.00 1056.00,864.00
             1056.00,864.00 1068.67,839.33 1068.67,839.33
             1068.67,839.33 1084.00,812.00 1084.00,812.00
             1084.00,812.00 1094.00,789.33 1094.00,789.33
             1094.00,789.33 1104.00,767.33 1104.00,767.33
             1104.00,767.33 1116.67,741.33 1116.67,741.33
             1116.67,741.33 1129.33,712.67 1129.33,712.67
             1129.33,712.67 1142.00,685.33 1142.00,685.33
             1142.00,685.33 1154.67,651.33 1154.67,651.33
             1154.67,651.33 1168.67,618.00 1168.67,618.00
             1168.67,618.00 1178.00,587.33 1178.00,587.33
             1178.00,587.33 1186.00,556.67 1186.00,556.67
             1186.00,556.67 1194.67,528.67 1194.67,528.67
             1194.67,528.67 1203.33,496.67 1203.33,496.67
             1203.33,496.67 1210.00,462.00 1210.00,462.00
             1210.00,462.00 1217.33,432.00 1217.33,432.00
             1217.33,432.00 1226.00,407.33 1226.00,407.33
             1226.00,407.33 1228.00,371.33 1228.00,371.33
             1228.00,371.33 1231.33,333.33 1231.33,333.33
             1231.33,333.33 1237.33,300.67 1237.33,300.67
             1237.33,300.67 1245.33,268.67 1245.33,268.67
             1245.33,268.67 1247.33,232.67 1247.33,232.67
             1247.33,232.67 1244.00,190.67 1244.00,190.67
             1244.00,190.67 1244.67,160.00 1244.67,160.00
             1244.67,160.00 1243.33,144.67 1243.33,144.67" />
  <path id="New Path"
        fill="none" stroke="black" stroke-width="1"
        d="M 2270.67,1369.33
           C 2270.67,1369.33 2278.00,1392.67 2278.00,1392.67
             2278.00,1392.67 2278.00,1416.00 2277.33,1417.33
             2276.67,1418.67 2272.00,1443.33 2272.00,1443.33
             2272.00,1443.33 2266.67,1470.67 2266.67,1470.67
             2266.67,1470.67 2254.00,1508.00 2254.00,1508.00
             2254.00,1508.00 2236.67,1542.00 2236.67,1542.00
             2236.67,1542.00 2213.33,1571.33 2213.33,1571.33
             2213.33,1571.33 2188.00,1602.67 2188.00,1602.67
             2188.00,1602.67 2160.00,1631.33 2160.00,1631.33
             2160.00,1631.33 2129.33,1656.67 2129.33,1656.67
             2129.33,1656.67 2096.00,1676.67 2096.00,1676.67
             2096.00,1676.67 2060.67,1695.33 2060.67,1695.33
             2060.67,1695.33 2022.67,1712.67 2022.67,1712.67
             2022.67,1712.67 1984.00,1724.67 1984.00,1724.67
             1984.00,1724.67 1931.33,1739.33 1931.33,1739.33
             1931.33,1739.33 1879.33,1750.67 1879.33,1750.67
             1879.33,1750.67 1825.33,1761.33 1825.33,1761.33
             1825.33,1761.33 1782.00,1768.00 1782.00,1768.00
             1782.00,1768.00 1739.33,1776.00 1739.33,1776.00
             1739.33,1776.00 1696.67,1781.33 1696.67,1781.33
             1696.67,1781.33 1644.00,1786.67 1644.00,1786.67
             1644.00,1786.67 1596.67,1790.00 1596.67,1790.00
             1596.67,1790.00 1549.33,1793.33 1549.33,1793.33
             1549.33,1793.33 1508.67,1796.67 1508.67,1796.67
             1508.67,1796.67 1470.00,1797.33 1470.00,1797.33
             1470.00,1797.33 1422.67,1797.33 1422.67,1797.33
             1422.67,1797.33 1380.00,1797.33 1380.00,1797.33
             1380.00,1797.33 1334.00,1796.00 1334.00,1796.00
             1334.00,1796.00 1275.33,1794.00 1275.33,1794.00
             1275.33,1794.00 1227.33,1790.67 1227.33,1790.67
             1227.33,1790.67 1183.33,1790.00 1183.33,1790.00
             1183.33,1790.00 1146.00,1786.00 1146.00,1786.00
             1146.00,1786.00 1105.33,1782.67 1105.33,1782.67
             1105.33,1782.67 1060.00,1779.33 1060.00,1779.33
             1060.00,1779.33 1010.00,1774.67 1010.00,1774.67
             1010.00,1774.67 961.33,1770.00 961.33,1770.00
             961.33,1770.00 922.00,1766.67 922.00,1766.67
             922.00,1766.67 882.67,1762.00 882.67,1762.00
             882.67,1762.00 842.00,1755.33 842.00,1755.33
             842.00,1755.33 800.67,1750.67 800.67,1750.67
             800.67,1750.67 755.33,1743.33 755.33,1743.33
             755.33,1743.33 707.33,1734.67 707.33,1734.67
             707.33,1734.67 660.00,1726.00 660.00,1726.00
             660.00,1726.00 621.33,1717.33 621.33,1717.33
             621.33,1717.33 574.00,1704.67 574.00,1704.67
             574.00,1704.67 538.00,1690.67 538.00,1690.67
             538.00,1690.67 508.67,1678.00 508.67,1678.00
             508.67,1678.00 483.33,1665.33 483.33,1665.33
             483.33,1665.33 460.00,1652.00 460.00,1652.00
             460.00,1652.00 430.67,1632.00 430.67,1632.00
             430.67,1632.00 408.00,1616.67 408.00,1616.67
             408.00,1616.67 384.67,1599.33 384.67,1599.33
             384.67,1599.33 361.33,1578.00 361.33,1578.00
             361.33,1578.00 339.33,1558.00 339.33,1558.00
             339.33,1558.00 321.33,1538.67 321.33,1538.67
             321.33,1538.67 304.00,1518.67 304.00,1518.67
             304.00,1518.67 286.00,1492.00 286.00,1492.00
             286.00,1492.00 273.33,1468.67 273.33,1468.67
             273.33,1468.67 264.00,1441.33 264.00,1441.33
             264.00,1441.33 258.00,1416.67 258.00,1416.67
             258.00,1416.67 258.00,1394.67 258.00,1394.67
             258.00,1394.67 257.33,1374.00 257.33,1374.00
             257.33,1374.00 256.00,1357.33 256.00,1357.33" />
  <path id="Unnamed#1"
        fill="none" stroke="black" stroke-width="1"
        d="M 1514.00,186.67
           C 1514.00,186.67 1518.00,208.00 1518.00,208.00
             1518.00,208.00 1526.00,238.00 1526.00,238.00
             1526.00,238.00 1532.67,278.67 1532.67,278.67
             1532.67,278.67 1539.33,318.00 1539.33,318.00
             1539.33,318.00 1544.00,356.67 1544.00,356.67
             1544.00,356.67 1547.33,387.33 1547.33,387.33
             1547.33,387.33 1548.67,412.00 1548.67,412.00
             1548.67,412.00 1550.67,444.67 1550.67,445.33
             1550.67,446.00 1555.33,483.33 1555.33,483.33
             1555.33,483.33 1562.00,524.67 1562.00,524.67
             1562.00,524.67 1569.33,568.67 1569.33,568.67
             1569.33,568.67 1576.67,606.67 1576.67,606.67
             1576.67,606.67 1586.67,646.67 1586.67,646.67
             1586.67,646.67 1596.67,691.33 1596.67,691.33
             1596.67,691.33 1610.67,744.00 1610.67,744.00
             1610.67,744.00 1626.00,796.00 1626.00,796.00
             1626.00,796.00 1644.67,850.67 1644.67,850.67
             1644.67,850.67 1665.33,902.00 1665.33,902.00
             1665.33,902.00 1686.67,934.00 1686.67,934.00
             1686.67,934.00 1706.67,961.33 1706.67,961.33
             1706.67,961.33 1730.00,993.33 1730.00,993.33
             1730.00,993.33 1761.33,1026.00 1761.33,1026.00
             1761.33,1026.00 1791.33,1057.33 1791.33,1057.33
             1791.33,1057.33 1822.67,1088.00 1822.67,1088.00
             1822.67,1088.00 1865.33,1121.33 1865.33,1121.33
             1865.33,1121.33 1906.67,1154.00 1906.67,1154.00
             1906.67,1154.00 1952.67,1184.67 1952.67,1184.67
             1952.67,1184.67 1998.00,1216.67 1998.00,1216.67
             1998.00,1216.67 2033.33,1240.00 2033.33,1240.00
             2033.33,1240.00 2096.00,1276.00 2096.00,1276.00
             2096.00,1276.00 2159.33,1308.67 2159.33,1308.67
             2159.33,1308.67 2218.00,1342.00 2218.00,1342.00
             2218.00,1342.00 2252.67,1358.00 2252.67,1358.00
             2252.67,1358.00 2272.67,1365.33 2272.67,1365.33" />
  <path id="Unnamed"
        fill="none" stroke="black" stroke-width="1"
        d="M 1265.00,145.00
           C 1265.00,145.00 1260.00,136.00 1260.00,136.00
             1260.00,136.00 1259.00,125.00 1259.00,125.00
             1259.00,125.00 1264.00,114.00 1264.00,114.00
             1264.00,114.00 1273.00,105.00 1273.00,105.00
             1273.00,105.00 1286.00,97.00 1286.00,97.00
             1286.00,97.00 1299.00,90.00 1299.00,90.00
             1299.00,90.00 1318.00,87.00 1318.00,87.00
             1318.00,87.00 1349.00,82.00 1349.00,82.00
             1349.00,82.00 1388.00,86.00 1388.00,86.00
             1388.00,86.00 1424.00,91.00 1424.00,91.00
             1424.00,91.00 1459.00,101.00 1459.00,101.00
             1459.00,101.00 1486.00,113.00 1486.00,113.00
             1486.00,113.00 1511.00,131.00 1511.00,131.00
             1511.00,131.00 1525.00,147.00 1525.00,147.00
             1525.00,147.00 1527.00,166.00 1527.00,166.00
             1527.00,166.00 1517.00,185.00 1517.00,185.00
             1517.00,185.00 1496.00,197.00 1496.00,197.00
             1496.00,197.00 1465.00,203.00 1465.00,203.00
             1465.00,203.00 1426.00,202.00 1426.00,202.00
             1426.00,202.00 1395.00,201.00 1395.00,201.00
             1395.00,201.00 1354.00,194.00 1354.00,194.00
             1354.00,194.00 1316.00,184.00 1316.00,184.00
             1316.00,184.00 1290.00,169.00 1290.00,169.00
             1290.00,169.00 1268.00,160.00 1268.00,160.00
             1268.00,160.00 1250.00,146.00 1250.00,146.00" />
</svg>
