<?xml version="1.0" encoding="UTF-8" standalone="no"?>
<!DOCTYPE svg PUBLIC "-//W3C//DTD SVG 20010904//EN"
              "http://www.w3.org/TR/2001/REC-SVG-20010904/DTD/svg10.dtd">

<svg xmlns="http://www.w3.org/2000/svg"
     width="4.69857in" height="4.13599in"
     viewBox="0 0 451 397">
	<g>
  <path id="Unnamed#19"
        fill="none" stroke="black" stroke-width="1"
        d="M 408.67,171.33
           C 408.67,171.33 412.00,177.67 412.00,177.67
             412.00,177.67 412.67,186.33 412.67,186.33
             412.67,186.33 413.67,192.00 413.67,192.00
             413.67,192.00 413.33,199.33 413.33,199.33
             413.33,199.33 412.33,207.67 412.33,207.67" />
  <path id="Unnamed#18"
        fill="none" stroke="black" stroke-width="1"
        d="M 411.33,209.00
           C 411.00,209.00 400.00,208.33 400.00,208.33
             400.00,208.33 386.67,208.00 386.67,208.00
             386.67,208.00 373.33,206.33 373.33,206.33
             373.33,206.33 361.67,206.00 361.67,206.00
             361.67,206.00 353.67,206.00 353.67,206.00" />
  <path id="Unnamed#17"
        fill="none" stroke="black" stroke-width="1"
        d="M 345.67,171.00
           C 345.67,171.00 354.00,170.33 354.00,170.33
             354.00,170.33 362.67,170.33 363.00,170.33
             363.33,170.33 376.33,170.33 376.33,170.33
             376.33,170.33 391.67,170.33 391.67,170.33
             391.67,170.33 401.67,172.00 401.67,172.00
             401.67,172.00 408.00,171.67 408.00,171.67" />
  <path id="Unnamed#5"
        fill="none" stroke="black" stroke-width="1"
        d="M 168.50,169.50
           C 168.50,169.50 171.50,175.50 171.50,175.50
             171.50,175.50 174.50,181.50 174.50,181.50
             174.50,181.50 175.50,189.50 175.50,189.50
             175.50,189.50 176.00,197.00 176.00,197.00
             176.00,197.00 177.00,202.00 177.00,202.50
             177.00,203.00 176.00,210.50 176.00,210.50
             176.00,210.50 172.00,215.50 172.00,215.50" />
  <path id="Unnamed#4"
        fill="none" stroke="black" stroke-width="1"
        d="M 98.50,217.50
           C 98.50,217.50 94.00,209.00 94.00,209.00
             94.00,209.00 92.00,200.00 92.00,200.00
             92.00,200.00 91.50,191.50 91.50,191.50
             91.50,191.50 93.50,183.00 93.50,183.00
             93.50,183.00 99.00,176.50 99.00,176.50
             99.00,176.50 104.50,171.00 104.50,171.00
             104.50,171.00 110.00,169.50 110.00,169.50
             110.00,169.50 114.00,176.00 114.00,176.50
             114.00,177.00 116.00,183.00 116.00,184.50
             116.00,186.00 116.00,195.50 116.00,195.50
             116.00,195.50 116.00,204.50 116.00,204.50
             116.00,204.50 113.00,209.50 113.00,209.50
             113.00,209.50 109.00,213.50 109.00,213.50
             109.00,213.50 100.00,218.00 100.00,218.00" />
  <path id="Unnamed#3"
        fill="none" stroke="black" stroke-width="1"
        d="M 101.50,217.00
           C 101.50,217.00 112.00,217.00 112.00,217.00
             112.00,217.00 118.00,216.00 122.00,217.00
             126.00,218.00 139.50,216.50 139.50,216.50
             139.50,216.50 152.00,217.00 152.00,217.00
             152.00,217.00 160.50,217.00 160.50,217.00
             160.50,217.00 172.50,216.50 172.50,216.50" />
  <path id="Unnamed#2"
        fill="none" stroke="black" stroke-width="1"
        d="M 112.00,167.50
           C 112.50,167.50 123.50,167.00 123.50,167.00
             123.50,167.00 135.50,166.50 135.50,166.50
             135.50,166.50 148.00,169.50 149.00,169.50
             150.00,169.50 158.50,170.00 159.00,170.00
             159.50,170.00 166.50,169.00 166.50,169.00" />
  <path id="Unnamed#1"
        fill="none" stroke="black" stroke-width="1"
        d="M 283.50,122.00
           C 283.50,122.00 291.00,124.00 291.50,124.50
             292.00,125.00 302.00,130.50 302.00,130.50
             302.00,130.50 317.00,139.00 317.00,139.00
             317.00,139.00 325.50,147.00 325.50,147.00
             325.50,147.00 334.50,156.00 335.00,157.00
             335.50,158.00 344.50,169.50 344.50,169.50
             344.50,169.50 348.50,179.50 348.50,179.50
             348.50,179.50 351.00,188.00 351.50,188.50
             352.00,189.00 353.00,201.50 353.00,201.50
             353.00,201.50 353.00,217.00 353.00,217.00
             353.00,217.00 350.50,229.00 350.50,229.00
             350.50,229.00 345.00,245.00 345.00,245.00
             345.00,245.00 337.50,255.00 337.50,255.00
             337.50,255.00 327.50,266.50 327.50,266.50
             327.50,266.50 316.00,277.00 316.00,277.00
             316.00,277.00 307.50,282.00 307.50,282.00
             307.50,282.00 299.00,287.00 299.00,287.00
             299.00,287.00 283.50,289.50 283.50,289.50
             283.50,289.50 265.00,289.50 265.00,289.50
             265.00,289.50 252.00,289.50 252.00,289.50
             252.00,289.50 238.00,286.00 238.00,286.00
             238.00,286.00 222.50,284.00 222.50,284.00
             222.50,284.00 209.50,280.00 209.50,280.00
             209.50,280.00 195.50,274.00 195.50,274.00
             195.50,274.00 182.50,267.00 182.50,267.00
             182.50,267.00 172.00,258.00 172.00,258.00
             172.00,258.00 164.50,248.50 164.50,248.50
             164.50,248.50 158.00,238.00 158.00,238.00
             158.00,238.00 150.50,226.00 150.50,226.00
             150.50,226.00 148.50,219.00 148.50,219.00" />
  <path id="Unnamed#16"
        fill="none" stroke="black" stroke-width="1"
        d="M 318.50,219.50
           C 318.50,219.50 310.00,224.00 310.00,224.00
             310.00,224.00 305.00,230.50 305.00,230.50
             305.00,230.50 302.50,236.00 302.50,236.00
             302.50,236.00 302.50,241.50 302.50,241.50
             302.50,241.50 306.50,244.50 306.50,244.50
             306.50,244.50 312.50,244.50 312.50,244.50
             312.50,244.50 320.50,244.00 320.50,244.00
             320.50,244.00 325.50,237.00 325.50,237.00
             325.50,237.00 328.00,230.50 328.00,230.50
             328.00,230.50 328.00,224.00 328.00,224.00
             328.00,224.00 322.00,222.00 322.00,222.00" />
  <path id="Unnamed#15"
        fill="none" stroke="black" stroke-width="1"
        d="M 249.50,220.00
           C 249.50,220.00 250.50,210.50 250.50,210.50
             250.50,210.50 253.00,203.00 253.00,203.00
             253.00,203.00 258.50,199.00 258.50,199.00
             258.50,199.00 265.50,194.50 265.50,194.50" />
  <path id="Unnamed#14"
        fill="none" stroke="black" stroke-width="1"
        d="M 252.00,222.00
           C 252.00,222.00 260.50,226.00 260.50,226.00
             260.50,226.00 276.50,232.00 276.50,232.00
             276.50,232.00 289.00,237.50 289.00,237.50
             289.00,237.50 303.50,244.00 303.50,244.00" />
  <path id="Unnamed#13"
        fill="none" stroke="black" stroke-width="1"
        d="M 266.50,195.00
           C 266.50,195.00 273.50,198.00 274.00,198.00
             274.50,198.00 282.50,201.50 282.50,201.50
             282.50,201.50 294.00,206.00 294.00,206.00
             294.00,206.00 302.00,209.50 302.00,209.50
             302.00,209.50 310.50,213.00 311.00,214.00
             311.50,215.00 318.00,219.00 318.00,219.00" />
  <path id="Unnamed#12"
        fill="none" stroke="black" stroke-width="1"
        d="M 279.50,135.50
           C 279.50,135.50 274.00,142.50 274.00,142.50
             274.00,142.50 264.50,143.00 264.50,143.00
             264.50,143.00 252.00,142.50 252.00,142.50
             252.00,142.50 241.50,136.50 241.50,136.50" />
  <path id="Unnamed#11"
        fill="none" stroke="black" stroke-width="1"
        d="M 240.00,64.00
           C 240.00,64.00 245.00,68.50 245.00,68.50
             245.00,68.50 253.50,71.50 253.50,71.50
             253.50,71.50 261.50,72.50 261.50,72.50
             261.50,72.50 271.50,72.50 271.50,72.50
             271.50,72.50 277.50,72.50 277.50,72.50
             277.50,72.50 280.50,68.00 280.50,68.00
             280.50,68.00 281.50,61.00 281.50,61.00
             281.50,61.00 276.50,56.00 276.00,56.00
             275.50,56.00 267.00,53.00 267.00,53.00
             267.00,53.00 257.00,53.00 257.00,53.00
             257.00,53.00 247.00,52.50 247.00,52.50
             247.00,52.50 240.00,56.50 240.00,56.50
             240.00,56.50 240.50,64.00 240.50,64.00" />
  <path id="Unnamed#10"
        fill="none" stroke="black" stroke-width="1"
        d="M 280.00,135.00
           C 280.50,135.00 281.00,128.50 281.00,127.50
             281.00,126.50 279.00,115.50 279.00,115.50
             279.00,115.50 278.50,101.00 278.50,101.00
             278.50,101.00 277.00,88.00 277.00,88.00
             277.00,88.00 277.50,78.50 277.50,78.50
             277.50,78.50 277.50,66.50 277.50,66.50" />
  <path id="Unnamed#9"
        fill="none" stroke="black" stroke-width="1"
        d="M 240.50,134.50
           C 240.50,134.50 240.00,123.50 240.00,123.50
             240.00,123.50 239.50,108.00 239.50,108.00
             239.50,108.00 237.00,94.00 237.00,94.00
             237.00,94.00 237.50,75.00 237.50,75.00
             237.50,75.00 241.00,65.00 241.00,65.00" />
  <path id="Unnamed#8"
        fill="none" stroke="black" stroke-width="1"
        d="M 237.00,347.50
           C 237.00,347.50 242.50,352.50 242.50,352.50
             242.50,352.50 250.00,355.00 250.00,355.00
             250.00,355.00 259.00,357.00 259.00,357.00
             259.00,357.00 267.50,357.00 267.50,357.00
             267.50,357.00 273.00,357.00 273.00,357.00
             273.00,357.00 276.00,353.50 276.00,353.50" />
  <path id="Unnamed#7"
        fill="none" stroke="black" stroke-width="1"
        d="M 276.00,354.00
           C 276.00,354.00 274.50,347.50 274.50,347.00
             274.50,346.50 274.50,332.50 274.50,332.50
             274.50,332.50 275.50,305.00 275.50,305.00
             275.50,305.00 277.00,289.00 277.00,289.00" />
  <path id="Unnamed#6"
        fill="none" stroke="black" stroke-width="1"
        d="M 237.00,348.50
           C 237.00,348.50 239.50,339.00 239.50,339.00
             239.50,339.00 239.50,324.50 239.50,324.50
             239.50,324.50 237.00,311.00 237.00,311.00
             237.00,311.00 237.00,300.00 237.00,300.00
             237.00,300.00 241.00,288.00 241.00,288.00" />
  <path id="Unnamed"
        fill="none" stroke="black" stroke-width="1"
        d="M 155.00,165.00
           C 155.00,165.00 159.50,152.00 159.50,152.00
             159.50,152.00 168.50,142.50 168.50,142.50
             168.50,142.50 179.00,132.50 180.50,131.50
             182.00,130.50 195.00,122.00 195.00,122.00
             195.00,122.00 208.00,118.50 208.00,118.50
             208.00,118.50 224.00,115.50 224.00,115.50
             224.00,115.50 237.00,113.50 237.00,113.50" />
	</g>
</svg>
