<?xml version="1.0" encoding="UTF-8" standalone="no"?>
<!DOCTYPE svg PUBLIC "-//W3C//DTD SVG 20010904//EN"
              "http://www.w3.org/TR/2001/REC-SVG-20010904/DTD/svg10.dtd">

<svg xmlns="http://www.w3.org/2000/svg"
     width="10.6389in" height="4.95833in"
     viewBox="0 0 766 357">
  <g>
    <path id="Unnamed #16"
          fill="none" stroke="black" stroke-width="1"
          d="M 670.25,87.25
           C 670.25,87.25 680.75,87.50 680.75,87.50
             680.75,87.50 692.00,89.50 692.00,89.50
             692.00,89.50 697.75,94.75 697.75,94.75
             697.75,94.75 699.50,102.00 699.50,102.00
             699.50,102.00 696.00,114.75 696.00,114.75
             696.00,114.75 692.25,122.25 692.25,122.25
             692.25,122.25 687.50,125.50 687.50,125.50
             687.50,125.50 680.00,126.50 680.00,126.50
             680.00,126.50 673.00,123.50 673.00,123.50
             673.00,123.50 669.00,113.75 669.00,113.75
             669.00,113.75 668.75,102.75 668.75,102.75
             668.75,102.75 671.75,97.50 671.75,97.50
             671.75,97.50 678.00,90.75 678.00,90.75" />
    <path id="Unnamed #15"
          fill="none" stroke="black" stroke-width="1"
          d="M 675.50,90.50
           C 675.50,90.50 628.50,91.50 628.50,91.50
             628.50,91.50 577.50,97.50 577.50,97.50
             577.50,97.50 530.00,106.00 530.00,106.00
             530.00,106.00 487.50,112.50 487.50,112.50
             487.50,112.50 478.50,112.50 478.50,112.50" />
    <path id="Unnamed #14"
          fill="none" stroke="black" stroke-width="1"
          d="M 482.50,145.25
           C 482.50,145.25 529.00,140.50 529.00,140.50
             529.00,140.50 591.50,135.00 591.50,135.00
             591.50,135.00 643.00,130.00 643.00,130.00
             643.00,130.00 679.50,124.50 679.50,124.50" />
    <path id="Unnamed #13"
          fill="none" stroke="black" stroke-width="1"
          d="M 493.33,142.00
           C 492.67,142.00 485.50,139.00 485.50,139.25
             485.50,139.50 480.25,134.75 480.25,134.75
             480.25,134.75 477.50,129.00 477.50,129.00
             477.50,129.00 477.50,122.00 477.50,122.00
             477.50,122.00 481.25,115.75 481.25,115.75
             481.25,115.75 486.50,110.00 486.50,110.00" />
    <path id="Unnamed #12"
          fill="none" stroke="black" stroke-width="1"
          d="M 141.33,346.67
           C 142.67,346.67 154.67,343.33 154.67,343.33
             154.67,343.33 166.67,335.33 166.67,335.33
             166.67,335.33 170.00,326.67 170.00,326.67
             170.00,326.67 166.67,317.33 166.67,317.33
             166.67,317.33 157.33,311.33 156.00,311.33
             154.67,311.33 136.00,311.33 136.00,311.33
             136.00,311.33 122.00,318.67 122.00,318.67
             122.00,318.67 115.33,330.67 115.33,330.67
             115.33,330.67 121.33,339.33 121.33,339.33
             121.33,339.33 129.33,344.00 129.33,344.00" />
    <path id="Unnamed #11"
          fill="none" stroke="black" stroke-width="1"
          d="M 120.00,316.00
           C 120.00,316.00 152.67,274.00 152.67,274.00
             152.67,274.00 190.67,226.00 190.67,226.00
             190.67,226.00 216.00,197.33 216.00,197.33
             216.00,197.33 241.33,164.00 241.33,164.00" />
    <path id="Unnamed #10"
          fill="none" stroke="black" stroke-width="1"
          d="M 295.33,163.33
           C 295.33,163.33 269.33,198.00 269.33,198.00
             269.33,198.00 236.00,244.67 236.00,244.67
             236.00,244.67 200.67,290.00 200.67,290.00
             200.67,290.00 174.00,320.00 174.00,320.00" />
    <path id="Unnamed #9"
          fill="none" stroke="black" stroke-width="1"
          d="M 242.67,164.67
           C 242.67,164.67 256.00,160.67 256.00,160.67
             256.00,160.67 268.67,158.67 268.67,158.67
             268.67,158.67 278.00,159.33 278.00,159.33
             278.00,159.33 286.00,162.67 286.00,162.67
             286.00,162.67 290.67,167.33 290.67,167.33" />
    <path id="Unnamed #8"
          fill="none" stroke="black" stroke-width="1"
          d="M 452.00,210.00
           C 452.00,210.00 394.00,217.33 394.00,217.33
             394.00,217.33 308.00,222.67 308.00,222.67
             308.00,222.67 227.33,231.33 227.33,231.33
             227.33,231.33 170.00,236.67 170.00,236.67
             170.00,236.67 130.00,242.00 130.00,242.00
             130.00,242.00 86.00,242.00 86.00,242.00
             86.00,242.00 74.00,235.33 74.00,235.33" />
    <path id="Unnamed #7"
          fill="none" stroke="black" stroke-width="1"
          d="M 66.00,122.00
           C 66.00,122.00 74.00,235.33 74.00,235.33" />
    <path id="Unnamed #6"
          fill="none" stroke="black" stroke-width="1"
          d="M 506.00,60.00
           C 506.00,60.00 510.67,69.33 510.67,69.33
             510.67,69.33 510.67,86.67 510.67,86.67
             510.67,86.67 512.67,115.33 512.67,115.33
             512.67,115.33 504.67,150.00 504.67,150.00
             504.67,150.00 500.67,162.00 500.67,162.00" />
    <path id="Unnamed #5"
          fill="none" stroke="black" stroke-width="1"
          d="M 510.00,155.33
           C 509.33,156.00 486.00,175.33 486.00,175.33
             486.00,175.33 463.33,193.33 463.33,193.33
             463.33,193.33 441.33,207.33 441.33,207.33" />
    <path id="Unnamed #4"
          fill="none" stroke="black" stroke-width="1"
          d="M 442.00,207.33
           C 442.00,207.33 436.00,182.67 436.00,182.67
             436.00,182.67 434.00,148.67 434.00,148.67
             434.00,148.67 436.67,109.33 436.67,109.33" />
    <path id="Unnamed #3"
          fill="none" stroke="black" stroke-width="1"
          d="M 502.67,64.00
           C 502.67,64.00 443.33,99.33 443.33,99.33
             443.33,99.33 439.33,106.00 439.33,106.00" />
    <path id="Unnamed #2"
          fill="none" stroke="black" stroke-width="1"
          d="M 437.33,107.33
           C 437.33,107.33 401.33,112.00 401.33,112.00
             401.33,112.00 353.33,114.00 353.33,114.00
             353.33,114.00 270.00,120.67 270.00,120.67
             270.00,120.67 197.33,125.33 197.33,125.33
             197.33,125.33 124.67,132.67 124.67,132.67
             124.67,132.67 74.00,134.00 74.00,134.00" />
    <path id="Unnamed #1"
          fill="none" stroke="black" stroke-width="1"
          d="M 73.33,134.67
           C 73.33,134.67 92.67,117.33 92.67,117.33
             92.67,117.33 106.00,101.33 106.00,101.33
             106.00,101.33 122.00,81.33 122.67,80.00
             123.33,78.67 125.33,70.00 125.33,70.00" />
    <path id="Unnamed"
          fill="none" stroke="black" stroke-width="1"
          d="M 128.67,72.00
           C 128.67,72.00 145.33,66.67 145.33,66.67
             145.33,66.67 192.00,66.00 192.00,66.00
             192.00,66.00 266.00,57.33 266.00,57.33
             266.00,57.33 333.33,53.33 333.33,53.33
             333.33,53.33 384.00,52.67 384.00,52.67
             384.00,52.67 420.00,54.00 420.00,54.00
             420.00,54.00 460.00,54.00 460.00,54.00
             460.00,54.00 490.67,58.00 490.67,58.00
             490.67,58.00 498.67,60.00 498.67,60.00" />
  </g>
</svg>
