<?xml version="1.0" encoding="UTF-8" standalone="no"?>
<!DOCTYPE svg PUBLIC "-//W3C//DTD SVG 20010904//EN"
              "http://www.w3.org/TR/2001/REC-SVG-20010904/DTD/svg10.dtd">

<svg xmlns="http://www.w3.org/2000/svg"
     width="21.3333in" height="28.4444in"
     viewBox="0 0 1536 2048">
	<g>
  <path id="f"
        fill="none" stroke="black" stroke-width="1"
        d="M 184.00,1738.00
           C 184.00,1738.00 202.00,1756.00 202.00,1756.00
             202.00,1756.00 226.00,1772.00 226.00,1774.00
             226.00,1776.00 256.00,1798.00 258.00,1798.00
             260.00,1798.00 296.00,1810.00 296.00,1810.00
             296.00,1810.00 324.00,1820.00 324.00,1822.00
             324.00,1824.00 358.00,1842.00 358.00,1842.00
             358.00,1842.00 398.00,1850.00 398.00,1850.00
             398.00,1850.00 432.00,1868.00 434.00,1868.00
             436.00,1868.00 474.00,1884.00 474.00,1884.00
             474.00,1884.00 514.00,1896.00 514.00,1896.00
             514.00,1896.00 552.00,1904.00 552.00,1904.00
             552.00,1904.00 588.00,1912.00 588.00,1912.00
             588.00,1912.00 622.00,1920.00 622.00,1920.00
             622.00,1920.00 660.00,1934.00 660.00,1934.00
             660.00,1934.00 718.00,1934.00 718.00,1934.00
             718.00,1934.00 750.00,1936.00 752.00,1936.00
             754.00,1936.00 800.00,1936.00 800.00,1936.00
             800.00,1936.00 836.00,1940.00 836.00,1940.00
             836.00,1940.00 884.00,1942.00 886.00,1942.00
             888.00,1942.00 918.00,1936.00 920.00,1936.00
             922.00,1936.00 964.00,1932.00 964.00,1932.00
             964.00,1932.00 994.00,1924.00 994.00,1924.00
             994.00,1924.00 1034.00,1912.00 1034.00,1912.00
             1034.00,1912.00 1080.00,1902.00 1080.00,1902.00
             1080.00,1902.00 1104.00,1886.00 1106.00,1886.00
             1108.00,1886.00 1138.00,1876.00 1138.00,1876.00
             1138.00,1876.00 1174.00,1854.00 1174.00,1854.00
             1174.00,1854.00 1210.00,1840.00 1212.00,1838.00
             1214.00,1836.00 1246.00,1822.00 1246.00,1822.00
             1246.00,1822.00 1274.00,1798.00 1274.00,1798.00
             1274.00,1798.00 1316.00,1778.00 1316.00,1778.00
             1316.00,1778.00 1338.00,1750.00 1338.00,1750.00
             1338.00,1750.00 1368.00,1722.00 1368.00,1722.00
             1368.00,1722.00 1396.00,1700.00 1396.00,1700.00
             1396.00,1700.00 1420.00,1668.00 1420.00,1668.00
             1420.00,1668.00 1448.00,1642.00 1448.00,1642.00
             1448.00,1642.00 1458.00,1618.00 1458.00,1618.00
             1458.00,1618.00 1474.00,1594.00 1474.00,1594.00
             1474.00,1594.00 1492.00,1578.00 1492.00,1578.00" />
  <path id="e"
        fill="none" stroke="black" stroke-width="1"
        d="M 1194.00,792.00
           C 1194.00,792.00 1224.00,802.00 1224.00,802.00
             1224.00,802.00 1252.00,810.00 1252.00,810.00
             1252.00,810.00 1290.00,824.00 1290.00,824.00
             1290.00,824.00 1316.00,836.00 1316.00,836.00
             1316.00,836.00 1338.00,846.00 1338.00,846.00
             1338.00,846.00 1356.00,858.00 1356.00,858.00
             1356.00,858.00 1378.00,870.00 1378.00,870.00
             1378.00,870.00 1396.00,890.00 1396.00,890.00
             1396.00,890.00 1416.00,906.00 1416.00,906.00
             1416.00,906.00 1432.00,930.00 1432.00,930.00
             1432.00,930.00 1436.00,960.00 1436.00,960.00
             1436.00,960.00 1442.00,982.00 1442.00,982.00
             1442.00,982.00 1440.00,1006.00 1440.00,1006.00
             1440.00,1006.00 1434.00,1030.00 1434.00,1030.00
             1434.00,1030.00 1418.00,1052.00 1418.00,1052.00
             1418.00,1052.00 1404.00,1072.00 1404.00,1072.00
             1404.00,1072.00 1384.00,1090.00 1384.00,1090.00
             1384.00,1090.00 1360.00,1108.00 1360.00,1108.00
             1360.00,1108.00 1336.00,1126.00 1336.00,1126.00
             1336.00,1126.00 1306.00,1140.00 1306.00,1140.00
             1306.00,1140.00 1280.00,1152.00 1280.00,1152.00
             1280.00,1152.00 1246.00,1170.00 1246.00,1170.00
             1246.00,1170.00 1206.00,1180.00 1204.00,1180.00
             1202.00,1180.00 1172.00,1184.00 1172.00,1184.00
             1172.00,1184.00 1134.00,1188.00 1134.00,1188.00
             1134.00,1188.00 1100.00,1190.00 1100.00,1190.00
             1100.00,1190.00 1056.00,1190.00 1056.00,1190.00
             1056.00,1190.00 1008.00,1192.00 1008.00,1192.00
             1008.00,1192.00 964.00,1190.00 964.00,1190.00
             964.00,1190.00 918.00,1194.00 918.00,1194.00
             918.00,1194.00 868.00,1192.00 868.00,1192.00
             868.00,1192.00 838.00,1190.00 838.00,1190.00
             838.00,1190.00 806.00,1192.00 804.00,1192.00
             802.00,1192.00 766.00,1190.00 766.00,1190.00
             766.00,1190.00 732.00,1188.00 732.00,1188.00
             732.00,1188.00 676.00,1182.00 676.00,1182.00
             676.00,1182.00 620.00,1180.00 620.00,1180.00
             620.00,1180.00 580.00,1174.00 580.00,1174.00
             580.00,1174.00 540.00,1168.00 540.00,1168.00
             540.00,1168.00 490.00,1164.00 490.00,1164.00
             490.00,1164.00 456.00,1156.00 456.00,1156.00
             456.00,1156.00 406.00,1148.00 406.00,1148.00
             406.00,1148.00 366.00,1134.00 364.00,1134.00
             362.00,1134.00 334.00,1126.00 334.00,1126.00
             334.00,1126.00 296.00,1110.00 296.00,1110.00
             296.00,1110.00 262.00,1094.00 262.00,1094.00
             262.00,1094.00 234.00,1076.00 234.00,1076.00
             234.00,1076.00 208.00,1056.00 208.00,1056.00
             208.00,1056.00 198.00,1024.00 198.00,1024.00
             198.00,1024.00 198.00,980.00 198.00,980.00
             198.00,980.00 208.00,934.00 208.00,934.00
             208.00,934.00 214.00,910.00 216.00,910.00
             218.00,910.00 232.00,880.00 232.00,880.00
             232.00,880.00 264.00,856.00 264.00,856.00
             264.00,856.00 288.00,830.00 288.00,830.00
             288.00,830.00 322.00,812.00 322.00,812.00
             322.00,812.00 348.00,796.00 348.00,796.00
             348.00,796.00 378.00,774.00 378.00,774.00
             378.00,774.00 410.00,770.00 410.00,770.00
             410.00,770.00 448.00,762.00 448.00,762.00
             448.00,762.00 482.00,754.00 482.00,754.00" />
  <path id="d"
        fill="none" stroke="black" stroke-width="1"
        d="M 498.00,964.00
           C 502.00,964.00 528.00,974.00 528.00,974.00
             528.00,974.00 552.00,984.00 552.00,984.00
             552.00,984.00 576.00,992.00 576.00,992.00
             576.00,992.00 602.00,1002.00 602.00,1002.00
             602.00,1002.00 626.00,1012.00 628.00,1012.00
             630.00,1012.00 668.00,1024.00 668.00,1024.00
             668.00,1024.00 708.00,1028.00 708.00,1028.00
             708.00,1028.00 738.00,1038.00 740.00,1038.00
             742.00,1038.00 780.00,1038.00 780.00,1038.00
             780.00,1038.00 814.00,1042.00 814.00,1042.00
             814.00,1042.00 858.00,1044.00 858.00,1044.00
             858.00,1044.00 898.00,1040.00 898.00,1040.00
             898.00,1040.00 928.00,1036.00 928.00,1036.00
             928.00,1036.00 972.00,1028.00 972.00,1028.00
             972.00,1028.00 1006.00,1018.00 1006.00,1018.00
             1006.00,1018.00 1048.00,1008.00 1048.00,1008.00
             1048.00,1008.00 1084.00,992.00 1084.00,992.00
             1084.00,992.00 1104.00,972.00 1104.00,972.00
             1104.00,972.00 1130.00,948.00 1130.00,948.00
             1130.00,948.00 1154.00,932.00 1154.00,932.00
             1154.00,932.00 1178.00,906.00 1178.00,904.00
             1178.00,902.00 1198.00,886.00 1198.00,886.00" />
  <path id="sf"
        fill="none" stroke="black" stroke-width="1"
        d="M 1449.00,988.50
           C 1449.00,988.50 1485.00,1276.50 1485.00,1276.50
             1485.00,1276.50 1489.50,1398.00 1489.50,1398.00
             1489.50,1398.00 1482.00,1515.00 1482.00,1515.00
             1482.00,1515.00 1491.00,1584.00 1491.00,1584.00" />
  <path id="se"
        fill="none" stroke="black" stroke-width="1"
        d="M 199.50,1054.50
           C 199.50,1054.50 192.00,1197.00 192.00,1197.00
             192.00,1197.00 178.50,1740.00 178.50,1740.00" />
  <path id="sd"
        fill="none" stroke="black" stroke-width="1"
        d="M 1185.00,427.50
           C 1185.00,427.50 1186.50,513.00 1186.50,513.00
             1186.50,513.00 1191.00,624.00 1191.00,624.00
             1191.00,624.00 1192.50,823.50 1192.50,823.50
             1192.50,823.50 1194.00,889.50 1194.00,889.50" />
  <path id="sc"
        fill="none" stroke="black" stroke-width="1"
        d="M 469.50,486.00
           C 469.50,486.00 466.50,504.00 466.50,504.00
             466.50,504.00 465.00,526.50 465.00,528.00
             465.00,529.50 468.00,553.50 468.00,553.50
             468.00,553.50 468.00,580.50 468.00,580.50
             468.00,580.50 475.50,652.50 475.50,652.50
             475.50,652.50 484.50,739.50 484.50,739.50
             484.50,739.50 489.00,828.00 489.00,828.00
             489.00,828.00 496.50,892.50 496.50,892.50
             496.50,892.50 495.00,960.00 495.00,960.00" />
  <path id="c"
        fill="none" stroke="black" stroke-width="1"
        d="M 685.50,333.00
           C 685.50,333.00 672.00,333.00 672.00,333.00
             672.00,333.00 651.00,337.50 651.00,337.50
             651.00,337.50 627.00,340.50 627.00,340.50
             627.00,340.50 606.00,348.00 606.00,348.00
             606.00,348.00 583.50,354.00 583.50,354.00
             583.50,354.00 568.50,363.00 567.00,364.50
             565.50,366.00 541.50,375.00 541.50,375.00
             541.50,375.00 520.50,390.00 520.50,390.00
             520.50,390.00 498.00,408.00 498.00,408.00
             498.00,408.00 484.50,430.50 484.50,430.50
             484.50,430.50 475.50,451.50 475.50,451.50
             475.50,451.50 474.00,472.50 474.00,472.50
             474.00,472.50 483.00,490.50 483.00,490.50
             483.00,490.50 495.00,507.00 495.00,507.00
             495.00,507.00 511.50,522.00 511.50,522.00
             511.50,522.00 528.00,533.00 528.00,533.00
             528.00,533.00 546.00,540.00 546.00,540.00
             546.00,540.00 564.00,551.00 564.00,551.00
             564.00,551.00 584.00,558.00 584.00,558.00
             584.00,558.00 607.00,570.00 607.00,570.00
             607.00,570.00 629.00,573.00 629.00,573.00
             629.00,573.00 650.00,579.00 651.00,579.00
             652.00,579.00 676.00,581.00 676.00,581.00
             676.00,581.00 696.00,588.00 696.00,588.00
             696.00,588.00 724.00,593.00 724.00,593.00
             724.00,593.00 753.00,596.00 753.00,596.00
             753.00,596.00 780.00,594.00 780.00,594.00
             780.00,594.00 802.00,595.00 802.00,595.00
             802.00,595.00 834.00,594.00 834.00,594.00
             834.00,594.00 858.00,593.00 858.00,593.00
             858.00,593.00 882.00,592.00 883.00,592.00
             884.00,592.00 909.00,590.00 909.00,590.00
             909.00,590.00 932.00,586.00 932.00,586.00
             932.00,586.00 959.00,584.00 960.00,584.00
             961.00,584.00 985.00,578.00 985.00,578.00
             985.00,578.00 1006.00,574.00 1006.00,574.00
             1006.00,574.00 1028.00,568.00 1028.00,568.00
             1028.00,568.00 1046.00,563.00 1046.00,563.00
             1046.00,563.00 1064.00,557.00 1064.00,557.00
             1064.00,557.00 1079.00,550.00 1080.00,550.00
             1081.00,550.00 1096.00,541.00 1096.00,541.00
             1096.00,541.00 1113.00,529.00 1114.00,529.00
             1115.00,529.00 1125.00,516.00 1125.00,516.00
             1125.00,516.00 1136.00,504.00 1136.00,504.00
             1136.00,504.00 1149.00,491.00 1149.00,491.00
             1149.00,491.00 1158.00,475.00 1158.00,475.00
             1158.00,475.00 1172.00,456.00 1172.00,456.00
             1172.00,456.00 1175.00,437.00 1175.00,437.00
             1175.00,437.00 1175.00,421.00 1175.00,421.00
             1175.00,421.00 1166.00,406.00 1166.00,406.00
             1166.00,406.00 1154.00,391.00 1154.00,391.00
             1154.00,391.00 1140.00,386.00 1140.00,386.00
             1140.00,386.00 1127.00,380.00 1127.00,380.00
             1127.00,380.00 1104.00,372.00 1104.00,372.00
             1104.00,372.00 1078.00,364.00 1078.00,364.00
             1078.00,364.00 1061.00,362.00 1061.00,362.00
             1061.00,362.00 1038.00,359.00 1038.00,359.00
             1038.00,359.00 1022.00,354.00 1022.00,354.00
             1022.00,354.00 1001.00,353.00 1001.00,353.00" />
  <path id="b"
        fill="none" stroke="black" stroke-width="1"
        d="M 693.00,423.00
           C 693.00,423.00 711.00,430.50 711.00,430.50
             711.00,430.50 724.50,439.50 724.50,439.50
             724.50,439.50 748.50,448.50 748.50,448.50
             748.50,448.50 777.00,454.50 777.00,454.50
             777.00,454.50 804.00,459.00 804.00,459.00
             804.00,459.00 826.50,463.50 826.50,463.50
             826.50,463.50 859.50,466.50 859.50,466.50
             859.50,466.50 889.50,466.50 889.50,466.50
             889.50,466.50 916.50,468.00 916.50,468.00
             916.50,468.00 942.00,465.00 942.00,465.00
             942.00,465.00 960.00,457.50 960.00,457.50
             960.00,457.50 979.50,448.50 979.50,448.50
             979.50,448.50 994.50,432.00 994.50,432.00
             994.50,432.00 1006.50,421.50 1006.50,421.50" />
  <path id="sb"
        fill="none" stroke="black" stroke-width="1"
        d="M 1010.67,429.33
           C 1010.67,429.33 1003.33,398.00 1003.33,398.00
             1003.33,398.00 997.33,352.00 997.33,352.00
             997.33,352.00 996.00,302.67 996.00,302.67
             996.00,302.67 996.00,244.67 996.00,244.67
             996.00,244.67 1001.33,207.33 1001.33,208.00
             1001.33,208.67 1007.33,150.67 1007.33,150.67" />
  <path id="sa"
        fill="none" stroke="black" stroke-width="1"
        d="M 688.00,422.00
           C 688.00,422.00 688.00,416.00 688.00,413.33
             688.00,410.67 683.33,281.33 683.33,281.33
             683.33,281.33 678.00,221.33 678.00,221.33
             678.00,221.33 675.33,138.67 675.33,138.67" />
  <path id="a"
        fill="none" stroke="black" stroke-width="1"
        d="M 670.50,138.00
           C 672.00,135.00 678.00,120.00 678.00,120.00
             678.00,120.00 693.00,111.00 693.00,111.00
             693.00,111.00 715.50,102.00 715.50,102.00
             715.50,102.00 745.50,96.00 745.50,96.00
             745.50,96.00 784.50,93.00 784.50,93.00
             784.50,93.00 829.50,91.50 829.50,91.50
             829.50,91.50 868.50,90.00 868.50,90.00
             868.50,90.00 901.50,96.00 901.50,96.00
             901.50,96.00 931.50,100.50 931.50,100.50
             931.50,100.50 952.50,108.00 952.50,108.00
             952.50,108.00 976.50,121.50 976.50,121.50
             976.50,121.50 993.00,129.00 993.00,129.00
             993.00,129.00 1002.00,139.50 1002.00,139.50
             1002.00,139.50 1003.50,153.00 1003.50,153.00
             1003.50,153.00 993.00,160.50 993.00,160.50
             993.00,160.50 979.50,171.00 979.50,171.00
             979.50,171.00 960.00,177.00 960.00,177.00
             960.00,177.00 940.50,183.00 940.50,183.00
             940.50,183.00 913.50,189.00 913.50,189.00
             913.50,189.00 889.50,190.50 889.50,190.50
             889.50,190.50 862.50,192.00 862.50,192.00
             862.50,192.00 832.50,193.50 832.50,193.50
             832.50,193.50 810.00,192.00 810.00,192.00
             810.00,192.00 784.50,192.00 784.50,192.00
             784.50,192.00 753.00,181.50 753.00,181.50
             753.00,181.50 727.50,174.00 727.50,174.00
             727.50,174.00 706.50,166.50 706.50,166.50
             706.50,166.50 691.50,156.00 691.50,156.00
             691.50,156.00 670.67,138.33 670.67,138.33" />
	</g>
</svg>
