<?xml version="1.0" encoding="UTF-8" standalone="no"?>
<svg
   xmlns:dc="http://purl.org/dc/elements/1.1/"
   xmlns:cc="http://creativecommons.org/ns#"
   xmlns:rdf="http://www.w3.org/1999/02/22-rdf-syntax-ns#"
   xmlns:svg="http://www.w3.org/2000/svg"
   xmlns="http://www.w3.org/2000/svg"
   xmlns:sodipodi="http://sodipodi.sourceforge.net/DTD/sodipodi-0.dtd"
   xmlns:inkscape="http://www.inkscape.org/namespaces/inkscape"
   width="10.0556in"
   height="10.8889in"
   viewBox="0 0 724 784"
   id="svg3042"
   version="1.1"
   inkscape:version="0.48.3.1 r9886"
   sodipodi:docname="street_lamp.svg">
  <metadata
     id="metadata3065">
    <rdf:RDF>
      <cc:Work
         rdf:about="">
        <dc:format>image/svg+xml</dc:format>
        <dc:type
           rdf:resource="http://purl.org/dc/dcmitype/StillImage" />
      </cc:Work>
    </rdf:RDF>
  </metadata>
  <defs
     id="defs3063" />
  <sodipodi:namedview
     pagecolor="#ffffff"
     bordercolor="#666666"
     borderopacity="1"
     objecttolerance="10"
     gridtolerance="10"
     guidetolerance="10"
     inkscape:pageopacity="0"
     inkscape:pageshadow="2"
     inkscape:window-width="1366"
     inkscape:window-height="706"
     id="namedview3061"
     showgrid="false"
     inkscape:zoom="1.5209996"
     inkscape:cx="299.41649"
     inkscape:cy="821.49832"
     inkscape:window-x="-8"
     inkscape:window-y="-8"
     inkscape:window-maximized="1"
     inkscape:current-layer="svg3042" />
  <path
     id="Unnamed #15"
     d="M 129.33,164.00            C 129.33,164.00 133.67,160.33 133.67,160.33              133.67,160.33 137.67,157.67 138.00,157.67              138.33,157.67 144.67,156.00 144.67,156.00              144.67,156.00 151.33,155.00 151.33,155.00              151.33,155.00 158.00,155.33 158.00,155.33              158.00,155.33 161.33,157.67 161.33,157.67              161.33,157.67 163.67,160.67 163.67,160.67              163.67,160.67 163.00,164.00 163.00,164.00              163.00,164.00 158.67,167.00 158.67,167.00              158.67,167.00 151.33,167.67 151.33,167.67              151.33,167.67 146.67,169.67 146.33,169.67              146.00,169.67 139.33,170.33 139.33,170.33              139.33,170.33 134.67,169.33 134.67,169.33              134.67,169.33 129.67,165.00 129.67,165.00"
     stroke-width="1"
     stroke="black"
     fill="none" />
  <path
     id="Unnamed #14"
     fill="none"
     stroke="black"
     stroke-width="1"
     d="M 243.33,199.67            C 243.33,199.67 243.67,210.33 243.67,210.33              243.67,210.33 243.67,220.00 243.67,220.00              243.67,220.00 241.33,234.67 241.33,234.67              241.33,234.67 239.67,242.33 239.67,242.33              239.67,242.33 237.00,249.33 237.00,249.33              237.00,249.33 231.33,256.33 231.33,256.33              231.33,256.33 226.67,260.00 226.67,260.00              226.67,260.00 223.33,262.33 223.33,262.33              223.33,262.33 218.00,266.67 218.00,266.67              218.00,266.67 208.33,269.33 208.33,269.33              208.33,269.33 201.33,269.00 201.33,269.00              201.33,269.00 193.67,266.33 193.67,266.33              193.67,266.33 186.67,261.67 186.67,261.67              186.67,261.67 183.33,256.67 183.33,256.67              183.33,256.67 178.00,251.00 178.00,251.00              178.00,251.00 173.33,241.67 173.33,241.67              173.33,241.67 171.00,235.33 171.00,235.33              171.00,235.33 168.67,229.00 168.67,229.00              168.67,229.00 167.33,219.67 167.33,219.67              167.33,219.67 166.00,210.00 166.00,210.00              166.00,210.00 165.33,205.00 165.33,205.00              165.33,205.00 164.00,196.00 164.00,196.00              164.00,196.00 160.67,188.33 160.67,188.33              160.67,188.33 160.67,180.67 160.67,180.67              160.67,180.67 160.33,174.33 160.33,174.33              160.33,174.33 159.33,169.00 159.33,169.00" />
  <path
     id="Unnamed #13"
     fill="none"
     stroke="black"
     stroke-width="1"
     d="M 280.67,196.00            C 280.67,196.00 280.33,204.67 280.33,204.67              280.33,204.67 279.33,217.00 279.33,217.00              279.33,217.00 277.33,229.67 277.33,229.67              277.33,229.67 276.33,242.00 276.33,242.00              276.33,242.00 271.67,256.33 271.67,256.33              271.67,256.33 267.33,267.33 267.33,267.33              267.33,267.33 259.67,276.33 259.67,276.33              259.67,276.33 255.67,283.33 255.67,283.33              255.67,283.33 248.00,292.00 248.00,292.00              248.00,292.00 242.00,298.00 242.00,298.00              242.00,298.00 235.33,302.00 235.33,302.00              235.33,302.00 227.33,304.00 226.67,304.00              226.00,304.00 216.67,305.67 216.67,305.67              216.67,305.67 205.00,303.00 205.00,303.00              205.00,303.00 193.33,302.33 193.33,302.33              193.33,302.33 184.00,298.33 184.00,298.33              184.00,298.33 175.67,295.00 175.67,295.00              175.67,295.00 172.00,292.00 172.00,292.00              172.00,292.00 165.00,286.67 165.00,286.67              165.00,286.67 160.00,281.67 160.00,281.67              160.00,281.67 154.33,272.67 154.33,272.67              154.33,272.67 149.33,263.00 149.33,263.00              149.33,263.00 148.33,252.67 148.33,252.67              148.33,252.67 145.67,244.00 145.67,244.00              145.67,244.00 144.67,236.33 144.67,236.33              144.67,236.33 143.00,229.33 143.00,229.33              143.00,229.33 139.67,222.00 139.67,222.00              139.67,222.00 137.67,212.33 137.67,212.33              137.67,212.33 134.67,198.67 134.67,198.67              134.67,198.67 133.00,190.00 133.00,190.00              133.00,190.00 131.00,180.00 131.00,180.00              131.00,180.00 131.00,174.00 131.00,173.67              131.00,173.33 129.00,165.00 129.00,165.00" />
  <path
     id="Unnamed #11"
     fill="none"
     stroke="black"
     stroke-width="1"
     d="M 464.67,155.33            C 464.67,155.33 465.67,152.00 465.67,152.00              465.67,152.00 469.33,147.67 469.33,147.67              469.33,147.67 478.67,145.33 478.67,145.33              478.67,145.33 482.33,146.33 482.33,146.33              482.33,146.33 488.33,147.00 488.33,147.00              488.33,147.00 490.67,150.00 490.67,150.00              490.67,150.00 490.33,154.00 490.33,154.00              490.33,154.00 487.67,157.33 487.67,157.33              487.67,157.33 482.33,159.00 482.33,159.00              482.33,159.00 476.67,160.00 476.67,160.00              476.67,160.00 470.67,160.33 470.67,160.33              470.67,160.33 467.67,159.67 467.67,159.67              467.67,159.67 464.33,156.33 464.33,156.33" />
  <path
     id="Unnamed #10"
     fill="none"
     stroke="black"
     stroke-width="1"
     d="M 364.67,184.00            C 364.67,184.00 367.67,195.00 367.67,195.00              367.67,195.00 372.67,204.00 372.67,204.00              372.67,204.00 377.33,214.00 377.33,214.00              377.33,214.00 381.67,222.00 381.67,222.00              381.67,222.00 387.67,231.67 387.67,231.67              387.67,231.67 394.33,240.67 394.33,240.67              394.33,240.67 400.67,248.00 400.67,248.00              400.67,248.00 409.00,253.00 409.00,253.00              409.00,253.00 416.33,254.67 416.33,255.00              416.33,255.33 426.33,256.00 426.33,256.00              426.33,256.00 433.67,254.00 433.67,254.00              433.67,254.00 438.33,250.67 438.33,250.67              438.33,250.67 443.00,246.33 443.00,246.33              443.00,246.33 449.67,240.00 449.67,240.00              449.67,240.00 454.00,234.00 454.00,234.00              454.00,234.00 457.33,226.33 457.33,226.33              457.33,226.33 460.00,215.00 460.00,215.00              460.00,215.00 462.33,201.00 462.33,201.00              462.33,201.00 462.33,190.00 462.33,190.00              462.33,190.00 463.33,179.67 463.33,179.67              463.33,179.67 464.67,169.00 464.67,169.00              464.67,169.00 464.00,159.33 464.00,159.33              464.00,159.33 464.00,154.00 464.00,154.00" />
  <path
     id="Unnamed #9"
     fill="none"
     stroke="black"
     stroke-width="1"
     d="M 328.00,192.00            C 328.00,192.00 331.67,203.67 331.67,203.67              331.67,203.67 339.00,221.33 339.00,221.33              339.00,221.33 348.00,241.33 348.00,241.33              348.00,241.33 353.33,249.67 353.33,249.67              353.33,249.67 358.67,257.00 358.67,257.00              358.67,257.00 366.00,263.33 366.00,263.33              366.00,263.33 374.00,269.67 374.00,269.67              374.00,269.67 384.00,276.67 384.00,276.67              384.00,276.67 393.00,282.33 393.00,282.33              393.00,282.33 402.33,287.00 402.33,287.00              402.33,287.00 414.67,288.00 414.67,288.00              414.67,288.00 425.00,290.00 425.00,290.00              425.00,290.00 437.33,288.00 437.33,288.00              437.33,288.00 449.33,281.67 449.33,281.67              449.33,281.67 460.33,273.67 460.33,273.67              460.33,273.67 467.00,267.33 467.00,267.33              467.00,267.33 471.00,258.33 471.00,258.33              471.00,258.33 476.33,249.00 476.33,249.00              476.33,249.00 481.00,238.33 481.00,238.33              481.00,238.33 485.67,229.67 485.67,229.67              485.67,229.67 488.00,217.33 488.00,217.33              488.00,217.33 490.00,207.33 490.00,207.33              490.00,207.33 492.00,197.00 492.00,197.00              492.00,197.00 492.00,186.33 492.00,186.33              492.00,186.33 492.67,175.33 492.67,175.33              492.67,175.33 492.00,164.67 492.00,164.67              492.00,164.67 492.00,156.67 492.00,156.67              492.00,156.67 490.67,152.67 490.67,152.67              490.67,152.67 491.00,149.33 491.00,149.33" />
  <path
     id="Unnamed #8"
     fill="none"
     stroke="black"
     stroke-width="1"
     d="M 242.55,196.36            C 242.36,195.45 241.64,191.09 241.64,191.09              241.64,191.09 243.82,188.73 243.82,188.55              243.82,188.36 246.00,186.18 246.00,186.18              246.00,186.18 249.64,184.00 249.82,183.82              250.00,183.64 253.82,182.00 253.82,182.00              253.82,182.00 258.00,181.82 258.36,181.82              258.73,181.82 264.36,181.82 264.36,181.82              264.36,181.82 269.27,181.82 269.82,181.82              270.36,181.82 273.82,182.00 273.82,182.00              273.82,182.00 278.55,182.73 278.55,182.73              278.55,182.73 282.18,183.45 282.18,183.45              282.18,183.45 285.27,185.09 285.27,185.09              285.27,185.09 286.18,189.82 286.18,189.82              286.18,189.82 283.82,192.36 283.82,192.36              283.82,192.36 282.00,193.45 281.82,193.64              281.64,193.82 276.91,195.82 276.73,196.00              276.55,196.18 272.55,198.00 272.55,198.00              272.55,198.00 267.27,199.82 267.09,199.82              266.91,199.82 261.09,200.73 261.09,200.73              261.09,200.73 257.82,201.45 257.82,201.45              257.82,201.45 252.36,201.64 252.36,201.64              252.36,201.64 247.64,200.73 247.64,200.73              247.64,200.73 244.55,199.82 244.55,199.82              244.55,199.82 242.18,196.73 242.18,196.73" />
  <path
     id="Unnamed #7"
     fill="none"
     stroke="black"
     stroke-width="1"
     d="M 352.91,191.45            C 352.91,191.45 347.45,193.27 347.45,193.27              347.45,193.27 342.00,193.64 342.00,193.64              342.00,193.64 337.09,193.82 337.09,193.82              337.09,193.82 331.09,192.91 330.73,192.91              330.36,192.91 327.45,190.91 327.45,190.91              327.45,190.91 326.00,188.18 326.00,188.18              326.00,188.18 325.82,185.09 325.82,185.09              325.82,185.09 326.91,181.09 326.91,181.09              326.91,181.09 331.45,178.18 331.45,178.18              331.45,178.18 334.91,176.73 334.91,176.73              334.91,176.73 340.00,175.27 340.00,175.27              340.00,175.27 345.45,174.73 345.64,174.55              345.82,174.36 350.73,173.82 350.73,173.82              350.73,173.82 355.09,174.00 355.09,174.00              355.09,174.00 359.09,174.55 359.09,174.55              359.09,174.55 362.36,176.73 362.36,176.73              362.36,176.73 364.18,179.45 364.18,179.45              364.18,179.45 364.73,182.73 364.73,182.73              364.73,182.73 364.18,185.27 364.18,185.27              364.18,185.27 361.45,186.91 361.45,186.91              361.45,186.91 359.27,188.36 359.27,188.36              359.27,188.36 353.64,191.45 353.64,191.45" />
  <path
     id="Unnamed #6"
     fill="none"
     stroke="black"
     stroke-width="1"
     d="M 285.33,187.33            C 285.33,187.33 289.33,182.67 289.33,182.67              289.33,182.67 295.33,180.67 295.33,180.67              295.33,180.67 303.33,178.67 303.33,178.67              303.33,178.67 312.67,179.33 312.67,179.33              312.67,179.33 320.00,179.33 320.00,179.33              320.00,179.33 325.33,182.00 325.33,182.00              325.33,182.00 325.82,189.27 325.82,189.27              325.82,189.27 319.33,192.00 319.33,192.00              319.33,192.00 314.00,194.67 314.00,194.67              314.00,194.67 307.33,194.67 307.33,194.67              307.33,194.67 300.00,195.33 299.33,195.33              298.67,195.33 290.67,194.67 290.67,194.67              290.67,194.67 285.33,193.33 285.33,193.33              285.33,193.33 282.88,190.75 282.88,190.75              282.88,190.75 285.25,187.63 285.25,187.63" />
  <path
     id="Unnamed #5"
     fill="none"
     stroke="black"
     stroke-width="1"
     d="M 322.00,186.00            C 322.00,186.00 322.67,204.00 322.67,204.00              322.67,204.00 324.67,233.33 324.67,233.33              324.67,233.33 326.67,251.33 326.67,251.33              326.67,251.33 328.67,281.33 328.67,281.33              328.67,281.33 327.33,307.33 327.33,307.33              327.33,307.33 326.00,341.33 326.00,341.33              326.00,341.33 327.33,372.67 327.33,372.67              327.33,372.67 326.00,398.67 326.00,398.67              326.00,398.67 326.67,427.33 326.67,427.33              326.67,427.33 326.67,450.00 326.67,450.00              326.67,450.00 328.00,479.33 328.00,479.33              328.00,479.33 331.33,505.33 331.33,505.33              331.33,505.33 334.00,534.00 333.33,534.00              332.67,534.00 332.67,558.67 332.67,558.67              332.67,558.67 331.33,584.67 331.33,584.67              331.33,584.67 330.67,606.67 330.67,606.67              330.67,606.67 334.00,622.67 334.00,622.67" />
  <path
     id="Unnamed #4"
     fill="none"
     stroke="black"
     stroke-width="1"
     d="M 286.00,194.00            C 286.00,194.00 286.00,210.00 286.00,210.00              286.00,210.00 286.67,233.33 286.67,233.33              286.67,233.33 289.33,260.00 289.33,260.00              289.33,260.00 293.33,288.00 293.33,288.00              293.33,288.00 298.00,318.00 298.00,318.00              298.00,318.00 300.00,346.67 300.00,346.67              300.00,346.67 301.33,372.67 301.33,372.67              301.33,372.67 300.00,394.00 300.00,394.00              300.00,394.00 300.67,415.33 300.67,415.33              300.67,415.33 299.33,436.00 299.33,436.00              299.33,436.00 298.67,454.00 298.67,454.00              298.67,454.00 299.33,472.67 299.33,472.67              299.33,472.67 298.00,488.67 298.00,488.67              298.00,488.67 296.00,508.67 296.00,508.67              296.00,508.67 296.00,526.00 296.00,526.00              296.00,526.00 295.33,554.00 295.33,554.00              295.33,554.00 296.67,576.67 296.67,576.67              296.67,576.67 297.33,594.67 297.33,594.67              297.33,594.67 298.67,620.00 298.67,620.00" />
  <path
     id="Unnamed #3"
     fill="none"
     stroke="black"
     stroke-width="1"
     d="M 297.33,624.00            C 297.33,624.00 300.67,628.67 300.67,628.67              300.67,628.67 307.33,632.00 307.33,632.00              307.33,632.00 313.33,632.00 314.00,632.00              314.67,632.00 321.33,630.67 321.33,630.67              321.33,630.67 328.67,627.33 328.67,627.33              328.67,627.33 332.67,624.67 332.67,624.67              332.67,624.67 333.33,620.00 333.33,620.00              333.33,620.00 328.00,616.67 328.00,616.67              328.00,616.67 322.00,614.00 322.00,614.00              322.00,614.00 314.00,614.00 314.00,614.00              314.00,614.00 308.67,614.67 308.67,614.67              308.67,614.67 303.33,616.67 303.33,616.67              303.33,616.67 296.67,619.33 296.67,619.33" />
  <path
     id="Unnamed #2"
     fill="none"
     stroke="black"
     stroke-width="1"
     d="M 402.67,688.67            C 402.67,688.67 398.67,695.33 398.67,695.33              398.67,695.33 393.33,704.00 393.33,704.00              393.33,704.00 385.33,710.67 385.33,710.67              385.33,710.67 375.33,716.67 375.33,716.67              375.33,716.67 360.67,722.00 360.67,722.00              360.67,722.00 348.67,725.33 348.67,725.33              348.67,725.33 339.33,728.00 339.33,728.00              339.33,728.00 328.00,728.00 328.00,728.00              328.00,728.00 314.67,729.33 314.67,729.33              314.67,729.33 301.33,729.33 301.33,729.33              301.33,729.33 288.67,728.67 288.67,728.67              288.67,728.67 280.00,727.33 280.00,727.33              280.00,727.33 269.33,723.33 269.33,723.33              269.33,723.33 263.33,721.33 263.33,721.33              263.33,721.33 254.00,718.67 254.00,718.67" />
  <path
     id="Unnamed #1"
     fill="none"
     stroke="black"
     stroke-width="1"
     d="M 403.33,686.67            C 403.33,686.67 400.67,676.67 400.67,676.67              400.67,676.67 398.67,665.33 398.67,665.33              398.67,665.33 395.33,653.33 395.33,653.33              395.33,653.33 386.67,645.33 386.67,645.33              386.67,645.33 376.00,640.67 376.00,640.67              376.00,640.67 366.67,640.67 366.67,640.67              366.67,640.67 357.33,640.67 357.33,640.67              357.33,640.67 348.67,639.33 348.67,639.33              348.67,639.33 341.33,634.67 341.33,634.67              341.33,634.67 336.00,628.67 336.00,628.67              336.00,628.67 334.67,623.33 334.67,623.33" />
  <path
     id="Unnamed"
     fill="none"
     stroke="black"
     stroke-width="1"
     d="M 252.00,717.33            C 252.00,717.33 250.67,706.00 250.67,706.00              250.67,706.00 250.67,692.67 250.67,692.67              250.67,692.67 253.33,682.67 253.33,682.67              253.33,682.67 258.67,674.67 258.67,674.67              258.67,674.67 266.00,669.33 266.00,669.33              266.00,669.33 272.67,665.33 272.67,665.33              272.67,665.33 284.00,660.00 284.00,660.00              284.00,660.00 294.00,652.67 294.00,652.67              294.00,652.67 297.33,642.67 297.33,642.67              297.33,642.67 298.00,633.33 298.00,633.33              298.00,633.33 298.67,628.00 298.67,628.00" />
  <path
     style="fill:none;stroke:#000000;stroke-width:1.07804024"
     inkscape:connector-curvature="0"
     id="Unnamed #12-1"
     d="m 253.86139,194.30211 c 0,0 -4.67302,-5.94327 -4.67302,-5.94327 0,0 -5.11087,-6.57171 -5.11087,-6.57171 0,0 -2.64397,-6.56119 -2.64397,-6.56119 0,0 -3.0219,-7.96204 -3.0219,-7.96204 0,0 -2.51276,-8.12472 -2.51276,-8.12472 0,0 -1.24055,-7.49899 -1.24055,-7.49899 0,0 -0.42381,-9.51506 -0.42381,-9.51506 0,0 1.87624,-9.20998 1.87624,-9.20998 0,0 0.54469,-7.02188 0.54469,-7.02188 0,0 2.38356,-9.34923 2.38356,-9.34923 0,0 5.75279,-8.10521 5.75279,-8.10521 0,0 3.02058,-9.048078 3.02058,-9.048078 0,0 5.57459,-7.791932 5.57459,-7.791932 0,0 6.20019,-7.472064 6.20019,-7.472064 0,0 7.55952,-5.600703 7.55952,-5.600703 0,0 12.00509,-5.431012 12.00509,-5.431012 0,0 9.53487,-3.414168 9.53487,-3.414168 0,0 11.63576,-2.781808 11.63576,-2.781808 0,0 10.35397,-3.412248 10.35397,-3.412248 0,0 9.23167,0.494688 9.23167,0.494688 0,0 14.52357,2.684342 14.52357,2.684342 0,0 12.50695,7.366391 12.50695,7.366391 0,0 11.23143,8.768023 11.23143,8.768023 0,0 6.02899,9.841979 6.02899,9.841979 0,0 3.71314,7.50015 3.71314,7.50015 0,0 2.13718,8.74187 2.13718,8.74187 0,0 1.69368,8.12278 1.69368,8.12278 0,0 0.0929,9.36445 0.0929,9.36445 0,0 0.17427,10.61944 0.17427,10.61944 0,0 -0.0949,9.67302 -0.0949,9.67302 0,0 -4.15303,10.90891 -3.8278,11.06887 0.31567,0.15525 -2.51713,8.89475 -2.51713,8.89475 0,0 -5.94392,10.44113 -5.94392,10.44113 0,0 -5.87831,9.65936 -5.87831,9.65936 0,0 -9.44488,8.71923 -9.44488,8.71923 0,0 -9.59479,4.18658 -9.59479,4.18658 0,0 -10.80707,2.78845 -10.80707,2.78845 0,0 -10.11015,2.31719 -10.11015,2.31719 0,0 -12.02326,1.37626 -12.02326,1.37626 0,0 -8.33114,0.76225 -8.33114,0.76225 0,0 -9.74083,-0.332 -9.74083,-0.332 0,0 -8.15917,-1.58308 -8.15917,-1.58308 0,0 -8.5371,-2.98393 -8.5371,-2.98393 0,0 -6.75575,-2.52087 -6.75575,-2.52087 0,0 -6.38254,-5.15603 -6.38254,-5.15603" />
  <path
     style="fill:none;stroke:#000000;stroke-width:1px;stroke-linecap:butt;stroke-linejoin:miter;stroke-opacity:1"
     d="m 204.4708,203.53792 c 0,-0.87661 -0.87662,-2.62984 0,-2.62984 0.87661,0 -0.61987,3.24971 0,2.62984 0.8928,-0.8928 0.65746,-3.81248 0.65746,-5.25969 0,-0.21916 0,-0.43831 0,-0.65747 0,-0.21915 -0.15497,-0.50249 0,-0.65746 0.15496,-0.15496 0.55945,0.19602 0.65746,0 0.19602,-0.39203 -0.13861,-0.89911 0,-1.31492 0.098,-0.29403 0.51886,-0.38026 0.65746,-0.65747 0.19602,-0.39203 -0.1386,-0.89911 0,-1.31492 0.15497,-0.4649 0.5025,-0.85003 0.65746,-1.31493 0.12083,-0.36247 -0.14056,-2.48928 0,-2.62985 0.15497,-0.15496 0.5025,0.15497 0.65747,0 0.15496,-0.15496 -0.15497,-0.50249 0,-0.65746 0.15496,-0.15496 0.50249,0.15497 0.65746,0 0.32873,-0.32873 -0.32873,-1.64365 0,-1.97238 0.15496,-0.15497 0.43831,0 0.65746,0 0,-0.43831 -0.19602,-0.92289 0,-1.31493 0.098,-0.19602 0.46145,0.098 0.65746,0 0.27721,-0.1386 0.39959,-0.48554 0.65747,-0.65746 0.40774,-0.27183 0.96841,-0.31095 1.31492,-0.65746 0.15497,-0.15497 -0.0693,-0.44956 0,-0.65747 0.15497,-0.46489 0.5025,-0.85002 0.65746,-1.31492 0.0693,-0.20791 -0.15496,-0.5025 0,-0.65746 0.15497,-0.15497 0.46145,0.098 0.65747,0 2.7362,-1.3681 -0.70285,0.0454 0.65746,-1.31493 0.15496,-0.15496 0.5025,0.15497 0.65746,0 0.15497,-0.15496 -0.15496,-0.5025 0,-0.65746 0.15497,-0.15497 0.5025,0.15496 0.65746,0 0.15497,-0.15497 -0.098,-0.46145 0,-0.65746 0.13861,-0.27721 0.51886,-0.38025 0.65747,-0.65747 0.098,-0.19601 -0.15497,-0.50249 0,-0.65746 0.15496,-0.15496 0.50249,0.15497 0.65746,0 0.15496,-0.15496 -0.15497,-0.50249 0,-0.65746 0.15496,-0.15497 0.46144,0.098 0.65746,0 0.27721,-0.13861 0.38025,-0.51886 0.65746,-0.65746 0.19602,-0.098 0.46145,0.098 0.65746,0 0.27722,-0.13861 0.38026,-0.51886 0.65747,-0.65746 0.19601,-0.098 0.50249,0.15496 0.65746,0 0.15496,-0.15497 -0.15497,-0.5025 0,-0.65747 0.32873,-0.32873 1.64366,0.32873 1.97239,0 0.15496,-0.15496 -0.15497,-0.50249 0,-0.65746 0.15496,-0.15496 0.50249,0.15497 0.65746,0 0.15496,-0.15496 -0.19602,-0.55945 0,-0.65746 0.39203,-0.19602 0.87662,0 1.31492,0 0.21916,0 0.5025,0.15496 0.65747,0 0.15496,-0.15497 -0.15497,-0.5025 0,-0.65746 0.30993,-0.30993 1.00499,0.30993 1.31492,0 0.15497,-0.15497 -0.15496,-0.5025 0,-0.65747 0.15497,-0.15496 0.5025,0.15497 0.65746,0 1.36032,-1.36031 -2.07874,0.0532 0.65747,-1.31492 0.19601,-0.098 0.46144,0.098 0.65746,0 0.27721,-0.13861 0.43831,-0.43831 0.65746,-0.65746 0.21915,-0.21916 0.51886,-0.38026 0.65746,-0.65747 0.098,-0.19601 -0.19601,-0.55945 0,-0.65746 0.39204,-0.19602 0.92289,0.19602 1.31493,0 0.19601,-0.098 -0.15497,-0.5025 0,-0.65746 0.15496,-0.15497 0.46144,0.098 0.65746,0 0.27721,-0.13861 0.38025,-0.51886 0.65746,-0.65746 0.19602,-0.098 0.46145,0.098 0.65746,0 0.27721,-0.13861 0.43831,-0.43831 0.65747,-0.65747 0.21915,-0.21915 0.51885,-0.38025 0.65746,-0.65746 0.098,-0.19602 -0.15497,-0.50249 0,-0.65746 0.15496,-0.15497 0.5025,0.15497 0.65746,0 0.15497,-0.15497 -0.098,-0.46145 0,-0.65746 0.39448,-0.78896 1.57791,-1.18343 1.97239,-1.97239 0.19602,-0.39203 -0.19602,-0.92289 0,-1.31492 0.1386,-0.27721 0.51886,-0.38026 0.65746,-0.65747 0.13034,-0.26068 -0.13441,-1.83797 0,-1.97238 0.15497,-0.15497 0.5025,0.15496 0.65746,0 0.15497,-0.15497 0,-0.43831 0,-0.65747 0,-0.21915 0,-0.4383 0,-0.65746 0,-1.75323 0,-3.50646 0,-5.2597 0,-0.45729 0.11888,-3.04955 0,-3.28731 -1.00248,-2.00497 -0.52121,1.20246 -1.31492,-1.97239 -0.10631,-0.42522 0.30993,-1.00499 0,-1.31492 -0.30993,-0.30993 -0.92289,0.19602 -1.31493,0 -0.39203,-0.19602 0.30993,-1.005 0,-1.31493 -0.34651,-0.34651 -0.96841,-0.31095 -1.31492,-0.65746 -0.15497,-0.15496 0.098,-0.46144 0,-0.65746 -0.13861,-0.27721 -0.51886,-0.38025 -0.65746,-0.65746 -0.098,-0.19602 0.15496,-0.5025 0,-0.65747 -0.30993,-0.30993 -1.11891,0.39204 -1.31493,0 -0.19602,-0.39203 0.19602,-0.92289 0,-1.31492 -0.098,-0.19602 -0.55945,0.19602 -0.65746,0 -0.58805,-0.51864 0.29403,-1.38433 0,-1.97239 -0.13861,-0.27721 -0.51886,-0.38025 -0.65746,-0.65746 -0.098,-0.19602 0.15496,-0.5025 0,-0.65746 -0.15497,-0.15497 -0.5025,0.15496 -0.65746,0 -0.15497,-0.15497 0.098,-0.46145 0,-0.65746 -0.13861,-0.27721 -0.51886,-0.38026 -0.65747,-0.65747 -0.19601,-0.39203 0.30993,-1.00499 0,-1.31492 -0.15496,-0.15497 -0.50249,0.15496 -0.65746,0 -0.32873,-0.32873 0.32873,-1.64366 0,-1.97239 -0.15497,-0.15496 -0.5025,0.15497 -0.65746,0 -0.15497,-0.15496 0.15496,-0.5025 0,-0.65746 -0.15497,-0.15497 -0.5025,0.15496 -0.65746,0 -0.15497,-0.15497 0.15496,-0.5025 0,-0.65746 -0.15497,-0.15497 -0.5025,0.15496 -0.65747,0 -1.36031,-1.36032 2.07874,0.0532 -0.65746,-1.31493 -0.19602,-0.098 -0.5025,0.15497 -0.65746,0 -0.15497,-0.15496 0.15496,-0.50249 0,-0.65746 -0.15497,-0.15497 -0.5025,0.15497 -0.65746,0 -0.30993,-0.30993 0.19601,-0.92289 0,-1.31492 -0.13861,-0.27722 -0.51886,-0.38026 -0.65747,-0.65747 -0.098,-0.19601 0.15497,-0.50249 0,-0.65746 -0.15496,-0.15496 -0.50249,0.15497 -0.65746,0 -0.15496,-0.15496 0.098,-0.46144 0,-0.65746 -0.1386,-0.27721 -0.51886,-0.38025 -0.65746,-0.65746 -0.098,-0.19602 0.15496,-0.5025 0,-0.65747 -0.15497,-0.15496 -0.5025,0.15497 -0.65746,0 -0.15497,-0.15496 0.098,-0.46144 0,-0.65746 -0.27721,-0.55442 -1.03772,-0.7605 -1.31493,-1.31492 -0.098,-0.19602 0.098,-0.46145 0,-0.65747 -0.39448,-0.78895 -1.57791,-1.18343 -1.97239,-1.97238 -0.098,-0.19602 0.15497,-0.5025 0,-0.65747 -0.15496,-0.15496 -0.50249,0.15497 -0.65746,0 -0.30993,-0.30993 0.30993,-1.00499 0,-1.31492 -0.15496,-0.15497 -0.50249,0.15497 -0.65746,0 -0.15497,-0.15497 0.098,-0.46145 0,-0.65746 -0.27721,-0.55442 -1.03771,-0.76051 -1.31492,-1.31493 -0.098,-0.19601 0.098,-0.46144 0,-0.65746 -1.36811,-2.7362 0.0454,0.70285 -1.31493,-0.65746 -0.30993,-0.30993 0.30993,-1.005 0,-1.31493 -0.15496,-0.15496 -0.5025,0.15497 -0.65746,0 -0.15497,-0.15496 0.15496,-0.50249 0,-0.65746 -0.15497,-0.15496 -0.5025,0.15497 -0.65746,0 -0.0212,-0.0211 0,-1.81293 0,-1.97239 0,-0.24144 0.0265,-2.60339 0,-2.62985 -0.15497,-0.15496 -0.5025,0.15497 -0.65747,0 -0.15496,-0.15496 0,-0.4383 0,-0.65746 0,-0.45729 0.11888,-3.04955 0,-3.28731 -0.1386,-0.27721 -0.51885,-0.38025 -0.65746,-0.65746 -0.20661,-0.41323 0.20662,-2.21662 0,-2.62985 -0.1386,-0.27721 -0.51886,-0.38025 -0.65746,-0.65746 -0.20739,-0.41478 0.20739,-2.872543 0,-3.287316 -0.13861,-0.27721 -0.51886,-0.380252 -0.65746,-0.657462 -0.098,-0.196018 0.098,-0.461445 0,-0.657463 -0.13861,-0.27721 -0.51886,-0.380252 -0.65747,-0.657462 -0.14627,-0.292556 0.10024,-2.329135 0,-2.62985 -0.098,-0.294026 -0.51885,-0.380251 -0.65746,-0.657462 -0.20661,-0.41323 0.20662,-2.21662 0,-2.629849 -0.1386,-0.277211 -0.51886,-0.380252 -0.65746,-0.657463 -0.098,-0.196017 0.15496,-0.502497 0,-0.657462 -0.15497,-0.154965 -0.5025,0.154965 -0.65746,0 -0.0265,-0.02646 0,-2.388405 0,-2.62985 0,-0.219154 0,-0.438308 0,-0.657462 0,-0.219154 0.15496,-0.502497 0,-0.657462 -0.15497,-0.154966 -0.5025,0.154965 -0.65747,0 -0.15496,-0.154966 0,-0.438309 0,-0.657463 0,-0.407399 0.10286,-3.739066 0,-3.944774 -0.098,-0.196017 -0.50249,0.154966 -0.65746,0 -0.0812,-0.08121 0,-2.217562 0,-2.629849 0,-1.314925 0,-2.62985 0,-3.944774 0,-0.219155 -0.21915,-0.657463 0,-0.657463 0.21916,0 0.21916,0.657463 0,0.657463 -0.30993,0 -0.43831,-0.438309 -0.65746,-0.657463"
     id="path3011"
     inkscape:connector-curvature="0"
     transform="matrix(0.7999992,0,0,0.7999992,-0.0012506,0)" />
  <path
     style="fill:none;stroke:#000000;stroke-width:1px;stroke-linecap:butt;stroke-linejoin:miter;stroke-opacity:1"
     d="m 160.42082,204.19539 c 0,-1.53408 0,-3.06816 0,-4.60224 0,-0.21915 0,-0.43831 0,-0.65746 0,-0.21916 0.098,-0.46145 0,-0.65746 -0.13861,-0.27721 -0.51886,-0.38026 -0.65747,-0.65747 -0.19601,-0.39203 0.19602,-0.92289 0,-1.31492 -0.1386,-0.27721 -0.51885,-0.38025 -0.65746,-0.65746 -0.098,-0.19602 0.098,-0.46145 0,-0.65747 -1.3681,-2.7362 0.0454,0.70285 -1.31492,-0.65746 -0.32873,-0.32873 0.32873,-1.64365 0,-1.97239 -0.15497,-0.15496 -0.5025,0.15497 -0.65746,0 -0.30994,-0.30993 0.19601,-0.92289 0,-1.31492 -0.13861,-0.27721 -0.51886,-0.38025 -0.65747,-0.65746 -0.098,-0.19602 0.15497,-0.5025 0,-0.65747 -0.15496,-0.15496 -0.50249,0.15497 -0.65746,0 -0.15497,-0.15496 0.15497,-0.50249 0,-0.65746 -0.15497,-0.15496 -0.5025,0.15497 -0.65746,0 -0.15497,-0.15496 0.15496,-0.50249 0,-0.65746 -0.15497,-0.15497 -0.5025,0.15497 -0.65746,0 -0.21879,-0.21879 0.21878,-1.09614 0,-1.31492 -0.0408,-1.85125 -1.48235,-0.16742 -1.97239,-0.65747 -0.15497,-0.15496 0.15496,-0.50249 0,-0.65746 -0.15497,-0.15496 -0.46145,0.098 -0.65746,0 -0.27721,-0.1386 -0.38026,-0.51886 -0.65747,-0.65746 -0.19601,-0.098 -0.50249,0.15496 -0.65746,0 -0.15496,-0.15497 0.098,-0.46145 0,-0.65746 -1.3681,-2.7362 0.0454,0.70285 -1.31492,-0.65747 -0.15497,-0.15496 0.15496,-0.50249 0,-0.65746 -0.15497,-0.15496 -0.46145,0.098 -0.65747,0 -0.27721,-0.1386 -0.38025,-0.51886 -0.65746,-0.65746 -0.19602,-0.098 -0.46144,0.098 -0.65746,0 -0.27721,-0.13861 -0.38025,-0.51886 -0.65746,-0.65746 -0.19602,-0.098 -0.43831,0 -0.65747,0 -0.21915,-0.21916 -0.38025,-0.51886 -0.65746,-0.65747 -0.19601,-0.098 -0.44955,0.0693 -0.65746,0 -0.4649,-0.15496 -0.85003,-0.50249 -1.31492,-0.65746 -0.20791,-0.0693 -0.5025,0.15497 -0.65747,0 -0.15496,-0.15496 0.15497,-0.5025 0,-0.65746 -0.15496,-0.15497 -0.50249,0.15496 -0.65746,0 -0.15496,-0.15497 0.15497,-0.5025 0,-0.65746 -0.30993,-0.30993 -1.00499,0.30993 -1.31492,0 -0.15497,-0.15497 0.15496,-0.5025 0,-0.65747 -0.15497,-0.15496 -0.5025,0.15497 -0.65747,0 -0.15496,-0.15496 0.098,-0.46144 0,-0.65746 -0.27721,-0.55442 -1.03771,-0.7605 -1.31492,-1.31492 -0.098,-0.19602 0.15496,-0.5025 0,-0.65746 -0.15497,-0.15497 -0.5025,0.15496 -0.65746,0 -0.1799,-0.1799 0.17833,-2.27319 0,-2.62985 -0.13861,-0.27721 -0.51886,-0.38026 -0.65747,-0.65747 -0.19601,-0.39203 0.30993,-1.00499 0,-1.31492 -0.15496,-0.15497 -0.50249,0.15496 -0.65746,0 -0.20358,-0.20358 0.20358,-3.08373 0,-3.28731 -0.15496,-0.15497 -0.5025,0.15496 -0.65746,0 -0.15497,-0.15497 0,-0.43831 0,-0.65747 0,-0.21915 0,-0.4383 0,-0.65746 0,-1.31492 0,-2.62985 0,-3.94477 0,-0.21916 0,-0.43831 0,-0.65746 0,-0.21916 -0.098,-0.46145 0,-0.65747 0.1386,-0.27721 0.51886,-0.38025 0.65746,-0.65746 0.19602,-0.39203 -0.19602,-0.92289 0,-1.31492 0.13861,-0.27721 0.51886,-0.38026 0.65746,-0.65747 0.098,-0.19601 0,-0.4383 0,-0.65746 0.21916,-0.21915 0.51886,-0.38025 0.65747,-0.65746 0.098,-0.19602 -0.098,-0.46145 0,-0.65746 1.3681,-2.7362 -0.0454,0.70285 1.31492,-0.65747 0.30993,-0.30993 -0.19602,-0.92289 0,-1.31492 0.13861,-0.27721 0.43831,-0.43831 0.65746,-0.65746 0.21916,-0.21916 0.38026,-0.51886 0.65747,-0.65747 0.19601,-0.098 0.50249,0.15497 0.65746,0 0.15496,-0.15496 -0.15497,-0.50249 0,-0.65746 0.15496,-0.15496 0.5025,0.15497 0.65746,0 0.15497,-0.15496 -0.15496,-0.50249 0,-0.65746 0.15497,-0.15497 0.5025,0.15497 0.65746,0 0.15497,-0.15497 -0.15496,-0.5025 0,-0.65746 0.15497,-0.15497 0.46145,0.098 0.65747,0 0.27202,-0.13601 1.7866,-1.69372 1.97238,-1.97239 0.27183,-0.40774 0.31095,-0.96841 0.65746,-1.31492 1.36032,-1.36032 -0.0532,2.07873 1.31493,-0.65747 0.098,-0.19601 -0.15497,-0.50249 0,-0.65746 0.15496,-0.15496 0.46144,0.098 0.65746,0 0.58274,-0.29137 1.37389,-1.57339 1.97239,-1.97239 0.40774,-0.27182 0.96841,-0.31095 1.31492,-0.65746 0.15497,-0.15496 -0.098,-0.46144 0,-0.65746 0.72685,-1.45369 0.40805,-0.20403 1.31493,-0.65746 2.7362,-1.3681 -0.70285,0.0454 0.65746,-1.31493 1.36031,-1.36031 -0.0532,2.07874 1.31493,-0.65746 0.098,-0.19602 -0.098,-0.46144 0,-0.65746 0.1386,-0.27721 0.4383,-0.43831 0.65746,-0.65746 0.21915,-0.21916 0.38025,-0.51886 0.65746,-0.65747 0.19602,-0.098 0.5025,0.15497 0.65746,0 0.21879,-0.21878 -0.21878,-1.09614 0,-1.31492 0.15497,-0.15497 0.5025,0.15496 0.65747,0 0.30993,-0.30993 -0.30994,-1.005 0,-1.31493 0.15496,-0.15496 0.50249,0.15497 0.65746,0 0.15496,-0.15496 -0.098,-0.46144 0,-0.65746 0.39447,-0.78895 1.57791,-1.18343 1.97238,-1.97239 0.19602,-0.39203 -0.30993,-1.00499 0,-1.31492 0.15497,-0.15497 0.5025,0.15496 0.65747,0 0.15496,-0.15497 -0.098,-0.46145 0,-0.65746 0.1386,-0.27721 0.51885,-0.38025 0.65746,-0.65747 0.17833,-0.35666 -0.1799,-2.44995 0,-2.62984 0.15496,-0.15497 0.5025,0.15496 0.65746,0 0.15497,-0.15497 0,-0.43831 0,-0.65747 0,-0.43831 0,-0.87661 0,-1.31492 0,-0.15945 -0.0211,-1.95125 0,-1.97239 0.15497,-0.15496 0.5025,0.15497 0.65746,0 0.13441,-0.13441 -0.13034,-1.71171 0,-1.97239 0.13861,-0.27721 0.51886,-0.38025 0.65747,-0.65746 0.10004,-0.20009 0,-1.67629 0,-1.97239 0,-1.31492 0,-2.62985 0,-3.94477 0,-3.28731 0,-6.57462 0,-9.86194 0,-1.97238 0,-3.94477 0,-5.91716 0,-0.21915 -0.15497,-0.502494 0,-0.657459 0.15496,-0.154965 0.50249,0.154965 0.65746,0 0.15496,-0.154965 0,-0.438308 0,-0.657462 0,-1.314925 0,-2.62985 0,-3.944774 0,-7.889549 0,-15.779097 0,-23.668646"
     id="path3013"
     inkscape:connector-curvature="0"
     transform="matrix(0.7999992,0,0,0.7999992,-0.0012506,0)" />
  <path
     style="fill:none;stroke:#000000;stroke-width:0.99999994"
     inkscape:connector-curvature="0"
     id="Unnamed #15-1"
     d="m 129.04823,60.023246 c 0,0 4.34,-3.67 4.34,-3.67 0,0 4,-2.66 4.33,-2.66 0.33,0 6.67,-1.67 6.67,-1.67 0,0 6.66,-1 6.66,-1 0,0 6.67,0.33 6.67,0.33 0,0 3.33,2.34 3.33,2.34 0,0 2.34,3 2.34,3 0,0 -0.67,3.33 -0.67,3.33 0,0 -4.33,3 -4.33,3 0,0 -7.34,0.67 -7.34,0.67 0,0 -4.66,2 -5,2 -0.33,0 -7,0.66 -7,0.66 0,0 -4.66,-1 -4.66,-1 0,0 -5,-4.33 -5,-4.33" />
  <path
     style="fill:none;stroke:#000000;stroke-width:0.79999918px;stroke-linecap:butt;stroke-linejoin:miter;stroke-opacity:1"
     d="m 493.88399,152.77448 c 0,-0.70129 -0.70129,-2.10387 0,-2.10387 0.70129,0 -0.49589,2.59976 0,2.10387 0.71424,-0.71424 0.52597,-3.04998 0.52597,-4.20775 0,-0.17533 0,-0.35065 0,-0.52598 0,-0.17532 -0.12398,-0.40199 0,-0.52596 0.12397,-0.12397 0.44756,0.15681 0.52597,0 0.15681,-0.31363 -0.11089,-0.71929 0,-1.05194 0.0784,-0.23522 0.41509,-0.30421 0.52597,-0.52597 0.15681,-0.31363 -0.11088,-0.71929 0,-1.05194 0.12397,-0.37192 0.40199,-0.68002 0.52596,-1.05194 0.0967,-0.28998 -0.11245,-1.99142 0,-2.10388 0.12398,-0.12397 0.402,0.12398 0.52598,0 0.12397,-0.12397 -0.12398,-0.40199 0,-0.52597 0.12397,-0.12396 0.40199,0.12398 0.52597,0 0.26298,-0.26298 -0.26299,-1.31491 0,-1.5779 0.12396,-0.12397 0.35064,0 0.52596,0 0,-0.35064 -0.15681,-0.73831 0,-1.05194 0.0784,-0.15682 0.36916,0.0784 0.52597,0 0.22177,-0.11088 0.31967,-0.38843 0.52598,-0.52597 0.32619,-0.21746 0.77472,-0.24876 1.05193,-0.52596 0.12398,-0.12398 -0.0554,-0.35965 0,-0.52598 0.12398,-0.37191 0.402,-0.68002 0.52597,-1.05193 0.0554,-0.16633 -0.12397,-0.402 0,-0.52597 0.12397,-0.12398 0.36916,0.0784 0.52597,0 2.18896,-1.09448 -0.56228,0.0363 0.52597,-1.05195 0.12397,-0.12396 0.402,0.12398 0.52597,0 0.12397,-0.12396 -0.12397,-0.40199 0,-0.52596 0.12397,-0.12398 0.402,0.12397 0.52597,0 0.12397,-0.12398 -0.0784,-0.36916 0,-0.52597 0.11088,-0.22177 0.41508,-0.3042 0.52597,-0.52598 0.0784,-0.1568 -0.12397,-0.40199 0,-0.52596 0.12397,-0.12397 0.40199,0.12397 0.52597,0 0.12397,-0.12397 -0.12398,-0.40199 0,-0.52597 0.12397,-0.12398 0.36915,0.0784 0.52597,0 0.22176,-0.11089 0.3042,-0.41509 0.52596,-0.52597 0.15682,-0.0784 0.36916,0.0784 0.52597,0 0.22178,-0.11089 0.30421,-0.41509 0.52598,-0.52597 0.15681,-0.0784 0.40199,0.12397 0.52596,0 0.12397,-0.12397 -0.12397,-0.40199 0,-0.52597 0.26299,-0.26298 1.31493,0.26298 1.57792,0 0.12396,-0.12397 -0.12398,-0.40199 0,-0.52596 0.12396,-0.12397 0.40199,0.12397 0.52596,0 0.12397,-0.12397 -0.15681,-0.44756 0,-0.52597 0.31363,-0.15682 0.7013,0 1.05194,0 0.17533,0 0.402,0.12397 0.52597,0 0.12397,-0.12398 -0.12397,-0.402 0,-0.52597 0.24795,-0.24794 0.80399,0.24794 1.05194,0 0.12397,-0.12398 -0.12397,-0.402 0,-0.52597 0.12397,-0.12397 0.402,0.12397 0.52597,0 1.08825,-1.08825 -1.66299,0.0426 0.52597,-1.05194 0.15681,-0.0784 0.36915,0.0784 0.52597,0 0.22177,-0.11089 0.35065,-0.35065 0.52597,-0.52597 0.17532,-0.17533 0.41508,-0.3042 0.52596,-0.52597 0.0784,-0.15681 -0.1568,-0.44756 0,-0.52597 0.31364,-0.15682 0.73831,0.15682 1.05195,0 0.1568,-0.0784 -0.12398,-0.402 0,-0.52597 0.12396,-0.12397 0.36915,0.0784 0.52596,0 0.22177,-0.11089 0.3042,-0.41509 0.52597,-0.52597 0.15682,-0.0784 0.36916,0.0784 0.52597,0 0.22177,-0.11088 0.35065,-0.35064 0.52597,-0.52597 0.17532,-0.17532 0.41508,-0.3042 0.52597,-0.52597 0.0784,-0.15681 -0.12397,-0.40199 0,-0.52597 0.12397,-0.12397 0.402,0.12398 0.52597,0 0.12398,-0.12397 -0.0784,-0.36916 0,-0.52596 0.31558,-0.63117 1.26233,-0.94675 1.57791,-1.57791 0.15682,-0.31363 -0.15681,-0.73831 0,-1.05194 0.11088,-0.22176 0.41509,-0.3042 0.52597,-0.52597 0.10427,-0.20855 -0.10753,-1.47038 0,-1.5779 0.12398,-0.12398 0.402,0.12396 0.52597,0 0.12397,-0.12398 0,-0.35065 0,-0.52598 0,-0.17532 0,-0.35064 0,-0.52597 0,-1.40258 0,-2.80516 0,-4.20775 0,-0.36584 0.0951,-2.43964 0,-2.62985 -0.80199,-1.60397 -0.41697,0.96197 -1.05194,-1.57791 -0.085,-0.34017 0.24795,-0.80399 0,-1.05193 -0.24794,-0.24795 -0.73831,0.15681 -1.05194,0 -0.31363,-0.15682 0.24794,-0.804 0,-1.05195 -0.27721,-0.2772 -0.77473,-0.24876 -1.05194,-0.52596 -0.12397,-0.12397 0.0784,-0.36916 0,-0.52597 -0.11089,-0.22177 -0.41509,-0.3042 -0.52597,-0.52597 -0.0784,-0.15682 0.12397,-0.402 0,-0.52598 -0.24794,-0.24794 -0.89512,0.31364 -1.05194,0 -0.15681,-0.31362 0.15682,-0.73831 0,-1.05193 -0.0784,-0.15682 -0.44756,0.15682 -0.52597,0 -0.47044,-0.41491 0.23523,-1.10746 0,-1.57791 -0.11088,-0.22177 -0.41508,-0.3042 -0.52596,-0.52597 -0.0784,-0.15681 0.12396,-0.402 0,-0.52597 -0.12398,-0.12397 -0.402,0.12397 -0.52597,0 -0.12398,-0.12397 0.0784,-0.369155 0,-0.525962 -0.11089,-0.221768 -0.41509,-0.304208 -0.52598,-0.525976 -0.1568,-0.313624 0.24795,-0.803991 0,-1.051935 -0.12396,-0.123976 -0.40199,0.123968 -0.52596,0 -0.26299,-0.262984 0.26298,-1.314926 0,-1.57791 -0.12398,-0.123968 -0.402,0.123976 -0.52597,0 -0.12398,-0.123968 0.12397,-0.402 0,-0.525968 -0.12398,-0.123976 -0.402,0.123968 -0.52597,0 -0.12397,-0.123976 0.12397,-0.401999 0,-0.525967 -0.12397,-0.123976 -0.402,0.123968 -0.52597,0 -1.08825,-1.088255 1.66299,0.04256 -0.52597,-1.051943 -0.15682,-0.0784 -0.402,0.123976 -0.52597,0 -0.12398,-0.123968 0.12397,-0.401992 0,-0.525968 -0.12398,-0.123975 -0.402,0.123976 -0.52597,0 -0.24794,-0.247943 0.15681,-0.738311 0,-1.051935 -0.11088,-0.221775 -0.41508,-0.304207 -0.52597,-0.525975 -0.0784,-0.156808 0.12397,-0.401992 0,-0.525968 -0.12397,-0.123967 -0.40199,0.123976 -0.52597,0 -0.12397,-0.123967 0.0784,-0.369151 0,-0.525967 -0.11088,-0.221768 -0.41509,-0.3042 -0.52597,-0.525967 -0.0784,-0.156816 0.12397,-0.402 0,-0.525976 -0.12397,-0.123968 -0.402,0.123976 -0.52596,0 -0.12398,-0.123968 0.0784,-0.369152 0,-0.525967 -0.22177,-0.443536 -0.83018,-0.6084 -1.05195,-1.051935 -0.0784,-0.156816 0.0784,-0.36916 0,-0.525976 -0.31558,-0.631159 -1.26232,-0.946743 -1.57791,-1.577902 -0.0784,-0.156816 0.12398,-0.402 0,-0.525976 -0.12397,-0.123968 -0.40199,0.123976 -0.52597,0 -0.24794,-0.247944 0.24795,-0.803991 0,-1.051935 -0.12396,-0.123976 -0.40199,0.123976 -0.52596,0 -0.12398,-0.123976 0.0784,-0.369159 0,-0.525967 -0.22177,-0.443536 -0.83017,-0.608408 -1.05194,-1.051943 -0.0784,-0.156808 0.0784,-0.369152 0,-0.525968 -1.09449,-2.188957 0.0363,0.56228 -1.05194,-0.525967 -0.24794,-0.247944 0.24794,-0.803999 0,-1.051943 -0.12397,-0.123968 -0.402,0.123976 -0.52597,0 -0.12397,-0.123968 0.12397,-0.401992 0,-0.525968 -0.12397,-0.123967 -0.402,0.123976 -0.52597,0 -0.017,-0.01688 0,-1.450342 0,-1.57791 0,-0.193152 0.0212,-2.08271 0,-2.103878 -0.12397,-0.123968 -0.402,0.123976 -0.52597,0 -0.12397,-0.123968 0,-0.350639 0,-0.525967 0,-0.365832 0.0951,-2.439638 0,-2.629846 -0.11088,-0.221767 -0.41508,-0.304199 -0.52597,-0.525967 -0.16529,-0.330584 0.1653,-1.773294 0,-2.103878 -0.11088,-0.221768 -0.41509,-0.3042 -0.52597,-0.525968 -0.16591,-0.331823 0.16592,-2.298032 0,-2.62985 -0.11088,-0.221768 -0.41508,-0.304201 -0.52596,-0.525969 -0.0784,-0.156814 0.0784,-0.369155 0,-0.52597 -0.11089,-0.221767 -0.41509,-0.304201 -0.52598,-0.525969 -0.11702,-0.234044 0.0802,-1.863306 0,-2.103878 -0.0784,-0.23522 -0.41508,-0.3042 -0.52597,-0.525969 -0.16528,-0.330583 0.1653,-1.773294 0,-2.103877 -0.11088,-0.221768 -0.41508,-0.304201 -0.52596,-0.52597 -0.0784,-0.156813 0.12396,-0.401997 0,-0.525969 -0.12398,-0.123972 -0.402,0.123972 -0.52597,0 -0.0212,-0.02117 0,-1.910722 0,-2.103878 0,-0.175323 0,-0.350646 0,-0.525969 0,-0.175323 0.12397,-0.401997 0,-0.525969 -0.12398,-0.123973 -0.402,0.123972 -0.52598,0 -0.12397,-0.123973 0,-0.350647 0,-0.52597 0,-0.325919 0.0823,-2.99125 0,-3.155816 -0.0784,-0.156813 -0.40199,0.123973 -0.52596,0 -0.065,-0.06497 0,-1.774048 0,-2.103877 0,-1.051939 0,-2.103878 0,-3.155816 0,-0.175324 -0.17532,-0.52597 0,-0.52597 0.17532,0 0.17532,0.52597 0,0.52597 -0.24795,0 -0.35065,-0.350647 -0.52597,-0.52597"
     id="path3011-7"
     inkscape:connector-curvature="0" />
  <path
     style="fill:none;stroke:#000000;stroke-width:0.79999918px;stroke-linecap:butt;stroke-linejoin:miter;stroke-opacity:1"
     d="m 462.96416,154.78243 c -0.0759,-1.22491 -0.15175,-2.44983 -0.22763,-3.67474 -0.0108,-0.17498 -0.0217,-0.34998 -0.0325,-0.52496 -0.0108,-0.175 0.0554,-0.3733 -0.0325,-0.52497 -0.12438,-0.21449 -0.43309,-0.27796 -0.55748,-0.49245 -0.1759,-0.30333 0.11086,-0.7466 -0.065,-1.04992 -0.12438,-0.21449 -0.43309,-0.27796 -0.55748,-0.49245 -0.0879,-0.15166 0.0554,-0.3733 -0.0325,-0.52496 -1.22771,-2.11711 0.071,0.55896 -1.08243,-0.45993 -0.27875,-0.24622 0.18118,-1.32866 -0.0976,-1.57489 -0.13141,-0.11607 -0.39357,0.14858 -0.52497,0.0325 -0.2628,-0.23214 0.11087,-0.7466 -0.065,-1.04993 -0.12439,-0.21448 -0.43311,-0.27796 -0.55749,-0.49244 -0.0879,-0.15167 0.0989,-0.40889 -0.0325,-0.52497 -0.13139,-0.11607 -0.39356,0.14859 -0.52496,0.0325 -0.1314,-0.11607 0.0989,-0.40889 -0.0325,-0.52497 -0.13141,-0.11606 -0.39357,0.1486 -0.52497,0.0325 -0.1314,-0.11606 0.0989,-0.40889 -0.0325,-0.52495 -0.1314,-0.11608 -0.39356,0.14858 -0.52496,0.0325 -0.18552,-0.16388 0.12047,-0.88605 -0.065,-1.04992 -0.1241,-1.47615 -1.1919,-0.0604 -1.60741,-0.42742 -0.13141,-0.11606 0.0989,-0.40888 -0.0325,-0.52496 -0.13141,-0.11607 -0.36361,0.10107 -0.52497,0.0325 -0.2282,-0.097 -0.32929,-0.39549 -0.55748,-0.49245 -0.16135,-0.0686 -0.39355,0.14859 -0.52496,0.0325 -0.1314,-0.11607 0.0554,-0.3733 -0.0325,-0.52495 -1.22771,-2.11711 0.071,0.55896 -1.08244,-0.45994 -0.1314,-0.11607 0.0989,-0.40889 -0.0325,-0.52497 -0.1314,-0.11606 -0.3636,0.10108 -0.52496,0.0325 -0.22821,-0.097 -0.32928,-0.39548 -0.55749,-0.49244 -0.16135,-0.0685 -0.36359,0.10108 -0.52496,0.0325 -0.22819,-0.097 -0.32928,-0.39549 -0.55747,-0.49244 -0.16137,-0.0686 -0.34998,0.0217 -0.52497,0.0325 -0.18583,-0.16415 -0.32929,-0.39549 -0.55749,-0.49245 -0.16134,-0.0686 -0.35552,0.0775 -0.52495,0.0325 -0.37887,-0.10073 -0.70358,-0.35917 -1.08245,-0.45992 -0.16943,-0.045 -0.39356,0.14859 -0.52496,0.0325 -0.1314,-0.11605 0.0989,-0.40888 -0.0325,-0.52495 -0.13139,-0.11608 -0.39356,0.14859 -0.52496,0.0325 -0.1314,-0.11608 0.0989,-0.4089 -0.0325,-0.52497 -0.2628,-0.23213 -0.78712,0.29718 -1.04993,0.065 -0.13139,-0.11608 0.0989,-0.4089 -0.0325,-0.52497 -0.1314,-0.11606 -0.39357,0.14859 -0.52497,0.0325 -0.13139,-0.11606 0.0554,-0.37329 -0.0325,-0.52495 -0.24876,-0.42898 -0.86619,-0.55591 -1.11496,-0.98489 -0.0879,-0.15167 0.0989,-0.4089 -0.0325,-0.52497 -0.13139,-0.11607 -0.39356,0.14859 -0.52495,0.0325 -0.15254,-0.13475 0.03,-1.82388 -0.13007,-2.09985 -0.12439,-0.21449 -0.4331,-0.27796 -0.55749,-0.49244 -0.1759,-0.30334 0.19776,-0.81779 -0.065,-1.04993 -0.13139,-0.11608 -0.39355,0.14859 -0.52496,0.0325 -0.17262,-0.15248 0.01,-2.47233 -0.16259,-2.62482 -0.1314,-0.11607 -0.39356,0.14859 -0.52495,0.0325 -0.13141,-0.11607 -0.0217,-0.34997 -0.0325,-0.52497 -0.0108,-0.17498 -0.0217,-0.34997 -0.0325,-0.52496 -0.065,-1.04992 -0.13007,-2.09986 -0.1951,-3.14977 -0.0108,-0.175 -0.0217,-0.34998 -0.0325,-0.52497 -0.0108,-0.17498 -0.10107,-0.36361 -0.0325,-0.52496 0.0969,-0.2282 0.39548,-0.32928 0.49244,-0.55748 0.13713,-0.32272 -0.20216,-0.72721 -0.065,-1.04992 0.097,-0.2282 0.39549,-0.32929 0.49245,-0.55749 0.0686,-0.16136 -0.0217,-0.34997 -0.0325,-0.52497 0.16416,-0.18582 0.39549,-0.32928 0.49246,-0.55748 0.0686,-0.16136 -0.10107,-0.3636 -0.0325,-0.52495 0.95705,-2.25244 -0.001,0.56345 1.0174,-0.59001 0.23214,-0.26279 -0.20216,-0.7272 -0.065,-1.04992 0.097,-0.2282 0.3283,-0.37166 0.49244,-0.55748 0.16416,-0.18583 0.27797,-0.4331 0.49245,-0.55749 0.15166,-0.0879 0.40889,0.0989 0.52496,-0.0325 0.11607,-0.13139 -0.14858,-0.39356 -0.0325,-0.52495 0.11607,-0.1314 0.4089,0.0989 0.52497,-0.0325 0.11607,-0.1314 -0.14859,-0.39357 -0.0325,-0.52496 0.11607,-0.13141 0.4089,0.0989 0.52496,-0.0325 0.11607,-0.13141 -0.14858,-0.39357 -0.0325,-0.52497 0.11607,-0.13139 0.3733,0.0554 0.52496,-0.0325 0.21048,-0.12206 1.34278,-1.44075 1.47733,-1.67245 0.19689,-0.33901 0.20039,-0.78862 0.45993,-1.08243 1.0189,-1.15346 0.0603,1.66243 1.01741,-0.59001 0.0686,-0.16136 -0.14859,-0.39356 -0.0325,-0.52497 0.11607,-0.13138 0.3733,0.0554 0.52496,-0.0325 0.45089,-0.26147 1.01919,-1.32426 1.47734,-1.67245 0.31213,-0.2372 0.75787,-0.29618 1.01741,-0.58999 0.11607,-0.13139 -0.10107,-0.3636 -0.0325,-0.52496 0.50847,-1.19668 0.31572,-0.1831 1.01741,-0.59 2.1171,-1.22772 -0.55896,0.071 0.45993,-1.08244 1.01887,-1.15345 0.0603,1.66244 1.01741,-0.59 0.0685,-0.16137 -0.10108,-0.3636 -0.0325,-0.52497 0.0969,-0.2282 0.32829,-0.37166 0.49244,-0.55747 0.16415,-0.18583 0.27796,-0.4331 0.49245,-0.55749 0.15166,-0.088 0.4089,0.0989 0.52495,-0.0325 0.16388,-0.1855 -0.2289,-0.86441 -0.065,-1.04993 0.11608,-0.1314 0.40889,0.0989 0.52497,-0.0325 0.23214,-0.26279 -0.29718,-0.78712 -0.065,-1.04992 0.11607,-0.1314 0.40888,0.0989 0.52496,-0.0325 0.11606,-0.1314 -0.10107,-0.3636 -0.0325,-0.52496 0.27595,-0.649466 1.20138,-1.022978 1.47733,-1.672449 0.13712,-0.322717 -0.29718,-0.787123 -0.065,-1.049922 0.11607,-0.131404 0.40889,0.09888 0.52496,-0.03252 0.11607,-0.131403 -0.10107,-0.363606 -0.0325,-0.524961 0.097,-0.228199 0.39548,-0.32928 0.49245,-0.557487 0.12476,-0.293602 -0.26482,-1.947311 -0.13007,-2.099846 0.11607,-0.131402 0.4089,0.09888 0.52496,-0.03252 0.11607,-0.131403 -0.0217,-0.349977 -0.0325,-0.524969 -0.0217,-0.349977 -0.0434,-0.699946 -0.065,-1.049923 -0.008,-0.127316 -0.11337,-1.556967 -0.0976,-1.574891 0.11607,-0.131396 0.40889,0.09888 0.52496,-0.03252 0.10067,-0.11397 -0.18874,-1.360301 -0.0976,-1.574893 0.097,-0.228198 0.39548,-0.32928 0.49245,-0.557478 0.07,-0.164712 -0.0829,-1.338466 -0.0976,-1.574893 -0.065,-1.049922 -0.13007,-2.099853 -0.1951,-3.149776 -0.16259,-2.624814 -0.32518,-5.249628 -0.48777,-7.874452 -0.0976,-1.574883 -0.1951,-3.149776 -0.29266,-4.724667 -0.0108,-0.174985 -0.14858,-0.393562 -0.0325,-0.524961 0.11607,-0.131399 0.40888,0.09888 0.52496,-0.03252 0.11607,-0.131399 -0.0217,-0.349975 -0.0325,-0.524963 -0.065,-1.049926 -0.13007,-2.099853 -0.1951,-3.149779 -0.39021,-6.299559 -0.78042,-12.599117 -1.17063,-18.898676"
     id="path3013-4"
     inkscape:connector-curvature="0" />
  <path
     style="fill:none;stroke:#000000;stroke-width:0.99999988"
     inkscape:connector-curvature="0"
     id="Unnamed #15-1-0"
     d="m 459.35699,49.967556 c 0,0 4.34,-3.669999 4.34,-3.669999 0,0 4,-2.66 4.33,-2.66 0.33,0 6.67,-1.67 6.67,-1.67 0,0 6.66,-1 6.66,-1 0,0 6.67,0.33 6.67,0.33 0,0 3.33,2.34 3.33,2.34 0,0 2.34,3 2.34,3 0,0 -0.67,3.329999 -0.67,3.329999 0,0 -4.33,3.000001 -4.33,3.000001 0,0 -7.34,0.67 -7.34,0.67 0,0 -4.66,1.999999 -5,1.999999 -0.33,0 -7,0.66 -7,0.66 0,0 -4.66,-0.999999 -4.66,-0.999999 0,0 -5,-4.33 -5,-4.33" />
</svg>
