<?xml version="1.0" encoding="UTF-8" standalone="no"?>
<svg
   xmlns:dc="http://purl.org/dc/elements/1.1/"
   xmlns:cc="http://creativecommons.org/ns#"
   xmlns:rdf="http://www.w3.org/1999/02/22-rdf-syntax-ns#"
   xmlns:svg="http://www.w3.org/2000/svg"
   xmlns="http://www.w3.org/2000/svg"
   xmlns:sodipodi="http://sodipodi.sourceforge.net/DTD/sodipodi-0.dtd"
   xmlns:inkscape="http://www.inkscape.org/namespaces/inkscape"
   width="10.0556in"
   height="10.8889in"
   viewBox="0 0 724 784"
   id="svg3042"
   version="1.1"
   inkscape:version="0.48.3.1 r9886"
   sodipodi:docname="street_lamp.svg">
  <metadata
     id="metadata3065">
    <rdf:RDF>
      <cc:Work
         rdf:about="">
        <dc:format>image/svg+xml</dc:format>
        <dc:type
           rdf:resource="http://purl.org/dc/dcmitype/StillImage" />
      </cc:Work>
    </rdf:RDF>
  </metadata>
  <defs
     id="defs3063" />
  <sodipodi:namedview
     pagecolor="#ffffff"
     bordercolor="#666666"
     borderopacity="1"
     objecttolerance="10"
     gridtolerance="10"
     guidetolerance="10"
     inkscape:pageopacity="0"
     inkscape:pageshadow="2"
     inkscape:window-width="1366"
     inkscape:window-height="706"
     id="namedview3061"
     showgrid="false"
     inkscape:zoom="0.53775457"
     inkscape:cx="452.50201"
     inkscape:cy="638.76724"
     inkscape:window-x="-8"
     inkscape:window-y="-8"
     inkscape:window-maximized="1"
     inkscape:current-layer="svg3042" />
  <path
     id="Unnamed #16"
     fill="none"
     stroke="black"
     stroke-width="1"
     d="M 136.00,179.33            C 136.00,179.33 127.00,178.33 127.00,178.33              127.00,178.33 117.67,177.00 116.67,177.00              115.67,177.00 103.33,173.00 103.00,173.00              102.67,173.00 96.33,169.67 96.33,169.67              96.33,169.67 87.67,166.00 87.67,166.00              87.67,166.00 81.67,160.33 81.33,159.67              81.00,159.00 76.00,152.33 76.00,152.33              76.00,152.33 69.67,143.00 69.67,143.00              69.67,143.00 68.00,133.33 68.00,133.33              68.00,133.33 66.33,119.67 66.33,119.67              66.33,119.67 65.67,108.33 65.67,108.33              65.67,108.33 67.33,96.67 67.67,96.67              68.00,96.67 74.00,90.00 74.00,89.67              74.00,89.33 81.33,83.00 81.33,83.00              81.33,83.00 90.67,77.00 90.67,77.00              90.67,77.00 99.33,70.67 99.33,70.67              99.33,70.67 111.33,64.67 111.33,64.67              111.33,64.67 119.67,61.00 120.67,60.67              121.67,60.33 134.67,58.67 134.67,58.67              134.67,58.67 147.67,59.67 148.00,59.67              148.33,59.67 157.33,59.67 157.33,59.67              157.33,59.67 169.33,59.67 169.33,59.67              169.33,59.67 176.33,60.67 176.67,61.00              177.00,61.33 184.00,66.00 184.00,66.00              184.00,66.00 194.00,70.00 194.00,70.00              194.00,70.00 198.33,76.67 198.33,76.67              198.33,76.67 203.33,81.67 203.33,81.67              203.33,81.67 206.00,88.33 206.00,88.33              206.00,88.33 207.67,96.67 208.00,97.00              208.33,97.33 209.33,105.33 209.33,105.33              209.33,105.33 209.33,118.00 209.33,118.00              209.33,118.00 207.67,130.33 207.67,130.33              207.67,130.33 204.67,137.67 204.67,137.67              204.67,137.67 200.00,145.33 200.00,145.33              200.00,145.33 195.33,155.00 195.33,155.00              195.33,155.00 190.67,159.33 190.67,159.33              190.67,159.33 182.33,164.00 182.33,164.00              182.33,164.00 172.33,169.00 172.33,169.00              172.33,169.00 162.00,173.67 162.00,173.67              162.00,173.67 150.00,178.67 150.00,178.67              150.00,178.67 145.33,182.33 145.33,182.33" />
  <path
     id="Unnamed #15"
     fill="none"
     stroke="black"
     stroke-width="1"
     d="M 129.33,164.00            C 129.33,164.00 133.67,160.33 133.67,160.33              133.67,160.33 137.67,157.67 138.00,157.67              138.33,157.67 144.67,156.00 144.67,156.00              144.67,156.00 151.33,155.00 151.33,155.00              151.33,155.00 158.00,155.33 158.00,155.33              158.00,155.33 161.33,157.67 161.33,157.67              161.33,157.67 163.67,160.67 163.67,160.67              163.67,160.67 163.00,164.00 163.00,164.00              163.00,164.00 158.67,167.00 158.67,167.00              158.67,167.00 151.33,167.67 151.33,167.67              151.33,167.67 146.67,169.67 146.33,169.67              146.00,169.67 139.33,170.33 139.33,170.33              139.33,170.33 134.67,169.33 134.67,169.33              134.67,169.33 129.67,165.00 129.67,165.00" />
  <path
     id="Unnamed #14"
     fill="none"
     stroke="black"
     stroke-width="1"
     d="M 243.33,199.67            C 243.33,199.67 243.67,210.33 243.67,210.33              243.67,210.33 243.67,220.00 243.67,220.00              243.67,220.00 241.33,234.67 241.33,234.67              241.33,234.67 239.67,242.33 239.67,242.33              239.67,242.33 237.00,249.33 237.00,249.33              237.00,249.33 231.33,256.33 231.33,256.33              231.33,256.33 226.67,260.00 226.67,260.00              226.67,260.00 223.33,262.33 223.33,262.33              223.33,262.33 218.00,266.67 218.00,266.67              218.00,266.67 208.33,269.33 208.33,269.33              208.33,269.33 201.33,269.00 201.33,269.00              201.33,269.00 193.67,266.33 193.67,266.33              193.67,266.33 186.67,261.67 186.67,261.67              186.67,261.67 183.33,256.67 183.33,256.67              183.33,256.67 178.00,251.00 178.00,251.00              178.00,251.00 173.33,241.67 173.33,241.67              173.33,241.67 171.00,235.33 171.00,235.33              171.00,235.33 168.67,229.00 168.67,229.00              168.67,229.00 167.33,219.67 167.33,219.67              167.33,219.67 166.00,210.00 166.00,210.00              166.00,210.00 165.33,205.00 165.33,205.00              165.33,205.00 164.00,196.00 164.00,196.00              164.00,196.00 160.67,188.33 160.67,188.33              160.67,188.33 160.67,180.67 160.67,180.67              160.67,180.67 160.33,174.33 160.33,174.33              160.33,174.33 159.33,169.00 159.33,169.00" />
  <path
     id="Unnamed #13"
     fill="none"
     stroke="black"
     stroke-width="1"
     d="M 280.67,196.00            C 280.67,196.00 280.33,204.67 280.33,204.67              280.33,204.67 279.33,217.00 279.33,217.00              279.33,217.00 277.33,229.67 277.33,229.67              277.33,229.67 276.33,242.00 276.33,242.00              276.33,242.00 271.67,256.33 271.67,256.33              271.67,256.33 267.33,267.33 267.33,267.33              267.33,267.33 259.67,276.33 259.67,276.33              259.67,276.33 255.67,283.33 255.67,283.33              255.67,283.33 248.00,292.00 248.00,292.00              248.00,292.00 242.00,298.00 242.00,298.00              242.00,298.00 235.33,302.00 235.33,302.00              235.33,302.00 227.33,304.00 226.67,304.00              226.00,304.00 216.67,305.67 216.67,305.67              216.67,305.67 205.00,303.00 205.00,303.00              205.00,303.00 193.33,302.33 193.33,302.33              193.33,302.33 184.00,298.33 184.00,298.33              184.00,298.33 175.67,295.00 175.67,295.00              175.67,295.00 172.00,292.00 172.00,292.00              172.00,292.00 165.00,286.67 165.00,286.67              165.00,286.67 160.00,281.67 160.00,281.67              160.00,281.67 154.33,272.67 154.33,272.67              154.33,272.67 149.33,263.00 149.33,263.00              149.33,263.00 148.33,252.67 148.33,252.67              148.33,252.67 145.67,244.00 145.67,244.00              145.67,244.00 144.67,236.33 144.67,236.33              144.67,236.33 143.00,229.33 143.00,229.33              143.00,229.33 139.67,222.00 139.67,222.00              139.67,222.00 137.67,212.33 137.67,212.33              137.67,212.33 134.67,198.67 134.67,198.67              134.67,198.67 133.00,190.00 133.00,190.00              133.00,190.00 131.00,180.00 131.00,180.00              131.00,180.00 131.00,174.00 131.00,173.67              131.00,173.33 129.00,165.00 129.00,165.00" />
  <path
     id="Unnamed #12"
     fill="none"
     stroke="black"
     stroke-width="1"
     d="M 403.33,90.67            C 403.33,90.67 406.33,84.00 406.33,84.00              406.33,84.00 409.67,76.67 409.67,76.67              409.67,76.67 414.00,71.33 414.00,71.33              414.00,71.33 419.33,65.00 419.33,65.00              419.33,65.00 425.00,59.00 425.00,59.00              425.00,59.00 430.67,54.33 430.67,54.33              430.67,54.33 438.33,49.33 438.33,49.33              438.33,49.33 446.67,46.33 446.67,46.33              446.67,46.33 452.67,43.33 452.67,43.33              452.67,43.33 461.33,40.67 461.33,40.67              461.33,40.67 470.33,41.33 470.33,41.33              470.33,41.33 479.00,39.33 479.00,39.33              479.00,39.33 487.67,40.00 487.67,40.00              487.67,40.00 496.33,41.33 496.33,41.33              496.33,41.33 504.00,44.67 504.00,44.67              504.00,44.67 513.33,51.67 513.33,51.67              513.33,51.67 520.00,57.67 520.00,57.67              520.00,57.67 527.00,65.67 527.00,65.67              527.00,65.67 534.00,72.33 534.00,72.33              534.00,72.33 537.33,80.00 537.33,80.00              537.33,80.00 541.00,93.00 541.00,93.00              541.00,93.00 540.00,106.67 540.00,106.67              540.00,106.67 537.33,120.00 537.33,120.00              537.33,120.00 531.67,129.67 531.67,129.67              531.67,129.67 527.00,136.33 527.00,136.33              527.00,136.33 520.67,142.33 520.67,142.33              520.67,142.33 514.67,147.67 514.67,147.67              514.67,147.67 507.00,152.33 507.00,152.33              507.00,152.33 498.33,157.67 498.33,157.67              498.33,157.67 490.33,162.33 490.33,162.33              490.33,162.33 479.67,164.33 479.67,164.67              479.67,165.00 471.33,167.00 471.33,167.00              471.33,167.00 460.33,167.33 460.33,167.33              460.33,167.33 450.00,167.33 450.00,167.33              450.00,167.33 439.00,164.00 439.00,164.00              439.00,164.00 431.67,158.33 431.67,158.33              431.67,158.33 425.00,151.00 425.00,151.00              425.00,151.00 419.00,144.00 419.00,144.00              419.00,144.00 413.00,135.00 413.00,135.00              413.00,135.00 409.00,128.67 409.00,128.67              409.00,128.67 405.33,120.67 405.33,120.67              405.33,120.67 403.33,113.33 403.33,113.33              403.33,113.33 402.33,105.00 402.33,105.00              402.33,105.00 401.67,98.33 401.67,98.33              401.67,98.33 403.33,90.67 403.33,90.67" />
  <path
     id="Unnamed #11"
     fill="none"
     stroke="black"
     stroke-width="1"
     d="M 464.67,155.33            C 464.67,155.33 465.67,152.00 465.67,152.00              465.67,152.00 469.33,147.67 469.33,147.67              469.33,147.67 478.67,145.33 478.67,145.33              478.67,145.33 482.33,146.33 482.33,146.33              482.33,146.33 488.33,147.00 488.33,147.00              488.33,147.00 490.67,150.00 490.67,150.00              490.67,150.00 490.33,154.00 490.33,154.00              490.33,154.00 487.67,157.33 487.67,157.33              487.67,157.33 482.33,159.00 482.33,159.00              482.33,159.00 476.67,160.00 476.67,160.00              476.67,160.00 470.67,160.33 470.67,160.33              470.67,160.33 467.67,159.67 467.67,159.67              467.67,159.67 464.33,156.33 464.33,156.33" />
  <path
     id="Unnamed #10"
     fill="none"
     stroke="black"
     stroke-width="1"
     d="M 364.67,184.00            C 364.67,184.00 367.67,195.00 367.67,195.00              367.67,195.00 372.67,204.00 372.67,204.00              372.67,204.00 377.33,214.00 377.33,214.00              377.33,214.00 381.67,222.00 381.67,222.00              381.67,222.00 387.67,231.67 387.67,231.67              387.67,231.67 394.33,240.67 394.33,240.67              394.33,240.67 400.67,248.00 400.67,248.00              400.67,248.00 409.00,253.00 409.00,253.00              409.00,253.00 416.33,254.67 416.33,255.00              416.33,255.33 426.33,256.00 426.33,256.00              426.33,256.00 433.67,254.00 433.67,254.00              433.67,254.00 438.33,250.67 438.33,250.67              438.33,250.67 443.00,246.33 443.00,246.33              443.00,246.33 449.67,240.00 449.67,240.00              449.67,240.00 454.00,234.00 454.00,234.00              454.00,234.00 457.33,226.33 457.33,226.33              457.33,226.33 460.00,215.00 460.00,215.00              460.00,215.00 462.33,201.00 462.33,201.00              462.33,201.00 462.33,190.00 462.33,190.00              462.33,190.00 463.33,179.67 463.33,179.67              463.33,179.67 464.67,169.00 464.67,169.00              464.67,169.00 464.00,159.33 464.00,159.33              464.00,159.33 464.00,154.00 464.00,154.00" />
  <path
     id="Unnamed #9"
     fill="none"
     stroke="black"
     stroke-width="1"
     d="M 328.00,192.00            C 328.00,192.00 331.67,203.67 331.67,203.67              331.67,203.67 339.00,221.33 339.00,221.33              339.00,221.33 348.00,241.33 348.00,241.33              348.00,241.33 353.33,249.67 353.33,249.67              353.33,249.67 358.67,257.00 358.67,257.00              358.67,257.00 366.00,263.33 366.00,263.33              366.00,263.33 374.00,269.67 374.00,269.67              374.00,269.67 384.00,276.67 384.00,276.67              384.00,276.67 393.00,282.33 393.00,282.33              393.00,282.33 402.33,287.00 402.33,287.00              402.33,287.00 414.67,288.00 414.67,288.00              414.67,288.00 425.00,290.00 425.00,290.00              425.00,290.00 437.33,288.00 437.33,288.00              437.33,288.00 449.33,281.67 449.33,281.67              449.33,281.67 460.33,273.67 460.33,273.67              460.33,273.67 467.00,267.33 467.00,267.33              467.00,267.33 471.00,258.33 471.00,258.33              471.00,258.33 476.33,249.00 476.33,249.00              476.33,249.00 481.00,238.33 481.00,238.33              481.00,238.33 485.67,229.67 485.67,229.67              485.67,229.67 488.00,217.33 488.00,217.33              488.00,217.33 490.00,207.33 490.00,207.33              490.00,207.33 492.00,197.00 492.00,197.00              492.00,197.00 492.00,186.33 492.00,186.33              492.00,186.33 492.67,175.33 492.67,175.33              492.67,175.33 492.00,164.67 492.00,164.67              492.00,164.67 492.00,156.67 492.00,156.67              492.00,156.67 490.67,152.67 490.67,152.67              490.67,152.67 491.00,149.33 491.00,149.33" />
  <path
     id="Unnamed #8"
     fill="none"
     stroke="black"
     stroke-width="1"
     d="M 242.55,196.36            C 242.36,195.45 241.64,191.09 241.64,191.09              241.64,191.09 243.82,188.73 243.82,188.55              243.82,188.36 246.00,186.18 246.00,186.18              246.00,186.18 249.64,184.00 249.82,183.82              250.00,183.64 253.82,182.00 253.82,182.00              253.82,182.00 258.00,181.82 258.36,181.82              258.73,181.82 264.36,181.82 264.36,181.82              264.36,181.82 269.27,181.82 269.82,181.82              270.36,181.82 273.82,182.00 273.82,182.00              273.82,182.00 278.55,182.73 278.55,182.73              278.55,182.73 282.18,183.45 282.18,183.45              282.18,183.45 285.27,185.09 285.27,185.09              285.27,185.09 286.18,189.82 286.18,189.82              286.18,189.82 283.82,192.36 283.82,192.36              283.82,192.36 282.00,193.45 281.82,193.64              281.64,193.82 276.91,195.82 276.73,196.00              276.55,196.18 272.55,198.00 272.55,198.00              272.55,198.00 267.27,199.82 267.09,199.82              266.91,199.82 261.09,200.73 261.09,200.73              261.09,200.73 257.82,201.45 257.82,201.45              257.82,201.45 252.36,201.64 252.36,201.64              252.36,201.64 247.64,200.73 247.64,200.73              247.64,200.73 244.55,199.82 244.55,199.82              244.55,199.82 242.18,196.73 242.18,196.73" />
  <path
     id="Unnamed #7"
     fill="none"
     stroke="black"
     stroke-width="1"
     d="M 352.91,191.45            C 352.91,191.45 347.45,193.27 347.45,193.27              347.45,193.27 342.00,193.64 342.00,193.64              342.00,193.64 337.09,193.82 337.09,193.82              337.09,193.82 331.09,192.91 330.73,192.91              330.36,192.91 327.45,190.91 327.45,190.91              327.45,190.91 326.00,188.18 326.00,188.18              326.00,188.18 325.82,185.09 325.82,185.09              325.82,185.09 326.91,181.09 326.91,181.09              326.91,181.09 331.45,178.18 331.45,178.18              331.45,178.18 334.91,176.73 334.91,176.73              334.91,176.73 340.00,175.27 340.00,175.27              340.00,175.27 345.45,174.73 345.64,174.55              345.82,174.36 350.73,173.82 350.73,173.82              350.73,173.82 355.09,174.00 355.09,174.00              355.09,174.00 359.09,174.55 359.09,174.55              359.09,174.55 362.36,176.73 362.36,176.73              362.36,176.73 364.18,179.45 364.18,179.45              364.18,179.45 364.73,182.73 364.73,182.73              364.73,182.73 364.18,185.27 364.18,185.27              364.18,185.27 361.45,186.91 361.45,186.91              361.45,186.91 359.27,188.36 359.27,188.36              359.27,188.36 353.64,191.45 353.64,191.45" />
  <path
     id="Unnamed #6"
     fill="none"
     stroke="black"
     stroke-width="1"
     d="M 285.33,187.33            C 285.33,187.33 289.33,182.67 289.33,182.67              289.33,182.67 295.33,180.67 295.33,180.67              295.33,180.67 303.33,178.67 303.33,178.67              303.33,178.67 312.67,179.33 312.67,179.33              312.67,179.33 320.00,179.33 320.00,179.33              320.00,179.33 325.33,182.00 325.33,182.00              325.33,182.00 325.82,189.27 325.82,189.27              325.82,189.27 319.33,192.00 319.33,192.00              319.33,192.00 314.00,194.67 314.00,194.67              314.00,194.67 307.33,194.67 307.33,194.67              307.33,194.67 300.00,195.33 299.33,195.33              298.67,195.33 290.67,194.67 290.67,194.67              290.67,194.67 285.33,193.33 285.33,193.33              285.33,193.33 282.88,190.75 282.88,190.75              282.88,190.75 285.25,187.63 285.25,187.63" />
  <path
     id="Unnamed #5"
     fill="none"
     stroke="black"
     stroke-width="1"
     d="M 322.00,186.00            C 322.00,186.00 322.67,204.00 322.67,204.00              322.67,204.00 324.67,233.33 324.67,233.33              324.67,233.33 326.67,251.33 326.67,251.33              326.67,251.33 328.67,281.33 328.67,281.33              328.67,281.33 327.33,307.33 327.33,307.33              327.33,307.33 326.00,341.33 326.00,341.33              326.00,341.33 327.33,372.67 327.33,372.67              327.33,372.67 326.00,398.67 326.00,398.67              326.00,398.67 326.67,427.33 326.67,427.33              326.67,427.33 326.67,450.00 326.67,450.00              326.67,450.00 328.00,479.33 328.00,479.33              328.00,479.33 331.33,505.33 331.33,505.33              331.33,505.33 334.00,534.00 333.33,534.00              332.67,534.00 332.67,558.67 332.67,558.67              332.67,558.67 331.33,584.67 331.33,584.67              331.33,584.67 330.67,606.67 330.67,606.67              330.67,606.67 334.00,622.67 334.00,622.67" />
  <path
     id="Unnamed #4"
     fill="none"
     stroke="black"
     stroke-width="1"
     d="M 286.00,194.00            C 286.00,194.00 286.00,210.00 286.00,210.00              286.00,210.00 286.67,233.33 286.67,233.33              286.67,233.33 289.33,260.00 289.33,260.00              289.33,260.00 293.33,288.00 293.33,288.00              293.33,288.00 298.00,318.00 298.00,318.00              298.00,318.00 300.00,346.67 300.00,346.67              300.00,346.67 301.33,372.67 301.33,372.67              301.33,372.67 300.00,394.00 300.00,394.00              300.00,394.00 300.67,415.33 300.67,415.33              300.67,415.33 299.33,436.00 299.33,436.00              299.33,436.00 298.67,454.00 298.67,454.00              298.67,454.00 299.33,472.67 299.33,472.67              299.33,472.67 298.00,488.67 298.00,488.67              298.00,488.67 296.00,508.67 296.00,508.67              296.00,508.67 296.00,526.00 296.00,526.00              296.00,526.00 295.33,554.00 295.33,554.00              295.33,554.00 296.67,576.67 296.67,576.67              296.67,576.67 297.33,594.67 297.33,594.67              297.33,594.67 298.67,620.00 298.67,620.00" />
  <path
     id="Unnamed #3"
     fill="none"
     stroke="black"
     stroke-width="1"
     d="M 297.33,624.00            C 297.33,624.00 300.67,628.67 300.67,628.67              300.67,628.67 307.33,632.00 307.33,632.00              307.33,632.00 313.33,632.00 314.00,632.00              314.67,632.00 321.33,630.67 321.33,630.67              321.33,630.67 328.67,627.33 328.67,627.33              328.67,627.33 332.67,624.67 332.67,624.67              332.67,624.67 333.33,620.00 333.33,620.00              333.33,620.00 328.00,616.67 328.00,616.67              328.00,616.67 322.00,614.00 322.00,614.00              322.00,614.00 314.00,614.00 314.00,614.00              314.00,614.00 308.67,614.67 308.67,614.67              308.67,614.67 303.33,616.67 303.33,616.67              303.33,616.67 296.67,619.33 296.67,619.33" />
  <path
     id="Unnamed #2"
     fill="none"
     stroke="black"
     stroke-width="1"
     d="M 402.67,688.67            C 402.67,688.67 398.67,695.33 398.67,695.33              398.67,695.33 393.33,704.00 393.33,704.00              393.33,704.00 385.33,710.67 385.33,710.67              385.33,710.67 375.33,716.67 375.33,716.67              375.33,716.67 360.67,722.00 360.67,722.00              360.67,722.00 348.67,725.33 348.67,725.33              348.67,725.33 339.33,728.00 339.33,728.00              339.33,728.00 328.00,728.00 328.00,728.00              328.00,728.00 314.67,729.33 314.67,729.33              314.67,729.33 301.33,729.33 301.33,729.33              301.33,729.33 288.67,728.67 288.67,728.67              288.67,728.67 280.00,727.33 280.00,727.33              280.00,727.33 269.33,723.33 269.33,723.33              269.33,723.33 263.33,721.33 263.33,721.33              263.33,721.33 254.00,718.67 254.00,718.67" />
  <path
     id="Unnamed #1"
     fill="none"
     stroke="black"
     stroke-width="1"
     d="M 403.33,686.67            C 403.33,686.67 400.67,676.67 400.67,676.67              400.67,676.67 398.67,665.33 398.67,665.33              398.67,665.33 395.33,653.33 395.33,653.33              395.33,653.33 386.67,645.33 386.67,645.33              386.67,645.33 376.00,640.67 376.00,640.67              376.00,640.67 366.67,640.67 366.67,640.67              366.67,640.67 357.33,640.67 357.33,640.67              357.33,640.67 348.67,639.33 348.67,639.33              348.67,639.33 341.33,634.67 341.33,634.67              341.33,634.67 336.00,628.67 336.00,628.67              336.00,628.67 334.67,623.33 334.67,623.33" />
  <path
     id="Unnamed"
     fill="none"
     stroke="black"
     stroke-width="1"
     d="M 252.00,717.33            C 252.00,717.33 250.67,706.00 250.67,706.00              250.67,706.00 250.67,692.67 250.67,692.67              250.67,692.67 253.33,682.67 253.33,682.67              253.33,682.67 258.67,674.67 258.67,674.67              258.67,674.67 266.00,669.33 266.00,669.33              266.00,669.33 272.67,665.33 272.67,665.33              272.67,665.33 284.00,660.00 284.00,660.00              284.00,660.00 294.00,652.67 294.00,652.67              294.00,652.67 297.33,642.67 297.33,642.67              297.33,642.67 298.00,633.33 298.00,633.33              298.00,633.33 298.67,628.00 298.67,628.00" />
  <path
     style="fill:none;stroke:#000000;stroke-width:1.07804024"
     inkscape:connector-curvature="0"
     id="Unnamed #12-1"
     d="m 253.86139,194.30211 c 0,0 -4.67302,-5.94327 -4.67302,-5.94327 0,0 -5.11087,-6.57171 -5.11087,-6.57171 0,0 -2.64397,-6.56119 -2.64397,-6.56119 0,0 -3.0219,-7.96204 -3.0219,-7.96204 0,0 -2.51276,-8.12472 -2.51276,-8.12472 0,0 -1.24055,-7.49899 -1.24055,-7.49899 0,0 -0.42381,-9.51506 -0.42381,-9.51506 0,0 1.87624,-9.20998 1.87624,-9.20998 0,0 0.54469,-7.02188 0.54469,-7.02188 0,0 2.38356,-9.34923 2.38356,-9.34923 0,0 5.75279,-8.10521 5.75279,-8.10521 0,0 3.02058,-9.048078 3.02058,-9.048078 0,0 5.57459,-7.791932 5.57459,-7.791932 0,0 6.20019,-7.472064 6.20019,-7.472064 0,0 7.55952,-5.600703 7.55952,-5.600703 0,0 12.00509,-5.431012 12.00509,-5.431012 0,0 9.53487,-3.414168 9.53487,-3.414168 0,0 11.63576,-2.781808 11.63576,-2.781808 0,0 10.35397,-3.412248 10.35397,-3.412248 0,0 9.23167,0.494688 9.23167,0.494688 0,0 14.52357,2.684342 14.52357,2.684342 0,0 12.50695,7.366391 12.50695,7.366391 0,0 11.23143,8.768023 11.23143,8.768023 0,0 6.02899,9.841979 6.02899,9.841979 0,0 3.71314,7.50015 3.71314,7.50015 0,0 2.13718,8.74187 2.13718,8.74187 0,0 1.69368,8.12278 1.69368,8.12278 0,0 0.0929,9.36445 0.0929,9.36445 0,0 0.17427,10.61944 0.17427,10.61944 0,0 -0.0949,9.67302 -0.0949,9.67302 0,0 -4.15303,10.90891 -3.8278,11.06887 0.31567,0.15525 -2.51713,8.89475 -2.51713,8.89475 0,0 -5.94392,10.44113 -5.94392,10.44113 0,0 -5.87831,9.65936 -5.87831,9.65936 0,0 -9.44488,8.71923 -9.44488,8.71923 0,0 -9.59479,4.18658 -9.59479,4.18658 0,0 -10.80707,2.78845 -10.80707,2.78845 0,0 -10.11015,2.31719 -10.11015,2.31719 0,0 -12.02326,1.37626 -12.02326,1.37626 0,0 -8.33114,0.76225 -8.33114,0.76225 0,0 -9.74083,-0.332 -9.74083,-0.332 0,0 -8.15917,-1.58308 -8.15917,-1.58308 0,0 -8.5371,-2.98393 -8.5371,-2.98393 0,0 -6.75575,-2.52087 -6.75575,-2.52087 0,0 -6.38254,-5.15603 -6.38254,-5.15603" />
</svg>
