<?xml version="1.0" encoding="UTF-8" standalone="no"?>
<!-- Created with Inkscape (http://www.inkscape.org/) -->

<svg
   xmlns:dc="http://purl.org/dc/elements/1.1/"
   xmlns:cc="http://creativecommons.org/ns#"
   xmlns:rdf="http://www.w3.org/1999/02/22-rdf-syntax-ns#"
   xmlns:svg="http://www.w3.org/2000/svg"
   xmlns="http://www.w3.org/2000/svg"
   version="1.1"
   width="744.09448"
   height="1052.3622"
   id="svg2">
  <defs
     id="defs4" />
  <metadata
     id="metadata7">
    <rdf:RDF>
      <cc:Work
         rdf:about="">
        <dc:format>image/svg+xml</dc:format>
        <dc:type
           rdf:resource="http://purl.org/dc/dcmitype/StillImage" />
        <dc:title></dc:title>
      </cc:Work>
    </rdf:RDF>
  </metadata>
  <g
     id="layer1">
    <path
       d="m 125.71428,302.36218 a 9.6428576,5.7142859 0 1 1 -19.28571,0 9.6428576,5.7142859 0 1 1 19.28571,0 z"
       transform="translate(202.28572,-119.28571)"
       id="path3009"
       style="fill:none;stroke:#000000;stroke-width:1;stroke-linecap:round;stroke-linejoin:miter;stroke-miterlimit:4;stroke-opacity:1;stroke-dasharray:none;stroke-dashoffset:0" />
    <path
       d="m 125.71428,302.36218 a 9.6428576,5.7142859 0 1 1 -19.28571,0 9.6428576,5.7142859 0 1 1 19.28571,0 z"
       transform="translate(202.07144,9.4285706)"
       id="path3009-0"
       style="fill:none;stroke:#000000;stroke-width:1;stroke-linecap:round;stroke-linejoin:miter;stroke-miterlimit:4;stroke-opacity:1;stroke-dasharray:none;stroke-dashoffset:0" />
    <path
       d="m 328.00001,311.6479 0,-128.57143"
       id="path3029"
       style="fill:none;stroke:#000000;stroke-width:1px;stroke-linecap:butt;stroke-linejoin:miter;stroke-opacity:1" />
    <path
       d="m 308.71429,310.21933 0,-127.85714"
       id="path3031"
       style="fill:none;stroke:#000000;stroke-width:1px;stroke-linecap:butt;stroke-linejoin:miter;stroke-opacity:1" />
    <path
       d="m 125.71428,302.36218 a 9.6428576,5.7142859 0 1 1 -19.28571,0 9.6428576,5.7142859 0 1 1 19.28571,0 z"
       transform="translate(135.67857,-178.28572)"
       id="path3009-1"
       style="fill:none;stroke:#000000;stroke-width:1;stroke-linecap:round;stroke-linejoin:miter;stroke-miterlimit:4;stroke-opacity:1;stroke-dasharray:none;stroke-dashoffset:0" />
    <path
       d="m 125.71428,302.36218 a 9.6428576,5.7142859 0 1 1 -19.28571,0 9.6428576,5.7142859 0 1 1 19.28571,0 z"
       transform="translate(135.60715,-49.571441)"
       id="path3009-0-9"
       style="fill:none;stroke:#000000;stroke-width:1;stroke-linecap:round;stroke-linejoin:miter;stroke-miterlimit:4;stroke-opacity:1;stroke-dasharray:none;stroke-dashoffset:0" />
    <path
       d="m 261.39286,252.64789 0,-128.57142"
       id="path3029-6"
       style="fill:none;stroke:#000000;stroke-width:1px;stroke-linecap:butt;stroke-linejoin:miter;stroke-opacity:1" />
    <path
       d="m 242.10714,251.21932 0,-127.85713"
       id="path3031-2"
       style="fill:none;stroke:#000000;stroke-width:1px;stroke-linecap:butt;stroke-linejoin:miter;stroke-opacity:1" />
    <path
       d="m 125.71428,302.36218 a 9.6428576,5.7142859 0 1 1 -19.28571,0 9.6428576,5.7142859 0 1 1 19.28571,0 z"
       transform="translate(-45.32143,-179.14286)"
       id="path3009-5"
       style="fill:none;stroke:#000000;stroke-width:1;stroke-linecap:round;stroke-linejoin:miter;stroke-miterlimit:4;stroke-opacity:1;stroke-dasharray:none;stroke-dashoffset:0" />
    <path
       d="m 125.71428,302.36218 a 9.6428576,5.7142859 0 1 1 -19.28571,0 9.6428576,5.7142859 0 1 1 19.28571,0 z"
       transform="translate(-45.39285,-51.142861)"
       id="path3009-0-4"
       style="fill:none;stroke:#000000;stroke-width:1;stroke-linecap:round;stroke-linejoin:miter;stroke-miterlimit:4;stroke-opacity:1;stroke-dasharray:none;stroke-dashoffset:0" />
    <path
       d="m 80.39286,251.79075 0,-128.57142"
       id="path3029-4"
       style="fill:none;stroke:#000000;stroke-width:1px;stroke-linecap:butt;stroke-linejoin:miter;stroke-opacity:1" />
    <path
       d="m 61.10714,250.36218 0,-127.85713"
       id="path3031-9"
       style="fill:none;stroke:#000000;stroke-width:1px;stroke-linecap:butt;stroke-linejoin:miter;stroke-opacity:1" />
    <path
       d="m 125.71428,302.36218 a 9.6428576,5.7142859 0 1 1 -19.28571,0 9.6428576,5.7142859 0 1 1 19.28571,0 z"
       transform="translate(20.107139,-119.85714)"
       id="path3009-3"
       style="fill:none;stroke:#000000;stroke-width:1;stroke-linecap:round;stroke-linejoin:miter;stroke-miterlimit:4;stroke-opacity:1;stroke-dasharray:none;stroke-dashoffset:0" />
    <path
       d="m 125.71428,302.36218 a 9.6428576,5.7142859 0 1 1 -19.28571,0 9.6428576,5.7142859 0 1 1 19.28571,0 z"
       transform="translate(20.035719,8.1428566)"
       id="path3009-0-3"
       style="fill:none;stroke:#000000;stroke-width:1;stroke-linecap:round;stroke-linejoin:miter;stroke-miterlimit:4;stroke-opacity:1;stroke-dasharray:none;stroke-dashoffset:0" />
    <path
       d="m 145.82143,311.07647 0,-128.57143"
       id="path3029-3"
       style="fill:none;stroke:#000000;stroke-width:1px;stroke-linecap:butt;stroke-linejoin:miter;stroke-opacity:1" />
    <path
       d="m 126.53571,309.6479 0,-127.85714"
       id="path3031-8"
       style="fill:none;stroke:#000000;stroke-width:1px;stroke-linecap:butt;stroke-linejoin:miter;stroke-opacity:1" />
    <path
       d="m 362.85715,150.93361 a 170.35715,80 0 1 1 -340.714297,0 170.35715,80 0 1 1 340.714297,0 z"
       transform="matrix(0.96553838,0.14161787,-0.17311151,0.82188076,35.841441,7.093133)"
       id="path3012"
       style="fill:none;stroke:#000000;stroke-width:1;stroke-linecap:round;stroke-linejoin:miter;stroke-miterlimit:4;stroke-opacity:1;stroke-dasharray:none;stroke-dashoffset:0" />
    <path
       d="m 362.85715,150.93361 a 170.35715,80 0 1 1 -340.714297,0 170.35715,80 0 1 1 340.714297,0 z"
       transform="matrix(0.96553838,0.14161787,-0.17311151,0.82188076,35.833636,-16.520115)"
       id="path3012-2"
       style="fill:none;stroke:#000000;stroke-width:1;stroke-linecap:round;stroke-linejoin:miter;stroke-miterlimit:4;stroke-opacity:1;stroke-dasharray:none;stroke-dashoffset:0" />
    <path
       d="m 360.71429,178.79075 0,-27.85714"
       id="path3032"
       style="fill:none;stroke:#000000;stroke-width:1px;stroke-linecap:butt;stroke-linejoin:miter;stroke-opacity:1" />
    <path
       d="m 30.714286,139.50504 0,-25.71429"
       id="path3034"
       style="fill:none;stroke:#000000;stroke-width:1px;stroke-linecap:butt;stroke-linejoin:miter;stroke-opacity:1" />
  </g>
</svg>
