<?xml version="1.0" encoding="UTF-8" standalone="no"?>
<!-- Created with Inkscape (http://www.inkscape.org/) -->

<svg
   xmlns:dc="http://purl.org/dc/elements/1.1/"
   xmlns:cc="http://creativecommons.org/ns#"
   xmlns:rdf="http://www.w3.org/1999/02/22-rdf-syntax-ns#"
   xmlns:svg="http://www.w3.org/2000/svg"
   xmlns="http://www.w3.org/2000/svg"
   version="1.1"
   width="744.09448"
   height="1052.3622"
   id="svg2">
  <defs
     id="defs4" />
  <metadata
     id="metadata7">
    <rdf:RDF>
      <cc:Work
         rdf:about="">
        <dc:format>image/svg+xml</dc:format>
        <dc:type
           rdf:resource="http://purl.org/dc/dcmitype/StillImage" />
        <dc:title></dc:title>
      </cc:Work>
    </rdf:RDF>
  </metadata>
  <g
     id="layer1">
    <path
       d="m 541.42856,147.36218 a 182.14285,56.42857 0 1 1 -364.28571,0 182.14285,56.42857 0 1 1 364.28571,0 z"
       transform="translate(-14.285714,22.857143)"
       id="path2985"
       style="fill:none;stroke:#000000;stroke-width:1;stroke-linecap:round;stroke-linejoin:miter;stroke-miterlimit:4;stroke-opacity:1;stroke-dasharray:none;stroke-dashoffset:0" />
    <path
       d="m 541.42856,147.36218 a 182.14285,56.42857 0 1 1 -364.28571,0 182.14285,56.42857 0 1 1 364.28571,0 z"
       transform="translate(-13.57142,39.857142)"
       id="path2985-9"
       style="fill:none;stroke:#000000;stroke-width:1;stroke-linecap:round;stroke-linejoin:miter;stroke-miterlimit:4;stroke-opacity:1;stroke-dasharray:none;stroke-dashoffset:0" />
    <path
       d="m 162.85715,170.21932 0,19.28571"
       id="path3005"
       style="fill:none;stroke:#000000;stroke-width:1px;stroke-linecap:butt;stroke-linejoin:miter;stroke-opacity:1" />
    <path
       d="m 527.14286,169.50504 0,17.85714"
       id="path3007"
       style="fill:none;stroke:#000000;stroke-width:1px;stroke-linecap:butt;stroke-linejoin:miter;stroke-opacity:1" />
    <path
       d="m 125.71428,302.36218 a 9.6428576,5.7142859 0 1 1 -19.28571,0 9.6428576,5.7142859 0 1 1 19.28571,0 z"
       transform="translate(174.42857,-153.57143)"
       id="path3009"
       style="fill:none;stroke:#000000;stroke-width:1;stroke-linecap:round;stroke-linejoin:miter;stroke-miterlimit:4;stroke-opacity:1;stroke-dasharray:none;stroke-dashoffset:0" />
    <path
       d="m 125.71428,302.36218 a 9.6428576,5.7142859 0 1 1 -19.28571,0 9.6428576,5.7142859 0 1 1 19.28571,0 z"
       transform="translate(174.35715,-25.57143)"
       id="path3009-0"
       style="fill:none;stroke:#000000;stroke-width:1;stroke-linecap:round;stroke-linejoin:miter;stroke-miterlimit:4;stroke-opacity:1;stroke-dasharray:none;stroke-dashoffset:0" />
    <path
       d="m 300.14286,277.36218 0,-128.57143"
       id="path3029"
       style="fill:none;stroke:#000000;stroke-width:1px;stroke-linecap:butt;stroke-linejoin:miter;stroke-opacity:1" />
    <path
       d="m 280.85714,275.93361 0,-127.85714"
       id="path3031"
       style="fill:none;stroke:#000000;stroke-width:1px;stroke-linecap:butt;stroke-linejoin:miter;stroke-opacity:1" />
    <path
       d="m 125.71428,302.36218 a 9.6428576,5.7142859 0 1 1 -19.28571,0 9.6428576,5.7142859 0 1 1 19.28571,0 z"
       transform="translate(380.67857,-131.14286)"
       id="path3009-1"
       style="fill:none;stroke:#000000;stroke-width:1;stroke-linecap:round;stroke-linejoin:miter;stroke-miterlimit:4;stroke-opacity:1;stroke-dasharray:none;stroke-dashoffset:0" />
    <path
       d="m 125.71428,302.36218 a 9.6428576,5.7142859 0 1 1 -19.28571,0 9.6428576,5.7142859 0 1 1 19.28571,0 z"
       transform="translate(380.60715,-3.14286)"
       id="path3009-0-9"
       style="fill:none;stroke:#000000;stroke-width:1;stroke-linecap:round;stroke-linejoin:miter;stroke-miterlimit:4;stroke-opacity:1;stroke-dasharray:none;stroke-dashoffset:0" />
    <path
       d="m 506.39286,299.79075 0,-128.57142"
       id="path3029-6"
       style="fill:none;stroke:#000000;stroke-width:1px;stroke-linecap:butt;stroke-linejoin:miter;stroke-opacity:1" />
    <path
       d="m 487.10714,298.36218 0,-127.85713"
       id="path3031-2"
       style="fill:none;stroke:#000000;stroke-width:1px;stroke-linecap:butt;stroke-linejoin:miter;stroke-opacity:1" />
    <path
       d="m 125.71428,302.36218 a 9.6428576,5.7142859 0 1 1 -19.28571,0 9.6428576,5.7142859 0 1 1 19.28571,0 z"
       transform="translate(264.67857,-79.142858)"
       id="path3009-5"
       style="fill:none;stroke:#000000;stroke-width:1;stroke-linecap:round;stroke-linejoin:miter;stroke-miterlimit:4;stroke-opacity:1;stroke-dasharray:none;stroke-dashoffset:0" />
    <path
       d="m 125.71428,302.36218 a 9.6428576,5.7142859 0 1 1 -19.28571,0 9.6428576,5.7142859 0 1 1 19.28571,0 z"
       transform="translate(264.60715,48.85714)"
       id="path3009-0-4"
       style="fill:none;stroke:#000000;stroke-width:1;stroke-linecap:round;stroke-linejoin:miter;stroke-miterlimit:4;stroke-opacity:1;stroke-dasharray:none;stroke-dashoffset:0" />
    <path
       d="m 390.39286,351.79075 0,-128.57142"
       id="path3029-4"
       style="fill:none;stroke:#000000;stroke-width:1px;stroke-linecap:butt;stroke-linejoin:miter;stroke-opacity:1" />
    <path
       d="m 371.10714,350.36218 0,-127.85713"
       id="path3031-9"
       style="fill:none;stroke:#000000;stroke-width:1px;stroke-linecap:butt;stroke-linejoin:miter;stroke-opacity:1" />
    <path
       d="m 125.71428,302.36218 a 9.6428576,5.7142859 0 1 1 -19.28571,0 9.6428576,5.7142859 0 1 1 19.28571,0 z"
       transform="translate(96.53571,-98.42857)"
       id="path3009-3"
       style="fill:none;stroke:#000000;stroke-width:1;stroke-linecap:round;stroke-linejoin:miter;stroke-miterlimit:4;stroke-opacity:1;stroke-dasharray:none;stroke-dashoffset:0" />
    <path
       d="m 125.71428,302.36218 a 9.6428576,5.7142859 0 1 1 -19.28571,0 9.6428576,5.7142859 0 1 1 19.28571,0 z"
       transform="translate(96.46429,29.571428)"
       id="path3009-0-3"
       style="fill:none;stroke:#000000;stroke-width:1;stroke-linecap:round;stroke-linejoin:miter;stroke-miterlimit:4;stroke-opacity:1;stroke-dasharray:none;stroke-dashoffset:0" />
    <path
       d="m 222.25,332.50504 0,-128.57143"
       id="path3029-3"
       style="fill:none;stroke:#000000;stroke-width:1px;stroke-linecap:butt;stroke-linejoin:miter;stroke-opacity:1" />
    <path
       d="m 202.96428,331.07647 0,-127.85714"
       id="path3031-8"
       style="fill:none;stroke:#000000;stroke-width:1px;stroke-linecap:butt;stroke-linejoin:miter;stroke-opacity:1" />
  </g>
</svg>
