<?xml version="1.0" encoding="UTF-8" standalone="no"?>
<!-- Created with Inkscape (http://www.inkscape.org/) -->

<svg
   xmlns:dc="http://purl.org/dc/elements/1.1/"
   xmlns:cc="http://creativecommons.org/ns#"
   xmlns:rdf="http://www.w3.org/1999/02/22-rdf-syntax-ns#"
   xmlns:svg="http://www.w3.org/2000/svg"
   xmlns="http://www.w3.org/2000/svg"
   version="1.1"
   width="744.09448"
   height="1052.3622"
   id="svg2">
  <defs
     id="defs4" />
  <metadata
     id="metadata7">
    <rdf:RDF>
      <cc:Work
         rdf:about="">
        <dc:format>image/svg+xml</dc:format>
        <dc:type
           rdf:resource="http://purl.org/dc/dcmitype/StillImage" />
        <dc:title></dc:title>
      </cc:Work>
    </rdf:RDF>
  </metadata>
  <g
     id="layer1">
    <path
       d="m 269.39286,246.64789 0,-128.57142"
       id="path3029-6"
       style="fill:none;stroke:#000000;stroke-width:1px;stroke-linecap:butt;stroke-linejoin:miter;stroke-opacity:1" />
    <path
       d="m 250.10714,245.21932 0,-127.85713"
       id="path3031-2"
       style="fill:none;stroke:#000000;stroke-width:1px;stroke-linecap:butt;stroke-linejoin:miter;stroke-opacity:1" />
    <path
       d="m 378.57143,151.29076 a 176.07143,60.357143 0 1 1 -352.142856,0 176.07143,60.357143 0 1 1 352.142856,0 z"
       transform="translate(-10,3.5714286)"
       id="path3002"
       style="fill:none;stroke:#000000;stroke-width:1;stroke-linecap:round;stroke-linejoin:miter;stroke-miterlimit:4;stroke-opacity:1;stroke-dasharray:none;stroke-dashoffset:0" />
    <path
       d="m 378.57143,151.29076 a 176.07143,60.357143 0 1 1 -352.142856,0 176.07143,60.357143 0 1 1 352.142856,0 z"
       transform="translate(-10.214285,-31.357145)"
       id="path3002-7"
       style="fill:none;stroke:#000000;stroke-width:1;stroke-linecap:round;stroke-linejoin:miter;stroke-miterlimit:4;stroke-opacity:1;stroke-dasharray:none;stroke-dashoffset:0" />
    <path
       d="m 368.57143,155.79075 0,-37.85714"
       id="path3022"
       style="fill:none;stroke:#000000;stroke-width:1px;stroke-linecap:butt;stroke-linejoin:miter;stroke-opacity:1" />
    <path
       d="m 16.428571,153.6479 0,-34.28572"
       id="path3024"
       style="fill:none;stroke:#000000;stroke-width:1px;stroke-linecap:butt;stroke-linejoin:miter;stroke-opacity:1" />
    <path
       d="m 125.71428,302.36218 a 9.6428576,5.7142859 0 1 1 -19.28571,0 9.6428576,5.7142859 0 1 1 19.28571,0 z"
       transform="matrix(1,0,0,0.63342055,143.78571,-74.250787)"
       id="path3009-0-3-52"
       style="fill:none;stroke:#000000;stroke-width:1;stroke-linecap:round;stroke-linejoin:miter;stroke-miterlimit:4;stroke-opacity:1;stroke-dasharray:none;stroke-dashoffset:0" />
    <path
       d="m 125.71428,302.36218 a 9.6428576,5.7142859 0 1 1 -19.28571,0 9.6428576,5.7142859 0 1 1 19.28571,0 z"
       transform="matrix(1,0,0,0.63342055,143.92858,53.839762)"
       id="path3009-0-3-52-8"
       style="fill:none;stroke:#000000;stroke-width:1;stroke-linecap:round;stroke-linejoin:miter;stroke-miterlimit:4;stroke-opacity:1;stroke-dasharray:none;stroke-dashoffset:0" />
    <path
       d="m 327.56889,312.83602 0,-128.57142"
       id="path3029-6-8"
       style="fill:none;stroke:#000000;stroke-width:1px;stroke-linecap:butt;stroke-linejoin:miter;stroke-opacity:1" />
    <path
       d="m 308.28317,311.40745 0,-127.85713"
       id="path3031-2-7"
       style="fill:none;stroke:#000000;stroke-width:1px;stroke-linecap:butt;stroke-linejoin:miter;stroke-opacity:1" />
    <path
       d="m 125.71428,302.36218 a 9.6428576,5.7142859 0 1 1 -19.28571,0 9.6428576,5.7142859 0 1 1 19.28571,0 z"
       transform="matrix(1,0,0,0.63342055,201.96174,-8.062657)"
       id="path3009-0-3-52-28"
       style="fill:none;stroke:#000000;stroke-width:1;stroke-linecap:round;stroke-linejoin:miter;stroke-miterlimit:4;stroke-opacity:1;stroke-dasharray:none;stroke-dashoffset:0" />
    <path
       d="m 125.71428,302.36218 a 9.6428576,5.7142859 0 1 1 -19.28571,0 9.6428576,5.7142859 0 1 1 19.28571,0 z"
       transform="matrix(1,0,0,0.63342055,202.10461,120.0279)"
       id="path3009-0-3-52-8-2"
       style="fill:none;stroke:#000000;stroke-width:1;stroke-linecap:round;stroke-linejoin:miter;stroke-miterlimit:4;stroke-opacity:1;stroke-dasharray:none;stroke-dashoffset:0" />
    <path
       d="m 148.28317,320.40745 0,-128.57142"
       id="path3029-6-1"
       style="fill:none;stroke:#000000;stroke-width:1px;stroke-linecap:butt;stroke-linejoin:miter;stroke-opacity:1" />
    <path
       d="m 128.99745,318.97888 0,-127.85713"
       id="path3031-2-9"
       style="fill:none;stroke:#000000;stroke-width:1px;stroke-linecap:butt;stroke-linejoin:miter;stroke-opacity:1" />
    <path
       d="m 125.71428,302.36218 a 9.6428576,5.7142859 0 1 1 -19.28571,0 9.6428576,5.7142859 0 1 1 19.28571,0 z"
       transform="matrix(1,0,0,0.63342055,22.67602,-0.4912287)"
       id="path3009-0-3-52-6"
       style="fill:none;stroke:#000000;stroke-width:1;stroke-linecap:round;stroke-linejoin:miter;stroke-miterlimit:4;stroke-opacity:1;stroke-dasharray:none;stroke-dashoffset:0" />
    <path
       d="m 125.71428,302.36218 a 9.6428576,5.7142859 0 1 1 -19.28571,0 9.6428576,5.7142859 0 1 1 19.28571,0 z"
       transform="matrix(1,0,0,0.63342055,22.81889,127.59933)"
       id="path3009-0-3-52-8-25"
       style="fill:none;stroke:#000000;stroke-width:1;stroke-linecap:round;stroke-linejoin:miter;stroke-miterlimit:4;stroke-opacity:1;stroke-dasharray:none;stroke-dashoffset:0" />
    <path
       d="m 90.8546,254.97888 0,-128.57142"
       id="path3029-6-9"
       style="fill:none;stroke:#000000;stroke-width:1px;stroke-linecap:butt;stroke-linejoin:miter;stroke-opacity:1" />
    <path
       d="m 71.568883,253.55031 0,-127.85713"
       id="path3031-2-4"
       style="fill:none;stroke:#000000;stroke-width:1px;stroke-linecap:butt;stroke-linejoin:miter;stroke-opacity:1" />
    <path
       d="m 125.71428,302.36218 a 9.6428576,5.7142859 0 1 1 -19.28571,0 9.6428576,5.7142859 0 1 1 19.28571,0 z"
       transform="matrix(1,0,0,0.63342055,-34.752547,-65.9198)"
       id="path3009-0-3-52-3"
       style="fill:none;stroke:#000000;stroke-width:1;stroke-linecap:round;stroke-linejoin:miter;stroke-miterlimit:4;stroke-opacity:1;stroke-dasharray:none;stroke-dashoffset:0" />
    <path
       d="m 125.71428,302.36218 a 9.6428576,5.7142859 0 1 1 -19.28571,0 9.6428576,5.7142859 0 1 1 19.28571,0 z"
       transform="matrix(1,0,0,0.63342055,-34.609677,62.170754)"
       id="path3009-0-3-52-8-5"
       style="fill:none;stroke:#000000;stroke-width:1;stroke-linecap:round;stroke-linejoin:miter;stroke-miterlimit:4;stroke-opacity:1;stroke-dasharray:none;stroke-dashoffset:0" />
  </g>
</svg>
