<?xml version="1.0" encoding="UTF-8" standalone="no"?>
<!DOCTYPE svg PUBLIC "-//W3C//DTD SVG 20010904//EN"
              "http://www.w3.org/TR/2001/REC-SVG-20010904/DTD/svg10.dtd">

<svg xmlns="http://www.w3.org/2000/svg"
     width="15.1667in" height="13.7917in"
     viewBox="0 0 1092 993">
  <g>    
    <path id="c14"
          fill="none" stroke="black" stroke-width="1"
          d="M 148.00,762.00
             C 148.00,762.00 140.00,754.00 140.00,754.00
               140.00,754.00 133.33,746.00 133.33,746.00
               133.33,746.00 128.67,733.33 128.67,733.33
               128.67,733.33 124.67,722.00 124.67,722.00
               124.67,722.00 120.00,704.67 120.00,704.67
               120.00,704.67 120.00,686.00 120.00,686.00
               120.00,686.00 118.00,673.33 118.00,673.33
               118.00,673.33 118.67,659.33 118.67,659.33
               118.67,659.33 118.67,646.67 118.67,646.67
               118.67,646.67 122.67,634.67 122.67,634.67
               122.67,634.67 123.33,622.00 123.33,622.00
               123.33,622.00 128.67,610.00 128.67,610.00
               128.67,610.00 130.67,596.00 130.67,596.00
               130.67,596.00 136.67,584.67 136.67,584.67
               136.67,584.67 141.33,574.00 141.33,574.00
               141.33,574.00 145.33,564.67 145.33,564.67
               145.33,564.67 154.00,552.00 154.00,552.00
               154.00,552.00 162.67,546.00 162.67,546.00
               162.67,546.00 171.33,536.00 171.33,536.00" />
    <path id="c13"
          fill="none" stroke="black" stroke-width="1"
          d="M 156.00,764.00
             C 156.00,764.00 177.33,764.00 177.33,764.00
               177.33,764.00 202.00,764.67 202.00,764.67
               202.00,764.67 225.33,762.67 225.33,762.67
               225.33,762.67 256.00,761.33 256.00,761.33
               256.00,761.33 281.33,759.33 281.33,759.33
               281.33,759.33 312.00,759.33 312.00,759.33
               312.00,759.33 339.33,758.67 339.33,758.67
               339.33,758.67 364.67,760.00 364.67,760.00
               364.67,760.00 389.33,760.67 389.33,760.67
               389.33,760.67 411.33,763.33 411.33,763.33
               411.33,763.33 442.00,763.33 442.00,763.33
               442.00,763.33 452.67,762.67 452.67,762.67" />
    <path id="c12"
          fill="none" stroke="black" stroke-width="1"
          d="M 171.33,535.33
             C 171.33,535.33 191.33,536.67 191.33,536.67
               191.33,536.67 206.67,536.00 206.67,536.00
               206.67,536.00 228.00,536.00 228.00,536.00
               228.00,536.00 254.67,536.00 254.67,536.00
               254.67,536.00 277.33,537.33 277.33,537.33
               277.33,537.33 302.00,538.00 302.00,538.00
               302.00,538.00 323.33,539.33 323.33,539.33
               323.33,539.33 344.67,540.00 344.67,540.00
               344.67,540.00 360.67,540.67 360.67,540.67
               360.67,540.67 379.33,540.67 379.33,540.67
               379.33,540.67 391.33,540.00 391.33,540.00
               391.33,540.00 410.00,540.00 410.00,540.00
               410.00,540.00 424.67,539.33 424.67,539.33
               424.67,539.33 433.33,537.33 433.33,537.33
               433.33,537.33 446.00,536.67 446.00,536.67
               446.00,536.67 455.33,536.00 455.33,536.00" />
    <path id="c11"
          fill="none" stroke="black" stroke-width="1"
          d="M 848.50,877.00
             C 848.50,877.00 857.00,883.50 857.00,883.50
               857.00,883.50 874.00,886.50 874.00,886.50
               874.00,886.50 885.00,890.50 885.00,890.50
               885.00,890.50 899.00,895.00 899.00,895.00
               899.00,895.00 920.00,895.00 920.00,895.00
               920.00,895.00 932.00,892.50 932.00,892.50
               932.00,892.50 948.00,888.00 948.00,888.00
               948.00,888.00 964.00,881.00 964.00,881.00
               964.00,881.00 971.00,874.00 971.00,874.00
               971.00,874.00 977.50,867.50 977.50,867.50" />
    <path id="c10"
          fill="none" stroke="black" stroke-width="1"
          d="M 847.33,876.67
             C 847.33,876.67 843.33,863.33 843.33,863.33
               843.33,863.33 841.33,846.00 841.33,846.00
               841.33,846.00 840.67,830.67 840.67,830.67
               840.67,830.67 840.00,813.33 840.00,813.33
               840.00,813.33 834.67,793.33 834.67,793.33
               834.67,793.33 832.67,776.00 832.67,776.00
               832.67,776.00 828.67,762.00 828.67,762.00
               828.67,762.00 826.00,753.33 826.00,753.33
               826.00,753.33 821.33,742.00 821.33,742.00
               821.33,742.00 819.33,738.00 819.33,738.00
               819.33,738.00 814.00,730.67 814.00,730.67
               814.00,730.67 806.67,721.33 806.67,721.33
               806.67,721.33 798.67,716.00 798.67,716.00
               798.67,716.00 788.67,706.00 788.67,706.00
               788.67,706.00 776.67,703.33 776.67,703.33
               776.67,703.33 759.33,698.67 759.33,698.67
               759.33,698.67 748.67,699.33 748.67,699.33
               748.67,699.33 736.67,700.67 736.67,700.67
               736.67,700.67 727.33,702.67 727.33,702.67
               727.33,702.67 716.00,702.00 716.00,702.00
               716.00,702.00 704.67,703.33 704.67,703.33" />
    <path id="c9"
          fill="none" stroke="black" stroke-width="1"
          d="M 704.00,602.00
             C 704.00,602.00 719.33,601.33 719.33,601.33
               719.33,601.33 740.00,601.33 740.00,601.33
               740.00,601.33 767.33,598.67 767.33,598.67
               767.33,598.67 785.33,596.67 785.33,596.67
               785.33,596.67 807.33,598.67 807.33,598.67
               807.33,598.67 828.67,604.00 828.67,604.00
               828.67,604.00 856.00,609.33 856.00,609.33
               856.00,609.33 879.33,619.33 879.33,619.33
               879.33,619.33 894.00,633.33 894.00,633.33
               894.00,633.33 905.33,644.67 905.33,644.67
               905.33,644.67 918.67,656.67 918.67,656.67
               918.67,656.67 929.33,673.33 929.33,673.33
               929.33,673.33 936.00,684.67 936.00,684.67
               936.00,684.67 942.67,700.67 942.67,700.67
               942.67,700.67 945.33,713.33 945.33,713.33
               945.33,713.33 951.33,730.67 951.33,730.67
               951.33,730.67 954.67,743.33 954.67,743.33
               954.67,743.33 956.67,755.33 956.67,755.33
               956.67,755.33 959.33,768.00 959.33,768.00
               959.33,768.00 961.33,786.67 961.33,786.67
               961.33,786.67 968.67,798.67 968.67,798.67
               968.67,798.67 970.67,812.00 970.67,812.00
               970.67,812.00 972.67,824.67 972.67,824.67
               972.67,824.67 974.67,840.00 974.67,840.00
               974.67,840.00 976.00,853.33 976.00,853.33
               976.00,853.33 976.67,864.67 976.67,864.67" />
    <path id="c8"
          fill="none" stroke="black" stroke-width="1"
          d="M 704.00,606.00
             C 704.00,606.00 709.00,613.50 709.00,613.50
               709.00,613.50 711.50,620.50 711.50,620.50
               711.50,620.50 714.50,631.00 714.50,631.00
               714.50,631.00 716.50,639.50 716.50,639.50
               716.50,639.50 718.00,652.00 718.00,652.00
               718.00,652.00 717.00,663.00 717.00,663.00
               717.00,663.00 714.00,674.50 714.00,674.50
               714.00,674.50 711.00,683.50 711.00,683.50
               711.00,683.50 707.00,691.00 707.00,691.00
               707.00,691.00 704.00,698.50 704.00,698.50
               704.00,698.50 701.00,704.00 701.00,704.00" />
    <path id="c7"
          fill="none" stroke="black" stroke-width="1"
          d="M 552.00,438.00
             C 552.00,438.00 540.00,445.33 540.00,445.33
               540.00,445.33 524.67,454.00 524.67,454.00
               524.67,454.00 508.00,462.67 508.00,462.67
               508.00,462.67 490.67,478.67 490.67,478.67
               490.67,478.67 482.00,489.33 482.00,489.33
               482.00,489.33 472.00,500.67 472.00,500.67
               472.00,500.67 464.67,510.67 464.67,510.67
               464.67,510.67 459.33,526.67 459.33,526.67
               459.33,526.67 454.67,536.67 454.67,536.67
               454.67,536.67 450.67,550.67 450.67,550.67
               450.67,550.67 443.33,564.00 443.33,564.00
               443.33,564.00 440.00,581.33 440.00,581.33
               440.00,581.33 436.67,591.33 436.67,591.33
               436.67,591.33 434.00,606.00 434.00,606.00
               434.00,606.00 431.33,618.67 431.33,618.67
               431.33,618.67 429.33,630.67 429.33,630.67
               429.33,630.67 426.67,646.67 426.67,646.67
               426.67,646.67 427.33,660.00 427.33,660.00
               427.33,660.00 426.67,680.00 426.67,680.00
               426.67,680.00 426.67,690.00 426.67,690.00
               426.67,690.00 429.33,700.67 429.33,700.67
               429.33,700.67 432.00,710.00 432.00,710.00
               432.00,710.00 438.67,724.00 438.67,724.00
               438.67,724.00 442.00,734.00 442.00,734.00
               442.00,734.00 446.00,744.67 446.00,744.67
               446.00,744.67 452.00,759.33 452.00,759.33
               452.00,759.33 458.50,768.50 458.50,768.50
               458.50,768.50 464.00,779.50 464.00,779.50
               464.00,779.50 469.00,787.50 469.00,787.50
               469.00,787.50 475.50,797.00 475.50,797.00
               475.50,797.00 483.25,808.75 483.25,808.75
               483.25,808.75 490.75,816.75 490.75,816.75
               490.75,816.75 498.50,824.25 498.50,824.25
               498.50,824.25 508.75,831.75 508.75,831.75
               508.75,831.75 518.50,836.50 518.50,836.50
               518.50,836.50 528.00,840.50 528.00,840.50
               528.00,840.50 543.00,842.00 543.00,842.00
               543.00,842.00 555.50,843.00 555.50,843.00
               555.50,843.00 568.50,843.00 568.50,843.00
               568.50,843.00 579.00,837.00 579.00,837.00
               579.00,837.00 594.00,836.50 594.00,836.50
               594.00,836.50 609.00,831.00 609.00,831.00
               609.00,831.00 618.00,826.50 618.00,826.50
               618.00,826.50 629.00,820.50 629.00,820.50
               629.00,820.50 638.50,815.00 638.50,815.00
               638.50,815.00 650.00,810.50 650.00,810.50
               650.00,810.50 660.00,806.50 660.00,806.50
               660.00,806.50 668.00,799.00 668.00,799.00
               668.00,799.00 677.50,792.50 677.50,792.50
               677.50,792.50 688.00,784.50 688.00,784.50
               688.00,784.50 695.50,778.00 695.50,778.00
               695.50,778.00 704.00,770.00 704.00,770.00
               704.00,770.00 715.00,762.00 715.00,762.00
               715.00,762.00 723.00,754.00 723.00,754.00
               723.00,754.00 732.00,742.50 732.00,742.50
               732.00,742.50 736.50,732.50 736.50,732.50
               736.50,732.50 741.50,721.50 741.50,721.50
               741.50,721.50 746.50,713.00 746.50,713.00
               746.50,713.00 749.50,706.50 749.50,706.50" />
    <path id="c6"
          fill="none" stroke="black" stroke-width="1"
          d="M 655.33,430.00
             C 655.33,430.00 666.67,436.67 666.67,436.67
               666.67,436.67 674.67,441.33 674.67,441.33
               674.67,441.33 685.33,447.33 685.33,447.33
               685.33,447.33 694.00,455.33 694.00,455.33
               694.00,455.33 702.00,463.33 702.00,463.33
               702.00,463.33 714.67,470.67 714.67,470.67
               714.67,470.67 724.67,479.33 724.67,479.33
               724.67,479.33 730.67,490.00 730.67,490.00
               730.67,490.00 736.67,498.00 736.67,498.00
               736.67,498.00 744.67,507.33 744.67,507.33
               744.67,507.33 750.00,518.00 750.00,518.00
               750.00,518.00 753.33,527.33 753.33,527.33
               753.33,527.33 758.67,538.00 758.67,538.00
               758.67,538.00 762.00,547.33 762.00,547.33
               762.00,547.33 765.33,560.67 765.33,560.67
               765.33,560.67 765.33,571.33 765.33,571.33
               765.33,571.33 766.67,582.67 766.67,582.67
               766.67,582.67 766.67,590.00 766.67,590.00" />
    <path id="c5"
          fill="none" stroke="black" stroke-width="1"
          d="M 555.33,468.67
             C 555.33,468.67 562.00,476.00 562.00,476.00
               562.00,476.00 570.00,481.33 570.00,481.33
               570.00,481.33 577.33,486.67 577.33,486.67
               577.33,486.67 589.33,490.00 589.33,490.00
               589.33,490.00 602.67,493.33 602.67,493.33
               602.67,493.33 612.00,493.33 612.00,493.33
               612.00,493.33 617.33,491.33 617.33,491.33
               617.33,491.33 628.67,484.00 628.67,484.00
               628.67,484.00 636.00,481.33 636.00,481.33
               636.00,481.33 641.33,476.67 641.33,476.67
               641.33,476.67 648.00,470.00 648.00,470.00
               648.00,470.00 652.00,461.33 652.00,461.33" />
    <path id="l9"
          fill="none" stroke="black" stroke-width="1"
          d="M 553.33,349.33
             C 553.33,349.33 552.67,368.00 552.67,368.00
               552.67,368.00 552.00,390.67 552.00,390.67
               552.00,390.67 551.33,413.33 551.33,413.33
               551.33,413.33 551.33,426.67 551.33,426.67
               551.33,426.67 553.33,439.33 553.33,439.33
               553.33,439.33 553.33,451.33 553.33,451.33
               553.33,451.33 554.00,467.33 554.00,467.33" />
    <path id="l8"
          fill="none" stroke="black" stroke-width="1"
          d="M 646.00,355.33
             C 646.00,355.33 646.00,368.67 646.00,368.67
               646.00,368.67 645.33,380.67 645.33,380.67
               645.33,380.67 644.67,391.33 644.67,391.33
               644.67,391.33 644.67,405.33 644.67,405.33
               644.67,405.33 644.67,418.67 644.67,418.67
               644.67,418.67 644.67,428.67 644.67,428.67
               644.67,428.67 648.00,442.67 648.00,442.67
               648.00,442.67 646.67,455.33 646.67,455.33
               646.67,455.33 648.00,463.33 648.00,463.33" />
    <path id="c4"
          fill="none" stroke="black" stroke-width="1"
          d="M 623.00,304.00
             C 623.00,304.00 630.00,306.50 630.00,306.50
               630.00,306.50 636.00,312.00 636.00,312.00
               636.00,312.00 639.00,315.50 639.00,315.50
               639.00,315.50 643.00,320.50 643.00,320.50
               643.00,320.50 645.50,327.00 645.50,327.00
               645.50,327.00 650.50,333.50 650.50,333.50
               650.50,333.50 649.00,342.00 649.00,342.00
               649.00,342.00 645.00,350.00 645.00,350.00
               645.00,350.00 639.50,355.00 639.50,355.00
               639.50,355.00 632.00,358.00 632.00,358.00
               632.00,358.00 624.50,361.50 624.50,361.50
               624.50,361.50 612.00,362.50 612.00,362.50
               612.00,362.50 604.50,365.00 604.50,365.00
               604.50,365.00 595.00,365.00 595.00,365.00
               595.00,365.00 583.00,364.00 583.00,364.00
               583.00,364.00 577.50,364.00 577.50,364.00
               577.50,364.00 569.00,359.50 569.00,359.50
               569.00,359.50 562.00,354.50 562.00,354.50
               562.00,354.50 556.50,349.00 556.50,349.00
               556.50,349.00 556.00,340.00 556.00,340.00
               556.00,340.00 558.50,333.50 558.50,333.50
               558.50,333.50 563.50,324.00 563.50,324.00
               563.50,324.00 568.50,319.00 568.50,319.00
               568.50,319.00 572.00,315.00 572.00,315.00
               572.00,315.00 578.00,312.00 578.00,312.00
               578.00,312.00 586.00,308.50 586.00,308.50
               586.00,308.50 592.00,305.00 592.00,305.00
               592.00,305.00 596.50,304.50 596.50,304.50" />
    <path id="c3"
          fill="none" stroke="black" stroke-width="1"
          d="M 596.00,334.33
             C 596.00,334.33 599.00,338.33 599.00,338.33
               599.00,338.33 607.00,340.00 607.00,340.00
               607.00,340.00 611.33,340.00 611.33,340.00
               611.33,340.00 614.33,337.33 614.33,337.33
               614.33,337.33 617.33,335.67 617.33,335.67
               617.33,335.67 619.33,332.67 619.33,332.67" />
    <path id="l7"
          fill="none" stroke="black" stroke-width="1"
          d="M 619.67,332.00
             C 619.67,332.00 620.00,319.33 620.00,319.33
               620.00,319.33 619.33,300.00 619.33,300.00
               619.33,300.00 620.00,286.00 620.00,286.00
               620.00,286.00 621.00,274.67 621.00,274.67
               621.00,274.67 620.33,249.67 620.33,249.67" />
    <path id="l6"
          fill="none" stroke="black" stroke-width="1"
          d="M 595.67,333.00
             C 595.67,333.00 596.33,325.00 596.33,325.00
               596.33,325.00 596.33,314.67 596.33,314.67
               596.33,314.67 598.00,307.00 598.00,307.00
               598.00,307.00 598.00,294.00 598.00,294.00
               598.00,294.00 598.00,283.33 598.00,283.33
               598.00,283.33 598.00,270.33 598.00,270.33
               598.00,270.33 598.33,261.00 598.33,261.00
               598.33,261.00 598.67,254.00 598.67,254.00
               598.67,254.00 598.67,250.33 598.67,250.33" />
    <path id="l5"
          fill="none" stroke="black" stroke-width="1"
          d="M 505.50,331.50
             C 505.50,331.50 513.50,322.50 513.50,322.50
               513.50,322.50 522.50,312.50 522.50,312.50
               522.50,312.50 529.50,303.50 529.50,303.50
               529.50,303.50 535.00,296.50 535.00,296.50
               535.00,296.50 545.50,285.00 545.50,285.00
               545.50,285.00 558.00,272.50 558.00,272.50
               558.00,272.50 566.00,262.00 566.00,262.00
               566.00,262.00 572.50,253.50 572.50,253.50
               572.50,253.50 580.00,243.50 580.00,243.50" />
    <path id="l4"
          fill="none" stroke="black" stroke-width="1"
          d="M 553.50,213.00
             C 553.50,213.00 544.50,216.00 544.50,216.00
               544.50,216.00 532.50,221.00 532.50,221.00
               532.50,221.00 521.50,225.50 521.50,225.50
               521.50,225.50 510.50,232.50 510.50,232.50
               510.50,232.50 497.50,240.00 497.50,240.00
               497.50,240.00 483.00,246.00 483.00,246.00
               483.00,246.00 467.00,256.00 467.00,256.00
               467.00,256.00 456.00,264.00 456.00,264.00
               456.00,264.00 449.50,267.50 449.50,267.50" />
    <path id="s1"
          fill="none" stroke="black" stroke-width="1"
          d="M 579.00,178.50
             C 579.00,178.50 599.00,168.25 599.00,168.25
               599.00,168.25 623.50,167.75 623.50,167.75
               623.50,167.75 633.25,177.25 633.25,177.25
               633.25,177.25 639.00,186.25 639.00,186.25
               639.00,186.25 643.00,194.00 643.00,194.00
               643.00,194.00 646.75,203.00 646.75,203.00
               646.75,203.00 647.25,212.00 647.25,212.00
               647.25,212.00 646.75,220.75 646.75,220.75
               646.75,220.75 646.00,226.50 646.00,226.50
               646.00,226.50 643.00,234.25 643.00,234.25
               643.00,234.25 636.75,241.00 636.75,241.00
               636.75,241.00 623.75,248.50 623.75,248.50
               623.75,248.50 608.50,250.00 608.50,250.00
               608.50,250.00 594.75,250.00 594.75,250.00
               594.75,250.00 584.75,244.25 584.75,244.25
               584.75,244.25 577.50,240.25 577.50,240.25
               577.50,240.25 572.00,233.25 572.00,233.25
               572.00,233.25 567.25,226.50 567.25,226.50
               567.25,226.50 560.50,218.00 560.50,218.00
               560.50,218.00 556.00,212.00 556.00,212.00
               556.00,212.00 556.75,205.50 556.75,205.50
               556.75,205.50 558.75,197.50 558.75,197.50
               558.75,197.50 561.75,192.25 561.75,192.25
               561.75,192.25 570.75,184.50 570.75,184.50
               570.75,184.50 577.25,179.75 577.25,179.75" />
    <path id="l2"
          fill="none" stroke="black" stroke-width="1"
          d="M 635.00,170.67
             C 635.00,170.67 640.33,164.33 640.33,164.33
               640.33,164.33 649.33,158.00 649.33,158.00
               649.33,158.00 657.33,151.00 657.33,151.00
               657.33,151.00 665.67,144.67 665.67,144.67
               665.67,144.67 673.33,137.67 673.33,137.67
               673.33,137.67 680.33,130.67 680.33,130.67
               680.33,130.67 689.00,125.67 689.00,125.67
               689.00,125.67 695.33,120.33 695.33,120.33
               695.33,120.33 702.00,115.00 702.00,115.00
               702.00,115.00 710.67,110.00 710.67,110.00
               710.67,110.00 719.00,104.67 719.00,104.67" />
    <path id="l1"
          fill="none" stroke="black" stroke-width="1"
          d="M 654.00,203.00
             C 654.00,203.00 661.67,200.33 661.67,200.33
               661.67,200.33 669.67,195.67 669.67,195.67
               669.67,195.67 680.00,191.00 680.00,191.00
               680.00,191.00 690.67,187.67 690.67,187.67
               690.67,187.67 703.67,181.67 703.67,181.67
               703.67,181.67 715.67,176.00 715.67,176.00
               715.67,176.00 730.33,171.33 730.33,171.33
               730.33,171.33 740.67,166.67 740.67,166.67
               740.67,166.67 752.00,163.00 752.00,163.00
               752.00,163.00 757.00,159.67 757.00,159.67" />
    <path id="c2"
          fill="none" stroke="black" stroke-width="1"
          d="M 722.00,103.33
             C 722.00,103.33 732.67,108.33 732.67,108.33
               732.67,108.33 738.67,114.00 738.67,114.00
               738.67,114.00 744.33,119.67 744.33,119.67
               744.33,119.67 750.00,126.00 750.00,126.00
               750.00,126.00 752.33,133.33 752.33,133.33
               752.33,133.33 757.33,142.00 757.33,142.00
               757.33,142.00 758.67,150.67 758.67,150.67
               758.67,150.67 758.67,157.00 758.67,157.00
               758.67,157.00 758.67,161.00 758.67,161.00" />
    <path id="c1"
          fill="none" stroke="black" stroke-width="1"
          d="M 455.75,270.00
             C 455.75,270.00 472.00,277.50 472.00,277.50
               472.00,277.50 486.50,296.75 486.50,296.75
               486.50,296.75 499.25,314.50 499.25,314.50
               499.25,314.50 503.50,332.25 503.50,332.25
               503.50,332.25 493.00,343.75 493.00,343.75
               493.00,343.75 478.00,344.75 478.00,344.75
               478.00,344.75 457.50,331.00 457.50,331.00
               457.50,331.00 444.75,310.25 444.75,310.25
               444.75,310.25 442.00,293.75 442.00,293.75
               442.00,293.75 444.00,281.25 444.00,281.25" />
  </g>
</svg>
