<?xml version="1.0" encoding="UTF-8" standalone="no"?>
<!DOCTYPE svg PUBLIC "-//W3C//DTD SVG 20010904//EN"
              "http://www.w3.org/TR/2001/REC-SVG-20010904/DTD/svg10.dtd">

<svg xmlns="http://www.w3.org/2000/svg"
     width="15.1667in" height="13.7917in"
     viewBox="0 0 1092 993">
<g>
  <path id="New Path#18"
        fill="none" stroke="black" stroke-width="1"
        d="M 156.67,766.67
           C 156.67,766.67 141.33,757.33 141.33,757.33
             141.33,757.33 131.33,742.67 131.33,742.67
             131.33,742.67 123.33,726.00 123.33,726.00
             123.33,726.00 118.00,699.33 118.00,699.33
             118.00,699.33 118.00,680.00 118.00,680.00
             118.00,680.00 120.67,658.00 120.67,658.00
             120.67,658.00 123.33,635.33 123.33,635.33
             123.33,635.33 128.00,612.67 128.00,612.67
             128.00,612.67 134.00,594.67 134.00,594.67
             134.00,594.67 140.67,576.67 140.67,576.67
             140.67,576.67 149.33,560.00 149.33,560.00
             149.33,560.00 158.67,546.67 158.67,546.67
             158.67,546.67 172.00,534.67 172.00,534.67" />
  <path id="New Path#2"
        fill="none" stroke="black" stroke-width="1"
        d="M 174.00,534.67
           C 174.00,534.67 193.33,536.00 193.33,536.00
             193.33,536.00 215.33,535.33 215.33,535.33
             215.33,535.33 238.67,536.00 238.67,536.00
             238.67,536.00 273.33,536.67 273.33,536.67
             273.33,536.67 299.33,537.33 299.33,537.33
             299.33,537.33 340.00,540.67 340.00,540.67
             340.00,540.67 370.67,541.33 370.67,541.33
             370.67,541.33 402.00,540.00 402.00,540.00
             402.00,540.00 429.33,540.00 429.33,540.00
             429.33,540.00 450.00,535.33 450.00,535.33" />
  <path id="Unnamed#4"
        fill="none" stroke="black" stroke-width="1"
        d="M 161.33,767.33
           C 161.33,767.33 178.67,765.33 178.67,765.33
             178.67,765.33 200.67,763.33 200.67,763.33
             200.67,763.33 219.33,762.00 219.33,762.00
             219.33,762.00 248.00,758.67 248.00,758.67
             248.00,758.67 273.33,758.67 273.33,758.67
             273.33,758.67 302.00,758.00 302.00,758.00
             302.00,758.00 323.33,758.00 323.33,758.00
             323.33,758.00 342.00,758.00 343.33,758.00
             344.67,758.00 368.67,758.00 369.33,758.00
             370.00,758.00 386.67,758.67 388.67,758.67
             390.67,758.67 415.33,759.33 415.33,759.33
             415.33,759.33 434.67,759.33 434.67,759.33
             434.67,759.33 452.67,757.33 452.67,757.33" />
  <path id="Unnamed#3"
        fill="none" stroke="black" stroke-width="1"
        d="M 752.00,700.00
           C 752.00,700.00 747.50,715.00 747.50,715.00
             747.50,715.00 741.50,728.50 741.50,728.50
             741.50,728.50 734.00,741.00 734.00,741.00
             734.00,741.00 725.00,752.50 725.00,752.50
             725.00,752.50 714.00,762.00 714.00,762.00
             714.00,762.00 701.50,772.50 701.50,772.50
             701.50,772.50 689.00,784.50 689.00,784.50
             689.00,784.50 676.50,792.50 676.50,792.50
             676.50,792.50 664.50,801.00 664.50,801.00
             664.50,801.00 652.00,809.50 652.00,809.50
             652.00,809.50 635.50,817.50 635.50,817.50
             635.50,817.50 622.00,823.00 622.00,823.00
             622.00,823.00 607.50,829.50 607.50,829.50
             607.50,829.50 592.50,836.50 592.50,836.50
             592.50,836.50 578.00,842.00 578.00,842.00
             578.00,842.00 561.00,844.50 561.00,844.50
             561.00,844.50 548.00,845.00 548.00,845.00
             548.00,845.00 529.50,843.00 529.50,843.00
             529.50,843.00 514.00,837.00 514.00,837.00
             514.00,837.00 502.00,829.00 502.00,829.00
             502.00,829.00 492.50,819.50 492.50,819.50
             492.50,819.50 480.00,805.33 480.00,805.33
             480.00,805.33 468.67,788.67 468.67,788.67
             468.67,788.67 459.00,771.00 459.00,771.00
             459.00,771.00 452.33,755.67 452.33,755.67
             452.33,755.67 444.00,737.00 444.00,737.00
             444.00,737.00 437.33,719.00 437.33,719.00
             437.33,719.00 432.67,701.67 432.67,701.67
             432.67,701.67 429.33,685.33 429.33,685.33
             429.33,685.33 426.33,665.00 426.33,665.00
             426.33,665.00 427.33,648.33 427.33,648.33
             427.33,648.33 428.67,629.33 428.67,629.33
             428.67,629.33 432.00,612.00 432.00,612.00
             432.00,612.00 435.67,592.33 435.67,592.33
             435.67,592.33 440.67,575.00 440.67,575.00
             440.67,575.00 446.67,555.00 446.67,555.00
             446.67,555.00 452.67,538.33 452.67,538.33
             452.67,538.33 457.33,525.67 457.33,525.67
             457.33,525.67 463.33,512.67 463.33,512.67
             463.33,512.67 471.33,499.00 471.33,499.00
             471.33,499.00 480.00,485.67 480.00,485.67
             480.00,485.67 492.67,472.33 492.67,472.33
             492.67,472.33 507.00,463.33 507.00,463.33
             507.00,463.33 526.33,451.33 526.33,451.33
             526.33,451.33 541.67,443.33 541.67,443.33
             541.67,443.33 554.67,437.33 554.67,437.33" />
  <path id="New Path#17"
        fill="none" stroke="black" stroke-width="1"
        d="M 719.50,106.50
           C 720.00,106.50 729.00,110.50 729.00,110.50
             729.00,110.50 735.50,114.50 735.50,114.50
             735.50,114.50 743.00,120.50 743.00,120.50
             743.00,120.50 749.00,128.50 749.00,128.50
             749.00,128.50 753.50,135.00 753.50,135.00
             753.50,135.00 757.50,141.50 757.50,141.50
             757.50,141.50 757.50,151.00 757.50,151.00
             757.50,151.00 756.50,159.00 756.50,159.00" />
  <path id="New Path#16"
        fill="none" stroke="black" stroke-width="1"
        d="M 651.00,207.00
           C 651.00,207.00 659.50,202.00 659.50,202.00
             659.50,202.00 671.50,194.50 672.00,194.50
             672.50,194.50 685.00,188.00 685.00,188.00
             685.00,188.00 701.50,180.50 701.50,180.50
             701.50,180.50 714.50,174.00 714.50,174.00
             714.50,174.00 728.50,168.50 728.50,168.50
             728.50,168.50 741.50,163.50 741.50,163.50
             741.50,163.50 757.00,159.50 757.00,159.50" />
  <path id="New Path#15"
        fill="none" stroke="black" stroke-width="1"
        d="M 633.00,175.00
           C 633.00,175.00 640.50,168.00 640.50,168.00
             640.50,168.00 648.50,160.00 648.50,160.00
             648.50,160.00 659.50,150.00 659.50,150.00
             659.50,150.00 672.50,142.00 672.50,142.00
             672.50,142.00 682.50,132.50 682.50,132.50
             682.50,132.50 691.50,125.00 691.50,125.00
             691.50,125.00 702.00,117.00 702.00,117.00
             702.00,117.00 709.50,111.00 709.50,111.00
             709.50,111.00 719.50,106.00 719.50,106.00" />
  <path id="New Path#14"
        fill="none" stroke="black" stroke-width="1"
        d="M 552.50,213.50
           C 552.50,213.50 553.50,205.00 553.50,205.00
             553.50,205.00 556.00,198.00 556.00,198.00
             556.00,198.00 561.00,192.50 561.00,192.50
             561.00,192.50 565.50,185.50 565.50,185.50
             565.50,185.50 573.50,180.00 573.50,180.00
             573.50,180.00 583.00,175.00 583.00,175.00
             583.00,175.00 589.50,170.00 589.50,170.00
             589.50,170.00 597.50,168.50 597.50,168.50
             597.50,168.50 607.00,166.00 607.00,166.00
             607.00,166.00 615.00,166.50 615.00,166.50
             615.00,166.50 624.00,171.00 624.00,171.00
             624.00,171.00 629.00,174.00 629.00,174.50
             629.00,175.00 637.00,183.00 637.00,183.00
             637.00,183.00 639.50,189.00 640.00,189.50
             640.50,190.00 643.50,198.50 643.50,198.50
             643.50,198.50 646.00,207.00 646.00,207.00
             646.00,207.00 646.00,216.50 646.00,216.50
             646.00,216.50 643.50,226.00 643.50,226.00
             643.50,226.00 638.00,233.00 638.00,233.50
             638.00,234.00 632.50,239.00 632.50,239.00
             632.50,239.00 623.50,243.50 623.50,243.50
             623.50,243.50 616.00,245.00 616.00,245.00
             616.00,245.00 607.00,245.50 607.00,245.50
             607.00,245.50 598.00,246.00 598.00,246.00
             598.00,246.00 590.00,246.00 590.00,246.00
             590.00,246.00 584.00,245.50 584.00,245.50" />
  <path id="New Path#13"
        fill="none" stroke="black" stroke-width="1"
        d="M 554.00,213.50
           C 554.00,213.50 559.50,215.50 559.50,215.50
             559.50,215.50 565.50,220.00 565.50,220.00
             565.50,220.00 569.50,224.50 569.50,224.50
             569.50,224.50 572.50,230.50 572.50,230.50
             572.50,230.50 577.50,238.50 577.50,238.50
             577.50,238.50 580.00,246.50 580.00,246.50" />
  <path id="New Path#12"
        fill="none" stroke="black" stroke-width="1"
        d="M 450.00,272.00
           C 450.00,272.00 458.50,271.50 458.50,271.50
             458.50,271.50 466.00,276.00 466.00,276.00
             466.00,276.00 471.00,284.00 471.00,284.00
             471.00,284.00 478.50,291.50 478.50,291.50
             478.50,291.50 487.00,302.50 487.00,302.50
             487.00,302.50 493.00,312.50 493.00,313.00
             493.00,313.50 496.00,322.50 496.00,322.50
             496.00,322.50 498.00,333.00 498.00,333.00
             498.00,333.00 496.50,339.00 496.50,339.00
             496.50,339.00 492.50,344.00 492.00,344.00
             491.50,344.00 482.50,343.50 482.50,343.50
             482.50,343.50 471.00,341.00 471.00,341.00
             471.00,341.00 462.50,333.50 462.50,333.50
             462.50,333.50 453.50,319.00 453.50,319.00
             453.50,319.00 446.50,309.00 446.50,309.00
             446.50,309.00 442.50,296.50 442.50,296.50
             442.50,296.50 442.50,286.00 442.50,286.00
             442.50,286.00 445.00,279.50 445.00,279.50
             445.00,279.50 450.50,273.00 450.50,273.00" />
  <path id="New Path#11"
        fill="none" stroke="black" stroke-width="1"
        d="M 448.50,274.00
           C 448.50,274.00 461.00,264.00 461.00,264.00
             461.00,264.00 474.50,257.00 474.50,257.00
             474.50,257.00 488.50,247.50 488.50,247.50
             488.50,247.50 502.50,240.00 502.50,240.00
             502.50,240.00 519.50,229.00 519.50,229.00
             519.50,229.00 534.50,221.00 534.50,221.00
             534.50,221.00 553.00,213.00 553.00,213.00" />
  <path id="New Path#10"
        fill="none" stroke="black" stroke-width="1"
        d="M 498.50,339.50
           C 498.50,339.50 508.00,327.50 508.00,327.50
             508.00,327.50 518.50,316.50 518.50,316.50
             518.50,316.50 529.50,303.50 529.50,303.50
             529.50,303.50 542.00,292.50 542.00,292.50
             542.00,292.50 551.50,281.00 551.50,281.00
             551.50,281.00 561.00,270.50 561.00,270.50
             561.00,270.50 570.00,260.50 570.00,260.50
             570.00,260.50 582.50,246.00 582.50,246.00" />
  <path id="New Path#9"
        fill="none" stroke="black" stroke-width="1"
        d="M 596.67,337.33
           C 596.67,337.33 599.33,341.33 599.33,341.33
             599.33,341.33 603.67,342.67 603.67,342.67
             603.67,342.67 607.67,343.33 607.67,343.33
             607.67,343.33 611.67,341.67 611.67,341.67
             611.67,341.67 615.33,339.33 615.33,339.33
             615.33,339.33 619.00,335.33 619.00,335.33
             619.00,335.33 618.18,329.64 618.18,329.64
             618.18,329.64 614.67,326.00 614.67,326.00
             614.67,326.00 607.33,325.67 607.33,325.67
             607.33,325.67 602.00,326.00 602.00,326.00
             602.00,326.00 599.67,328.67 599.33,328.67
             599.00,328.67 596.67,332.67 596.67,332.67
             596.67,332.67 596.67,337.67 596.67,337.67" />
  <path id="New Path#8"
        fill="none" stroke="black" stroke-width="1"
        d="M 620.67,248.33
           C 620.67,248.33 620.33,258.00 620.33,258.00
             620.33,258.00 620.00,271.33 620.00,271.33
             620.00,271.33 620.00,282.33 620.00,282.33
             620.00,282.33 619.33,292.33 619.33,292.33
             619.33,292.33 619.00,302.67 619.00,302.67
             619.00,302.67 619.00,310.00 619.00,310.00
             619.00,310.00 618.67,321.67 618.67,321.67
             618.67,321.67 618.67,332.67 618.67,332.67" />
  <path id="New Path#7"
        fill="none" stroke="black" stroke-width="1"
        d="M 596.33,336.67
           C 596.33,336.67 596.33,324.67 596.33,324.67
             596.33,324.67 597.33,312.33 597.33,312.33
             597.33,312.33 597.67,303.33 597.67,303.33
             597.67,303.33 598.33,288.33 598.33,288.33
             598.33,288.33 598.33,273.33 598.33,273.33
             598.33,273.33 598.67,261.00 598.67,261.00
             598.67,261.00 599.00,252.00 599.00,252.00
             599.00,252.00 599.33,246.67 599.33,246.67" />
  <path id="New Path#6"
        fill="none" stroke="black" stroke-width="1"
        d="M 621.67,302.33
           C 621.67,302.33 630.67,307.33 630.67,307.33
             630.67,307.33 638.00,313.33 638.00,313.33
             638.00,313.33 644.67,320.33 644.67,320.33
             644.67,320.33 648.00,330.00 648.00,330.00
             648.00,330.00 647.67,338.00 647.67,338.00
             647.67,338.00 646.33,345.33 646.33,345.33
             646.33,345.33 643.00,352.00 643.00,352.00
             643.00,352.00 635.67,360.33 635.67,360.33
             635.67,360.33 623.00,363.33 623.00,363.33
             623.00,363.33 609.33,364.00 609.33,364.00
             609.33,364.00 598.33,364.00 598.33,364.00
             598.33,364.00 585.67,363.33 585.67,363.33
             585.67,363.33 575.00,359.67 575.00,359.67
             575.00,359.67 566.67,355.67 566.67,355.67
             566.67,355.67 559.67,351.00 559.67,351.00
             559.67,351.00 553.67,346.00 553.67,346.00
             553.67,346.00 553.00,339.00 553.00,339.00
             553.00,339.00 555.33,333.00 555.67,332.67
             556.00,332.33 563.33,324.00 563.33,324.00
             563.33,324.00 569.67,317.33 569.67,317.33
             569.67,317.33 576.00,312.67 576.00,312.67
             576.00,312.67 583.33,307.67 583.33,307.67
             583.33,307.67 591.67,305.67 591.67,305.67
             591.67,305.67 599.33,303.33 599.33,303.33" />
  <path id="New Path#5"
        fill="none" stroke="black" stroke-width="1"
        d="M 556.67,469.33
           C 556.67,469.33 563.00,475.00 563.00,475.00
             563.00,475.00 570.00,481.67 570.00,481.67
             570.00,481.67 576.67,486.67 576.67,486.67
             576.67,486.67 584.67,490.33 584.67,490.33
             584.67,490.33 593.00,492.33 593.00,492.33
             593.00,492.33 601.00,492.33 601.00,492.33
             601.00,492.33 611.00,492.33 611.00,492.33
             611.00,492.33 621.00,489.33 621.00,489.33
             621.00,489.33 630.67,484.33 630.67,484.33
             630.67,484.33 637.33,479.00 637.33,479.00
             637.33,479.00 644.00,473.00 644.00,473.00
             644.00,473.00 649.33,465.67 649.33,465.67" />
  <path id="New Path#4"
        fill="none" stroke="black" stroke-width="1"
        d="M 648.33,463.00
           C 648.33,463.00 648.33,449.33 648.33,449.33
             648.33,449.33 647.33,435.33 647.33,435.33
             647.33,435.33 646.00,425.67 646.00,425.67
             646.00,425.67 645.33,411.67 645.33,411.67
             645.33,411.67 644.67,399.00 644.67,399.00
             644.67,399.00 645.00,383.67 645.00,383.67
             645.00,383.67 646.67,368.00 646.67,368.00
             646.67,368.00 646.33,356.67 646.33,356.67
             646.33,356.67 647.33,346.00 647.33,346.00" />
  <path id="New Path#3"
        fill="none" stroke="black" stroke-width="1"
        d="M 556.67,469.00
           C 556.67,469.00 555.67,453.00 555.67,453.00
             555.67,453.00 554.67,436.33 554.67,436.33
             554.67,436.33 553.67,418.00 553.67,418.00
             553.67,418.00 554.00,401.67 554.00,401.67
             554.00,401.67 553.67,385.00 553.67,385.00
             553.67,385.00 552.33,370.67 552.33,370.67
             552.33,370.67 552.00,356.33 552.00,356.33
             552.00,356.33 552.00,348.00 552.00,348.00" />
  <path id="New Path#1"
        fill="none" stroke="black" stroke-width="1"
        d="M 646.00,426.00
           C 646.00,426.00 656.67,430.33 656.67,430.33
             656.67,430.33 668.33,435.67 668.33,435.67
             668.33,435.67 678.33,442.33 678.33,442.33
             678.33,442.33 689.67,449.00 689.67,449.00
             689.67,449.00 699.33,455.67 699.33,455.67
             699.33,455.67 708.67,464.33 708.67,464.33
             708.67,464.33 716.33,474.00 716.33,474.00
             716.33,474.00 725.67,483.00 725.67,483.00
             725.67,483.00 734.67,493.00 734.67,493.00
             734.67,493.00 741.33,502.67 741.33,502.67
             741.33,502.67 748.00,512.00 748.00,512.00
             748.00,512.00 753.67,522.67 753.67,522.67
             753.67,522.67 758.00,533.67 758.00,533.67
             758.00,533.67 763.00,542.00 763.00,542.00
             763.00,542.00 765.33,551.00 765.33,551.00
             765.33,551.00 766.33,561.67 766.33,561.67
             766.33,561.67 767.00,572.33 767.00,572.33
             767.00,572.33 768.33,581.67 768.33,581.67
             768.33,581.67 768.33,590.67 768.33,590.67
             768.33,590.67 768.33,597.00 768.33,597.00" />
  <path id="New Path"
        fill="none" stroke="black" stroke-width="1"
        d="M 709.00,603.67
           C 709.00,603.67 727.33,601.00 727.33,601.00
             727.33,601.00 743.33,598.00 743.33,598.00
             743.33,598.00 759.33,597.67 759.33,597.67
             759.33,597.67 781.33,597.67 781.33,597.67
             781.33,597.67 805.00,599.00 805.00,599.00
             805.00,599.00 823.00,601.67 823.00,601.67
             823.00,601.67 839.67,604.67 839.67,604.67
             839.67,604.67 854.33,609.33 854.33,609.33
             854.33,609.33 866.67,613.67 866.67,613.67
             866.67,613.67 878.33,620.67 878.33,620.67
             878.33,620.67 887.33,628.33 887.33,628.33
             887.33,628.33 898.00,635.00 898.00,635.00
             898.00,635.00 906.67,643.00 906.67,643.00
             906.67,643.00 915.00,651.00 915.00,651.00
             915.00,651.00 922.67,662.00 922.67,662.00
             922.67,662.00 931.67,675.00 931.67,675.00
             931.67,675.00 938.00,687.67 938.00,687.67
             938.00,687.67 943.33,700.33 943.33,700.33
             943.33,700.33 947.33,713.67 947.33,713.67
             947.33,713.67 951.00,728.67 951.00,728.67
             951.00,728.67 955.00,744.00 955.00,744.00
             955.00,744.00 958.33,760.00 958.33,760.00
             958.33,760.00 961.33,777.00 961.33,777.00
             961.33,777.00 965.00,790.33 965.00,790.33
             965.00,790.33 968.67,803.00 968.67,803.00
             968.67,803.00 972.33,816.67 972.33,816.67
             972.33,816.67 973.67,827.33 973.67,827.33
             973.67,827.33 975.33,839.67 975.33,839.67
             975.33,839.67 977.67,850.00 977.67,850.00
             977.67,850.00 981.00,865.00 981.00,865.00" />
  <path id="Unnamed#2"
        fill="none" stroke="black" stroke-width="1"
        d="M 980.67,866.00
           C 980.67,866.00 968.67,874.33 968.67,874.33
             968.67,874.33 957.33,881.00 957.33,881.00
             957.33,881.00 946.67,885.33 946.67,885.33
             946.67,885.33 933.00,889.67 933.00,889.67
             933.00,889.67 923.00,891.67 923.00,891.67
             923.00,891.67 911.67,894.00 911.67,894.00
             911.67,894.00 899.00,892.67 899.00,892.67
             899.00,892.67 883.33,890.00 883.33,890.00
             883.33,890.00 868.67,885.67 868.67,885.67
             868.67,885.67 858.33,880.67 858.33,880.67
             858.33,880.67 847.00,874.67 847.00,874.67" />
  <path id="Unnamed#1"
        fill="none" stroke="black" stroke-width="1"
        d="M 705.33,704.00
           C 705.33,704.00 718.33,703.00 718.33,703.00
             718.33,703.00 730.33,700.00 730.33,700.00
             730.33,700.00 741.00,699.67 741.00,699.67
             741.00,699.67 753.33,697.00 753.33,697.00
             753.33,697.00 768.33,697.67 768.33,697.67
             768.33,697.67 782.33,702.00 782.33,702.00
             782.33,702.00 793.33,708.33 793.33,708.33
             793.33,708.33 803.00,715.67 803.00,715.67
             803.00,715.67 811.00,726.00 811.00,726.00
             811.00,726.00 819.00,738.00 819.00,738.00
             819.00,738.00 824.33,747.67 824.33,747.67
             824.33,747.67 828.00,760.67 828.00,760.67
             828.00,760.67 831.00,775.00 831.00,775.00
             831.00,775.00 833.67,789.00 833.67,789.00
             833.67,789.00 837.00,805.00 837.00,805.00
             837.00,805.00 838.33,818.00 838.33,818.00
             838.33,818.00 840.67,831.33 840.67,831.33
             840.67,831.33 843.00,845.33 843.00,845.67
             843.00,846.00 845.00,855.67 845.00,856.00
             845.00,856.33 845.67,863.33 845.67,863.33
             845.67,863.33 847.33,875.00 847.33,875.00" />
  <path id="Unnamed"
        fill="none" stroke="black" stroke-width="1"
        d="M 704.33,702.33
           C 704.33,702.33 711.00,685.67 711.00,685.67
             711.00,685.67 715.67,671.00 715.67,671.00
             715.67,671.00 719.00,657.00 719.00,657.00
             719.00,657.00 718.00,642.00 718.00,642.00
             718.00,642.00 713.67,623.67 713.67,623.67
             713.67,623.67 710.00,610.67 710.00,610.67
             710.00,610.67 708.00,601.33 708.00,601.33" />
</g>
</svg>
