<?xml version="1.0" encoding="UTF-8" standalone="no"?>
<!-- Created with Inkscape (http://www.inkscape.org/) -->

<svg
   xmlns:dc="http://purl.org/dc/elements/1.1/"
   xmlns:cc="http://creativecommons.org/ns#"
   xmlns:rdf="http://www.w3.org/1999/02/22-rdf-syntax-ns#"
   xmlns:svg="http://www.w3.org/2000/svg"
   xmlns="http://www.w3.org/2000/svg"
   version="1.1"
   width="15.1667in"
   height="13.7917in"
   viewBox="0 0 1092 993"
   id="svg2">
  <metadata
     id="metadata33">
    <rdf:RDF>
      <cc:Work
         rdf:about="">
        <dc:format>image/svg+xml</dc:format>
        <dc:type
           rdf:resource="http://purl.org/dc/dcmitype/StillImage" />
        <dc:title></dc:title>
      </cc:Work>
    </rdf:RDF>
  </metadata>
  <defs
     id="defs31" />
  <g
     id="g3033">
    <path
       d="m 505.5,331.5 c 0,0 8,-9 8,-9 0,0 9,-10 9,-10 0,0 7,-9 7,-9 0,0 5.5,-7 5.5,-7 0,0 10.5,-11.5 10.5,-11.5 0,0 12.5,-12.5 12.5,-12.5 0,0 8,-10.5 8,-10.5 0,0 6.5,-8.5 6.5,-8.5 0,0 7.5,-10 7.5,-10"
       id="l5"
       style="fill:none;stroke:#000000;stroke-width:1" />
    <path
       d="m 553.5,213 c 0,0 -9,3 -9,3 0,0 -12,5 -12,5 0,0 -11,4.5 -11,4.5 0,0 -11,7 -11,7 0,0 -13,7.5 -13,7.5 0,0 -14.5,6 -14.5,6 0,0 -16,10 -16,10 0,0 -11,8 -11,8 0,0 -6.5,3.5 -6.5,3.5"
       id="l4"
       style="fill:none;stroke:#000000;stroke-width:1" />
    <path
       d="m 455.75,270 c 0,0 16.25,7.5 16.25,7.5 0,0 14.5,19.25 14.5,19.25 0,0 12.75,17.75 12.75,17.75 0,0 4.25,17.75 4.25,17.75 0,0 -10.5,11.5 -10.5,11.5 0,0 -15,1 -15,1 0,0 -20.5,-13.75 -20.5,-13.75 0,0 -12.75,-20.75 -12.75,-20.75 0,0 -2.75,-16.5 -2.75,-16.5 0,0 2,-12.5 2,-12.5"
       id="c1"
       style="fill:none;stroke:#000000;stroke-width:1" />
  </g>
</svg>
