<?xml version="1.0" encoding="UTF-8" standalone="no"?>
<!DOCTYPE svg PUBLIC "-//W3C//DTD SVG 20010904//EN"
              "http://www.w3.org/TR/2001/REC-SVG-20010904/DTD/svg10.dtd">

<svg xmlns="http://www.w3.org/2000/svg"
     width="11.625in" height="7.83333in"
     viewBox="0 0 837 564">
<g>
  <path id="sil1"
        fill="none" stroke="black" stroke-width="1"
        d="M 767.00,98.00
           C 767.00,98.00 754.00,93.50 754.00,93.50
             754.00,93.50 735.50,94.00 735.50,94.00
             735.50,94.00 715.00,93.50 715.00,93.50
             715.00,93.50 693.50,93.50 693.50,93.50
             693.50,93.50 658.50,93.00 658.50,93.00
             658.50,93.00 605.50,93.00 605.50,93.00
             605.50,93.00 552.50,93.00 552.50,93.00
             552.50,93.00 511.00,93.50 511.00,93.50
             511.00,93.50 456.50,90.50 456.50,90.50
             456.50,90.50 414.00,89.00 414.00,89.00
             414.00,89.00 371.00,88.00 371.00,88.00
             371.00,88.00 325.00,84.00 325.00,84.00
             325.00,84.00 281.00,84.00 281.00,84.00
             281.00,84.00 231.00,79.50 231.00,79.50
             231.00,79.50 189.00,77.00 189.00,77.00
             189.00,77.00 164.00,76.50 164.00,76.50
             164.00,76.50 137.50,72.50 137.50,72.50
             137.50,72.50 121.50,70.50 121.50,70.50
             121.50,70.50 104.00,68.00 104.00,68.00
             104.00,68.00 78.00,69.00 78.00,69.00" />
  <path id="sil0"
        fill="none" stroke="black" stroke-width="1"
        d="M 137.00,529.50
           C 137.00,529.50 158.00,522.50 158.00,522.50
             158.00,522.50 182.50,512.50 182.50,512.50
             182.50,512.50 207.00,503.00 207.00,503.00
             207.00,503.00 232.50,495.50 232.50,495.50
             232.50,495.50 264.00,487.00 264.00,487.00
             264.00,487.00 294.00,476.00 294.00,476.00
             294.00,476.00 327.50,466.50 327.50,466.50
             327.50,466.50 357.00,457.00 357.00,457.00
             357.00,457.00 385.50,447.00 385.50,447.00
             385.50,447.00 419.50,436.00 419.50,436.00
             419.50,436.00 463.50,425.00 463.50,425.00
             463.50,425.00 501.00,411.00 501.00,411.00
             501.00,411.00 529.50,403.50 529.50,403.50
             529.50,403.50 576.50,390.00 576.50,390.00
             576.50,390.00 617.00,375.00 617.00,375.00
             617.00,375.00 657.00,361.50 657.00,361.50
             657.00,361.50 695.50,349.00 695.50,349.00
             695.50,349.00 731.50,335.50 731.50,335.50
             731.50,335.50 770.50,325.00 770.50,325.00
             770.50,325.00 796.50,315.50 796.50,315.50
             796.50,315.50 823.50,309.50 823.50,309.50" />
  <path id="circle"
        fill="none" stroke="black" stroke-width="1"
        d="M 64.73,70.00
           C 64.73,70.00 78.00,69.00 78.00,69.00
             78.00,69.00 94.00,75.00 94.00,75.00
             94.00,75.00 106.00,82.00 106.00,82.00
             106.00,82.00 120.00,91.00 120.00,91.00
             120.00,91.00 134.00,103.00 134.00,104.00
             134.00,105.00 150.00,121.00 150.00,121.00
             150.00,121.00 166.00,147.00 166.00,147.00
             166.00,147.00 177.00,175.00 177.00,175.00
             177.00,175.00 182.00,205.00 182.00,205.00
             182.00,205.00 190.00,241.00 190.00,241.00
             190.00,241.00 192.00,279.00 192.00,279.00
             192.00,279.00 193.00,320.50 193.00,320.50
             193.00,320.50 192.00,355.50 192.00,355.50
             192.00,355.50 191.00,386.50 191.00,386.50
             191.00,386.50 186.00,416.00 186.00,416.00
             186.00,416.00 179.50,451.00 179.50,451.00
             179.50,451.00 167.50,485.50 167.50,485.50
             167.50,485.50 158.00,505.50 158.00,505.50
             158.00,505.50 149.00,518.50 149.00,518.50
             149.00,518.50 135.50,527.50 135.50,527.50
             135.50,527.50 124.50,528.00 124.50,528.00
             124.50,528.00 117.50,524.00 117.50,524.00
             117.50,524.00 109.00,518.50 109.00,518.50
             109.00,518.50 101.50,506.50 101.50,506.50
             101.50,506.50 92.00,490.67 92.00,490.67
             92.00,490.67 83.33,478.67 83.33,478.67
             83.33,478.67 76.67,461.33 76.67,461.33
             76.67,461.33 67.33,444.00 67.33,444.00
             67.33,444.00 56.00,420.67 56.00,420.67
             56.00,420.67 45.33,393.33 45.33,393.33
             45.33,393.33 34.67,360.00 34.67,360.00
             34.67,360.00 29.33,327.33 29.33,327.33
             29.33,327.33 22.00,287.33 22.00,287.33
             22.00,287.33 23.33,258.67 23.33,258.67
             23.33,258.67 22.00,224.67 22.00,224.67
             22.00,224.67 21.33,194.00 21.33,194.00
             21.33,194.00 22.67,172.00 22.67,172.00
             22.67,172.00 24.00,146.67 24.00,146.67
             24.00,146.67 28.00,126.67 28.00,126.67
             28.00,126.67 33.33,108.67 33.33,108.67
             33.33,108.67 39.33,92.67 39.33,92.67
             39.33,92.67 47.33,80.67 47.33,80.67
             47.33,80.67 55.33,72.67 55.33,72.67
             55.33,72.67 64.67,70.00 64.67,70.00" />
  </g>
</svg>
