<?xml version="1.0" encoding="UTF-8" standalone="no"?>
<!DOCTYPE svg PUBLIC "-//W3C//DTD SVG 20010904//EN"
              "http://www.w3.org/TR/2001/REC-SVG-20010904/DTD/svg10.dtd">

<svg xmlns="http://www.w3.org/2000/svg"
     width="3.63in" height="1.57667in"
     viewBox="0 0 1089 473">
  <path id="Unnamed #30"
        fill="none" stroke="black" stroke-width="1"
        d="M 517.50,226.25
           C 517.50,226.25 513.75,228.75 513.75,228.75
             513.75,228.75 510.25,229.00 510.25,229.00
             510.25,229.00 508.00,229.25 508.00,229.25
             508.00,229.25 504.25,229.25 504.25,229.25
             504.25,229.25 502.25,226.75 502.25,226.75
             502.25,226.75 501.00,225.75 501.00,225.75
             501.00,225.75 499.25,224.50 499.25,224.50
             499.25,224.50 496.00,222.75 496.00,222.75" />
  <path id="Unnamed #29"
        fill="none" stroke="black" stroke-width="1"
        d="M 585.33,184.67
           C 585.33,184.67 591.00,186.67 591.00,186.67
             591.00,186.67 596.33,187.67 596.67,187.67
             597.00,187.67 603.00,188.67 603.00,188.67
             603.00,188.67 609.33,190.00 609.33,190.00
             609.33,190.00 618.33,190.67 618.33,190.67
             618.33,190.67 626.33,190.00 626.33,190.00
             626.33,190.00 629.67,187.00 630.00,187.00
             630.33,187.00 637.00,185.67 637.00,185.67
             637.00,185.67 640.00,183.00 640.00,183.00" />
  <path id="Unnamed #28"
        fill="none" stroke="black" stroke-width="1"
        d="M 677.33,178.33
           C 677.33,178.33 682.00,183.67 682.00,183.67
             682.00,183.67 685.67,188.00 685.67,188.00
             685.67,188.00 691.00,190.67 691.00,191.00
             691.00,191.33 693.67,192.33 694.67,192.33
             695.67,192.33 702.33,193.00 702.33,193.00
             702.33,193.00 710.00,194.33 710.00,194.33
             710.00,194.33 714.67,192.67 715.33,192.33
             716.00,192.00 724.33,190.33 724.33,190.33
             724.33,190.33 727.33,189.33 729.67,189.00
             732.00,188.67 737.33,187.67 737.33,187.67
             737.33,187.67 742.67,184.67 742.67,184.67" />
  <path id="Unnamed #27"
        fill="none" stroke="black" stroke-width="1"
        d="M 698.55,240.18
           C 698.55,240.18 701.82,242.55 701.82,242.55
             701.82,242.55 702.36,243.45 703.45,243.82
             704.55,244.18 705.82,244.55 706.00,244.55
             706.18,244.55 711.45,246.36 711.45,246.36
             711.45,246.36 712.91,246.00 712.91,246.00
             712.91,246.00 715.27,244.55 715.27,244.55" />
  <path id="Unnamed #26"
        fill="none" stroke="black" stroke-width="1"
        d="M 713.64,243.82
           C 713.64,243.64 712.00,236.36 712.36,235.82
             712.73,235.27 712.91,229.64 712.91,229.27
             712.91,228.91 714.36,220.36 714.36,220.36
             714.36,220.36 714.73,214.36 714.73,214.36
             714.73,214.36 717.09,209.64 717.09,209.64
             717.09,209.64 717.82,198.00 717.82,198.00
             717.82,198.00 720.00,193.09 720.00,193.09
             720.00,193.09 720.55,190.18 721.09,188.36
             721.64,186.55 723.82,179.09 723.82,179.09
             723.82,179.09 725.27,170.73 725.27,170.73
             725.27,170.73 725.45,166.36 725.45,166.36" />
  <path id="Unnamed #25"
        fill="none" stroke="black" stroke-width="1"
        d="M 700.00,243.09
           C 700.00,243.09 702.36,238.00 702.36,238.00
             702.36,238.00 700.00,234.36 700.00,234.36
             700.00,234.36 701.64,220.36 701.64,220.36
             701.64,220.36 703.82,212.18 703.82,212.18
             703.82,212.18 704.18,207.64 704.18,207.27
             704.18,206.91 704.00,200.91 704.00,200.91
             704.00,200.91 705.27,195.27 705.27,194.73
             705.27,194.18 705.27,184.73 705.27,184.73
             705.27,184.73 706.55,177.09 706.55,177.09
             706.55,177.09 706.55,174.36 706.55,174.36
             706.55,174.36 706.55,170.18 706.55,170.18
             706.55,170.18 707.09,166.00 707.09,166.00
             707.09,166.00 707.27,161.45 707.27,161.45" />
  <path id="Unnamed #24"
        fill="none" stroke="black" stroke-width="1"
        d="M 710.55,160.73
           C 710.55,160.73 713.27,158.91 714.18,159.09
             715.09,159.27 722.55,158.91 722.55,158.91
             722.55,158.91 723.45,160.73 723.45,160.91
             723.45,161.09 724.73,162.55 724.73,162.73
             724.73,162.91 725.45,165.27 725.45,165.27
             725.45,165.27 723.64,167.09 723.45,167.09
             723.27,167.09 721.64,167.09 721.09,167.27
             720.55,167.45 719.27,167.45 719.09,167.45
             718.91,167.45 714.55,166.73 714.55,166.73
             714.55,166.73 712.91,164.55 712.91,164.55
             712.91,164.55 709.82,163.09 709.82,163.09" />
  <path id="Unnamed #23"
        fill="none" stroke="black" stroke-width="1"
        d="M 692.73,170.55
           C 692.73,170.55 696.55,171.82 696.55,171.82
             696.55,171.82 701.82,172.73 701.82,172.73
             701.82,172.73 701.64,172.73 704.36,173.09
             707.09,173.45 719.45,174.73 719.45,174.73
             719.45,174.73 724.55,173.27 724.55,173.27
             724.55,173.27 730.36,171.64 730.55,171.64
             730.73,171.64 734.18,169.64 734.73,169.27
             735.27,168.91 739.27,168.55 739.27,168.00
             739.27,167.45 739.45,163.82 739.45,163.82
             739.45,163.82 737.82,158.91 737.82,158.91
             737.82,158.91 734.73,156.00 734.73,156.00
             734.73,156.00 730.91,154.36 730.91,154.36
             730.91,154.36 728.55,153.27 728.36,153.27
             728.18,153.27 721.82,152.00 721.82,152.00
             721.82,152.00 716.00,151.45 716.00,151.45
             716.00,151.45 708.55,150.36 708.55,150.36
             708.55,150.36 699.09,150.00 699.09,150.00
             699.09,150.00 696.00,149.82 695.82,150.00
             695.64,150.18 690.73,150.73 690.73,150.73
             690.73,150.73 686.18,152.36 686.00,152.36
             685.82,152.36 683.82,154.18 683.64,154.91
             683.45,155.64 682.55,158.91 682.55,158.91
             682.55,158.91 680.91,164.00 680.73,164.18
             680.55,164.36 683.82,167.27 683.82,167.27
             683.82,167.27 687.64,169.09 687.64,169.09
             687.64,169.09 690.55,170.73 690.55,170.73" />
  <path id="Unnamed #22"
        fill="none" stroke="black" stroke-width="1"
        d="M 741.27,189.27
           C 741.27,189.27 740.18,183.45 740.18,183.45
             740.18,183.45 741.27,176.36 741.27,176.36
             741.27,176.36 741.82,171.82 741.82,171.82
             741.82,171.82 742.18,168.36 742.18,168.18
             742.18,168.00 741.82,164.55 741.82,164.55
             741.82,164.55 741.82,163.27 741.82,163.27" />
  <path id="Unnamed #21"
        fill="none" stroke="black" stroke-width="1"
        d="M 684.36,187.27
           C 684.36,187.27 684.55,182.36 684.55,182.00
             684.55,181.64 685.09,175.27 685.09,175.27
             685.09,175.27 684.91,174.36 684.91,172.91
             684.91,171.45 684.91,166.55 684.91,166.36
             684.91,166.18 684.91,162.00 684.91,161.82
             684.91,161.64 684.91,158.36 684.91,158.36" />
  <path id="Unnamed #20"
        fill="none" stroke="black" stroke-width="1"
        d="M 590.55,157.82
           C 590.55,157.64 594.55,154.36 594.55,154.36
             594.55,154.36 599.64,153.09 599.64,153.09
             599.64,153.09 606.00,152.36 606.00,152.36
             606.00,152.36 608.18,150.55 608.18,150.55
             608.18,150.55 615.64,150.00 615.64,150.00
             615.64,150.00 618.36,149.64 618.73,149.64
             619.09,149.64 623.82,149.64 623.82,149.64
             623.82,149.64 625.82,149.64 625.82,149.64
             625.82,149.64 631.64,151.45 631.64,151.45
             631.64,151.45 634.55,153.45 634.55,153.45
             634.55,153.45 636.91,156.91 636.91,156.91
             636.91,156.91 636.73,158.18 637.09,158.73
             637.45,159.27 637.64,163.45 637.64,163.45
             637.64,163.45 637.45,165.27 637.27,165.27
             637.09,165.27 630.55,169.64 630.55,169.64
             630.55,169.64 628.91,171.45 628.91,171.45
             628.91,171.45 622.55,172.36 622.55,172.36
             622.55,172.36 615.64,172.36 615.27,172.55
             614.91,172.73 610.00,172.55 610.00,172.55
             610.00,172.55 602.73,172.91 602.73,172.91
             602.73,172.91 597.45,172.00 597.45,172.00
             597.45,172.00 593.82,170.36 593.64,170.36
             593.45,170.36 590.18,168.00 590.18,168.00
             590.18,168.00 587.45,164.18 587.45,164.18
             587.45,164.18 585.27,161.27 585.27,161.27
             585.27,161.27 588.18,157.27 588.18,157.27" />
  <path id="Unnamed #19"
        fill="none" stroke="black" stroke-width="1"
        d="M 637.82,185.27
           C 637.82,185.27 639.27,178.18 639.27,178.18
             639.27,178.18 639.64,173.64 639.64,173.64
             639.64,173.64 640.91,169.64 640.91,169.09
             640.91,168.55 641.27,165.27 641.27,165.27
             641.27,165.27 641.27,162.18 641.27,162.18" />
  <path id="Unnamed #18"
        fill="none" stroke="black" stroke-width="1"
        d="M 589.64,185.82
           C 589.64,185.82 590.00,180.91 590.00,180.91
             590.00,180.91 589.45,175.45 589.45,175.45
             589.45,175.45 589.27,173.27 589.27,173.09
             589.27,172.91 588.91,166.00 588.91,166.00" />
  <path id="Unnamed #17"
        fill="none" stroke="black" stroke-width="1"
        d="M 612.73,160.18
           C 612.73,160.18 611.64,158.00 611.64,158.00
             611.64,158.00 613.45,156.18 613.45,156.18
             613.45,156.18 617.45,156.18 617.45,156.18
             617.45,156.18 621.45,155.82 621.45,155.82
             621.45,155.82 624.18,156.36 624.18,156.36
             624.18,156.36 626.55,157.45 626.55,157.82
             626.55,158.18 626.73,161.27 626.73,161.27
             626.73,161.27 621.27,163.27 621.27,163.27
             621.27,163.27 616.18,163.64 616.18,163.64
             616.18,163.64 613.09,162.55 613.09,162.55" />
  <path id="Unnamed #16"
        fill="none" stroke="black" stroke-width="1"
        d="M 599.27,231.09
           C 599.27,231.09 599.82,227.82 599.82,227.82
             599.82,227.82 600.18,223.27 600.18,223.27
             600.18,223.27 601.27,216.91 601.27,216.91
             601.27,216.91 603.82,212.91 603.82,212.91
             603.82,212.91 603.64,207.64 604.00,206.91
             604.36,206.18 606.00,201.45 606.00,201.27
             606.00,201.09 607.09,195.82 607.09,195.64
             607.09,195.45 608.00,192.18 608.00,191.64
             608.00,191.09 608.00,184.36 608.00,184.36
             608.00,184.36 609.27,180.55 609.27,180.55
             609.27,180.55 609.64,172.36 609.64,172.36
             609.64,172.36 609.82,169.82 609.82,169.45
             609.82,169.09 610.00,164.55 610.00,164.55" />
  <path id="Unnamed #15"
        fill="none" stroke="black" stroke-width="1"
        d="M 625.09,160.73
           C 625.09,160.73 624.00,165.09 624.00,165.09
             624.00,165.09 624.00,167.82 624.00,168.00
             624.00,168.18 623.27,170.91 623.27,171.27
             623.27,171.64 623.27,174.55 623.27,174.55
             623.27,174.55 622.73,181.09 622.73,181.09
             622.73,181.09 622.55,186.73 622.55,186.91
             622.55,187.09 622.00,190.36 622.00,190.36
             622.00,190.36 621.45,194.36 621.45,194.36
             621.45,194.36 620.18,201.09 620.18,201.09
             620.18,201.09 620.55,207.27 620.36,207.45
             620.18,207.64 618.18,212.91 618.18,212.91
             618.18,212.91 618.18,216.91 618.18,217.09
             618.18,217.27 617.64,222.36 617.64,222.36
             617.64,222.36 617.27,226.00 617.27,226.00
             617.27,226.00 617.27,227.64 617.27,227.64
             617.27,227.64 615.82,231.09 615.82,231.09" />
  <path id="Unnamed #14"
        fill="none" stroke="black" stroke-width="1"
        d="M 599.82,232.73
           C 599.82,232.73 601.45,234.18 601.45,234.18
             601.45,234.18 603.64,235.82 603.64,235.82
             603.64,235.82 604.91,237.27 604.91,237.27
             604.91,237.27 608.91,239.45 608.91,239.45
             608.91,239.45 611.09,239.09 611.09,239.09
             611.09,239.09 614.55,238.36 614.55,238.36
             614.55,238.36 617.09,236.55 617.09,236.55" />
  <path id="Unnamed #13"
        fill="none" stroke="black" stroke-width="1"
        d="M 480.73,190.36
           C 480.73,190.36 480.73,183.27 480.73,183.27
             480.73,183.27 480.55,180.00 480.73,179.82
             480.91,179.64 482.00,175.27 482.00,175.27
             482.00,175.27 481.82,171.82 481.82,171.82
             481.82,171.82 481.09,169.09 481.09,169.09
             481.09,169.09 481.64,166.18 481.64,166.18" />
  <path id="Unnamed #12"
        fill="none" stroke="black" stroke-width="1"
        d="M 536.91,192.73
           C 536.91,192.73 536.91,189.82 536.91,189.82
             536.91,189.82 536.18,184.73 536.18,184.73
             536.18,184.73 535.82,180.91 535.82,180.73
             535.82,180.55 537.45,173.64 537.45,173.64
             537.45,173.64 537.82,171.27 537.82,171.27
             537.82,171.27 537.45,167.09 537.45,167.09" />
  <path id="Unnamed #11"
        fill="none" stroke="black" stroke-width="1"
        d="M 481.27,189.27
           C 481.27,189.27 488.18,193.27 488.18,193.27
             488.18,193.27 493.27,193.64 493.27,193.64
             493.27,193.64 494.18,193.64 497.64,194.73
             501.09,195.82 511.64,197.27 511.64,197.27
             511.64,197.27 518.73,195.82 518.73,195.82
             518.73,195.82 525.45,195.64 525.45,195.64
             525.45,195.64 531.82,195.09 532.00,195.09
             532.18,195.09 536.36,192.36 536.36,192.36" />
  <path id="Unnamed #10"
        fill="none" stroke="black" stroke-width="1"
        d="M 480.00,167.09
           C 480.00,167.09 482.00,159.45 482.00,159.45
             482.00,159.45 487.45,153.82 487.45,153.82
             487.45,153.82 494.55,152.00 494.55,152.00
             494.55,152.00 501.09,148.91 501.09,148.91
             501.09,148.91 506.00,149.64 506.00,149.64
             506.00,149.64 512.36,150.18 512.36,150.18
             512.36,150.18 517.45,150.73 517.45,150.73
             517.45,150.73 523.64,152.91 523.64,152.91
             523.64,152.91 527.64,154.73 527.64,154.73
             527.64,154.73 532.18,157.09 532.18,157.09
             532.18,157.09 534.55,161.09 534.55,161.09
             534.55,161.09 535.45,162.91 535.45,162.91
             535.45,162.91 536.00,167.64 536.00,167.64
             536.00,167.64 531.45,171.45 531.45,171.45
             531.45,171.45 527.45,174.18 527.45,174.18
             527.45,174.18 521.09,175.09 521.09,175.09
             521.09,175.09 514.91,177.64 514.91,177.64
             514.91,177.64 504.18,176.36 504.18,176.36
             504.18,176.36 498.18,176.18 498.18,176.18
             498.18,176.18 492.73,174.73 492.73,174.73
             492.73,174.73 485.64,172.55 485.64,172.55
             485.64,172.55 481.64,169.64 481.64,169.64
             481.64,169.64 477.82,167.45 477.82,167.45" />
  <path id="Unnamed #9"
        fill="none" stroke="black" stroke-width="1"
        d="M 502.18,157.64
           C 502.18,157.64 504.18,155.64 504.55,155.64
             504.91,155.64 509.09,155.27 509.09,155.27
             509.09,155.27 513.27,155.64 513.27,155.64
             513.27,155.64 516.73,156.73 516.73,156.73
             516.73,156.73 517.82,158.00 517.82,158.00
             517.82,158.00 518.18,160.91 518.18,161.09
             518.18,161.27 515.27,164.00 515.27,164.00
             515.27,164.00 512.55,165.09 512.55,165.09
             512.55,165.09 508.91,164.55 508.91,164.55
             508.91,164.55 507.09,163.45 507.09,163.45
             507.09,163.45 504.73,161.82 504.73,161.82
             504.73,161.82 502.73,159.82 502.73,159.82" />
  <path id="Unnamed #8"
        fill="none" stroke="black" stroke-width="1"
        d="M 514.67,226.00
           C 514.67,226.00 515.33,217.33 515.33,216.67
             515.33,216.00 514.00,202.00 514.00,202.00
             514.00,202.00 518.00,188.00 518.00,188.00
             518.00,188.00 518.67,180.00 518.67,180.00
             518.67,180.00 519.33,169.33 519.33,169.33
             519.33,169.33 520.00,160.67 520.00,160.67" />
  <path id="Unnamed #7"
        fill="none" stroke="black" stroke-width="1"
        d="M 496.00,222.00
           C 496.00,222.00 497.33,204.67 497.33,204.67
             497.33,204.67 503.33,190.00 503.33,190.00
             503.33,190.00 502.00,177.33 502.00,177.33
             502.00,177.33 503.33,161.33 503.33,161.33" />
  <path id="Unnamed #6"
        fill="none" stroke="black" stroke-width="1"
        d="M 114.67,351.33
           C 124.00,348.67 138.67,344.00 138.67,344.00
             138.67,344.00 151.33,334.00 151.33,334.00
             151.33,334.00 160.67,319.33 161.33,318.67
             162.00,318.00 175.33,290.67 175.33,290.67
             175.33,290.67 182.67,274.00 182.67,274.00
             182.67,274.00 188.00,252.67 188.00,252.67
             188.00,252.67 191.33,235.33 191.33,235.33
             191.33,235.33 190.00,214.00 190.00,214.00
             190.00,214.00 186.67,198.00 186.67,198.00
             186.67,198.00 181.33,181.33 181.33,181.33
             181.33,181.33 178.00,162.67 178.00,162.67
             178.00,162.67 173.33,146.00 173.33,146.00
             173.33,146.00 168.00,133.33 168.00,133.33
             168.00,133.33 156.00,122.67 156.00,122.67
             156.00,122.67 147.33,112.67 147.33,112.67
             147.33,112.67 136.67,102.00 136.67,102.00
             136.67,102.00 118.00,96.00 118.00,96.00
             118.00,96.00 92.00,104.00 92.00,104.00
             92.00,104.00 74.67,110.00 74.67,110.00
             74.67,110.00 66.67,122.00 66.67,122.00
             66.67,122.00 60.00,133.33 60.00,133.33
             60.00,133.33 51.33,153.33 51.33,153.33
             51.33,153.33 45.33,174.67 45.33,174.67
             45.33,174.67 38.67,198.67 38.67,198.67
             38.67,198.67 36.67,217.33 36.67,217.33
             36.67,217.33 36.67,230.00 36.67,231.33
             36.67,232.67 37.33,246.00 37.33,246.00
             37.33,246.00 39.33,262.67 39.33,262.67
             39.33,262.67 40.67,282.67 40.67,282.67
             40.67,282.67 45.33,302.00 45.33,302.00
             45.33,302.00 47.33,314.00 47.33,314.00
             47.33,314.00 53.33,331.33 53.33,331.33
             53.33,331.33 63.33,340.67 63.33,340.67
             63.33,340.67 73.33,348.00 73.33,348.00
             73.33,348.00 86.67,352.00 86.67,352.00
             86.67,352.00 99.33,357.33 99.33,357.33
             99.33,357.33 118.00,350.67 118.00,350.67" />
  <path id="Unnamed #5"
        fill="none" stroke="black" stroke-width="1"
        d="M 157.33,114.67
           C 157.33,114.67 171.33,122.67 171.33,122.67
             171.33,122.67 190.00,123.33 190.67,125.33
             191.33,127.33 208.67,133.33 208.67,133.33
             208.67,133.33 244.67,148.00 244.67,148.00
             244.67,148.00 268.00,154.67 268.00,154.67
             268.00,154.67 295.33,164.00 295.33,164.00
             295.33,164.00 310.00,167.33 310.00,167.33
             310.00,167.33 329.33,172.67 329.33,172.67
             329.33,172.67 340.00,176.00 340.00,176.00
             340.00,176.00 354.67,178.00 354.67,178.00
             354.67,178.00 371.33,183.33 371.33,183.33
             371.33,183.33 403.33,192.00 403.33,192.00
             403.33,192.00 414.00,194.67 414.67,194.67
             415.33,194.67 431.33,198.67 431.33,198.67
             431.33,198.67 455.33,202.67 455.33,202.67
             455.33,202.67 467.33,204.67 467.33,204.67
             467.33,204.67 486.67,207.33 486.67,207.33
             486.67,207.33 516.67,212.67 516.67,212.67
             516.67,212.67 546.67,218.00 546.67,218.00
             546.67,218.00 566.67,217.33 566.67,217.33
             566.67,217.33 578.67,219.33 579.33,219.33
             580.00,219.33 596.00,220.67 596.00,220.67
             596.00,220.67 614.00,224.00 614.00,224.00
             614.00,224.00 636.67,224.67 636.67,224.67
             636.67,224.67 658.00,228.00 658.00,228.00
             658.00,228.00 676.00,228.67 676.00,228.67
             676.00,228.67 686.67,228.67 686.67,228.67
             686.67,228.67 708.67,232.67 708.67,232.67
             708.67,232.67 724.00,232.67 724.00,232.67
             724.00,232.67 743.33,236.00 743.33,236.00
             743.33,236.00 760.00,237.33 760.00,237.33
             760.00,237.33 778.67,241.33 778.67,241.33
             778.67,241.33 794.00,243.33 794.00,243.33
             794.00,243.33 805.33,244.00 805.33,244.00
             805.33,244.00 816.67,240.67 816.67,240.67
             816.67,240.67 833.33,242.00 833.33,242.00
             833.33,242.00 850.67,243.33 850.67,243.33
             850.67,243.33 870.67,246.67 870.67,246.67
             870.67,246.67 887.33,247.33 887.33,247.33" />
  <path id="Unnamed #4"
        fill="none" stroke="black" stroke-width="1"
        d="M 129.33,356.67
           C 129.33,356.67 144.67,349.33 144.67,349.33
             144.67,349.33 160.67,346.67 160.67,346.67
             160.67,346.67 182.67,335.33 182.67,335.33
             182.67,335.33 199.33,330.67 199.33,330.67
             199.33,330.67 221.33,326.00 221.33,326.00
             221.33,326.00 246.00,321.33 246.00,321.33
             246.00,321.33 266.67,315.33 266.67,315.33
             266.67,315.33 286.00,312.67 286.00,312.67
             286.00,312.67 304.00,308.67 304.00,308.67
             304.00,308.67 321.33,306.67 321.33,306.67
             321.33,306.67 339.33,304.67 339.33,304.67
             339.33,304.67 357.33,300.67 357.33,300.67
             357.33,300.67 383.33,298.00 383.33,298.00
             383.33,298.00 395.33,295.33 395.33,295.33
             395.33,295.33 420.67,295.33 420.67,295.33
             420.67,295.33 446.00,291.33 446.00,291.33
             446.00,291.33 470.67,290.67 470.67,290.67
             470.67,290.67 490.67,290.00 490.67,290.00
             490.67,290.00 513.33,289.33 513.33,289.33
             513.33,289.33 553.33,292.67 553.33,292.67
             553.33,292.67 586.67,295.33 586.67,295.33
             586.67,295.33 609.33,297.33 609.33,297.33
             609.33,297.33 624.00,297.33 624.00,297.33
             624.00,297.33 654.67,300.00 654.67,300.00
             654.67,300.00 684.00,304.00 684.00,304.00
             684.00,304.00 722.67,306.00 722.67,306.00
             722.67,306.00 742.67,305.33 742.67,305.33
             742.67,305.33 756.67,306.00 756.67,306.00
             756.67,306.00 774.00,302.00 775.33,302.00
             776.67,302.00 796.67,302.00 796.67,302.00
             796.67,302.00 811.33,300.00 811.33,300.00
             811.33,300.00 832.00,299.33 832.00,299.33
             832.00,299.33 848.00,300.00 848.67,300.00
             849.33,300.00 862.00,301.33 862.00,301.33
             862.00,301.33 878.00,300.00 878.00,300.00" />
  <path id="Unnamed #3"
        fill="none" stroke="black" stroke-width="1"
        d="M 887.50,248.00
           C 887.50,248.00 890.50,257.00 890.50,257.00
             890.50,257.00 893.00,265.00 893.00,265.00
             893.00,265.00 892.50,274.00 892.50,274.00
             892.50,274.00 894.00,279.50 894.00,279.50
             894.00,279.50 892.00,287.50 892.00,287.50
             892.00,287.50 889.00,293.00 889.00,293.00
             889.00,293.00 886.50,296.50 886.50,296.50
             886.50,296.50 883.00,301.50 883.00,301.50" />
  <path id="Unnamed #2"
        fill="none" stroke="black" stroke-width="1"
        d="M 920.00,229.50
           C 920.00,229.50 923.50,234.00 924.00,234.50
             924.50,235.00 926.00,240.50 926.00,240.50
             926.00,240.50 928.50,246.00 929.00,246.00
             929.50,246.00 934.00,252.00 934.00,252.00
             934.00,252.00 934.00,257.50 934.00,258.00
             934.00,258.50 936.00,266.00 936.00,267.00
             936.00,268.00 936.50,274.00 936.50,274.00
             936.50,274.00 936.50,282.00 936.50,282.50
             936.50,283.00 934.50,292.50 934.50,292.50
             934.50,292.50 933.00,303.50 933.00,303.50
             933.00,303.50 929.00,311.50 929.00,311.50
             929.00,311.50 924.50,314.50 924.50,314.50
             924.50,314.50 922.50,320.50 922.50,320.50
             922.50,320.50 915.00,325.50 915.00,325.50" />
  <path id="Unnamed #1"
        fill="none" stroke="black" stroke-width="1"
        d="M 885.00,300.00
           C 885.00,300.00 895.00,303.00 895.00,303.00
             895.00,303.00 904.00,308.00 904.00,308.00
             904.00,308.00 908.00,319.00 908.00,319.00
             908.00,319.00 913.00,326.00 913.00,326.00" />
  <path id="Unnamed"
        fill="none" stroke="black" stroke-width="1"
        d="M 891.00,248.00
           C 891.00,248.00 903.00,243.00 903.00,243.00
             903.00,243.00 912.00,239.00 912.00,239.00
             912.00,239.00 917.00,231.00 917.00,231.00" />
</svg>
