<?xml version="1.0" encoding="UTF-8" standalone="no"?>
<!DOCTYPE svg PUBLIC "-//W3C//DTD SVG 20010904//EN"
              "http://www.w3.org/TR/2001/REC-SVG-20010904/DTD/svg10.dtd">

<svg xmlns="http://www.w3.org/2000/svg"
     width="21.3333in" height="28.4444in"
     viewBox="0 0 1536 2048">
  <path id="Unnamed#9"
        fill="none" stroke="black" stroke-width="1"
        d="M 621.33,570.67
           C 622.00,570.67 622.00,560.00 622.00,560.00
             622.00,560.00 624.00,547.33 624.00,547.33
             624.00,547.33 629.33,538.67 629.33,538.67
             629.33,538.67 639.33,530.67 639.33,530.67
             639.33,530.67 656.00,525.33 656.00,525.33
             656.00,525.33 671.33,519.33 671.33,519.33
             671.33,519.33 688.67,516.00 688.67,516.00M 701.33,512.00
           C 701.33,512.00 716.67,510.67 716.67,510.67
             716.67,510.67 732.00,507.33 732.00,507.33
             732.00,507.33 746.67,506.67 746.67,506.67
             746.67,506.67 759.33,505.33 759.33,505.33
             759.33,505.33 775.33,504.00 775.33,504.00
             775.33,504.00 789.33,504.00 789.33,504.00
             789.33,504.00 800.00,504.67 800.00,504.67
             800.00,504.67 814.67,504.67 814.67,505.33
             814.67,506.00 829.33,508.67 829.33,508.67
             829.33,508.67 843.33,511.33 843.33,511.33
             843.33,511.33 856.00,513.33 856.00,513.33
             856.00,513.33 868.00,518.00 868.00,518.00
             868.00,518.00 878.00,523.33 878.00,523.33
             878.00,523.33 887.33,531.33 887.33,531.33
             887.33,531.33 892.67,538.67 892.67,538.67
             892.67,538.67 892.67,546.00 892.67,546.00
             892.67,546.00 894.67,554.67 894.67,554.67
             894.67,554.67 889.33,560.67 889.33,560.67
             889.33,560.67 885.33,568.67 884.67,569.33
             884.00,570.00 878.00,574.00 878.00,574.00
             878.00,574.00 867.33,580.00 867.33,580.00
             867.33,580.00 856.00,588.00 856.00,588.00
             856.00,588.00 845.33,592.00 845.33,592.00
             845.33,592.00 834.00,598.67 834.00,598.67
             834.00,598.67 820.67,602.67 820.67,602.67
             820.67,602.67 810.00,604.00 810.00,604.00
             810.00,604.00 798.67,609.33 798.67,609.33
             798.67,609.33 786.00,612.00 786.00,612.00
             786.00,612.00 768.00,615.33 768.00,615.33
             768.00,615.33 754.00,616.67 754.00,616.67
             754.00,616.67 742.67,617.33 742.67,617.33
             742.67,617.33 730.00,618.67 730.00,618.67
             730.00,618.67 713.33,619.33 713.33,619.33
             713.33,619.33 700.00,619.33 700.00,619.33
             700.00,619.33 680.00,618.00 680.00,618.00
             680.00,618.00 664.67,613.33 664.67,613.33
             664.67,613.33 650.67,607.33 650.67,607.33
             650.67,607.33 638.00,598.00 638.00,598.00
             638.00,598.00 632.67,589.33 632.67,589.33
             632.67,589.33 625.33,580.67 625.33,580.67
             625.33,580.67 620.67,572.00 620.67,572.00" />
  <path id="Unnamed#8"
        fill="none" stroke="black" stroke-width="1"
        d="M 774.67,1271.33
           C 774.67,1271.33 773.33,1257.33 773.33,1257.33
             773.33,1257.33 770.00,1240.00 770.00,1240.00
             770.00,1240.00 766.67,1227.33 766.67,1227.33
             766.67,1227.33 757.33,1216.67 757.33,1216.67
             757.33,1216.67 748.67,1206.00 748.67,1206.00
             748.67,1206.00 738.00,1196.67 738.00,1196.67
             738.00,1196.67 727.33,1192.67 727.33,1192.67
             727.33,1192.67 712.00,1183.33 712.00,1183.33
             712.00,1183.33 694.67,1178.00 694.67,1178.00
             694.67,1178.00 680.00,1170.00 680.00,1170.00
             680.00,1170.00 665.33,1165.33 665.33,1165.33
             665.33,1165.33 649.33,1160.67 649.33,1160.67
             649.33,1160.67 638.00,1154.00 638.00,1154.00
             638.00,1154.00 623.33,1146.00 623.33,1146.00
             623.33,1146.00 609.33,1135.33 609.33,1135.33
             609.33,1135.33 595.33,1121.33 595.33,1121.33
             595.33,1121.33 584.00,1110.00 584.00,1110.00
             584.00,1110.00 572.67,1092.00 572.67,1092.00
             572.67,1092.00 562.67,1071.33 562.67,1071.33
             562.67,1071.33 555.33,1050.67 555.33,1050.67
             555.33,1050.67 551.33,1032.67 551.33,1032.67
             551.33,1032.67 548.67,1018.67 548.67,1018.67
             548.67,1018.67 544.67,1000.67 544.67,1000.00
             544.67,999.33 544.67,977.33 544.67,977.33
             544.67,977.33 548.00,958.00 548.00,958.00
             548.00,958.00 554.67,936.67 554.67,936.67
             554.67,936.67 564.00,920.67 564.00,920.67
             564.00,920.67 572.67,907.33 572.67,907.33
             572.67,907.33 583.33,891.33 583.33,891.33
             583.33,891.33 595.33,880.67 595.33,880.67
             595.33,880.67 606.67,871.33 606.67,871.33
             606.67,871.33 622.00,858.00 622.00,858.00
             622.00,858.00 634.67,848.00 634.67,848.00
             634.67,848.00 646.67,836.00 646.67,836.00
             646.67,836.00 657.33,820.00 657.33,820.00
             657.33,820.00 666.00,801.33 666.00,801.33
             666.00,801.33 670.00,785.33 670.00,785.33
             670.00,785.33 672.00,762.00 672.00,762.00
             672.00,762.00 670.00,742.67 670.00,742.67
             670.00,742.67 669.33,724.00 669.33,724.00
             669.33,724.00 668.00,705.33 668.00,705.33
             668.00,705.33 661.33,682.67 661.33,682.67
             661.33,682.67 657.33,661.33 657.33,661.33
             657.33,661.33 650.00,642.67 650.00,642.67
             650.00,642.67 644.00,627.33 644.00,627.33
             644.00,627.33 636.00,611.33 636.00,611.33
             636.00,611.33 630.00,600.00 630.00,600.00
             630.00,600.00 625.33,586.00 625.33,586.00
             625.33,586.00 621.33,575.33 621.33,575.33" />
  <path id="Unnamed#7"
        fill="none" stroke="black" stroke-width="1"
        d="M 895.33,558.67
           C 895.33,558.67 890.00,574.67 890.00,574.67
             890.00,574.67 886.00,586.00 886.00,586.00
             886.00,586.00 883.33,600.67 883.33,600.67
             883.33,600.67 882.00,615.33 882.00,615.33
             882.00,615.33 879.33,636.00 879.33,636.00
             879.33,636.00 876.67,656.00 876.67,656.00
             876.67,656.00 876.67,674.67 876.67,674.67
             876.67,674.67 876.00,693.33 876.00,693.33
             876.00,693.33 877.33,706.00 877.33,706.00
             877.33,706.00 881.33,720.67 881.33,720.67
             881.33,720.67 890.00,738.67 890.00,738.67
             890.00,738.67 900.67,753.33 900.67,753.33
             900.67,753.33 915.33,766.67 915.33,766.67
             915.33,766.67 928.67,776.00 928.67,776.00
             928.67,776.00 942.67,784.67 942.67,784.67
             942.67,784.67 956.00,792.00 956.00,792.00
             956.00,792.00 968.67,801.33 968.67,801.33
             968.67,801.33 984.00,811.33 984.00,811.33
             984.00,811.33 998.67,822.00 998.67,822.00
             998.67,822.00 1010.00,834.00 1010.00,834.00
             1010.00,834.00 1022.00,846.67 1022.00,846.67
             1022.00,846.67 1031.33,864.00 1031.33,864.00
             1031.33,864.00 1039.33,876.67 1039.33,876.67
             1039.33,876.67 1045.33,890.67 1045.33,890.67
             1045.33,890.67 1050.67,906.67 1050.67,906.67
             1050.67,906.67 1054.67,920.00 1054.67,920.00
             1054.67,920.00 1056.00,934.00 1056.00,934.00
             1056.00,934.00 1056.00,952.00 1056.00,952.00
             1056.00,952.00 1052.00,971.33 1052.00,971.33
             1052.00,971.33 1050.00,985.33 1050.00,985.33
             1050.00,985.33 1046.67,1001.33 1046.67,1001.33
             1046.67,1001.33 1042.00,1018.00 1042.00,1018.00
             1042.00,1018.00 1036.67,1033.33 1036.67,1033.33
             1036.67,1033.33 1029.33,1044.00 1029.33,1044.00
             1029.33,1044.00 1018.67,1055.33 1018.67,1055.33
             1018.67,1055.33 1008.00,1067.33 1008.00,1067.33
             1008.00,1067.33 994.00,1078.00 994.00,1078.00
             994.00,1078.00 979.33,1086.00 979.33,1086.00
             979.33,1086.00 966.00,1098.00 966.00,1098.00
             966.00,1098.00 946.00,1108.67 946.00,1108.67
             946.00,1108.67 928.67,1118.00 928.67,1118.00
             928.67,1118.00 913.33,1126.67 913.33,1126.67
             913.33,1126.67 896.67,1138.00 896.67,1138.00
             896.67,1138.00 888.67,1154.00 888.67,1154.00
             888.67,1154.00 880.00,1166.67 880.00,1166.67
             880.00,1166.67 872.00,1182.67 872.00,1182.67
             872.00,1182.67 862.00,1198.67 862.00,1198.67
             862.00,1198.67 855.33,1220.00 855.33,1220.00
             855.33,1220.00 852.00,1238.67 852.67,1238.67
             853.33,1238.67 856.00,1272.00 856.00,1272.00
             856.00,1272.00 855.00,1260.00 855.00,1260.00" />
  <path id="Unnamed#6"
        fill="none" stroke="black" stroke-width="1"
        d="M 774.00,1277.33
           C 774.00,1277.33 780.67,1279.33 780.67,1280.00
             780.67,1280.67 792.67,1284.67 792.67,1284.67
             792.67,1284.67 800.67,1286.67 800.67,1286.67
             800.67,1286.67 808.67,1286.67 808.67,1286.67
             808.67,1286.67 820.00,1285.33 820.00,1285.33
             820.00,1285.33 830.67,1284.67 830.67,1284.67
             830.67,1284.67 840.18,1281.82 840.18,1281.82
             840.18,1281.82 846.91,1278.73 846.91,1278.73
             846.91,1278.73 856.67,1275.33 856.67,1275.33" />
  <path id="Unnamed#5"
        fill="none" stroke="black" stroke-width="1"
        d="M 493.33,1675.33
           C 493.33,1675.33 507.33,1672.67 507.33,1672.67
             507.33,1672.67 528.00,1672.00 528.00,1672.00
             528.00,1672.00 548.67,1670.67 548.67,1670.67
             548.67,1670.67 564.67,1666.67 564.67,1666.67
             564.67,1666.67 581.33,1665.33 581.33,1665.33
             581.33,1665.33 600.00,1662.67 600.00,1662.67
             600.00,1662.67 617.33,1656.67 617.33,1656.67
             617.33,1656.67 634.67,1652.67 634.67,1652.67
             634.67,1652.67 654.00,1648.00 654.00,1648.00
             654.00,1648.00 676.67,1639.33 676.67,1639.33
             676.67,1639.33 695.33,1634.67 695.33,1634.67
             695.33,1634.67 711.33,1626.00 711.33,1626.00
             711.33,1626.00 724.67,1620.67 724.67,1620.67
             724.67,1620.67 742.67,1613.33 742.67,1613.33
             742.67,1613.33 762.67,1605.33 762.67,1605.33
             762.67,1605.33 782.00,1596.67 782.00,1596.67
             782.00,1596.67 796.00,1590.00 796.00,1590.00
             796.00,1590.00 814.67,1582.00 814.67,1582.00
             814.67,1582.00 830.67,1572.00 830.67,1572.00
             830.67,1572.00 844.00,1557.33 844.00,1557.33
             844.00,1557.33 854.67,1539.33 854.67,1539.33
             854.67,1539.33 860.00,1519.33 860.00,1519.33
             860.00,1519.33 862.00,1493.33 862.00,1493.33
             862.00,1493.33 860.67,1461.33 860.67,1461.33
             860.67,1461.33 859.33,1430.67 859.33,1430.67
             859.33,1430.67 860.00,1410.00 860.00,1410.00
             860.00,1410.00 859.33,1390.67 859.33,1390.67
             859.33,1390.67 861.33,1369.33 861.33,1369.33
             861.33,1369.33 861.33,1350.00 861.33,1350.00
             861.33,1350.00 860.67,1330.67 860.67,1330.67
             860.67,1330.67 860.67,1312.67 860.67,1312.67
             860.67,1312.67 858.00,1296.67 858.00,1296.67
             858.00,1296.67 856.00,1274.00 856.00,1274.00" />
  <path id="Unnamed#4"
        fill="none" stroke="black" stroke-width="1"
        d="M 488.67,1620.00
           C 488.67,1620.00 508.00,1619.33 508.00,1619.33
             508.00,1619.33 526.67,1619.33 526.67,1619.33
             526.67,1619.33 548.00,1615.33 548.00,1615.33
             548.00,1615.33 571.33,1611.33 571.33,1611.33
             571.33,1611.33 590.00,1607.33 590.00,1607.33
             590.00,1607.33 606.00,1604.67 607.33,1604.67
             608.67,1604.67 626.67,1600.00 626.67,1600.00
             626.67,1600.00 654.00,1592.67 654.00,1592.67
             654.00,1592.67 675.33,1586.00 675.33,1586.00
             675.33,1586.00 692.00,1580.00 692.00,1580.00
             692.00,1580.00 704.67,1572.67 704.67,1572.67
             704.67,1572.67 720.67,1564.00 720.67,1564.00
             720.67,1564.00 734.00,1552.00 734.00,1552.00
             734.00,1552.00 743.33,1538.00 743.33,1538.00
             743.33,1538.00 750.00,1519.33 750.00,1519.33
             750.00,1519.33 755.33,1498.00 755.33,1498.00
             755.33,1498.00 758.00,1478.67 758.00,1478.67
             758.00,1478.67 760.00,1455.33 760.00,1455.33
             760.00,1455.33 762.67,1428.00 762.67,1428.00
             762.67,1428.00 765.33,1405.33 765.33,1405.33
             765.33,1405.33 767.33,1380.67 767.33,1380.67
             767.33,1380.67 770.00,1358.00 770.00,1358.00
             770.00,1358.00 772.67,1334.67 772.67,1334.67
             772.67,1334.67 772.00,1316.67 772.00,1316.67
             772.00,1316.67 772.67,1296.67 772.67,1296.67
             772.67,1296.67 774.67,1277.33 774.67,1277.33" />
  <path id="Unnamed#3"
        fill="none" stroke="black" stroke-width="1"
        d="M 488.00,1618.50
           C 488.00,1618.50 483.00,1624.50 483.00,1624.50
             483.00,1624.50 481.00,1631.00 481.00,1631.00
             481.00,1631.00 480.50,1638.00 480.00,1638.50
             479.50,1639.00 479.50,1645.50 479.50,1645.50
             479.50,1645.50 480.00,1652.50 480.00,1652.50
             480.00,1652.50 481.00,1657.00 481.00,1657.00
             481.00,1657.00 484.00,1663.00 484.00,1663.00
             484.00,1663.00 487.50,1667.50 487.50,1667.50
             487.50,1667.50 490.00,1672.50 490.00,1672.50
             490.00,1672.50 493.50,1677.00 493.50,1677.00" />
  <path id="Unnamed#2"
        fill="none" stroke="black" stroke-width="1"
        d="M 369.00,1782.00
           C 369.00,1782.00 385.50,1780.50 385.50,1780.50
             385.50,1780.50 402.00,1776.00 402.00,1776.00
             402.00,1776.00 412.50,1774.50 412.50,1774.50
             412.50,1774.50 420.00,1761.00 420.00,1761.00
             420.00,1761.00 430.50,1746.00 430.50,1746.00
             430.50,1746.00 439.50,1729.50 439.50,1729.50
             439.50,1729.50 450.00,1714.50 450.00,1714.50
             450.00,1714.50 462.00,1701.00 462.00,1701.00
             462.00,1701.00 469.50,1695.00 469.50,1695.00
             469.50,1695.00 476.50,1691.00 476.50,1691.00
             476.50,1691.00 483.00,1685.00 483.00,1685.00
             483.00,1685.00 491.50,1681.00 491.50,1681.00
             491.50,1681.00 495.00,1678.50 495.00,1678.50" />
  <path id="Unnamed#1"
        fill="none" stroke="black" stroke-width="1"
        d="M 360.00,1519.50
           C 360.00,1519.50 375.00,1518.00 375.00,1518.00
             375.00,1518.00 391.50,1518.00 391.50,1518.00
             391.50,1518.00 403.50,1522.50 403.50,1522.50
             403.50,1522.50 415.50,1531.50 415.50,1531.50
             415.50,1531.50 426.00,1548.00 426.00,1548.00
             426.00,1548.00 439.50,1563.00 439.50,1563.00
             439.50,1563.00 445.50,1573.50 445.50,1573.50
             445.50,1573.50 454.50,1593.00 454.50,1593.00
             454.50,1593.00 468.00,1603.50 468.00,1603.50
             468.00,1603.50 477.00,1609.50 477.00,1609.50
             477.00,1609.50 486.00,1615.50 486.00,1615.50" />
  <path id="Unnamed"
        fill="none" stroke="black" stroke-width="1"
        d="M 357.00,1516.50
           C 357.00,1516.50 343.50,1537.50 343.50,1537.50
             343.50,1537.50 333.00,1560.00 333.00,1560.00
             333.00,1560.00 327.00,1588.50 327.00,1588.50
             327.00,1588.50 321.00,1623.00 321.00,1623.00
             321.00,1623.00 324.00,1645.50 324.00,1645.50
             324.00,1645.50 325.50,1668.00 325.50,1668.00
             325.50,1668.00 333.00,1704.00 333.00,1704.00
             333.00,1704.00 343.50,1737.00 343.50,1737.00
             343.50,1737.00 354.00,1761.00 354.00,1761.00
             354.00,1761.00 367.50,1780.50 367.50,1780.50" />
</svg>
